<?xml version="1.0" encoding="utf-8"?>
<!-- Generator: Adobe Illustrator 17.0.0, SVG Export Plug-In . SVG Version: 6.00 Build 0)  -->
<!DOCTYPE svg PUBLIC "-//W3C//DTD SVG 1.1//EN" "http://www.w3.org/Graphics/SVG/1.1/DTD/svg11.dtd">
<svg version="1.1" id="Livello_1" xmlns="http://www.w3.org/2000/svg" xmlns:xlink="http://www.w3.org/1999/xlink" x="0px" y="0px"
	 width="76.848px" height="98.332px" viewBox="0 0 76.848 98.332" enable-background="new 0 0 76.848 98.332" xml:space="preserve">
<g>
	<g>
		<path fill="#1D1D1C" d="M39.956,52.744c-1.705-5.076-2.555-12.539-2.555-22.395c0-9.754,0.938-17.069,2.823-21.946
			c1.883-4.878,4.842-7.316,8.875-7.316c4.75,0,8.067,3.583,9.95,10.75c1.164,4.478,1.746,11.096,1.746,19.854
			c0,9.557-0.76,16.423-2.285,20.602c-1.973,5.376-5.468,8.063-10.488,8.063C44.346,60.356,41.657,57.821,39.956,52.744
			 M32.913,89.249c0.452,0.098,0.951,0.147,1.495,0.147c1.811,0,3.286-0.663,4.421-1.989c1.133-1.327,1.701-3.12,1.701-5.382
			c0-2.162-0.674-3.931-2.023-5.307c-1.346-1.377-3.007-2.065-4.984-2.065c-0.899,0-1.841,0.148-2.83,0.446
			c-2.965,0.893-4.446,3.525-4.446,7.894c0,3.971,1.405,7.397,4.218,10.275c3.263,3.376,7.841,5.063,13.738,5.063
			c10.425,0,18.679-5.608,24.754-16.828c5.261-9.729,7.891-21.593,7.891-35.592c0-14.197-2.427-25.441-7.277-33.731
			C64.716,3.893,58.03-0.254,49.506-0.254c-8.344,0-15.051,2.979-20.13,8.936c-5.081,5.957-7.617,14.098-7.617,24.422
			c0,9.036,2.168,16.283,6.505,21.742c4.337,5.462,9.623,8.191,15.86,8.191c4.792,0,8.54-1.18,11.25-3.539
			c2.26-1.869,4.113-4.916,5.558-9.144c0,11.126-0.272,19.818-0.815,26.075c-0.544,6.259-2.199,11.25-4.965,14.976
			c-2.767,3.725-6.237,5.586-10.406,5.586c-4.082,0-7.3-0.977-9.659-2.934c-1.269-1.131-2.446-2.881-3.535-5.249
			C32.004,89.002,32.457,89.151,32.913,89.249"/>
	</g>
	<g>
		<path fill="#1D1D1C" d="M24.42,73.634l-5.243-6.337v6.337H17.98v-9.69l5.248,6.237v-6.237h1.192V73.634z"/>
	</g>
	<g>
		<path fill="#1D1D1C" d="M26.55,67.509c-0.373-0.408-0.564-0.9-0.564-1.472c0-0.577,0.192-1.064,0.564-1.467
			c0.374-0.413,0.82-0.617,1.343-0.617c0.528,0,0.974,0.204,1.347,0.617c0.374,0.403,0.56,0.891,0.56,1.467
			c0,0.572-0.186,1.064-0.56,1.472c-0.373,0.408-0.819,0.612-1.347,0.612C27.37,68.121,26.924,67.917,26.55,67.509z M27.188,65.266
			c-0.192,0.213-0.289,0.47-0.289,0.772c0,0.297,0.097,0.554,0.289,0.771c0.198,0.213,0.434,0.319,0.706,0.319
			c0.275,0,0.511-0.106,0.706-0.319c0.195-0.217,0.292-0.474,0.292-0.771c0-0.302-0.097-0.559-0.292-0.772
			c-0.195-0.213-0.43-0.319-0.706-0.319C27.621,64.946,27.386,65.053,27.188,65.266z"/>
	</g>
	<ellipse fill="none" stroke="#1D1D1C" stroke-width="0.44" cx="7.843" cy="8.586" rx="7.841" ry="8.586"/>
	<path fill="#1D1D1C" d="M12.304,11.728c0-0.181-0.059-0.334-0.174-0.459c-0.115-0.128-0.253-0.193-0.415-0.193
		c-0.168,0-0.308,0.065-0.423,0.193c-0.117,0.125-0.178,0.278-0.178,0.459c0,0.178,0.061,0.331,0.178,0.459
		c0.115,0.128,0.255,0.191,0.423,0.191c0.161,0,0.299-0.063,0.415-0.191C12.245,12.059,12.304,11.906,12.304,11.728 M12.421,5.762
		V4.717h-4.08v7.661h0.957V10.37h1.498V9.32H9.298V5.762H12.421z"/>
	<polygon fill="#1D1D1C" points="3.265,5.772 3.265,4.717 7.353,4.717 7.353,12.454 6.383,12.454 6.383,5.772 	"/>
</g>
</svg>
