<svg version="1.1" id="Livello_1" xmlns="http://www.w3.org/2000/svg" x="0" y="0" width="108.505" height="89.028" viewBox="0 0 108.505 89.028" xml:space="preserve"><path fill="#000" d="M6.69 62.108c.11.083.19.26.24.534.025.123.07.182.14.178.084-.007.124-.068.12-.184a3.75 3.75 0 0 0-.034-.28 3.018 3.018 0 0 1-.03-.495c0-.223-.02-.36-.065-.406-.042-.045-.17-.068-.382-.068H.473c-.13 0-.217.028-.257.083-.04.055-.06.17-.06.347 0 .18-.03.408-.087.683a2.47 2.47 0 0 0-.07.44c0 .1.034.153.103.156.07.004.12-.07.155-.22.076-.345.184-.58.325-.705.14-.123.366-.186.677-.186h1.53c.145 0 .238.02.28.058.04.04.06.128.06.266l.005.15v5.72c0 .322-.052.547-.156.67-.106.126-.305.208-.6.246-.128.016-.19.052-.19.112 0 .083.056.123.172.123.038 0 .167-.01.387-.035a3.94 3.94 0 0 1 .41-.017l.45-.006.42.006c.273 0 .447.005.52.017.142.023.236.034.283.034.108 0 .162-.043.162-.124 0-.064-.068-.107-.202-.13-.484-.085-.735-.352-.754-.802l-.008-.222v-5.655c0-.18.023-.294.067-.34.042-.046.15-.07.32-.07h1.62c.32 0 .537.04.65.123zm5.57 4.183c.046.035.11.157.19.37l.288.76c.234.61.35 1.015.35 1.22 0 .223-.095.354-.287.393l-.177.04c-.096.02-.144.058-.144.118 0 .08.05.12.15.12.037 0 .097-.008.18-.024.132-.023.466-.034 1-.034.51 0 .866.01 1.066.03.11.007.185.01.22.01.102 0 .156-.03.16-.095.003-.072-.054-.118-.173-.14-.365-.066-.607-.156-.726-.27-.12-.113-.27-.402-.45-.868l-.126-.31-2.476-6.35c-.043-.11-.094-.167-.156-.167-.06 0-.117.057-.167.173l-2.96 6.578-.166.38a2.582 2.582 0 0 1-.323.51c-.13.165-.233.257-.31.28l-.213.064c-.065.02-.098.06-.098.124 0 .072.05.107.154.107.02 0 .126-.01.32-.033a3.34 3.34 0 0 1 .26-.008c.24 0 .453.003.637.012l.553.032c.088.004.153.006.195.006.11 0 .164-.032.16-.096-.003-.067-.063-.112-.178-.135-.266-.057-.444-.128-.534-.208-.09-.08-.136-.212-.136-.392 0-.19.086-.477.256-.866l.378-.85c.116-.26.208-.414.276-.46.07-.047.246-.07.53-.07h2.086c.217 0 .348.017.394.05zm-.293-.87c.02.06.03.105.03.13 0 .098-.097.146-.29.146h-1.74l-.155-.005c-.176 0-.265-.05-.265-.15 0-.034.025-.104.075-.213l1.124-2.494c.034-.077.065-.113.092-.11.054.004.104.067.15.19l.046.122.905 2.28.026.105zm9.713-3.31c.11.082.192.26.242.533.023.123.07.182.138.178.085-.006.125-.067.122-.183a4.384 4.384 0 0 0-.035-.28 2.907 2.907 0 0 1-.03-.495c0-.224-.02-.36-.065-.407-.044-.045-.172-.068-.383-.068h-6.207c-.13 0-.216.028-.256.083-.04.056-.06.17-.06.348 0 .18-.03.408-.087.683a2.55 2.55 0 0 0-.068.44c0 .1.035.154.104.157.07.004.12-.07.155-.22.08-.345.187-.58.328-.705.14-.124.366-.187.677-.187h1.527c.147 0 .24.02.28.058.04.04.06.128.06.266l.006.15v5.72c0 .32-.052.546-.156.67-.104.125-.304.207-.6.245-.126.016-.19.052-.19.112 0 .083.06.123.175.123.038 0 .167-.01.386-.034a3.95 3.95 0 0 1 .41-.017l.45-.007.423.006c.273 0 .446.004.52.016.142.023.235.034.282.034.107 0 .162-.042.162-.123 0-.064-.067-.107-.202-.13-.484-.085-.736-.352-.755-.802l-.006-.225v-5.655c0-.18.022-.294.066-.34.044-.046.15-.07.32-.07h1.62c.32.002.538.044.65.126zm3.76-.424l.3-.116c.1-.034.15-.085.15-.153 0-.07-.05-.107-.155-.107-.023 0-.07.002-.144.007l-.384.032c-.204.01-.448.017-.732.017-.464 0-.837-.016-1.117-.05a.8.8 0 0 0-.104-.008c-.115 0-.17.04-.167.123.004.068.066.113.184.135.357.057.59.168.7.334.108.165.163.486.163.963v4.94c0 .487-.042.808-.127.96-.084.152-.273.252-.565.302-.117.018-.176.06-.176.13 0 .077.052.117.155.117.072 0 .164-.006.276-.017l.68-.04.835.012c.29 0 .493.01.61.024.09.013.163.02.22.02.12 0 .18-.046.18-.135 0-.07-.096-.116-.29-.143-.24-.034-.42-.092-.532-.173-.113-.08-.208-.22-.285-.415-.065-.175-.098-.53-.098-1.07v-4.32c0-.81.143-1.27.427-1.38zm6.66 4.606c.047.034.11.156.192.368l.288.762c.234.608.352 1.014.352 1.22 0 .222-.096.353-.29.392l-.177.04c-.096.02-.145.058-.145.118 0 .08.05.118.15.118.038 0 .098-.007.18-.023.134-.023.467-.034 1-.034.512 0 .867.01 1.067.03.11.007.184.01.22.01.103 0 .157-.03.16-.095.004-.072-.054-.118-.173-.14-.365-.066-.607-.156-.726-.27-.12-.113-.27-.402-.45-.868l-.127-.31-2.475-6.348c-.042-.112-.094-.168-.155-.168-.063 0-.118.057-.17.173l-2.96 6.578-.167.38a2.63 2.63 0 0 1-.323.51c-.13.165-.234.257-.31.28l-.214.064c-.065.02-.098.06-.098.123 0 .072.052.107.155.107.02 0 .126-.01.322-.032.06-.005.147-.008.258-.008.24 0 .454.004.638.013l.554.032c.09.004.153.006.196.006.11 0 .164-.03.16-.095-.004-.067-.064-.112-.18-.135-.265-.056-.442-.127-.533-.207-.09-.08-.135-.212-.135-.392 0-.19.085-.476.255-.865l.378-.85c.115-.26.208-.414.276-.46.07-.047.248-.07.53-.07h2.088c.218 0 .348.017.394.05zm-.293-.87c.02.06.03.104.03.13 0 .097-.097.145-.29.145h-1.74l-.155-.005c-.177 0-.265-.05-.265-.15 0-.035.025-.105.075-.214l1.123-2.494c.035-.077.065-.113.092-.11.054.004.104.067.15.19l.046.122.905 2.28.03.105zM42.81 63.21v-.622c0-.37.038-.62.113-.755.075-.134.23-.23.464-.288.08-.023.12-.06.116-.11-.008-.08-.06-.12-.162-.12-.063 0-.157.01-.28.034a3.722 3.722 0 0 1-.57.035c-.446 0-.8-.014-1.067-.042a2.72 2.72 0 0 0-.242-.016c-.11 0-.166.035-.166.107 0 .076.056.122.167.14.397.066.67.168.82.304.154.135.25.367.287.693l.07 1.327-.006.777v2.852c-.003.068-.024.105-.063.108-.023.004-.077-.042-.16-.138l-5.302-6.004c-.095-.11-.19-.167-.288-.167-.05 0-.12 0-.213.005l-.092.006-.385-.01-.236-.007a1.562 1.562 0 0 0-.092-.006c-.085 0-.127.035-.127.107 0 .07.053.115.156.13.4.054.705.27.916.654.212.382.318.906.318 1.57V67.7c0 .415-.057.716-.17.903-.113.187-.33.335-.654.447-.112.037-.165.085-.162.14.008.07.06.107.162.107.042 0 .113-.007.213-.02a3.4 3.4 0 0 1 .426-.027l.277-.01.59.028c.29.016.457.027.5.035.06.007.12.01.173.01.08 0 .12-.037.12-.112 0-.08-.062-.13-.19-.144-.302-.046-.506-.117-.61-.214-.104-.095-.17-.27-.196-.523l-.017-.41.005-.243v-3.91c0-.173.037-.26.11-.26.03 0 .057.01.08.035l.058.063 4.857 5.554.126.15a.2.2 0 0 0 .132.05c.088.004.14-.04.16-.135.02-.094.03-.358.03-.792v-4.83l.01-.38zm6.8 3.08c.046.032.11.154.19.366l.288.762c.234.608.352 1.014.352 1.22 0 .222-.096.353-.288.392l-.178.04c-.096.02-.144.058-.144.118 0 .08.05.118.15.118a.992.992 0 0 0 .178-.023c.135-.023.47-.034 1.003-.034.513 0 .87.01 1.068.03.11.006.185.01.22.01.103 0 .156-.03.16-.096.005-.072-.053-.118-.172-.14-.365-.066-.607-.156-.726-.27-.12-.113-.27-.402-.45-.868l-.126-.31-2.478-6.348c-.042-.112-.094-.168-.155-.168-.06 0-.115.057-.165.173l-2.96 6.578-.168.38a2.582 2.582 0 0 1-.323.51c-.13.166-.234.258-.31.28l-.215.065c-.066.02-.1.06-.1.124 0 .07.053.106.156.106.02 0 .127-.01.322-.032.06-.005.147-.008.258-.008.24 0 .454.004.638.013l.552.03c.09.005.153.007.196.007.112 0 .165-.032.16-.096-.003-.066-.062-.11-.177-.134-.265-.056-.443-.127-.533-.207-.09-.08-.135-.213-.135-.393 0-.19.085-.477.256-.866l.378-.85c.116-.26.21-.413.278-.46.07-.046.246-.07.53-.07h2.086c.213 0 .343.018.39.05zm-.295-.873c.02.06.03.104.03.13 0 .097-.097.145-.29.145h-1.74l-.155-.005c-.176 0-.265-.05-.265-.15 0-.035.025-.105.075-.214l1.123-2.494c.035-.078.066-.114.092-.11.054.003.104.066.15.19l.046.12.907 2.28.03.106zm9.488-3.588c.103-.057.37-.084.8-.084.327 0 .6.008.814.028l.677.07c.257.022.423.062.497.117.077.057.14.18.188.378.03.123.052.244.063.363.01.097.04.145.1.145.103 0 .154-.09.154-.267 0-.42.032-.755.098-1.006a.84.84 0 0 0 .03-.19c0-.09-.042-.134-.127-.134a.956.956 0 0 0-.19.023c-.1.02-.323.038-.668.053l-.8.04c-.208.012-.675.018-1.4.018-.815 0-1.393-.017-1.735-.05a5.042 5.042 0 0 0-.357-.03c-.162 0-.238.05-.23.146.002.06.05.095.143.102.226.02.386.052.478.098a.653.653 0 0 1 .253.266c.12.196.18.477.18.842v5.2c0 .376-.046.64-.134.796-.088.154-.256.258-.5.31-.12.027-.18.07-.18.13 0 .072.056.106.168.102l.294-.017a3.98 3.98 0 0 1 .392-.024l.445-.005.398.006c.25 0 .44.01.567.026.15.018.268.026.352.026.122 0 .18-.043.172-.13-.004-.074-.07-.112-.202-.112-.272 0-.49-.09-.65-.272-.162-.18-.243-.424-.243-.73v-2.146c0-.16.01-.274.03-.348.013-.07.09-.114.224-.133.136-.02.433-.03.892-.03.497 0 .874.034 1.13.1.126.03.215.08.27.156.054.073.103.21.15.415.04.19.1.283.175.283.07 0 .106-.046.106-.137 0-.035-.004-.088-.01-.16a8.972 8.972 0 0 1-.025-.857c0-.16.003-.28.007-.35l.035-.57c.01-.12-.025-.18-.1-.18-.063 0-.103.047-.118.14-.042.257-.143.44-.304.543-.16.106-.417.16-.77.16l-.676.01-.19.006-.493-.01c-.203 0-.312-.054-.327-.158v-.15l-.006-.108V62.26c.002-.23.054-.372.157-.428zm8.58 4.46c.045.03.11.153.19.365l.288.762c.236.608.353 1.014.353 1.22 0 .222-.096.353-.288.392l-.18.04c-.095.02-.143.057-.143.117 0 .08.05.118.15.118a1 1 0 0 0 .18-.023c.134-.023.468-.034 1.002-.034.51 0 .867.01 1.066.03.11.007.184.01.22.01.103 0 .156-.03.16-.095.004-.072-.054-.118-.173-.14-.365-.066-.607-.156-.725-.27-.12-.113-.27-.402-.45-.868l-.127-.31-2.477-6.348c-.042-.112-.094-.168-.156-.168s-.117.056-.167.172l-2.96 6.578-.17.38a2.672 2.672 0 0 1-.32.51c-.132.165-.236.257-.313.28l-.213.064c-.066.02-.098.06-.098.124 0 .072.052.107.155.107.02 0 .126-.01.322-.032.06-.005.146-.008.26-.008.24 0 .452.004.636.013l.552.032c.088.004.153.006.195.006.112 0 .165-.032.162-.096-.004-.067-.063-.112-.18-.135-.264-.056-.442-.127-.532-.207-.09-.08-.135-.212-.135-.392 0-.19.085-.477.256-.866l.38-.85c.114-.26.206-.414.275-.46.07-.047.245-.07.53-.07h2.085c.215 0 .346.017.392.05zm-.295-.874c.02.06.03.104.03.13 0 .097-.097.145-.288.145h-1.74l-.156-.004c-.177 0-.265-.05-.265-.15a.7.7 0 0 1 .072-.214l1.124-2.494c.034-.077.065-.113.092-.11.053.004.103.067.15.19l.045.122.905 2.28.028.105zm4.926 3.12c-.062.316-.256.496-.582.544-.116.014-.173.054-.173.118 0 .083.052.124.16.124.076 0 .206-.012.39-.035a3.79 3.79 0 0 1 .46-.022c.18 0 .426.01.733.03l.467.028.537.023.444.016c.804 0 1.466-.23 1.987-.688.52-.46.78-1.04.78-1.747 0-.47-.136-.89-.408-1.254a1.76 1.76 0 0 0-1.044-.69c-.196-.043-.296-.083-.3-.122-.003-.022.024-.05.08-.085l.25-.174c.506-.337.76-.812.76-1.423a1.61 1.61 0 0 0-.73-1.396c-.485-.34-1.152-.507-2.002-.507-.18 0-.372.006-.576.017l-.645.04a13.836 13.836 0 0 1-1.136 0c-.165-.006-.263-.01-.294-.01-.153 0-.23.043-.23.13 0 .082.078.123.236.123.314 0 .546.12.696.36.15.24.224.615.224 1.123v4.453c0 .407-.028.75-.086 1.027zm1.034-3.78c-.044-.033-.066-.118-.066-.252v-2.31c0-.24.042-.395.127-.47.083-.075.26-.113.523-.113.604 0 1.113.184 1.524.55.41.364.618.813.618 1.347 0 .87-.483 1.303-1.45 1.303h-.952c-.173 0-.282-.017-.326-.052zm1.388.457c.558 0 1.02.192 1.388.575.368.383.55.867.55 1.45 0 .567-.166 1.01-.5 1.327-.336.315-.805.473-1.41.473-.468 0-.816-.035-1.04-.106-.226-.07-.366-.19-.42-.354l-.034-.224.01-.266V65.43c0-.096.02-.156.055-.18.037-.026.124-.038.263-.038h1.138zm6.242-3.327c.07-.06.222-.09.46-.09h.903c.596 0 1.004.03 1.226.086.222.058.37.173.443.346.045.11.07.23.07.352v.15c0 .12.036.177.11.173.068-.004.11-.034.13-.09.02-.054.04-.193.058-.415l.023-.34a4.78 4.78 0 0 1 .048-.458.617.617 0 0 0 .017-.132c0-.11-.064-.166-.19-.166-.05 0-.127.008-.23.023-.05.006-.188.014-.415.022l-.82.04c-.36.016-.775.024-1.243.024-.772 0-1.433-.03-1.982-.092-.16-.02-.29-.03-.385-.03-.173 0-.26.054-.26.16 0 .07.056.106.168.106.35 0 .585.094.706.284.12.19.18.56.18 1.11v4.877l-.005.376c0 .463-.14.73-.417.808l-.22.064c-.1.026-.15.07-.15.135 0 .082.062.123.185.123.053 0 .153-.013.3-.04.276-.046.75-.068 1.422-.068.48 0 1.087.033 1.82.103.19.016.34.024.45.024.515 0 .942-.21 1.28-.62.28-.346.42-.643.42-.89 0-.105-.034-.155-.105-.15-.044.003-.087.037-.13.103-.43.68-1.398 1.02-2.906 1.02-.475 0-.77-.04-.89-.122-.116-.08-.174-.284-.174-.61v-2.12l-.006-.19c0-.116.033-.193.096-.232.063-.038.188-.058.376-.058h1.27c.33 0 .564.046.702.138.138.093.23.267.276.524l.035.162c.016.084.065.126.147.126.074 0 .11-.048.11-.143 0-.035-.002-.09-.01-.167a6.955 6.955 0 0 1-.035-.695c0-.307.017-.646.05-1.017.006-.057.008-.1.008-.127 0-.1-.037-.15-.112-.153-.078-.004-.127.042-.147.14-.05.252-.106.414-.168.483-.06.068-.196.123-.403.166a5.2 5.2 0 0 1-.956.07h-.89c-.164 0-.263-.02-.296-.056-.033-.037-.05-.143-.05-.32v-2.325c0-.203.034-.335.103-.395zm10.79 1.404c0-.657-.224-1.152-.673-1.485-.45-.333-1.116-.5-2-.5-.233 0-.504.01-.81.03-.427.026-.73.04-.905.04-.204 0-.375-.007-.513-.018a11.064 11.064 0 0 0-.403-.023c-.13 0-.196.038-.196.117 0 .07.062.114.184.136l.27.04c.42.07.63.404.63 1.005l.01.6v4.144c0 .65-.048 1.087-.144 1.308-.096.22-.298.36-.605.418-.096.018-.143.055-.143.112 0 .08.047.118.143.118.058 0 .16-.007.31-.023.185-.02.343-.03.473-.03l.3-.004.553.005c.33 0 .572.01.73.025.173.017.286.025.34.025.134 0 .2-.037.19-.112-.004-.07-.075-.114-.213-.13-.346-.035-.6-.118-.766-.248A.617.617 0 0 1 88 68.51c-.033-.12-.05-.346-.05-.68l-.006-.23v-1.803c0-.096.023-.158.07-.185l.126-.025h.766c.207 0 .357.08.45.236l.08.128 1.435 2.19c.284.43.564.74.84.93a1.6 1.6 0 0 0 .93.285c.21 0 .4-.024.566-.07.167-.047.252-.1.256-.16.003-.05-.03-.077-.098-.08l-.184-.013c-.414-.028-.867-.4-1.36-1.12l-.183-.277-1.59-2.345c.948-.47 1.422-1.138 1.422-2.004zm-3.452 1.81c-.048-.048-.073-.163-.073-.344V62.41l-.006-.19c0-.197.043-.334.13-.41.086-.074.243-.112.47-.112.608 0 1.11.18 1.5.54.393.362.59.82.59 1.38 0 .48-.145.86-.433 1.138-.288.277-.685.416-1.19.416h-.652c-.176 0-.288-.023-.336-.072zm12.054 3c-.503.63-1.2.944-2.09.944-.934 0-1.717-.377-2.35-1.13-.63-.753-.947-1.69-.947-2.81 0-1.043.275-1.894.824-2.554.55-.66 1.26-.99 2.128-.99.695 0 1.355.192 1.977.575.623.382 1.085.88 1.384 1.493.035.07.077.102.127.097.077-.003.116-.052.116-.144a.67.67 0 0 0-.03-.166 4.486 4.486 0 0 1-.08-.44l-.06-.54a3.397 3.397 0 0 1-.035-.393c0-.18-.035-.27-.104-.27a.125.125 0 0 0-.08.034l-.14.104c-.044.03-.08.046-.107.046-.02 0-.052-.015-.098-.046-.304-.196-.71-.36-1.218-.49a5.85 5.85 0 0 0-1.443-.196c-1.176 0-2.154.403-2.936 1.21-.783.807-1.174 1.815-1.174 3.025 0 1.152.37 2.098 1.106 2.837.737.74 1.682 1.11 2.835 1.11.86 0 1.665-.218 2.414-.65l.38-.226c.215-.123.375-.192.48-.208.086-.01.142-.026.166-.046l.034-.087-.01-.185V66.16l-.006-.184c0-.354.146-.566.438-.635.115-.03.173-.075.173-.14 0-.07-.044-.106-.132-.106-.043 0-.196.01-.462.028-.094.008-.44.013-1.032.013l-.433-.006-.23-.006c-.136 0-.2.035-.197.107.004.083.08.13.23.146.308.023.512.077.614.162.102.084.154.244.154.478v1.297c0 .375-.06.638-.184.79zm5.035-6.214c.07-.06.222-.09.46-.09h.903c.594 0 1.002.03 1.225.086.222.058.37.173.443.346.046.11.07.23.07.352v.15c0 .12.036.177.11.173.067-.004.11-.034.13-.09.02-.054.04-.193.058-.415l.023-.34a5.835 5.835 0 0 1 .064-.59c0-.11-.062-.166-.19-.166-.05 0-.125.008-.23.023-.05.006-.187.014-.414.022l-.82.04c-.36.016-.774.024-1.243.024-.773 0-1.433-.03-1.982-.092-.16-.02-.29-.03-.385-.03-.173 0-.26.054-.26.16 0 .07.057.106.17.106.348 0 .583.094.704.284.12.19.18.56.18 1.11v4.877l-.005.376c0 .463-.14.73-.415.808l-.22.064c-.1.026-.15.07-.15.135 0 .082.06.123.184.123.054 0 .154-.013.3-.04.277-.046.75-.068 1.423-.068.48 0 1.087.033 1.82.103.19.016.34.024.45.024.515 0 .942-.21 1.28-.62.28-.346.42-.643.42-.89 0-.105-.035-.155-.106-.15-.04.003-.084.037-.13.103-.427.68-1.396 1.02-2.903 1.02-.475 0-.772-.04-.89-.122-.116-.08-.174-.284-.174-.61v-2.12l-.006-.19c0-.116.032-.193.095-.232.064-.038.19-.058.378-.058h1.27c.33 0 .563.046.702.138.137.093.23.267.276.524l.034.162c.015.084.065.126.147.126.073 0 .11-.048.11-.143 0-.035-.004-.09-.01-.167a6.955 6.955 0 0 1-.036-.695c0-.307.017-.646.05-1.017.005-.057.007-.1.007-.127 0-.1-.036-.15-.11-.153-.08-.004-.128.042-.148.14-.048.252-.104.414-.166.483-.06.068-.196.123-.403.166a5.18 5.18 0 0 1-.955.07h-.887c-.164 0-.264-.02-.296-.056-.032-.037-.048-.143-.048-.32v-2.325c0-.203.034-.335.103-.395zm1.915-2.23l.09-.102c.055-.06.08-.117.08-.167 0-.148-.077-.222-.234-.222-.298 0-.476.007-.536.02-.06.014-.105.06-.14.14l-.132.305c-.03.073-.104.232-.22.477l-.12.264a.577.577 0 0 0-.063.225c0 .08.036.12.11.12.066 0 .205-.076.414-.23l.75-.827zm-65.36-5.458l.017.757c0 .28-.03.474-.093.585-.06.11-.184.192-.366.242-.078.02-.116.055-.116.104 0 .054.045.08.134.08.05 0 .235-.007.555-.025.21-.012.36-.02.456-.02.138 0 .268.007.388.02l.36.036c.044.003.083.005.117.005.115 0 .17-.03.17-.09 0-.057-.08-.1-.245-.12-.228-.036-.386-.104-.473-.205-.086-.103-.13-.272-.13-.507l-.022-.585-.088-2.523-.028-1.12c0-.357.032-.613.095-.77a.453.453 0 0 1 .33-.29l.2-.05c.06-.016.093-.052.093-.11 0-.063-.03-.093-.092-.09l-.134.01a4.474 4.474 0 0 1-.622.013 2.714 2.714 0 0 0-.203-.02c-.057 0-.1.013-.122.036a.912.912 0 0 0-.104.182l-2.178 4.67-.04.093-.057.125c-.03.06-.05.09-.07.09-.016 0-.04-.04-.075-.12l-.236-.478-1.933-4.17-.05-.107c-.09-.194-.202-.292-.335-.292-.043 0-.1.005-.17.014-.07.006-.23.01-.484.01a3.06 3.06 0 0 1-.315-.01 2.332 2.332 0 0 0-.153-.01c-.077 0-.116.034-.116.1 0 .06.045.1.138.115.34.062.583.225.728.49.146.264.218.672.218 1.223 0 .257-.023.872-.07 1.847l-.065 1.346c-.02.38-.074.65-.164.808-.09.158-.248.263-.473.315-.075.017-.112.05-.112.1 0 .068.047.1.14.1a.958.958 0 0 0 .143-.013 5.01 5.01 0 0 1 .648-.04c.19 0 .455.014.8.045.06.007.117.01.175.01.09 0 .135-.035.135-.105 0-.06-.094-.106-.284-.137-.382-.06-.573-.36-.573-.904 0-.565.005-.943.014-1.132l.108-2.296 1.744 3.763.092.194c.074.142.118.227.13.255.067.15.137.226.21.226.07 0 .137-.073.197-.218.016-.033.043-.093.084-.176.07-.138.155-.315.252-.532l.39-.87.474-.974.413-.885c.087-.18.262-.5.525-.96l.12 2.95zm6.386-.66c.037.027.088.126.153.296l.23.614c.19.49.283.816.283.98 0 .18-.077.285-.232.316l-.143.033c-.077.015-.116.046-.116.095 0 .063.04.095.12.095.03 0 .08-.006.146-.018.108-.02.377-.03.807-.03.41 0 .697.01.858.024.09.006.15.01.177.01.083 0 .126-.027.13-.08.003-.056-.043-.094-.14-.112-.293-.052-.488-.125-.584-.216-.096-.09-.215-.325-.362-.7l-.1-.25-1.995-5.11c-.034-.09-.076-.134-.126-.134s-.095.047-.135.14L44.63 54.79l-.133.305a2.21 2.21 0 0 1-.26.41c-.106.133-.188.207-.25.227l-.173.05c-.052.017-.078.05-.078.1 0 .058.04.086.125.086.016 0 .103-.01.26-.027a2.22 2.22 0 0 1 .208-.006c.193 0 .365.004.513.01l.445.027a2.8 2.8 0 0 0 .157.006c.09 0 .133-.026.13-.077-.004-.054-.052-.09-.145-.11-.214-.045-.357-.1-.43-.166-.072-.066-.108-.17-.108-.316 0-.153.07-.386.205-.698l.305-.684c.093-.21.167-.335.223-.372.055-.037.198-.056.427-.056h1.68c.17 0 .275.013.313.04zm-.237-.702c.014.05.022.085.022.107 0 .077-.078.116-.232.116h-1.4l-.125-.007c-.142 0-.214-.04-.214-.12a.56.56 0 0 1 .06-.172l.907-2.007c.027-.062.052-.09.074-.088.044.003.085.054.12.153l.04.096.727 1.837.023.084zm5.09-3.006l.24-.092c.082-.027.122-.067.122-.123 0-.058-.042-.086-.125-.086-.02 0-.058 0-.117.003l-.31.026a9.88 9.88 0 0 1-.59.014c-.374 0-.674-.014-.9-.04a.873.873 0 0 0-.083-.006c-.093 0-.138.033-.134.1.003.053.052.09.15.108.286.046.474.136.562.27.088.133.132.39.132.775v3.978c0 .394-.034.65-.102.773-.068.123-.22.205-.454.245-.095.015-.142.05-.142.104 0 .063.042.095.125.095.06 0 .133-.005.223-.014l.547-.032.674.01c.23 0 .394.006.49.02.07.01.13.015.176.015.096 0 .145-.036.145-.11 0-.054-.077-.092-.232-.113-.194-.028-.337-.075-.43-.14-.09-.064-.167-.176-.228-.334-.053-.14-.08-.425-.08-.86V50.94c0-.652.113-1.022.342-1.11zm2.22.107a1.53 1.53 0 0 0-.56 1.224c0 .45.142.815.428 1.096.285.28.77.537 1.456.77.666.222 1.066.393 1.205.514.27.235.41.524.41.867 0 .36-.15.664-.444.914-.296.253-.655.378-1.08.378-.42 0-.808-.13-1.166-.39a1.804 1.804 0 0 1-.702-.968c-.044-.15-.095-.226-.15-.23-.064-.002-.096.043-.096.135 0 .117.04.315.12.594l.117.42c.035.173.063.28.082.322a.3.3 0 0 0 .112.118c.133.09.342.17.628.237.286.07.548.103.786.103.658 0 1.198-.184 1.618-.552.42-.368.632-.84.632-1.42 0-.85-.572-1.465-1.715-1.84-.586-.193-.954-.33-1.104-.402a1.234 1.234 0 0 1-.415-.354 1.07 1.07 0 0 1-.218-.673c0-.296.11-.54.335-.738.224-.196.502-.295.834-.295.42 0 .8.11 1.14.325.34.218.566.494.677.83.05.148.1.222.15.222.067 0 .1-.048.1-.144a1.64 1.64 0 0 0-.022-.19l-.073-.477a4.98 4.98 0 0 1-.06-.468c0-.155-.04-.23-.116-.227-.024 0-.04.006-.05.018l-.065.055a.174.174 0 0 1-.11.05.213.213 0 0 1-.085-.02l-.32-.135a2.177 2.177 0 0 0-.84-.144c-.587.005-1.066.16-1.44.478zm6.54-.21a3.09 3.09 0 0 0-1.102.706 3.06 3.06 0 0 0-.657 1.05c-.162.417-.243.84-.243 1.266 0 .98.307 1.775.924 2.38.62.606 1.426.91 2.425.91.974 0 1.774-.318 2.398-.95.625-.635.937-1.447.937-2.436 0-.933-.31-1.7-.93-2.297-.62-.598-1.414-.897-2.382-.897-.465.004-.922.09-1.367.266zm3.164.962c.56.615.84 1.384.84 2.307 0 .803-.234 1.466-.7 1.99-.47.522-1.062.784-1.78.784-.785 0-1.448-.32-1.988-.963-.54-.642-.81-1.43-.81-2.367 0-.817.21-1.468.634-1.95.42-.483.992-.725 1.71-.725.835 0 1.534.31 2.094.924zm8.303.37v-.503c0-.296.03-.5.09-.607.06-.108.184-.184.373-.23.064-.02.096-.048.092-.09-.006-.064-.048-.097-.13-.097-.052 0-.13.01-.227.028a3.078 3.078 0 0 1-.46.03c-.358 0-.644-.01-.857-.034a2.466 2.466 0 0 0-.194-.012c-.09 0-.135.028-.135.086 0 .06.045.097.135.112.318.052.54.133.66.244.124.11.2.296.23.56l.056 1.066-.004.626v2.296c-.003.055-.02.085-.05.088-.018.003-.062-.034-.13-.11l-4.268-4.835c-.078-.09-.155-.134-.233-.134-.04 0-.097.002-.17.005l-.076.004-.31-.01-.19-.004a1.05 1.05 0 0 0-.074-.005c-.07 0-.103.03-.103.087 0 .057.04.092.125.104.32.043.567.22.737.526.17.308.255.73.255 1.265v3.157c0 .334-.046.577-.137.727-.092.15-.267.27-.527.36-.09.03-.133.066-.13.112.007.057.05.086.13.086.034 0 .092-.007.172-.018.108-.014.222-.02.343-.02l.224-.01.472.024c.236.013.37.022.404.028.05.006.096.01.14.01.064 0 .097-.03.097-.09 0-.068-.052-.108-.155-.12-.244-.037-.408-.095-.492-.172-.083-.077-.135-.218-.157-.422l-.013-.33.005-.194v-3.148c0-.14.03-.21.088-.21a.09.09 0 0 1 .065.028l.047.05 3.91 4.472.103.12a.16.16 0 0 0 .106.043c.072.003.115-.033.13-.11.016-.075.023-.288.023-.638v-3.887l.01-.306zM34.553 84.58c.062-.032.218-.048.47-.048a5.3 5.3 0 0 1 .478.016l.4.042c.15.013.248.035.29.068.046.034.083.107.11.223.02.073.03.146.04.215.003.057.023.085.06.085.06 0 .09-.054.09-.157 0-.248.017-.445.055-.593a.53.53 0 0 0 .016-.11c0-.054-.024-.08-.073-.08a.495.495 0 0 0-.112.014c-.058.012-.19.022-.394.03l-.47.023c-.12.008-.395.01-.823.01-.478 0-.818-.01-1.02-.03-.11-.01-.18-.018-.21-.018-.093 0-.14.03-.135.085.003.035.03.055.086.06.133.01.227.03.282.056a.37.37 0 0 1 .148.158c.07.114.106.28.106.494v3.056c0 .22-.026.38-.08.47-.05.088-.15.15-.294.18-.07.017-.105.043-.105.078 0 .04.033.06.1.06.035-.003.093-.007.17-.01.1-.01.176-.015.232-.015h.26l.235.002c.147 0 .258.006.333.015.088.01.157.016.207.016.073 0 .106-.026.102-.077-.002-.043-.042-.067-.12-.067a.487.487 0 0 1-.382-.16.624.624 0 0 1-.142-.428V86.98a.92.92 0 0 1 .017-.205c.01-.042.054-.065.133-.08.08-.01.254-.014.525-.014.292 0 .513.02.664.06.074.02.126.05.157.092a.685.685 0 0 1 .088.243c.025.112.06.166.104.166.04 0 .062-.026.062-.08 0-.02-.003-.05-.007-.095a5.513 5.513 0 0 1-.013-.502c0-.095 0-.164.003-.207l.02-.333c.005-.07-.015-.104-.06-.104-.036 0-.06.024-.068.08-.025.15-.085.26-.18.32-.094.062-.245.094-.452.094l-.397.006-.11.003-.29-.007c-.12 0-.185-.03-.193-.09v-.09l-.004-.063v-1.34c.003-.136.033-.22.094-.254zm2.815 1.95c-.293.288-.44.638-.44 1.046 0 .426.14.773.415 1.045.276.274.63.41 1.058.41.44 0 .8-.14 1.09-.42.286-.28.43-.632.43-1.062a1.38 1.38 0 0 0-.437-1.02 1.448 1.448 0 0 0-1.046-.428 1.463 1.463 0 0 0-1.068.43zm1.765.124c.203.28.304.642.304 1.088 0 .353-.08.63-.24.835a.79.79 0 0 1-.66.31c-.322 0-.59-.147-.804-.437-.216-.29-.323-.65-.323-1.082 0-.34.086-.613.258-.822a.84.84 0 0 1 .68-.313c.32 0 .582.14.785.42zm2.357-.398c0-.05 0-.093.003-.13.004-.065-.014-.1-.054-.1-.024 0-.05.01-.083.03-.018.007-.063.03-.132.064l-.18.09a1.9 1.9 0 0 1-.437.137c-.06.012-.09.034-.09.068 0 .02.012.04.032.047.015.01.034.014.054.014l.146-.004c.106 0 .177.03.217.086.037.057.057.168.057.327v1.53c0 .13-.02.224-.06.283a.443.443 0 0 1-.232.148c-.04.018-.063.04-.064.067 0 .037.02.055.063.055.02 0 .065-.004.136-.012.07-.01.285-.014.644-.014.17 0 .275.002.318.006.077.014.135.02.173.02.054 0 .08-.02.08-.063 0-.04-.037-.064-.112-.073-.303-.018-.46-.122-.47-.31l-.004-.17-.003-.103v-1.295c0-.142.074-.268.22-.38a.81.81 0 0 1 .5-.164c.268 0 .473.086.62.255.145.172.217.412.217.725v1.17c0 .137-.044.22-.135.242l-.102.028c-.04.007-.06.03-.06.065 0 .026.01.044.024.054l.047.01.1-.008h.13l.333-.01a3.8 3.8 0 0 1 .544.026c.076 0 .114-.025.112-.074-.004-.035-.036-.057-.096-.065l-.142-.02c-.164-.025-.26-.11-.284-.26l-.01-.163.003-.103v-.812c0-.416-.073-.725-.217-.928a.998.998 0 0 0-.857-.445c-.326 0-.64.18-.94.54v-.385h-.005zm5.28 2.605c0 .117.026.17.077.17a.22.22 0 0 0 .102-.037c.05-.025.15-.047.3-.07l.187-.03c.025-.006.085-.012.178-.022.08-.007.12-.036.12-.084 0-.028-.01-.045-.036-.053l-.03-.004-.2.006c-.157 0-.234-.128-.234-.384V84.05l-.004-.06c0-.05-.017-.076-.05-.076a.122.122 0 0 0-.065.024c-.297.18-.562.282-.795.31-.07.01-.103.04-.1.084.004.028.016.043.038.053a.156.156 0 0 0 .045.006l.118-.006c.23-.014.346.194.346.623v1.334a1.61 1.61 0 0 0-.82-.24c-.4 0-.74.15-1.017.448a1.556 1.556 0 0 0-.414 1.095c0 .392.114.72.345.987.23.267.517.4.858.4.18 0 .342-.034.485-.104.142-.07.33-.2.558-.398v.333zm-.21-.296a.828.828 0 0 1-.536.17c-.3 0-.56-.135-.778-.407a1.484 1.484 0 0 1-.33-.963c0-.337.085-.61.252-.818a.81.81 0 0 1 .66-.312c.306 0 .57.108.793.32.1.096.15.245.15.448v1.116a.55.55 0 0 1-.21.447zm3.463-1.306l.23.008.25.002c.148 0 .222-.037.222-.112a.822.822 0 0 0-.085-.27 1.695 1.695 0 0 0-.166-.314 1.063 1.063 0 0 0-.905-.47c-.348 0-.648.148-.906.444a1.506 1.506 0 0 0-.386 1.028c0 .414.124.76.374 1.04.25.278.558.418.926.418.327 0 .637-.114.93-.343.16-.126.238-.22.238-.288 0-.038-.016-.055-.047-.054a.108.108 0 0 0-.05.024c-.29.22-.558.33-.804.33-.313 0-.576-.13-.79-.393-.213-.265-.32-.588-.32-.975l.003-.075h1.282zm-1.034-.79a.577.577 0 0 1 .46-.223c.18 0 .344.075.496.227.153.152.23.318.23.494 0 .07-.09.108-.268.108h-1.15c.03-.257.106-.458.23-.605zm1.12-1.354l.05-.06c.033-.035.05-.066.05-.092 0-.084-.045-.125-.133-.125-.17 0-.27.004-.304.012-.034.006-.06.034-.08.077l-.07.173c-.017.036-.057.122-.12.264a1.07 1.07 0 0 0-.103.272c0 .045.02.067.063.067.036 0 .113-.04.23-.127l.42-.46zm2.96 2.144l.23.008.25.002c.15 0 .22-.037.22-.112a.822.822 0 0 0-.083-.27 1.633 1.633 0 0 0-.167-.314 1.06 1.06 0 0 0-.903-.47c-.345 0-.646.148-.904.444a1.51 1.51 0 0 0-.386 1.028c0 .414.125.76.375 1.04.25.278.558.418.926.418.328 0 .637-.114.93-.343.16-.126.238-.22.238-.288 0-.038-.016-.055-.048-.054a.104.104 0 0 0-.05.024c-.29.22-.558.33-.804.33-.313 0-.576-.13-.79-.393-.213-.265-.32-.588-.32-.975l.004-.075h1.283zm-1.034-.79a.578.578 0 0 1 .463-.223c.176 0 .342.075.494.227.153.152.23.318.23.494 0 .07-.09.108-.268.108H51.81c.028-.257.103-.458.227-.605zm5.954.79l.233.008.25.002c.147 0 .22-.037.22-.112a.868.868 0 0 0-.082-.27 1.758 1.758 0 0 0-.164-.314 1.064 1.064 0 0 0-.905-.47c-.345 0-.647.148-.902.444a1.507 1.507 0 0 0-.387 1.028c0 .414.126.76.376 1.04.25.278.558.418.926.418.33 0 .64-.114.933-.343.157-.126.237-.22.237-.288 0-.038-.016-.055-.05-.054a.11.11 0 0 0-.05.024c-.29.22-.558.33-.803.33-.313 0-.576-.13-.79-.393-.213-.265-.32-.588-.32-.975l.003-.075h1.28zm-1.032-.79a.576.576 0 0 1 .462-.223c.178 0 .344.075.497.227.153.152.228.318.228.494 0 .07-.09.108-.267.108H56.73c.028-.257.105-.458.228-.605zm3.26-.21c0-.052 0-.094.003-.13.006-.066-.012-.1-.053-.1-.022 0-.05.01-.08.028-.018.008-.063.032-.133.065l-.18.09c-.14.063-.285.11-.436.138-.06.012-.088.034-.088.068 0 .02.01.04.03.047.015.01.033.014.052.014l.147-.004c.103 0 .176.03.215.086.04.056.057.167.057.326v1.53a.53.53 0 0 1-.06.283c-.038.057-.116.11-.23.147-.04.018-.063.04-.065.067-.002.037.018.055.06.055.022 0 .067-.005.137-.013.07-.01.283-.014.643-.014.17 0 .276.002.32.006.074.013.133.02.17.02.053 0 .08-.02.08-.064 0-.04-.037-.064-.112-.073-.302-.018-.46-.122-.47-.31l-.004-.17-.002-.103v-1.294c0-.142.07-.268.218-.38a.806.806 0 0 1 .5-.164c.267 0 .473.085.617.254.146.172.218.412.218.725v1.17c0 .138-.045.22-.135.243l-.1.028c-.04.008-.062.03-.062.066 0 .026.01.044.024.054l.046.01.097-.007h.13l.333-.01a3.752 3.752 0 0 1 .543.026c.076 0 .113-.026.11-.075-.002-.035-.034-.057-.094-.065l-.143-.02c-.167-.024-.26-.11-.285-.26l-.012-.162.003-.103v-.812c0-.416-.07-.725-.216-.928a.995.995 0 0 0-.856-.445c-.325 0-.64.18-.94.54v-.384zM67 84.4a.69.69 0 0 0 .024-.146c0-.05-.02-.073-.064-.073-.016 0-.047.02-.094.058a2.16 2.16 0 0 1-.757.414c-.25.073-.376.152-.38.24-.003.034.015.05.053.05.018 0 .048-.01.092-.032a.67.67 0 0 1 .304-.067c.114 0 .193.026.233.077.042.05.06.148.06.29v3.162c0 .27-.118.408-.358.424l-.19.014c-.07.007-.104.034-.104.082 0 .037.033.058.096.058.068 0 .158-.006.27-.014.11-.01.274-.014.49-.014l.748.007.173.006c.09 0 .135-.024.135-.067 0-.03-.014-.05-.043-.064a.267.267 0 0 0-.09-.014h-.057c-.224 0-.375-.042-.454-.126-.08-.085-.12-.246-.12-.487v-3.315c0-.218.01-.374.03-.464zm3.17 3.576a2.79 2.79 0 0 1-.585.595 1.74 1.74 0 0 1-.64.334l-.16.046c-.077.016-.115.047-.115.088 0 .05.037.077.11.077.215 0 .46-.07.733-.213.273-.143.534-.335.782-.577a3.31 3.31 0 0 0 .744-1.056c.175-.396.264-.796.264-1.2 0-.524-.143-.963-.43-1.316-.285-.353-.64-.528-1.064-.528-.394 0-.724.156-.99.467-.265.31-.398.7-.398 1.164 0 .396.122.73.366 1.007.244.278.542.415.892.415.282 0 .566-.107.848-.324.034-.025.084-.063.15-.11a3.192 3.192 0 0 1-.51 1.13zm.272-3.093c.212.3.318.664.318 1.09 0 .316-.072.564-.22.746a.733.733 0 0 1-.602.272c-.3 0-.558-.146-.77-.44-.21-.29-.315-.648-.315-1.07 0-.307.077-.558.23-.753a.716.716 0 0 1 .59-.295c.3 0 .556.15.77.45zm3.256 1.422c-.332.703-.552 1.21-.658 1.525-.108.313-.16.61-.16.885 0 .214.017.366.052.455.035.09.098.134.19.134.1 0 .203-.02.306-.057.102-.04.152-.078.152-.117a.31.31 0 0 0-.036-.106 1.144 1.144 0 0 1-.11-.5c0-.55.198-1.32.588-2.318.327-.843.49-1.412.49-1.713 0-.07-.013-.12-.038-.146-.027-.025-.076-.04-.15-.04l-.136.005-.172.002h-1.184c-.152 0-.263-.004-.332-.016a1.294 1.294 0 0 0-.156-.01c-.063 0-.103.04-.122.12l-.06.307-.068.33a1.018 1.018 0 0 0-.025.218c0 .096.03.144.09.144.037 0 .064-.038.083-.113.04-.183.115-.31.23-.38.11-.073.293-.108.546-.108h1.176c0 .29-.166.79-.5 1.497zm3.798 1.194c.13 0 .21-.006.234-.017.026-.01.047-.047.063-.107l.054-.22.064-.236c.005-.066-.02-.1-.07-.097-.02 0-.04.01-.063.032l-.09.075a.535.535 0 0 1-.347.11l-.144-.004v-2.528l.004-.12-.004-.132c0-.055-.018-.083-.054-.08-.086.003-.49.512-1.21 1.52-.72 1.01-1.08 1.573-1.08 1.69 0 .062.042.1.126.108.043.006.103.007.183.007l1.08-.005.313.004h.15v1.727l-.002.098c0 .06.026.09.074.09a.235.235 0 0 0 .105-.028.636.636 0 0 1 .133-.04c.096-.02.152-.04.165-.064a.26.26 0 0 0 .03-.142l-.015-.494.004-.335.004-.407-.003-.402h.3zm-2.134-.465c.084-.122.136-.203.16-.236l.453-.696c.203-.312.447-.642.728-.99v1.922h-1.34zM40.55 80.133c-.404.505-.963.76-1.678.76-.75 0-1.378-.304-1.884-.908-.508-.605-.76-1.357-.76-2.256 0-.837.22-1.52.66-2.05.44-.53 1.01-.795 1.707-.795.558 0 1.087.153 1.587.46.5.31.87.708 1.11 1.2.028.055.062.08.102.077.062-.003.092-.04.092-.115a.546.546 0 0 0-.022-.134 3.658 3.658 0 0 1-.065-.35l-.048-.436a2.753 2.753 0 0 1-.027-.313c0-.145-.028-.217-.083-.217a.098.098 0 0 0-.065.028l-.11.083c-.038.024-.067.036-.09.036-.014 0-.04-.01-.078-.037-.244-.16-.57-.29-.98-.394a4.65 4.65 0 0 0-1.157-.157c-.943 0-1.728.323-2.355.97-.628.647-.94 1.456-.94 2.427 0 .924.294 1.683.886 2.276.592.592 1.35.89 2.274.89.69 0 1.336-.175 1.937-.525l.306-.18c.17-.1.3-.155.384-.168.07-.01.116-.02.134-.037l.028-.07-.01-.147V78.57l-.005-.146c0-.286.12-.456.353-.51.092-.025.138-.063.138-.113 0-.057-.034-.085-.105-.085-.034 0-.157.008-.37.023-.078.007-.354.01-.83.01l-.348-.004-.185-.006c-.108 0-.16.028-.157.086.003.066.064.105.185.117.246.02.41.063.492.13.082.07.122.196.122.385v1.04c0 .3-.05.51-.148.633zm4.04-4.985c.055-.047.178-.072.368-.072h.724c.478 0 .805.023.983.07.178.045.296.138.355.277a.73.73 0 0 1 .056.282v.12c0 .095.03.143.09.14.053-.004.087-.027.103-.072.014-.044.03-.155.045-.332l.02-.27a3.78 3.78 0 0 1 .036-.37.533.533 0 0 0 .015-.104c0-.088-.05-.133-.152-.133-.04 0-.102.006-.186.018-.04.007-.15.014-.333.02l-.656.033c-.29.012-.624.017-1 .017-.62 0-1.15-.026-1.59-.074a2.88 2.88 0 0 0-.31-.024c-.138 0-.207.042-.207.127 0 .056.046.084.135.084.28 0 .47.076.566.23.1.15.147.448.147.89v3.912l-.006.3c0 .37-.11.587-.332.65l-.175.05c-.08.02-.12.057-.12.108 0 .067.05.1.148.1.044 0 .123-.01.24-.033.223-.037.604-.056 1.143-.056.385 0 .872.028 1.46.085.152.01.27.016.36.016a1.27 1.27 0 0 0 1.026-.497c.225-.278.34-.515.34-.715 0-.083-.03-.122-.088-.12-.034.004-.07.03-.103.085-.346.546-1.123.82-2.33.82-.384 0-.62-.033-.715-.1-.094-.064-.14-.228-.14-.49v-1.705l-.006-.152c0-.094.025-.156.076-.187.05-.03.152-.046.303-.046h1.02c.263 0 .45.037.562.11.11.075.184.215.22.423l.03.128c.01.07.05.104.117.104.06 0 .09-.038.09-.115 0-.03-.005-.074-.01-.135a5.728 5.728 0 0 1-.028-.558c0-.245.014-.518.04-.815.004-.046.006-.08.006-.102 0-.08-.03-.12-.09-.124-.064-.003-.104.034-.12.11-.04.203-.084.334-.133.388-.05.056-.157.1-.323.135a4.172 4.172 0 0 1-.767.054h-.712c-.132 0-.212-.013-.24-.043-.025-.03-.038-.115-.038-.257v-1.866c0-.164.027-.27.082-.318zm9.928 1.06v-.5c0-.295.03-.496.09-.604.06-.108.184-.186.373-.232.067-.018.097-.05.094-.088-.006-.063-.05-.097-.13-.097a1.2 1.2 0 0 0-.226.03 3.25 3.25 0 0 1-.458.025c-.36 0-.643-.01-.856-.032a2.152 2.152 0 0 0-.194-.013c-.09 0-.134.028-.134.086 0 .06.045.098.134.114.318.052.537.133.66.24.12.112.197.297.228.56l.055 1.062-.004.623v2.288c-.005.056-.02.086-.053.088-.02.002-.062-.035-.13-.112l-4.252-4.816c-.077-.09-.154-.135-.232-.135-.04 0-.097.002-.17.005l-.074.006-.31-.01-.19-.004a1.03 1.03 0 0 0-.074-.005c-.067 0-.1.028-.1.085 0 .058.04.092.124.103.32.043.566.22.736.525.17.307.254.728.254 1.26v3.146c0 .332-.045.573-.136.722-.09.15-.266.27-.525.36-.09.03-.135.068-.13.112.005.058.05.086.13.086.032 0 .09-.006.17-.018a2.84 2.84 0 0 1 .34-.02l.222-.01.472.023c.234.014.368.023.402.03.05.005.095.01.138.01.066 0 .098-.03.098-.09 0-.068-.05-.107-.152-.118-.243-.037-.406-.095-.49-.172-.082-.077-.135-.217-.157-.42l-.014-.33.003-.193V76.64c0-.14.03-.21.088-.21.026 0 .047.01.066.03l.046.05 3.897 4.457.1.12c.026.025.06.038.108.04.07.004.113-.03.128-.107.016-.077.023-.287.023-.636V76.51l.007-.304zm3.37-1.06c.055-.047.178-.072.368-.072h.725c.48 0 .806.023.986.07.177.045.296.138.354.277a.75.75 0 0 1 .054.282v.12c0 .095.03.143.09.14.054-.004.087-.027.104-.072.015-.044.03-.155.046-.332l.02-.27a3.93 3.93 0 0 1 .05-.474c0-.088-.05-.133-.153-.133-.04 0-.1.006-.183.018-.04.007-.15.014-.332.02l-.656.033c-.29.012-.623.017-1 .017-.62 0-1.15-.026-1.59-.074a2.896 2.896 0 0 0-.31-.024c-.138 0-.21.042-.21.127 0 .056.047.084.135.084.28 0 .47.076.567.23.098.15.146.448.146.89v3.912l-.005.3c0 .37-.11.587-.332.65l-.175.05c-.08.02-.12.057-.12.108 0 .067.05.1.15.1.042 0 .122-.01.24-.033.22-.037.6-.056 1.14-.056.385 0 .872.028 1.462.085.15.01.27.016.36.016a1.27 1.27 0 0 0 1.026-.497c.225-.278.338-.515.338-.715 0-.083-.03-.122-.084-.12-.036.004-.07.03-.105.085-.343.546-1.12.82-2.33.82-.38 0-.62-.033-.713-.1-.093-.064-.14-.228-.14-.49v-1.705l-.004-.153c0-.094.026-.156.076-.187.05-.03.15-.046.3-.046h1.02c.265 0 .453.035.564.11.112.073.185.213.222.42l.028.13c.013.07.052.1.118.1.06 0 .09-.037.09-.114 0-.028-.003-.073-.01-.134a5.727 5.727 0 0 1-.027-.558c0-.245.015-.518.043-.815.003-.048.005-.08.005-.104 0-.08-.03-.12-.09-.124-.062-.003-.102.034-.12.11-.04.203-.083.334-.132.388-.05.057-.157.102-.322.136-.19.037-.444.055-.768.055h-.712c-.132 0-.212-.01-.238-.04-.026-.03-.04-.116-.04-.258v-1.865c0-.163.027-.27.082-.317zm.955-.94c.06 0 .09-.033.09-.097 0-.05-.05-.18-.15-.39-.092-.197-.15-.324-.175-.383l-.107-.244c-.026-.063-.063-.1-.11-.112a3.205 3.205 0 0 0-.43-.015c-.126 0-.19.06-.19.18 0 .04.024.084.07.133l.074.083.603.664c.165.122.275.184.327.184zm4.434.976c0-.08.017-.137.048-.17a.766.766 0 0 1 .24-.117c.06-.025.09-.058.09-.1 0-.057-.04-.086-.124-.086a1.27 1.27 0 0 0-.127.01 3.648 3.648 0 0 1-.296.02l-.31.003-.438-.004a6.46 6.46 0 0 1-.6-.02c-.088 0-.133.03-.133.09 0 .036.016.06.045.075.03.014.125.035.286.066a.62.62 0 0 1 .364.19c.09.1.19.274.3.524l2.344 5.43c.067.154.133.23.196.23.06 0 .123-.075.188-.226l2.297-5.38.125-.302c.114-.274.282-.452.504-.535.066-.02.097-.055.097-.1 0-.054-.03-.08-.092-.08l-.392.006h-.116l-.21.004h-.19c-.047 0-.183-.007-.413-.02l-.136-.004c-.098 0-.15.03-.153.086-.003.05.08.093.254.127.142.026.236.06.282.102.047.042.07.114.07.216 0 .295-.217.96-.654 1.995L65.61 79.62l-.075.173c-.08.174-.134.263-.166.263-.038.003-.077-.046-.12-.147l-1.777-4.08c-.128-.3-.193-.516-.193-.647zm7.27-.036c.056-.047.18-.072.37-.072h.724c.48 0 .806.023.985.07.18.045.297.138.355.277a.75.75 0 0 1 .054.282v.12c0 .095.03.143.09.14.054-.004.088-.027.104-.072.015-.044.03-.155.048-.332l.017-.27c.016-.202.028-.326.037-.37a.52.52 0 0 0 .013-.104c0-.088-.05-.133-.152-.133-.04 0-.1.006-.184.018-.04.007-.152.014-.332.02l-.656.033c-.29.012-.623.017-1 .017-.62 0-1.15-.026-1.59-.074a2.903 2.903 0 0 0-.31-.024c-.137 0-.208.042-.208.127 0 .056.044.084.133.084.28 0 .47.076.566.23.096.15.143.448.143.89v3.912l-.005.3c0 .37-.112.587-.334.65l-.175.05c-.08.02-.12.057-.12.108 0 .067.05.1.15.1.04 0 .122-.01.24-.033.22-.037.6-.056 1.14-.056.386 0 .873.028 1.46.085.153.01.273.016.36.016.414 0 .757-.166 1.03-.497.224-.278.336-.515.336-.715 0-.083-.028-.122-.084-.12-.035.004-.07.03-.105.085-.343.546-1.12.82-2.33.82-.384 0-.62-.033-.714-.1-.094-.064-.14-.228-.14-.49v-1.705l-.005-.152c0-.094.024-.156.076-.187.05-.03.15-.046.3-.046h1.02c.265 0 .453.037.564.11.11.075.184.215.222.423l.026.128c.014.07.052.104.12.104.06 0 .09-.038.09-.115 0-.03-.004-.074-.01-.135a5.43 5.43 0 0 1-.028-.558c0-.245.013-.518.04-.815a1.85 1.85 0 0 0 .005-.102c0-.08-.03-.12-.09-.124-.063-.003-.102.034-.118.11-.04.203-.085.334-.134.388-.05.056-.156.1-.323.135a4.172 4.172 0 0 1-.768.054h-.713c-.132 0-.21-.013-.237-.043-.027-.03-.04-.115-.04-.257v-1.866c.002-.164.03-.27.085-.318z"/><g fill="#000"><path d="M61.896 23.21v-.105c.01-.752-.058-1.41-.207-2.17-.408-2.06-3.1-9.69-6.707-9.913v-.005c.27-1.556.925-2.928 1.774-4.273a1.41 1.41 0 0 1-1.188-.463c1.075.113 2.17-.313 2.705-.98-.5-.167-.815-.464-1.074-.852a3.05 3.05 0 0 0 1.706.222c-.76-.167-1.928-.78-1.983-1.335.185.223 2.576.297 2.576.297h4.632c.074.055.11.166.11.296.298-.11.52.055.502.37 1.11 0 2.15.687 1.89 2.02-.074.5-.26.705-.556.946-.502-.76-1.89-.815-2.78-.315a4.478 4.478 0 0 1 1.63.294c.52.223 1.167.52 1.852.445.445-.057.705-.353.78-.687.22.185.054 1.11-.743 1.5-.408.204-1.112.278-1.613-.074-.185-.11-.926-.928-1.815-.928 1.315.352 1.647 1.28.647 1.835.018-.315.074-.76-.574-1.167-.353-.22-.927-.35-1.5-.185-.204.074-.465.223-.63.26-.28.018-.41-.13-.5-.222-.576.426-1.447 1.76-1.596 2.594-.185.964-.055 1.594.426 2.15.167.167.928.797 1.688.148.11.945-.704 1.52-1.667 1.223.205.204.518.408.964.593.648.28 1.334.02 1.63-.536.742.835.39 2.26-.778 2.39.556 1.02 2.353 1.094 3.186-.11.5-.76-.075-1.316-.39-1.612-.76-.74-.76-1.445-.223-2.223.704-1.057 2.892-2.78 3.725-4.023.13.223.222.445.26.52.778-.593 1.65-1.835 1.946-2.78.166.018.278.185.41.315C71.634 5.132 73.84 1.446 74.47 0c1.335.63 1.316 2.502.89 3.595-.352.982-.945 2.04-2.224 3.502.407-.296 2.89-2.836 3.427-3.15.927 1.316.297 3.614-1.445 4.597.556-.24 1.835-.742 2.557-.557.147 1.465-1.056 2.465-1.78 3.022.705-.168 1.52-.28 2.317-.057-.056 1.002-1.075 2.113-2.596 2.65.966-.092 1.91.02 2.485.37-.13 1.04-1.28 1.928-2.724 2.15.982.112 1.834.52 2.26 1.094-.5.686-1.278 1.205-2.445 1.168.556.185 1.224.76 1.5 1.446-.683.538-1.517.87-3.425.186 2.203.926 1.777 1.353 2.092 2.316-.388.166-.76.573-1.796.314-.592-.148-1.575-1.075-2.41-1.65.26.316 1.52 1.205 2.077 1.724.592.593.185 1.186.185 1.705-.445 0-1.224.352-1.76-.11-.167-.168-2.447-2.984-2.744-3.262.074.26 1.557 2.076 2.17 3.114.5.78-.187 1.315-.28 1.76-.5-.166-1.22.15-1.593-.48-.35-.594-1.464-2.743-1.89-3.355.166.462 1.334 2.91 1.41 3.112.276.834-.428.982-.707 1.538-.426-.315-1.185-.074-1.5-.852-.187-.538-.65-2.39-.89-2.892.02.556.186 1.278.296 2.094.11.816-.65.78-1.076 1.26-.352-.315-1.073-.24-1.167-.982-.11-.648-.13-2.242-.13-2.242-.11.093-.167.11-.26.223-.276-.314-.833-.314-1.02-.686-.072.018-.11.074-.182.13a2.69 2.69 0 0 0-.197.414v.004zm-3.372 6.962c.56-.353 1.063-.8 1.503-1.333.815-.993 1.38-2.266 1.663-3.664.077.512.266.964.59 1.23-.26 0-.558-.018-.743-.11.39.758 1.205 1.018 2.15.684a.83.83 0 0 1-.13.41c1.02.166 1.464.555 1.852 1.223.48.888-.057 2.02.11 2.483.11.296.445.574 1 .314-.26 1.168-1.74 1.038-2.11.39-.13.555 0 1.166.276 1.408-.463.018-.853-.167-1.094-.52-.055.112-.055.26-.073.39-.24-.13-.41-.278-.52-.407-.093.26-.02.464.166.76.278.41.853.595 1.28.76.962.354 2.02.76 2.965.63.11 0 .65-.26.74-.703l-.017.018a2.915 2.915 0 0 1-.185-.425.266.266 0 0 1-.242-.278v-.056c-.13-.112-.223-.26-.223-.426-.13-.166-.055-.315.074-.463v-.056c0-.11.054-.184.13-.26a3.06 3.06 0 0 1 2.315-2.406l-.056-.02c.147-.128.444-.463.462-.647-.186.055-.5.352-.648.463v-1.54c.166.11.462.407.648.462-.02-.184-.315-.518-.463-.648H71.5c-.15.13-.444.464-.462.648.186-.055.5-.35.647-.462v1.538c-.165-.11-.462-.407-.647-.463.018.167.222.408.37.574.037 0 .074.017.074.072h.02v.056c1.13.295 2.02 1.222 2.223 2.39.055.074.11.15.11.26v.054a.7.7 0 0 1 .223.5.522.522 0 0 1-.222.427v.055c0 .13-.11.26-.24.28-.22.59-.59 1.108-1.108 1.48.012.147-.013.36-.15.464-.26.222-.63.222-.89.39-.222.13-.334.387-.575.443-.334.112-.705-.018-1.037.055-.482.13-.63.444-1.002.444-.408 0-.315-.26-.965-.37-.427-.223-.926-.575-1.353-.76-.685-.28-1.5-.28-2.26-.445-.685-.13-1.28-.41-1.982-.502-.41-.073-1.89-.018-2.113-.296-.167-.353.315-.445.39-1.316 0-.038.017-.13.037-.242a1.57 1.57 0 0 1-1.133 0c-.222-.074-.74-.463-.74-1.037.444.203 1.408.462 1.555-.557.11-.854-.623-1.59-1.75-1.348zM62.45 4.976l.23.167c.088.058.166.148.22.204.186-.167.41-.574.39-.778-.037-.04-.834 0-.834 0s-.44.02-.61.07c.3.115.605.335.605.335zm-1.18 10.36c.26.073.5.054.687 0 0 .165-.112.592-.463.87.5-.13.778-.834.592-1.13-.223.166-.537.26-.815.26zm2.8-11.102c-.354.778-.76 1.464-1.262 1.927-.37.373-1.148.837-1.65 1.077-.573.316-1.463.964-1.797 1.5-.312.54-.573 1.317-.516 2.096.315-1.076 1.204-2.557 2.168-3.17.91-.518 1.724-1.074 2.243-1.74.37-.483.833-.946 1.13-1.465.204-.26-.24-.427-.314-.223zm-1.317 3.04c1.964.092 2.02.963 2.835 1.167.575.17 1.353-.053 1.65-.702-.445.26-.927.26-1.464.13-.63-.167-1.168-.575-1.89-.65-.37-.036-.76-.092-1.13.056zm2.372-1.187c-.185-.056-.166.02-.166.11.22 0 .386.057.572.112-.056-.13-.11-.354-.352-.446-.22-.055-.018.186-.055.222zm8.69 1.057c.65-.482 1.705-1.575 2.392-1.983.166 1.503-1.075 2.838-1.5 3.32.778-.63 2.093-2.17 1.648-3.67-.91.426-1.834 1.65-2.54 2.335zm.316 2.483c.503-.278 1.89-.76 2.65-.834-.314 1.353-1.22 1.816-1.98 2.353.89-.462 2.26-1.5 2.243-2.613-.984.093-2.132.52-2.91 1.094zm.63 2.28c.855-.167 1.225-.37 2.32-.316-.26.503-1.336 1.503-2.188 1.837 1.428-.444 2.41-1.463 2.54-2.038-.834-.094-1.927.146-2.67.52zm2.153 2.575c-.223.445-1.168 1.075-2.224 1.39.87-.074 2.37-.74 2.65-1.5-.686-.335-2.206-.28-2.725-.076.723-.055 1.574-.11 2.298.186zm-.353 2.8c-.28.573-1.632.758-2.373.777 1.26.072 2.372-.224 2.725-.817-.5-.5-1.594-.76-2.224-.74.592.09 1.445.313 1.87.777zm-.76 2.39c-.632.463-1.465.35-1.965.26.593.24 1.594.315 2.262-.205-.37-.705-1.168-1.056-1.762-1.075.557.092 1.168.52 1.465 1.02zm-1.224 2.316c-.445.055-.686.315-1.204.185.647.26.815.074 1.39-.018-.075-.594-.168-.964-.89-1.39.52.296.538.704.704 1.223zm-1.778 1.964c-.482.037-.834.204-1.26-.296.444.704.888.444 1.408.463.074-.706.13-.89-.5-1.355.406.408.388.686.352 1.186zm-2.503 1.316c-.5-.11-.834.073-1.15-.63.315.982.742.648 1.26.834.242-.65.576-.593-.018-1.39.26.593.094.667-.092 1.186zm-2.557.797c-.463-.222-.927-.093-1.112-.853.166 1.02.685.76 1.13 1.038.39-.593.742-.408.315-1.316.17.685-.072.63-.33 1.13zm-3.04-.39c-.39-.333-.815-.11-.815-.89-.11 1.002.426.743.816 1.076.516-.442.87-.164.683-1.13 0 .743-.314.54-.685.947zM73 3.605c.558-.705 1.32-1.836 1.577-2.318.76 1.112-.407 3.3-.87 4.374.704-1 2.037-3.65.815-4.743A37.667 37.667 0 0 1 73 3.604zM63.14 22.71c-.35-.204-.628-.222-.684-.685-.093.74.37.593.685.89.3-.297.836-.24.707-.926.037.497-.445.48-.705.72zm2.15-.333c-.387-.13-.74-.11-.887-.52.056.594.556.557.926.706.165-.35.63-.537.295-1.056.11.444-.13.555-.335.87zm1.707-.76c-.41-.02-.65 0-.89-.315.24.593.592.407 1 .48.112-.406.464-.536.02-1.074.26.41 0 .557-.13.91zm1.612-1.113c-.41 0-.76.093-1.02-.258.35.574.76.352 1.203.463.128-.688.26-.91-.315-1.318.35.39.24.668.13 1.11zm1.5-1.704c-.317.222-.705.35-1.02.26.52.26.89-.02 1.222-.186-.13-.556-.277-.872-.87-.926.5.15.52.445.667.852zm.833-1.742c-.222.296-.76.427-1.15.445.594.056 1.094-.074 1.353-.425-.26-.5-.684-.742-1.278-.686.518.074.87.184 1.074.666zm.444-2.02c-.166.37-.648.686-1 .76.52-.018 1.02-.334 1.224-.778-.28-.445-1.074-.65-1.593-.463.48-.02 1.056.055 1.37.482zm.093-2.316c-.092.52-.648.964-1.018 1.112.556-.11 1.11-.574 1.26-1.167-.593-.408-1.26-.24-1.686-.018.5-.15.945-.133 1.445.07zm-2.223-1.65c.445-.24.908-.444 1.502-.518-.077.352-.5 1.093-.89 1.5.646-.425 1.15-1.26 1.11-1.704-.427-.02-1.445.334-1.724.723zm.075-2.594c.277-.185.63-.556.686-.65.166.706-.537 2.077-1.075 2.596 1.168-.982 1.52-2.28 1.15-3.132a5.43 5.43 0 0 1-.76 1.186zm-5.708 11.267c-.26-.24-.594-.11-.63-.444-.018.594.39.37.63.65.203-.28.685-.167.574-.74.037.425-.37.313-.574.536zm1.908-.537c-.388-.074-.686.24-.89-.056.298.5.594.075 1.002.223.056-.39.555-.5.167-.982.24.37-.165.518-.277.815zm1.836-1.298c-.39.167-.706.446-1.095.24.445.39.835-.054 1.262-.165-.167-.65.074-.816-.63-1.038.463.185.35.556.463.963zm.482-2.39c-.112.28-.26.65-.593.853.445-.093.685-.463.834-.853-.22-.26-.59-.63-1.203-.48a1.5 1.5 0 0 1 .964.48zm-.168-2.187c.02.352-.222.778-.5 1.075.408-.223.76-.835.704-1.168-.296-.185-.833-.26-1.39 0 .37-.11.872-.128 1.186.093zm-1.205-2.538c.353-.222.686-.426.927-.705.13.78-.463 1.928-.648 2.094.686-.593 1.02-1.575.815-2.52-.33.39-.72.74-1.092 1.13zm-4.687 8.913c-.205-.297-.575-.297-.5-.65-.187.558.26.464.424.854.39-.222.78.018.89-.575-.13.408-.537.242-.814.37zm9.376 16.03a.72.72 0 0 1 0 .278c-.037-.056-.092-.222-.166-.167-.112.054-.074.147-.13.22-.427-.037-.5-.037-.89.315.444-.036.852.11 1.038-.11.074-.093.296-.297.37-.315 0-.13-.11-.24-.222-.222zm.927-.056c.296-.167.223-.667-.15-.667-.425.018-.37.48-.185.648-.018 0-.24 0-.352.056v.22c.206-.092.52-.146.687-.26zm1.334-2.26a26.675 26.675 0 0 0-5.45 0c-.073 0-.147 0-.203-.018-.018.037-.018.056-.018.11 0 .056.056.075.112.075a29.227 29.227 0 0 1 5.69 0c.055 0 .11-.02.11-.076a.154.154 0 0 0-.055-.11c-.037.035-.112.035-.186.017zm-5.523-.723c-.185 0-.26.11-.297.26.02.07.038.313.297.313.167 0 .278-.093.278-.26 0-.186-.11-.315-.278-.315zm0 .5c.167 0 .224-.113.204-.225a.577.577 0 0 1-.204.223zm5.91-.094c.058-.186-.017-.408-.258-.408-.167 0-.278.148-.278.314 0 .15.11.26.278.26.13 0 .205-.055.26-.167zm-.238.092c.13 0 .185-.112.167-.224a.51.51 0 0 1-.167.223zm-2.78-.91c.13 0 .185-.11.166-.22a.416.416 0 0 1-.167.22zm-.038-.48c-.166 0-.278.13-.278.297 0 .167.11.278.278.278.167 0 .296-.11.296-.278a.292.292 0 0 0-.296-.298zm.037-.223c.13.037.186-.074.167-.186a.398.398 0 0 1-.167.186zm-.037-.463c-.166 0-.278.093-.278.26 0 .166.11.315.278.315.167 0 .296-.15.296-.317 0-.148-.128-.26-.296-.26zm.037-.204c.13 0 .186-.112.167-.224-.036.094-.093.15-.167.224zm-.037-.5c-.166 0-.278.13-.278.296 0 .167.11.278.278.278.167 0 .296-.11.296-.278a.29.29 0 0 0-.296-.296zm.037-.223c.13.038.186-.11.167-.185a.4.4 0 0 1-.167.185zm-.037-.482c-.166 0-.278.13-.278.297 0 .167.11.315.278.315.167 0 .296-.147.296-.315a.29.29 0 0 0-.296-.297zm-.74 3.336c.147 0 .222-.11.203-.223-.054.093-.11.186-.2.223zm0-.48c-.167 0-.297.09-.297.26 0 .183.133.313.3.313.146 0 .277-.148.277-.315 0-.15-.13-.26-.278-.26zm-.705.517c.168 0 .223-.112.204-.222a.59.59 0 0 1-.204.222zm0-.5a.293.293 0 0 0-.297.297c0 .166.13.278.297.278.168 0 .278-.11.278-.278 0-.168-.11-.297-.276-.297zm-.704.52c.164.017.22-.113.2-.205-.054.092-.11.166-.202.204zm0-.483a.292.292 0 0 0-.3.296c0 .186.13.316.298.316.165 0 .276-.148.276-.315 0-.165-.11-.294-.277-.294zm4.24.52c.13 0 .187-.112.168-.223a.327.327 0 0 1-.168.223zm-.295-.242c0 .185.093.315.26.315a.313.313 0 0 0 .315-.315c0-.15-.13-.26-.296-.26-.167 0-.278.093-.278.26zm-.407.185c.128 0 .184-.112.184-.222a.434.434 0 0 1-.185.222zm-.038-.482a.28.28 0 0 0-.26.26c0 .185.13.315.26.315a.312.312 0 0 0 .314-.314c0-.167-.167-.278-.314-.26zm-.686.426c.148 0 .222-.11.203-.22a.467.467 0 0 1-.204.22zm-.02-.5c-.13 0-.26.13-.26.297 0 .167.13.277.26.277.186 0 .315-.11.315-.277 0-.167-.166-.296-.314-.296zm-.684.483c.147 0 .222-.11.204-.222-.057.075-.112.15-.204.223zm0-.5c-.167 0-.297.092-.297.26 0 .166.13.314.297.314.147 0 .278-.148.278-.315 0-.148-.13-.26-.278-.26zm-2.966-.02c0 .02.018.057.036.094a.34.34 0 0 1 .205-.056 49.293 49.293 0 0 1 2.335-.11v-2.354c0-.075.018-.13.018-.185 0-.037-.037-.055-.055-.055-.093 0-.11.055-.11.13-.02.778-.02 1.538-.02 2.28-.76.036-1.52.072-2.297.148-.056 0-.112.056-.112.11zm3.484-2.668c-.018 0-.056.018-.037.037 0 .056.02.11.02.185 0 .816.02 1.594.02 2.354.74.038 1.445.056 2.204.11.055 0 .11.04.167.058.038-.02.056-.057.056-.075 0-.055-.055-.11-.13-.11a21.28 21.28 0 0 0-2.168-.112c0-.76 0-1.5-.02-2.317 0-.054-.036-.11-.11-.13zM70.8 28.55c0-.092.038-.183.075-.277.056-.075.11-.167.185-.278h-.778c.092.092.463.593.13.648-.168.02-.41-.166-.518-.24v.76c.09-.056.592-.464.647-.13.04.167-.147.445-.26.556h.78c-.093-.095-.463-.595-.13-.65.167-.02.407.166.52.24v-.76c-.094.056-.593.464-.65.13zm-8.013 5.057c-.483.02-.89-.278-.983-.946-.223.373-.278.466-.408.874-.243-.167-.334-.315-.352-.63-.037.036-.074.092-.11.11-.076 1.057-.484 1.446-.41 1.502.15.186 1.28.24 1.927.24 0 0-.036-.296.168-.462-.11.26-.074.556.185.556 0-.038 0-.28.11-.353-.017.074-.017.444.335.426 0-.037 0-.222.074-.296 0 .13.037.463.352.444-.037-.053 0-.26.074-.277-.018.056 0 .39.315.39 0-.056 0-.204.112-.26-.057.074 0 .407.26.333-.02-.056-.02-.185.055-.26 0 .094 0 .39.332.335 0-.055 0-.166.074-.22-.035.073.02.313.317.295-.02-.075 0-.13.074-.185 0 .072.094.295.26.184.13.13.575.018 1.28.314l1.39.834c.462.037.556.37.87.26.557-.26.872-.667 1.335-1.02.13-.092.297-.13.408-.26a.467.467 0 0 0 .074-.443c-.055-.317-.5-.37-.685-.206-.224.166-.28.39-.11.815 0 0-.17-.075-.224-.075.017.074-.057.148.017.334-.037-.038-.11-.094-.167-.168-.13.11-.018.278-.018.408-.11-.055-.11-.22-.166-.22-.224.072-.168.257-.074.425-.148-.02-.185-.167-.205-.24-.166.017-.166.13-.11.277-.187-.074-.13-.26-.187-.26-.093-.018-.147 0-.222-.018-.074 0-.28-.167-.093-.185.576-.02.725-.076.89-.336-.332-.13-.907-.036-1.26-.018-.13 0-.073-.24-.017-.222.074-.037.165-.037.24-.056 0 0-.11-.112-.24-.168.203-.074.296.092.315.11.24-.295-.28-.35-.408-.462.074-.074.315.055.26-.074-.11-.094-.166-.186-.24-.26-.52.815-1.408.703-2.3.5-.167-.018-1.333-.37-1.5-.426-.222-.112-.167-.02-.222 0-.167-.297-.39-.092-.39-.02-.055-.055 0-.147.037-.22-.204-.243-.483-.057-.5.016-.056-.11.036-.22.055-.24-.185-.185-.39 0-.39.112-.055-.074 0-.278.057-.297-.133-.09-.188-.185-.263-.314 0 .02 0 .02 0 0z"/><path d="M53.446 26.104l.048-.007.132-.02c.17-.028.273-.056.337-.093a.607.607 0 0 0 .297-.34 1.26 1.26 0 0 0 .065-.425v-5.127h-.363c-.098 0-.208.007-.34.02a3.69 3.69 0 0 0-.336.04c-.215.043-.422.277-.63.714-.023.045-.043.09-.06.134h-.328v-1.516h5.194V21h-.326a2.104 2.104 0 0 0-.057-.132c-.218-.445-.42-.672-.64-.717-.09-.014-.2-.025-.33-.036-.13-.01-.245-.02-.338-.02h-.365v5.07c0 .155.02.29.063.426a.66.66 0 0 0 .298.343c.076.04.18.075.316.11.075.022.143.04.2.052v.58h-2.837v-.57zm.527-2.542v1.656a.85.85 0 0 1-.04.28.255.255 0 0 1-.127.132.85.85 0 0 1-.23.056l-.126.018a5.646 5.646 0 0 0-.208.032l-.016-.01c-.406-.556-.668-1.32-.705-2.166h1.454v.002zm2.516 2.175a3.775 3.775 0 0 1-.325-.076 1.415 1.415 0 0 1-.244-.08c-.085-.052-.113-.104-.123-.13 0 0-.04-.178-.04-.287v-1.6h1.45c-.036.845-.298 1.606-.703 2.163l-.016.012zm-3.433-6.65c.43-.727 1.08-1.19 1.803-1.19.727 0 1.377.463 1.81 1.19h-3.612zm2.7 1.905v-.504h.014c.086 0 .19.007.31.018.12.01.22.02.3.034.036.006.157.06.356.452h-.98zm-1.785 0h-.98c.203-.402.33-.447.35-.452.082-.014.185-.023.305-.035a4 4 0 0 1 .313-.018l.013.505zm2.663 5.164v.916h-3.54v-.913c-.57-.68-.93-1.683-.93-2.797v-.2h1.808V21.4h-.71l-.446-.004h-.9V19.09h.73c.486-.962 1.297-1.592 2.213-1.592.92 0 1.725.626 2.22 1.592h.732v2.306h-.898l-1.157.003v1.764h1.804v.2c.004 1.11-.356 2.11-.923 2.79zm-1.772-9.867c-2.292 0-4.155 2.663-4.155 5.94 0 3.274 1.862 5.94 4.154 5.94 2.29 0 4.156-2.666 4.156-5.94 0-3.278-1.865-5.94-4.156-5.94zm0 12.276c-2.485 0-4.506-2.843-4.506-6.337 0-3.496 2.02-6.34 4.506-6.34 2.484 0 4.507 2.843 4.507 6.34 0 3.494-2.022 6.336-4.506 6.336zm.01-16.336c-1.47.006-2.826 1.966-3.703 3.607-1.006 1.887-1.778 4.125-1.994 5.275-.492 2.608.077 5.285 1.482 6.986 1.045 1.263 2.5 1.934 4.218 1.94h.025c1.713 0 3.163-.653 4.19-1.893 1.4-1.687 1.957-4.383 1.46-7.032-.215-1.15-.987-3.387-1.993-5.275-.87-1.642-2.22-3.602-3.683-3.607zm.028 18.156h-.025c-1.824-.007-3.374-.72-4.486-2.066-1.47-1.778-2.066-4.565-1.557-7.272.415-2.205 3.02-9.15 6.038-9.163 3.006.013 5.604 6.958 6.017 9.163.518 2.75-.07 5.553-1.533 7.317-1.095 1.322-2.635 2.02-4.453 2.02zm4.84-1.77c1.537-1.868 2.146-4.784 1.59-7.612-.52-2.632-3.29-9.576-6.47-9.63-3.177.054-5.95 6.998-6.467 9.63-.55 2.798.07 5.706 1.62 7.59 1.19 1.447 2.868 2.213 4.85 2.213h.03c1.994 0 3.67-.758 4.85-2.192z"/><path d="M52.934 34.097h-.383c-.63-.055-1.11.167-1.462.594-.11-.98.74-1.33 1.278-1.703.856-.6.328-1.792-.34-2.41.855.386 1.814.585 2.85.585h.03c1.046 0 2.01-.198 2.87-.585-.68.618-1.207 1.81-.35 2.41.554.37 1.39.742 1.278 1.706-.352-.444-1.464-.593-1.464-.593h-.303c.24 1.3 2.14 2.335 1.946.796 1.128.13 1.583 1.406.487 1.737 1.59.34 2.662.88 3.03 1.69.195.424.2 1.03.052 1.47-.21.617-.758.938-1.516 1.065-.444.08-.877-.193-1.006-.336-.638-.706.198-1.12.71-1.206.153.545.61.115.3-.363-.214-.325-1.168-.645-1.304-.803.003.444-.136.77-.787.67.095-.303-.186-.53-.67-.724-.72-.28-1.333-.71-1.73-1.38-.072.44.083.967 1.046 1.8.4.3.59.39.913.43.66.088.7.495.21.77.786.656.7 2.797.7 2.797s-.78-1.355-1.22-1.412c.035-.26.014-.49-.2-.61-.02.438-.167.74-.676.676.34-1.057-1.05-1.326-1.432-2.336-.476.172-.13 1.074.3 1.688.126.183.193.24.227.46.102.673.24 1.347.515 2.02.055.14.084.142-.078.147-.416.018-1.01-.37-1.01-.37s.31.9.275 1.348c-.006.06.005.06-.043.03-.19-.132-1.034 1.455-1.034 1.455s-.853-1.582-1.04-1.452c-.05.034-.04.034-.043-.026-.034-.45.273-1.347.273-1.347s-.592.386-1.01.368c-.16-.006-.13-.007-.076-.145.276-.673.414-1.35.516-2.023.033-.22.1-.278.23-.46.428-.614.774-1.512.297-1.686-.385 1.01-1.77 1.277-1.43 2.335-.51.066-.66-.237-.678-.675-.214.12-.235.348-.202.612-.438.057-1.218 1.41-1.218 1.41s-.086-2.14.697-2.796c-.488-.272-.447-.682.214-.77.32-.04.513-.13.912-.43.963-.834 1.117-1.36 1.047-1.8-.4.67-1.01 1.098-1.728 1.38-.487.194-.77.42-.673.723-.647.1-.79-.223-.784-.668-.136.158-1.093.477-1.306.803-.31.48.146.91.3.363.514.087 1.347.5.713 1.207-.13.144-.477.354-1.007.334-.76-.13-1.307-.444-1.514-1.064-.147-.438-.145-1.047.048-1.47.37-.81 1.445-1.35 3.033-1.69-1.096-.33-.64-1.607.487-1.736-.195 1.54 1.712.5 1.945-.802"/><path d="M36.422 24.172l-.31-.637c.204-.222.093-.52-.13-.63v-.056c.018-.057.018-.094.018-.13.075-.02.186-.04.28-.058.63-.148 1.61-1.074 2.445-1.648-.296.315-1.52 1.205-2.075 1.723-.508.49-.307.997-.228 1.434zM47.305 4.976l-.228.167c-.09.057-.167.147-.223.203-.185-.167-.407-.574-.39-.778.038-.037.835 0 .835 0s.44.022.61.072c-.3.116-.606.336-.606.336zm-1.602-.742c.352.778.76 1.464 1.26 1.927.39.373 1.15.837 1.668 1.077.56.316 1.467.964 1.78 1.5a3.64 3.64 0 0 1 .52 2.096c-.315-1.076-1.205-2.557-2.17-3.17-.907-.518-1.722-1.074-2.223-1.74-.39-.483-.852-.946-1.15-1.465-.2-.26.224-.427.317-.223zM47 7.274c-1.964.092-2.02.963-2.835 1.167-.575.17-1.353-.053-1.65-.702.446.26.927.26 1.446.13.65-.167 1.206-.575 1.93-.65.37-.036.76-.092 1.11.056zm-2.353-1.187c.185-.056.167.02.167.11-.222 0-.37.057-.574.112.056-.13.11-.354.352-.446.222-.055.018.186.055.222zm3.855 9.248c-.26.074-.483.055-.686 0 0 .166.11.593.463.87-.5-.13-.78-.833-.595-1.13.223.167.537.26.816.26zm-2.372 4.41c.26-.24.593-.11.63-.444.02.594-.39.37-.63.65-.185-.28-.686-.167-.575-.74-.02.425.39.313.575.536zm-1.91-.537c.39-.074.686.24.91-.056-.316.5-.594.075-1.02.223-.056-.39-.556-.5-.167-.982-.242.37.185.518.278.815zm-1.816-1.298c.37.167.704.446 1.075.24-.428.39-.835-.054-1.26-.165.165-.65-.076-.816.627-1.038-.444.185-.35.556-.444.963zm-.48-2.39c.11.28.26.65.592.853-.445-.093-.686-.463-.815-.853.224-.26.595-.63 1.188-.48-.39.035-.704.202-.964.48zm.147-2.187c-.016.352.224.778.503 1.075-.41-.223-.76-.835-.705-1.168.297-.185.835-.26 1.39 0-.37-.11-.853-.128-1.186.093zm1.207-2.538c-.353-.222-.686-.426-.927-.705-.15.78.443 1.928.647 2.094-.686-.593-1.02-1.575-.816-2.52.356.39.744.74 1.097 1.13zm4.6 8.913c.185-.297.555-.297.444-.65.224.558-.24.464-.407.854-.388-.222-.76.018-.89-.575.187.408.558.26.854.37zm-8.418 5.56c.5-.11.852.073 1.15-.63-.298.982-.743.648-1.26.834-.243-.65-.576-.593.016-1.39-.26.593-.092.667.093 1.186zm2.575.797c.463-.222.89-.093 1.112-.853-.167 1.02-.686.76-1.15 1.038-.388-.593-.74-.408-.295-1.316-.166.685.075.63.334 1.13zm3.04-.39c.388-.333.832-.11.832-.89.112 1.002-.444.743-.852 1.076-.482-.442-.833-.164-.648-1.13-.018.743.297.54.667.947zm-8.1-1.723c.482.037.835.204 1.28-.296-.5.704-.91.444-1.41.463-.092-.706-.167-.89.482-1.355-.407.408-.388.686-.35 1.186zm-1.092-16.68c-.648-.48-1.63-1.685-2.317-2.11-.166 1.5 1.076 2.834 1.502 3.316-.78-.63-2.095-2.168-1.63-3.67.888.445 1.74 1.743 2.445 2.465zm-.242 2.355c-.5-.278-1.89-.76-2.65-.834.316 1.353 1.224 1.816 1.984 2.353-.87-.462-2.26-1.5-2.223-2.613.964.093 2.113.52 2.89 1.094zm-.63 2.28c-.833-.167-1.222-.37-2.315-.316.24.503 1.297 1.503 2.168 1.837-1.41-.444-2.41-1.463-2.54-2.038.853-.094 1.91.166 2.688.52zm-2.15 2.575c.224.445 1.17 1.075 2.225 1.39-.87-.074-2.353-.74-2.65-1.5.685-.335 2.205-.28 2.723-.076-.74-.055-1.592-.11-2.296.186zm.354 2.8c.278.573 1.65.758 2.372.777-1.26.072-2.372-.224-2.723-.817.518-.5 1.593-.76 2.223-.74-.594.09-1.446.313-1.872.777zm3.556-13.68a24.546 24.546 0 0 1-1.575-2.316c-.76 1.112.407 3.3.87 4.374-.703-1-2.02-3.65-.814-4.744.503.928.966 1.836 1.52 2.688zm3.726 7.47c-.445-.24-.89-.445-1.5-.52.055.353.48 1.094.87 1.5-.65-.424-1.15-1.26-1.113-1.703.427-.02 1.502.333 1.743.722zM38.31 12.72c.073.52.648.964 1 1.112-.557-.11-1.112-.574-1.26-1.167.592-.408 1.26-.24 1.686-.018a1.99 1.99 0 0 0-1.427.072zm.073 2.317c.167.37.65.684 1 .76-.518-.02-1.02-.336-1.222-.78.28-.445 1.077-.65 1.596-.463-.5-.02-1.057.055-1.372.482zm1.28 3.76c.295.222.704.35.982.26-.5.26-.87-.02-1.205-.186.148-.555.278-.87.89-.925-.5.15-.538.426-.668.852zm-.853-1.742c.222.296.778.427 1.148.445-.593.056-1.093-.074-1.353-.425.26-.5.65-.742 1.28-.686-.52.073-.853.202-1.075.665zm7.82 5.652c.352-.204.63-.222.686-.685.073.74-.39.593-.686.89-.314-.297-.852-.24-.703-.926-.038.498.443.498.703.72zm-2.15-.333c.372-.13.742-.11.872-.52-.056.594-.556.557-.927.706-.167-.35-.63-.537-.315-1.056-.093.444.166.573.37.87zm-1.723-.76c.408-.02.65 0 .89-.315-.24.592-.594.406-1.02.48-.075-.407-.445-.537 0-1.075-.223.41.02.557.13.91zM41.163 20.5c.37 0 .76.094 1.02-.257-.353.574-.76.352-1.187.463-.148-.687-.278-.91.297-1.317-.37.39-.24.667-.13 1.11zm-.74-12.025c-.28-.185-.63-.556-.687-.65-.167.706.556 2.077 1.075 2.596-1.165-.98-1.52-2.28-1.13-3.13.206.425.446.814.743 1.185zm.37 28.687c-.02.02.017.13.017.13-.11 0-.408-.13-.37-.315.13.02.278.11.352.185zm1.26.482c-.223.277-.723-.02-.89-.186l-.278-.128c0-.055-.02-.092.018-.13l.167.056c-.018.02 0 .074.018.13.02-.075.075-.13.186-.075 0 .057 0 .13.11.187 0 0 0-.168.02-.242.11-.02.13-.074.185-.167.35-.09.813.205.46.557zm-2.095-1.575s-.055.184 0 .313c.056-.185.167-.24.24-.166-.054.073-.054.222.02.315 0-.15.11-.222.204-.11 0 0-.018.11.056.147.018-.075.13-.057.167-.057 0 0 .296.112.65-.11.165.09.24.203.184.387-.058.26-.354.297-.595.13-.408-.26-.834-.168-1.056-.352-.15-.13-.187-.37-.11-.555.07.002.182.002.237.057zm-.314-1.39c.35.314-.13.5-.205.777l.054.02c0-.075.092-.168.148-.224 0-.074.13.166.167.186-.057 0-.057-.02-.057.017-.056 0-.018.074-.018.11h.074c0-.054.054-.11.11-.128.11 0 .166.147.166.24h.056c0-.056.02-.074.055-.11v-.02c.11 0 .203.11.26.168.22 0 .24-.26.48-.185 0 0 .26.074.278.26.13.352-.02.426-.26.48-.37.076-.61-.258-.927-.425-.168-.11-.37-.055-.575-.148-.534-.224-.016-.78.19-1.02zm1.482-.89s-.056-.167-.13-.278c.13-.11.242-.11.353-.056-.058.128-.133.22-.225.332zm-1.204-.908c.296-.13.407-.353.407-.5.22.26 0 .555-.336.74-.26.13-.74.13-.778-.258.13.165.556.092.705.018zm.055-1.113c.222.297.167.74-.167.87-.334.167-.686 0-.78-.388-.073-.223.075-.483-.11-.816.167.203.37.277.444.277.074-.074.167-.388.11-.556.132.278.355.39.503.612zm-.65-.61c0 .072 0 .183-.054.294-.11-.018-.186-.11-.26-.167a.48.48 0 0 0 .315-.13zm-.24-.3c.223-.11.297-.296.297-.426.167.186 0 .5-.24.594-.223.112-.576.112-.63-.203.13.148.444.093.573.037zm-3.724-7.54a.59.59 0 0 0 .464-.224c.074.017.13.054.166.11.056.11-.018.277-.185.352-.167.073-.352.055-.408-.075-.037-.053-.037-.11-.037-.165zm-.038-1.076c.26 0 .445.167.445.408 0 .222-.186.408-.445.408a.41.41 0 0 1-.407-.408.41.41 0 0 1 .407-.408zm4.633 9.877a1.01 1.01 0 0 1-.26.446c.112 0 .223-.094.242-.168.037-.055.074-.26.018-.278zm-6.096-12.415c-.408-.297-.112-.407-.075-.482.11.036.334-.148.353.352l-.278.13zm.574.056c-.26-.22-.056-.26-.056-.35.13.036.24-.075.24.26l-.184.09zm1.02-.48c.054.036.11.11.166.166l-.185.517.26-.445c.036.056.054.11.11.167l-.297.5.353-.354c.018.02.018.076.055.13 0 .02.018.038.018.057l-.352.314.352-.184c.018.075 0 .167 0 .242l-.37.11.35-.017c0 .056-.017.11-.017.168l-.373.018.315.074c-.018.037-.056.092-.056.13l-.444-.056.352.167c-.018.057-.056.076-.112.13-.204 0-.333.11-.352.334-.073-.018-.13-.056-.166-.074.056-.055.074-.167.11-.315 0-.13-.128-.28-.128-.353l-.018-.018h.26c.22-.223.128-.5-.075-.687l.242-.72zm-.446 2.15l.186.11s.26.407.593.22c.017.075-.13.224-.317.26-.278 0-.52-.203-.52-.203s-.017.316-.22.52c-.15.13-.353.166-.41.073.372-.13.242-.594.242-.594l.056-.223h.075c.018 0 .148.02.11.02l.056.054v-.073c.02-.055.057-.074.075-.11.02-.018.037-.018.074-.056zm-1.575-.613c0 .222.11.556.445.5.074-.055.148-.11.167-.203l.018.056c0 .11.056.26.167.333.13.074.223.11.296.11 0 .056-.02.112-.055.167-.185-.11-.353-.074-.5.056h-.167l.11-.352-.22.35a8.17 8.17 0 0 1-.168-.055l.167-.297-.26.26c-.056-.02-.092-.056-.148-.075l.26-.24-.333.184c-.056-.037-.11-.092-.185-.13l.386-.167-.463.055c-.02-.018-.02-.056-.056-.056-.018-.056-.018-.112-.055-.167h.537l-.575-.11c0-.056-.018-.13-.018-.186l.482.11-.5-.22c-.02-.13-.02-.222-.02-.222l.684.296zm1.353-.316c.11.15.35.335.314.577-.018.315-.185.315-.26.5-.222-.074-.333.056-.555-.11-.223-.168-.167-.427-.24-.65l.74-.316zm-.65.225l-.017-.223c-.11-.13-.275-.13-.406-.073-.018.11-.167.017-.24.146-.057-.093 0-.168.073-.223-.018-.056.018-.074.056-.11l.314-.168c-.055.055-.055.073-.055.11.26-.018.41.167.41.167s-.02-.26.184-.408c-.02-.02-.056-.057-.13-.02l.352-.166c.018 0 .092 0 .11.018.112 0 .186.02.242.093-.167 0-.185.166-.296.11a.35.35 0 0 0-.204.35l.13.168-.52.224zm-.573-.575c-.278-.24-.055-.26-.018-.35.056.036.24-.075.222.276l-.206.073zm9.377 19.106c-.074.054-.186.054-.26-.075a.46.46 0 0 0 .353-.166c.036.093-.02.204-.093.24zm-.13-.28c-.166.076-.407.112-.574-.128a.895.895 0 0 0 .74-.353c.075.166 0 .39-.165.48zm-.352-.684c.352-.13.445-.352.445-.557.26.315-.02.593-.353.76-.315.167-.834.167-.89-.26.168.203.613.148.798.056zm6.857-4.578c.075.167.315.445.408.556.167.223-.018.407-.352.446-.908 0-1.205-.075-1.835-.056h-.5c0-.13.018-.24-.13-.39.074.317-.074.5-.315.5 0 0 .11-.24-.11-.37.092.24-.056.445-.298.445.056-.168 0-.26-.11-.353.054.315-.02.445-.316.482a.348.348 0 0 0-.13-.353c.053.224-.058.52-.298.557 0-.11 0-.222-.13-.35.02.388-.074.462-.278.518.02-.183-.056-.24-.11-.35.054.277-.057.518-.298.592 0 0 .018-.26-.11-.408.018.26-.112.48-.408.74-.465.315-.78.556-1.28.76a8.06 8.06 0 0 0-.408-.98c.315.016.556.11.853.016.223-.017.537-.222.593-.35-.26.128-.593.185-.686.185-.593 0-.964-.13-1.223-.63 0 0 .055-.054.073-.054.167.258.575.388.89.258-.35 0-.815-.258-.834-.686.074-.092.13-.35-.11-.445.11.13.11.187-.02.408-.112-.165-.167-.313-.334-.35.02.074 0 .13-.018.167a.53.53 0 0 1-.24 0c0 .075.295.13.35.26.223.557-.426.78-.704.445-.167-.222-.167-.537-.02-.686.41-.316.5-.426.686-.705.26-.295.593-.054.65.15.314.74.74 1.02 1.277 1.13.63.073 1.353-.167 2.094-.5.28-.113.335-.168.446.017.074-.11-.02-.22-.02-.22.13-.112.297-.112.353.055.11-.073.018-.222.018-.222.222-.186.333-.074.39.055.072-.11 0-.24 0-.24.11-.056.222-.112.295-.205.444 0 .814-.297.963-.926.222.352.26.462.37.87.278-.166.353-.314.39-.63.11.112.26.204.408.28 0 .22.076.386.113.57zm1.954-3.548a6.394 6.394 0 0 1-1.52-1.35c-.76-.923-1.303-2.078-1.61-3.344-.095.403-.27.75-.54.97.24 0 .558-.037.743-.11-.37.758-1.203 1.036-2.148.683a.814.814 0 0 0 .13.407c-1.02.167-1.465.574-1.835 1.224-.52.89.036 2.02-.112 2.484-.11.297-.445.575-1 .315.26 1.167 1.723 1.038 2.11.388.15.538 0 1.167-.258 1.41a1.16 1.16 0 0 0 1.074-.52c.056.11.056.26.074.39.26-.13.408-.28.52-.408.036.13.092.426.018.686-.204.13-.426.26-.74.427-.54.277-1.54.668-2.114.74-.482.094-1.278-.184-1.5-.833-.186-.63-.705-.835-1.113-.445-.113-.076-.41-.13-.52.054 0 0-.13-.296-.298-.444.11-.316.037-.704-.26-.834-.037-.612-.426-.612-.556-.834-.074-.13-.074-.296.11-.315-.073-.13-.24-.148-.258-.148.055-.26-.038-.594-.39-.706L36.56 24.46c.464.046 1.152.306 1.662-.113.15-.148 2.428-2.984 2.743-3.26-.13.258-1.575 2.075-2.224 3.112-.463.78.24 1.315.315 1.76.52-.166 1.224.15 1.594-.48.37-.613 1.483-2.764 1.89-3.356-.148.464-1.334 2.89-1.408 3.113-.278.834.426.983.704 1.54.427-.298 1.205-.076 1.5-.853.186-.538.65-2.39.89-2.89-.036.536-.185 1.277-.296 2.093-.11.816.65.797 1.058 1.26.39-.333 1.093-.24 1.204-.982.11-.648.13-2.242.13-2.242.11.092.166.112.278.223.26-.315.816-.315 1-.685.075.02.112.075.186.13.023.04.046.08.067.12.004-.67.07-1.345.203-2.017.406-2.068 3.116-9.747 6.738-9.914v-.003c-.26-1.544-.914-2.928-1.76-4.272a1.37 1.37 0 0 0 1.166-.463c-1.093.092-2.13-.333-2.687-.982.5-.167.815-.463 1.075-.852-.482.223-1.075.297-1.705.223.76-.165 1.927-.777 1.983-1.333-.203.222-1.723.296-2.594.296h-4.486c-.074.055-.11.167-.11.296-.298-.11-.52.054-.483.37-1.15 0-2.168.686-1.91 2.02.075.5.26.704.576.945.48-.76 1.87-.815 2.78-.315a4.49 4.49 0 0 0-1.65.296c-.5.22-1.15.518-1.836.444-.464-.056-.704-.35-.797-.685-.222.184-.056 1.13.74 1.5.39.203 1.095.278 1.595-.074.186-.11.927-.927 1.817-.927-1.3.334-1.67 1.28-.65 1.836-.038-.335-.093-.76.556-1.17.37-.22.945-.35 1.5-.184.205.075.464.204.632.26.277.02.425-.147.5-.22.574.425 1.408 1.76 1.593 2.593.204.963.057 1.592-.425 2.15-.148.166-.927.796-1.686.147-.11.965.703 1.54 1.667 1.224-.204.186-.52.41-.964.594-.648.278-1.333.018-1.63-.537-.742.834-.39 2.26.777 2.39-.536 1.02-2.352 1.093-3.168-.11-.52-.76.074-1.298.37-1.613.78-.722.223-2.224.223-2.224-.704-1.038-2.89-2.76-3.725-4.02a2.79 2.79 0 0 0-.24.518c-.798-.61-1.668-1.852-1.965-2.78-.148.038-.278.204-.408.316C38.65 5.644 36.443 2.372 35.41 0c-1.316.63-1.298 2.52-.89 3.595.35.982.963 2.038 2.223 3.502-.41-.297-2.873-2.836-3.43-3.15-.907 1.316-.296 3.614 1.446 4.597-.54-.24-1.855-.723-2.56-.556-.147 1.464 1.04 2.464 1.78 3.02-.723-.166-1.54-.277-2.317-.054.056 1 1.093 2.132 2.557 2.65-.926-.093-1.87.018-2.445.37.092 1.038 1.28 1.927 2.687 2.15-.945.11-1.78.52-2.224 1.094.52.667 1.278 1.186 2.446 1.167-.26.093-.574.278-.834.538-.018-.037-.074-.056-.13-.056a.15.15 0 0 0-.055.167v.037a.495.495 0 0 0-.185.28c-.112.166-.222.333-.278.5.018.02.055.037.074.056a.36.36 0 0 0 .074.296.496.496 0 0 0-.11.223l-.687-.26c-.037.63.093 1.132.408 1.446.243.28.52.24.447.334l.74.445c.15.277.41.277.594.203v.055a.68.68 0 0 0 .464.63c-.055.24.056.39.39.5l2.78 6.728c-.112.315 0 .594.24.704a.45.45 0 0 0-.11.313c.11-.092.277-.11.35.11.056.15-.24.668.205 1.02a.69.69 0 0 0 .425.76c0 .167.148.686.167.872-.184.278-.648.705-.592 1.167.037.334.185.444.445.52-.093.592.24.87.74.89 0 .444.427.61.687.63.24.184.352.26.648.407-.278.312-.092.74.408.87.056.183.186.33.463.405.167.26.463.26.63.186.11-.055.297-.37.13-.63.11-.15.056-.39-.02-.555.15-.296.02-.65-.202-.76.018-.167-.055-.408-.11-.575.388-.24.87-.536 1.037-.646.945-.668 2-1.28 3.224-1.353.314-.017.89-.036 1.203-.017.5.055 1.168.203 1.576-.11.11-.093.184-.223.166-.353-.056-.298-.39-.576-.5-.854-.037-.073-.074-.204-.13-.315.352.076.667.02.87-.072.204-.074.724-.463.705-1.037-.407.186-1.407.463-1.52-.556-.105-.854.624-1.588 1.76-1.353"/></g></svg>