<svg version="1.1" id="Livello_1" xmlns="http://www.w3.org/2000/svg" x="0" y="0" width="119" height="200" viewBox="597.5 0 119 200" xml:space="preserve"><g id="XMLID_15_"><path id="XMLID_16_" fill="#FFF" d="M642.709 106.773c-3.028-9.243-4.622-22.789-4.622-40.637 0-17.689 1.753-30.916 5.1-39.841 3.347-8.924 8.765-13.227 16.096-13.227 8.606 0 14.661 6.534 18.008 19.442 2.072 8.127 3.187 20.08 3.187 36.016 0 17.371-1.434 29.801-4.143 37.291-3.506 9.721-9.88 14.661-18.964 14.661-6.694 0-11.475-4.621-14.662-13.705m-12.749 66.135c.797.159 1.753.319 2.709.319 3.347 0 5.896-1.275 7.968-3.665s3.028-5.737 3.028-9.721-1.275-7.171-3.665-9.562c-2.39-2.55-5.418-3.665-9.084-3.665-1.594 0-3.347.319-5.1.797-5.418 1.594-8.128 6.374-8.128 14.343 0 7.171 2.55 13.386 7.649 18.645 5.896 6.056 14.183 9.243 24.861 9.243 18.964 0 33.944-10.199 44.94-30.598 9.562-17.689 14.343-39.203 14.343-64.542 0-25.817-4.462-46.215-13.227-61.195-8.606-15.139-20.717-22.629-36.175-22.629-15.139 0-27.251 5.418-36.494 16.255S609.72 52.431 609.72 71.236c0 16.414 3.984 29.482 11.793 39.363s17.53 14.821 28.685 14.821c8.765 0 15.458-2.072 20.398-6.375 4.143-3.347 7.49-8.924 10.04-16.574 0 20.239-.478 36.016-1.434 47.331-.956 11.315-3.984 20.398-9.084 27.092-4.94 6.693-11.315 10.199-18.805 10.199-7.331 0-13.227-1.753-17.53-5.259-2.231-2.072-4.462-5.259-6.375-9.562.959.158 1.755.477 2.552.636"/></g><g id="XMLID_12_"><path id="XMLID_13_" fill="#FFF" d="M614.661 144.542l-9.562-11.474v11.474h-2.231v-17.53l9.562 11.315v-11.315h2.231v17.53z"/></g><g id="XMLID_8_"><path id="XMLID_9_" fill="#FFF" d="M618.486 133.546c-.637-.797-.956-1.594-.956-2.709 0-1.116.319-1.912.956-2.709.637-.797 1.434-1.116 2.39-1.116s1.753.319 2.39 1.116c.637.797.956 1.594.956 2.709 0 1.116-.319 1.912-.956 2.709s-1.434 1.116-2.39 1.116-1.753-.479-2.39-1.116zm1.116-4.144c-.319.319-.478.797-.478 1.434 0 .478.159.956.478 1.434.319.319.797.637 1.275.637s.956-.159 1.275-.637c.319-.319.478-.797.478-1.434 0-.478-.159-.956-.478-1.434-.319-.319-.797-.637-1.275-.637-.479.159-.957.319-1.275.637z"/></g></svg>