<svg version="1.1" id="Livello_1" xmlns="http://www.w3.org/2000/svg" xmlns:xlink="http://www.w3.org/1999/xlink" x="0" y="0" width="210.605" height="126.29" viewBox="0 0 210.605 126.29" xml:space="preserve"><g id="XMLID_718_"><path id="XMLID_1009_" fill="none" stroke="#BCC7BC" stroke-miterlimit="10" d="M105.81 0C87.007 0 71.763 15.244 71.763 34.048s15.244 34.048 34.048 34.048 34.048-15.244 34.048-34.048S124.615 0 105.81 0zm26.422 27.59c-.948 2.72-1.97 5.394-4.07 7.538-1.543 1.575-2.882 3.35-4.282 5.062-1.166 1.426-.51 2.987-.026 4.37.55 1.57.483 3.102.25 4.636-.087.57-.705 1.138-1.212 1.543-.814.65-1.747 1.143-2.613 1.73-.63.428-.845.98-.675 1.772.4 1.872.206 2.143-1.39 3.188-.354.232-.64.683-.74 1.11-.667 2.844-4.01 5.522-6.927 5.704-.922.058-1.826.41-2.74.41h-.392c-.528 0-1.056-1.222-1.13-2.294-.063-.93-.872-1.6-1.284-2.523-.407-.913-.734-1.863-1.09-2.8-.47-1.242-.794-2.565-1.43-3.716-1.162-2.097-1.27-4.096.07-6.106.74-1.11.17-2.226-.118-3.214-.403-1.383-1.018-2.805-1.905-3.92-1.057-1.33-1.446-2.576-1.07-4.225.474-2.07.237-2.263-1.824-2.348-.384-.016-.934-.168-1.106-.444-.777-1.25-2.027-1.357-3.014-.83-2.19 1.17-4.58.44-6.804 1.036-.31.082-.766-.01-1.032-.198-1.52-1.066-3.084-2.102-3.817-3.945a2.49 2.49 0 0 0-.257-.457c-.12-.178-.252-.35-.378-.522-.704-.96-1.706-1.763-1.533-3.166.024-.193-.323-.392-.395-.636-.02-.063.104-.573.147-.622 1.262-1.41 1.128-2.604 1.13-4.295 0-.486-.116-1.093.123-1.433 1.333-1.892 2.316-4.094 4.676-5.098.583-.25 1.115-.933 1.374-1.546.414-.983.954-1.73 1.88-2.277.496-.293.85-.784 1.34-1.096.28-.178.7-.12 1.055-.118.817.006 1.748.48 2.426.194 1.374-.583 2.742-.47 4.197-.516.967-.03 1.926.053 2.89.053h.59c.754 0 .574.998.485 1.9-.04.39.308.453.658.64 1.275.678 2.635 1.194 3.942 1.815.633.3.993.256 1.27-.472.438-1.154 1.122-1.397 2.248-.996 1.725.614 3.442 1.275 5.345.772.42-.11.91-.03 1.354.05 1.71.306 2.106 1.017 1.717 2.762-.09.403.018.935.22 1.305.947 1.723 2.197 3.232 2.82 5.198.424 1.332 1.644 2.445 2.618 3.56.825.943 2.29 1.296 2.477 2.88.002.017.022.035.037.052.173.202 1.153.438 1.658.344 1.016-.19 1.982-.647 2.973-.98.976-.33 1.626.18 1.282 1.167z"/><path id="XMLID_1008_" fill="#BCC7BC" d="M91.302 25.658c.452-.148.9-.296 1.336-.443 1.09-.367 2.118-.724 3.002-1.05.177-.066.348-.13.513-.194a24.4 24.4 0 0 0 1.638-.68c.21-.098.385-.19.52-.27.066-.04.123-.08.17-.115a2.77 2.77 0 0 1 1.272-.562 3.226 3.226 0 0 1 1.186.046c.737.155 1.344.482 1.67.515.656.066 2.105.066 2.888-.328.783-.393.98-1.18 1.7-1.278.72-.1 1.13-.36 1.606-.117l1.147.476c.097.015 1.18.786 2.293 1.523 1.114.737 4.31 1.59 8.34 2.67 2.65.712 4.662 1.055 5.733 1.207-.015-.018-.035-.035-.037-.052-.187-1.583-1.653-1.936-2.478-2.88-.974-1.115-2.194-2.228-2.617-3.56-.624-1.966-1.874-3.475-2.82-5.2-.203-.37-.31-.9-.22-1.304.388-1.745-.01-2.456-1.72-2.763-.442-.078-.934-.16-1.353-.048-1.903.503-3.62-.158-5.345-.772-1.125-.4-1.81-.158-2.248.996-.278.728-.638.772-1.27.472-1.308-.62-2.67-1.137-3.943-1.816-.35-.186-.696-.25-.658-.638.088-.903.268-1.9-.487-1.9h-.59c-.963 0-1.92-.085-2.89-.054-1.454.047-2.822-.067-4.195.516-.678.288-1.61-.187-2.426-.194-.356-.003-.776-.06-1.056.12-.488.31-.843.803-1.34 1.095-.925.547-1.464 1.293-1.88 2.277-.258.613-.79 1.297-1.373 1.545-2.36 1.004-3.343 3.205-4.676 5.097-.24.34-.123.947-.123 1.432 0 1.69.132 2.885-1.13 4.294-.044.05-.166.56-.147.622.073.244.42.443.395.636-.173 1.403.83 2.206 1.533 3.166.126.172.257.344.378.522 1.613-.478 5.854-1.75 9.7-3.012z"/><path id="XMLID_1007_" fill="#FFF" d="M126.316 27.06c-1.07-.152-3.083-.494-5.733-1.206-4.03-1.08-7.226-1.933-8.34-2.67-1.114-.738-2.196-1.508-2.294-1.525l-1.148-.477c-.475-.245-.885.018-1.606.116-.72.097-.918.884-1.7 1.277-.783.393-2.232.393-2.887.328-.33-.033-.935-.36-1.672-.516a3.226 3.226 0 0 0-1.186-.047 2.79 2.79 0 0 0-1.272.562 2.01 2.01 0 0 1-.17.115c-.135.08-.31.172-.52.27a24.4 24.4 0 0 1-1.637.68 70.62 70.62 0 0 1-.513.194c-.884.327-1.91.685-3.002 1.05-.436.148-.883.296-1.336.444a397.136 397.136 0 0 1-9.697 3.013c.1.148.193.297.257.458.733 1.843 2.297 2.88 3.817 3.945.265.186.72.28 1.03.197 2.225-.596 4.616.134 6.805-1.035.987-.527 2.237-.42 3.014.83.17.276.72.427 1.105.443 2.06.085 2.298.278 1.825 2.348-.377 1.65.01 2.896 1.068 4.224.888 1.116 1.502 2.538 1.905 3.92.288.988.858 2.104.118 3.215-1.338 2.01-1.23 4.01-.07 6.107.637 1.15.96 2.474 1.432 3.717.355.935.68 1.885 1.09 2.798.41.924 1.22 1.593 1.284 2.523.073 1.073.6 2.296 1.13 2.296h.392c.912 0 1.817-.353 2.74-.41 2.917-.183 6.26-2.862 6.926-5.705.1-.426.386-.877.74-1.11 1.596-1.045 1.79-1.315 1.39-3.187-.17-.792.045-1.344.674-1.77.866-.59 1.8-1.083 2.613-1.733.51-.405 1.127-.973 1.213-1.543.233-1.533.3-3.065-.25-4.635-.485-1.384-1.14-2.945.026-4.37 1.4-1.712 2.738-3.488 4.28-5.063 2.1-2.145 3.123-4.818 4.07-7.538.345-.986-.305-1.498-1.283-1.168-.99.334-1.956.792-2.973.98-.504.094-1.484-.142-1.658-.344z"/><path id="XMLID_1006_" fill="#FFF" d="M92.638 25.215z"/><path id="XMLID_1005_" fill="#FFF" d="M95.64 24.164z"/><path id="XMLID_1004_" fill="#FFF" d="M99.752 22.343z"/><path id="XMLID_1003_" fill="#FFF" d="M81.605 28.67z"/><path id="XMLID_1002_" fill="#FFF" d="M98.31 23.02z"/><path id="XMLID_1001_" fill="#FFF" d="M97.79 23.29z"/></g><g id="XMLID_1045_"><g id="XMLID_682_"><defs><path id="XMLID_683_" d="M-46-50.68h300v767H-46z"/></defs><clipPath id="XMLID_15_"><use xlink:href="#XMLID_683_" overflow="visible"/></clipPath></g><path id="XMLID_1012_" fill="none" d="M97.2 91.52c-1.392-.997-3.592-1.2-6.6-1.2H87v12h2.464c3.312 0 5.777-.48 7.396-1.555 1.618-1.074 2.427-2.53 2.427-4.724 0-2.132-.696-3.52-2.087-4.52z"/><path id="XMLID_1000_" fill="#FFF" d="M59 118.32h5v-14h12v-4H64v-10h12v-5H59z"/><path id="XMLID_997_" fill="#BCC7BC" d="M103.96 95.965c0-3.463-1.044-6.09-3.13-7.92-2.088-1.83-5.113-2.724-9.076-2.724H82v33h5v-15.345l10.97 15.346h5.99l-9.37-12.686c2.753-.136 5.004-1.11 6.75-2.917 1.748-1.808 2.62-4.06 2.62-6.752zm-7.1 4.8c-1.62 1.074-4.084 1.556-7.396 1.556H87v-12h3.598c3.01 0 5.21.203 6.6 1.2 1.393 1 2.088 2.388 2.088 4.52 0 2.194-.808 3.652-2.426 4.725z"/><path id="XMLID_2_" fill="#BCC7BC" d="M109.22 126.29l19.583-40.97h-5.31l-7.236 15.882-7.26-15.88h-5.33l9.938 20.653-7.667 16.346h-6.333l3.98 4H109"/><path id="XMLID_995_" fill="#BCC7BC" d="M169 99.32h-14v-14h-5v33h5v-14h14v14h4v-33h-4z"/><path id="XMLID_994_" fill="#FFF" d="M49.28 109.036l3.63 9.285h5.242l-3.978-9H49.22z"/><path id="XMLID_993_" fill="#FFF" d="M42 108.523v-4.202h-3.835l4.74-12.545 4.652 12.546h5.018l-7.332-19h-4.65l-12.91 33h5.06l3.72-9H42v-.797z"/><path id="XMLID_66_" fill="#BCC7BC" d="M136 109.32h5v9h-5z"/><path id="XMLID_64_" fill="#BCC7BC" d="M130 90.32h6v14h5v-14h6v-5h-17z"/><path id="XMLID_9_" fill="#BCC7BC" d="M205.72 118.32H210v-9h-4.185z"/><path id="XMLID_8_" fill="#BCC7BC" d="M203.202 85.32l-9.574 25.547-9.574-25.546H176v33h5.56l-.34-28.675 10.684 28.676h3.403l10.73-29.072-.17 15.073H210v-19z"/><path id="XMLID_6_" fill="#FFF" d="M21.683 104.32H26v-19h-4.488z"/><path id="XMLID_5_" fill="#FFF" d="M21.74 110.616L5.517 85.32H0v33h5.382l-.318-25.748 16.585 25.75H26v-9h-4.275z"/></g></svg>