<svg version="1.1" id="Livello_1" xmlns="http://www.w3.org/2000/svg" x="0" y="0" width="271" height="111" viewBox="0 0 271 111" xml:space="preserve" fill="transparent"><path d="M0 111V0h271v111"/><path fill="#CFAB43" d="M34.076 55.794c.237.176.409.554.514 1.135.05.261.148.388.295.379.179-.015.265-.145.257-.39a9.14 9.14 0 0 0-.074-.597c-.04-.219-.061-.569-.061-1.05 0-.479-.047-.769-.14-.867-.094-.097-.366-.145-.816-.145H20.854c-.279 0-.461.059-.546.176-.086.118-.129.364-.129.74 0 .382-.061.867-.183 1.453-.099.456-.148.77-.148.94 0 .212.074.322.221.33.146.009.257-.147.331-.466.164-.735.394-1.236.693-1.501.297-.267.778-.399 1.439-.399h3.248c.31 0 .509.042.595.123.085.082.128.27.128.564l.012.319v12.166c0 .688-.11 1.165-.331 1.43-.221.266-.645.44-1.274.522-.27.033-.406.112-.406.239 0 .176.123.262.37.262.081 0 .356-.023.823-.072a8.27 8.27 0 0 1 .871-.036l.959-.013.896.013c.581 0 .95.01 1.106.036.302.049.503.072.601.072.229 0 .344-.088.344-.262 0-.136-.143-.228-.43-.276-1.029-.18-1.564-.749-1.605-1.706l-.013-.478v-12.03c0-.385.048-.626.142-.724.092-.098.32-.148.68-.148h3.444c.687-.002 1.147.086 1.384.261zm11.851 8.899c.098.07.232.33.404.78l.613 1.62c.498 1.294.748 2.158.748 2.593 0 .476-.204.752-.612.836l-.381.085c-.204.04-.306.124-.306.251 0 .168.107.25.319.25.081 0 .208-.016.38-.049.285-.049.996-.072 2.132-.072 1.087 0 1.842.021 2.267.062.237.015.393.023.466.023.22 0 .334-.067.343-.203.007-.152-.115-.251-.368-.299-.777-.139-1.292-.33-1.544-.57-.253-.243-.572-.858-.956-1.848l-.27-.662-5.27-13.502c-.091-.237-.201-.355-.332-.355s-.248.121-.354.367l-6.3 13.993-.355.81a5.509 5.509 0 0 1-.686 1.085c-.278.348-.498.545-.661.594l-.453.136c-.139.042-.208.129-.208.264 0 .151.109.225.33.225.04 0 .268-.022.684-.067a6.93 6.93 0 0 1 .55-.017c.515 0 .966.009 1.358.028l1.173.069c.187.009.326.013.415.013.236 0 .35-.067.343-.203-.009-.143-.135-.239-.381-.288-.563-.12-.941-.27-1.133-.441-.192-.171-.289-.451-.289-.835 0-.401.182-1.015.545-1.842l.803-1.806c.246-.556.442-.884.588-.982.147-.099.523-.148 1.128-.148h4.437c.456.001.735.035.833.105zm-.625-1.856c.04.13.061.224.061.281 0 .205-.205.306-.613.306h-3.701l-.331-.011c-.375 0-.563-.107-.563-.319 0-.073.054-.224.159-.454l2.39-5.306c.073-.163.138-.241.196-.233.114.009.221.143.319.406l.098.257 1.924 4.853.061.22zm20.662-7.043c.237.176.408.554.515 1.135.049.261.147.388.293.379.181-.015.266-.145.259-.39a9.916 9.916 0 0 0-.074-.597c-.042-.219-.061-.569-.061-1.05 0-.479-.047-.769-.141-.867-.094-.097-.366-.145-.816-.145H52.74c-.277 0-.459.059-.545.176-.086.118-.128.364-.128.74 0 .382-.062.867-.184 1.453-.098.456-.147.77-.147.94 0 .212.074.322.221.33.147.009.257-.147.33-.466.164-.735.394-1.236.693-1.501.298-.267.778-.399 1.441-.399h3.248c.31 0 .508.042.594.123.086.082.129.27.129.564l.013.319v12.166c0 .688-.11 1.165-.332 1.43-.221.266-.646.44-1.275.522-.27.033-.405.112-.405.239 0 .176.123.262.369.262.081 0 .355-.023.822-.072a8.29 8.29 0 0 1 .872-.036l.958-.013.897.013c.581 0 .949.01 1.104.036.304.049.503.072.602.072.229 0 .344-.088.344-.262 0-.136-.143-.228-.429-.276-1.029-.18-1.565-.749-1.605-1.706l-.012-.478v-12.03c0-.385.047-.626.14-.724.094-.098.322-.148.681-.148h3.443c.686-.002 1.148.086 1.385.261zm8.002-.899l.638-.246c.212-.071.319-.179.319-.324 0-.152-.11-.227-.332-.227-.049 0-.151.004-.306.014l-.821.067a24.8 24.8 0 0 1-1.558.04c-.987 0-1.781-.035-2.377-.108a1.819 1.819 0 0 0-.221-.014c-.245 0-.364.088-.356.264.008.144.14.24.392.287.76.123 1.256.36 1.489.713.232.351.349 1.034.349 2.049v10.507c0 1.039-.089 1.721-.27 2.045-.18.322-.58.537-1.201.643-.252.04-.379.131-.379.276 0 .167.11.251.33.251.156 0 .351-.013.588-.035l1.446-.088 1.777.028c.614 0 1.047.018 1.3.054.187.028.343.042.466.042.252 0 .379-.097.379-.288 0-.144-.203-.244-.612-.301-.515-.071-.892-.195-1.133-.368-.241-.171-.443-.466-.607-.884-.138-.37-.208-1.126-.208-2.273V57.83c.001-1.728.303-2.705.908-2.935zm14.166 9.798c.098.07.234.33.406.78l.612 1.62c.498 1.294.748 2.158.748 2.593 0 .476-.205.752-.614.836l-.379.085c-.205.04-.308.124-.308.251 0 .168.107.25.319.25.082 0 .208-.016.381-.049.286-.049.996-.072 2.132-.072 1.087 0 1.843.021 2.268.062.237.015.391.023.466.023.221 0 .335-.067.343-.203.009-.152-.115-.251-.368-.299-.776-.139-1.291-.33-1.544-.57-.254-.243-.572-.858-.957-1.848l-.27-.662-5.27-13.502c-.089-.237-.199-.355-.33-.355-.132 0-.25.121-.357.368l-6.299 13.993-.355.81a5.657 5.657 0 0 1-.687 1.085c-.278.348-.498.545-.662.594l-.453.136c-.139.042-.208.129-.208.264 0 .151.11.225.33.225.042 0 .269-.022.685-.067.129-.011.314-.017.55-.017.513 0 .965.009 1.357.028l1.173.069c.188.009.327.013.417.013.236 0 .351-.067.341-.203-.007-.143-.134-.239-.379-.288-.565-.12-.942-.27-1.135-.441-.192-.171-.287-.451-.287-.835 0-.401.181-1.015.544-1.842l.805-1.806c.244-.556.442-.884.588-.982.147-.099.522-.148 1.127-.148h4.437c.458 0 .735.034.833.104zm-.625-1.856c.042.13.061.224.061.281 0 .205-.204.306-.612.306h-3.701l-.332-.011c-.377 0-.564-.107-.564-.319 0-.073.053-.224.159-.454l2.39-5.306c.074-.163.139-.241.195-.233.115.009.221.143.319.406l.098.257 1.924 4.853.063.22zm23.407-4.696v-1.322c0-.785.079-1.32.238-1.607.16-.285.488-.49.987-.612.172-.049.254-.127.246-.232-.017-.172-.13-.257-.344-.257-.139 0-.339.024-.6.073a7.93 7.93 0 0 1-1.214.074c-.947 0-1.703-.031-2.268-.089a5.934 5.934 0 0 0-.514-.034c-.237 0-.355.075-.355.227 0 .161.118.259.355.3.842.139 1.424.354 1.747.644.322.29.524.782.606 1.476l.146 2.82-.011 1.654v6.067c-.009.147-.054.225-.135.232-.049.009-.163-.089-.343-.293L98.18 54.489c-.203-.237-.408-.355-.612-.355-.107 0-.257.004-.453.012l-.196.013-.822-.025-.502-.013a2.92 2.92 0 0 0-.196-.011c-.181 0-.27.075-.27.227 0 .15.11.243.33.275.85.115 1.5.578 1.949 1.392.449.813.674 1.928.674 3.342v8.341c0 .884-.121 1.523-.362 1.921-.241.397-.704.713-1.39.95-.238.08-.352.18-.344.3.017.149.131.227.344.227.089 0 .241-.016.453-.045.286-.037.589-.055.908-.055l.588-.023 1.25.062c.62.033.975.058 1.066.075.131.015.253.022.368.022.172 0 .257-.08.257-.239 0-.175-.134-.279-.404-.311-.645-.097-1.078-.249-1.299-.455-.221-.203-.36-.576-.416-1.115l-.037-.872.012-.515v-8.318c0-.368.078-.552.233-.552.065 0 .121.024.172.074l.122.134 10.332 11.814.268.319a.426.426 0 0 0 .283.11c.188.009.303-.087.344-.288.04-.2.06-.762.06-1.684V58.951l.024-.81zm14.462 6.552c.097.07.232.33.404.78l.612 1.62c.498 1.294.748 2.158.748 2.593 0 .476-.205.752-.613.836l-.379.085c-.205.04-.306.124-.306.251 0 .168.105.25.319.25.081 0 .208-.016.379-.049.286-.049.996-.072 2.133-.072 1.086 0 1.843.021 2.267.062.237.015.393.023.466.023.221 0 .335-.067.344-.203.008-.152-.115-.251-.368-.299-.777-.139-1.291-.33-1.545-.57-.254-.243-.572-.858-.956-1.848l-.269-.662-5.271-13.502c-.089-.237-.2-.355-.33-.355s-.25.121-.355.368l-6.299 13.993-.357.809c-.18.376-.409.738-.686 1.085-.278.348-.498.545-.662.594l-.454.136c-.138.042-.209.129-.209.264 0 .151.11.225.33.225.041 0 .27-.022.685-.067.131-.011.314-.017.55-.017.514 0 .966.009 1.357.028l1.173.069c.188.009.326.013.417.013.236 0 .35-.067.341-.203-.008-.143-.134-.239-.379-.288-.564-.12-.943-.27-1.134-.441-.192-.171-.287-.451-.287-.835 0-.401.181-1.015.545-1.842l.803-1.806c.245-.556.442-.884.589-.982.146-.099.522-.148 1.127-.148h4.436c.457.001.735.035.834.105zm-.626-1.856c.041.13.061.224.061.281 0 .205-.205.306-.612.306h-3.701l-.332-.011c-.375 0-.563-.107-.563-.319 0-.073.053-.224.159-.454l2.389-5.306c.074-.163.14-.241.196-.233.115.009.221.143.319.406l.098.257 1.925 4.853.061.22zm20.182-7.631c.219-.118.786-.177 1.699-.177.699 0 1.277.02 1.733.061l1.44.147c.547.049.9.133 1.058.251.159.119.291.386.396.803.065.261.11.518.135.772.017.205.087.306.213.306.217 0 .326-.188.326-.566 0-.893.069-1.606.208-2.14.042-.172.061-.308.061-.406 0-.189-.09-.282-.27-.282-.114 0-.25.016-.404.049-.213.041-.686.078-1.422.11l-1.702.085c-.442.025-1.435.038-2.978.038-1.734 0-2.963-.038-3.69-.111a10.286 10.286 0 0 0-.758-.061c-.345 0-.507.104-.491.311.007.128.11.199.306.216.482.042.821.11 1.017.208.196.099.376.286.539.565.254.418.38 1.015.38 1.792v11.059c0 .802-.094 1.366-.282 1.694-.188.329-.544.549-1.066.662-.254.057-.38.15-.38.276 0 .152.119.223.357.216.13-.009.339-.021.626-.036.353-.034.63-.049.835-.049l.946-.013.847.013c.532 0 .934.017 1.203.054.32.037.57.054.749.054.262 0 .386-.091.369-.275-.009-.159-.151-.24-.429-.24-.58 0-1.042-.191-1.385-.578-.343-.385-.515-.901-.515-1.55v-4.568c0-.338.02-.583.061-.739.033-.148.194-.242.482-.284.289-.04.922-.061 1.898-.061 1.058 0 1.859.069 2.405.208.269.065.458.175.574.331.114.156.219.449.317.882.088.4.213.6.374.6.151 0 .226-.097.226-.292 0-.074-.009-.188-.023-.343-.034-.261-.05-.869-.05-1.821 0-.343.005-.591.012-.746l.074-1.21c.017-.252-.055-.379-.214-.379-.134 0-.218.097-.251.293-.089.548-.305.934-.647 1.158-.341.225-.887.338-1.635.338l-1.44.024-.402.013-1.05-.024c-.431 0-.663-.111-.696-.331v-.318l-.012-.232v-4.844c-.004-.49.107-.794.326-.913zm18.249 9.487c.098.07.234.33.405.78l.614 1.62c.498 1.294.746 2.158.746 2.593 0 .476-.203.752-.613.836l-.38.085c-.203.04-.306.124-.306.251 0 .168.107.25.319.25.082 0 .208-.016.381-.049.286-.049.996-.072 2.131-.072 1.087 0 1.843.021 2.269.062.235.015.391.023.466.023.221 0 .335-.067.342-.203.009-.152-.114-.251-.368-.299-.776-.139-1.291-.33-1.543-.57-.254-.243-.572-.858-.957-1.848l-.27-.662-5.27-13.502c-.09-.237-.201-.355-.331-.355-.131 0-.249.121-.355.368l-6.298 13.993-.357.81c-.18.376-.408.738-.685 1.085-.278.348-.5.545-.663.594l-.453.136c-.139.042-.207.129-.207.264 0 .151.11.225.33.225.04 0 .269-.022.684-.067a6.93 6.93 0 0 1 .55-.017c.514 0 .966.009 1.357.028l1.174.069c.186.009.326.013.416.013.237 0 .349-.067.342-.203-.008-.143-.134-.239-.38-.288-.564-.12-.941-.27-1.134-.441-.191-.171-.288-.451-.288-.835 0-.401.181-1.015.544-1.842l.805-1.806c.244-.556.44-.884.587-.982.148-.099.523-.148 1.128-.148h4.437c.456 0 .733.034.831.104zm-.625-1.856c.042.13.061.224.061.281 0 .205-.203.306-.612.306h-3.702l-.33-.011c-.377 0-.564-.107-.564-.319 0-.073.053-.224.158-.454l2.391-5.306c.072-.163.137-.241.195-.233.115.009.222.143.319.406l.098.257 1.924 4.853.062.22zm10.478 6.64c-.131.67-.544 1.054-1.238 1.154-.246.031-.368.115-.368.25 0 .176.114.264.343.264.163 0 .441-.026.832-.074a8.28 8.28 0 0 1 .981-.049c.385 0 .904.021 1.558.061l.993.061 1.14.049.944.037c1.706 0 3.114-.487 4.222-1.463 1.107-.976 1.659-2.214 1.659-3.716 0-1.004-.289-1.894-.869-2.67-.58-.775-1.321-1.265-2.22-1.469-.417-.089-.629-.174-.636-.257-.009-.048.049-.109.17-.183l.527-.369c1.08-.719 1.618-1.729 1.618-3.03 0-1.26-.517-2.25-1.549-2.969-1.034-.721-2.453-1.08-4.26-1.08-.384 0-.792.012-1.224.036l-1.373.086c-.327.017-.794.024-1.397.024-.433 0-.773-.007-1.018-.024a25.052 25.052 0 0 0-.625-.025c-.326 0-.489.093-.489.276 0 .176.167.264.503.264.67 0 1.164.256 1.483.766.317.512.477 1.308.477 2.389v9.475c-.001.868-.061 1.597-.184 2.186zm2.2-8.039c-.094-.073-.141-.252-.141-.538v-4.914c0-.507.09-.84.27-1 .18-.159.553-.24 1.118-.24 1.286 0 2.366.389 3.243 1.165.875.776 1.314 1.732 1.314 2.867 0 1.847-1.028 2.77-3.082 2.77h-2.027c-.37.001-.601-.036-.695-.11zm2.952.969c1.186 0 2.171.408 2.952 1.224.782.816 1.172 1.843 1.172 3.083 0 1.207-.355 2.148-1.067 2.822-.712.672-1.711 1.007-2.995 1.007-.999 0-1.738-.074-2.216-.225-.479-.15-.776-.402-.89-.752l-.074-.477.024-.564v-5.653c0-.203.039-.332.115-.385.078-.053.265-.079.56-.079h2.419v-.001zm13.278-7.077c.147-.128.473-.191.979-.191h1.922c1.264 0 2.131.062 2.604.183.473.123.787.368.941.735.098.237.148.487.148.748v.319c0 .254.08.376.238.368.142-.009.232-.072.275-.189.042-.118.083-.413.124-.885l.049-.721c.042-.537.075-.862.099-.977.024-.114.037-.207.037-.281 0-.236-.136-.354-.404-.354-.107 0-.27.017-.49.049-.107.016-.401.032-.882.049l-1.74.085c-.768.034-1.651.05-2.647.05-1.642 0-3.048-.067-4.217-.197a7.464 7.464 0 0 0-.82-.061c-.368 0-.551.113-.551.336 0 .152.118.229.355.229.743 0 1.244.202 1.501.607.257.405.386 1.192.386 2.363v10.371l-.012.798c0 .982-.294 1.556-.882 1.718l-.466.136c-.213.055-.319.152-.319.288 0 .175.13.262.391.262.115 0 .328-.028.639-.085.588-.098 1.597-.146 3.027-.146 1.021 0 2.313.071 3.873.218.4.033.718.052.956.052 1.094 0 2.001-.441 2.721-1.32.596-.733.895-1.364.895-1.893 0-.22-.075-.325-.225-.317-.093.009-.185.082-.278.221-.913 1.446-2.972 2.168-6.179 2.168-1.011 0-1.642-.085-1.891-.257-.249-.172-.373-.605-.373-1.301V63.99l-.012-.406c0-.245.067-.409.202-.491.134-.081.401-.122.8-.122h2.704c.701 0 1.199.097 1.492.293.294.197.488.569.587 1.116l.074.344c.033.179.137.268.314.268.158 0 .237-.102.237-.305 0-.074-.007-.192-.023-.355a14.81 14.81 0 0 1-.075-1.479c0-.653.037-1.374.109-2.164.01-.122.015-.211.015-.269 0-.212-.08-.321-.239-.33-.167-.008-.271.09-.312.295-.107.538-.226.883-.357 1.029-.13.147-.417.265-.857.355-.499.098-1.177.146-2.034.146h-1.887c-.352 0-.563-.039-.631-.116-.07-.078-.104-.305-.104-.683v-4.945c-.006-.433.066-.714.213-.841zm22.955 2.987c0-1.398-.478-2.451-1.434-3.159-.956-.706-2.374-1.061-4.253-1.061-.499 0-1.075.02-1.728.062-.907.056-1.548.085-1.924.085-.434 0-.796-.012-1.091-.036a26.684 26.684 0 0 0-.858-.049c-.278 0-.417.083-.417.251 0 .145.131.24.392.287l.576.087c.891.146 1.336.858 1.336 2.136l.024 1.277v8.812c0 1.383-.102 2.311-.306 2.782-.205.471-.634.766-1.287.89-.205.038-.305.118-.305.238 0 .168.101.25.305.25.123 0 .343-.015.662-.049.391-.039.727-.061 1.005-.061l.637-.01 1.177.012c.702 0 1.221.018 1.557.054.368.037.608.054.722.054.287 0 .423-.078.406-.238-.009-.152-.159-.243-.453-.276-.737-.075-1.279-.25-1.63-.528-.262-.205-.428-.436-.496-.696-.069-.257-.104-.738-.104-1.444l-.012-.492v-3.837c0-.205.049-.336.147-.393l.27-.05h1.63c.441 0 .76.169.956.503l.172.27 3.052 4.657c.604.915 1.2 1.574 1.783 1.979a3.393 3.393 0 0 0 1.979.607 4.5 4.5 0 0 0 1.207-.149c.355-.101.537-.212.545-.337.007-.108-.061-.167-.208-.175l-.392-.026c-.882-.056-1.847-.851-2.892-2.383l-.392-.587-3.383-4.988c2.016-1.004 3.025-2.428 3.025-4.269zm-7.346 3.85c-.103-.103-.154-.346-.154-.732v-4.992l-.012-.405c0-.418.092-.708.277-.868.184-.159.517-.24 1-.24 1.294 0 2.358.383 3.194 1.15.835.767 1.253 1.745 1.253 2.933 0 1.024-.308 1.832-.922 2.422-.613.59-1.457.885-2.529.885h-1.389c-.377.001-.616-.05-.718-.153zm25.642 6.38c-1.07 1.34-2.553 2.01-4.449 2.01-1.985 0-3.65-.803-4.994-2.405-1.343-1.602-2.016-3.596-2.016-5.978 0-2.219.585-4.03 1.754-5.433 1.171-1.403 2.679-2.105 4.527-2.105 1.479 0 2.882.408 4.206 1.222 1.326.816 2.308 1.874 2.945 3.179.074.147.164.216.27.207.163-.007.246-.11.246-.306 0-.09-.022-.208-.062-.355a9.5 9.5 0 0 1-.172-.931l-.122-1.152a7.196 7.196 0 0 1-.074-.833c0-.384-.074-.576-.221-.576a.26.26 0 0 0-.171.073l-.294.221c-.098.065-.175.097-.233.097-.041 0-.11-.032-.208-.097-.646-.417-1.51-.765-2.592-1.042-1.082-.278-2.105-.417-3.069-.417-2.501 0-4.583.858-6.246 2.574-1.663 1.716-2.494 3.861-2.494 6.434 0 2.451.784 4.463 2.353 6.035 1.569 1.574 3.579 2.359 6.03 2.359 1.831 0 3.542-.461 5.135-1.382l.809-.479c.457-.261.798-.409 1.017-.442.188-.024.306-.056.357-.097l.072-.184-.023-.393V64.42l-.013-.393c0-.753.31-1.204.931-1.35.245-.064.368-.165.368-.3 0-.152-.094-.227-.282-.227-.091 0-.418.02-.983.061-.205.016-.938.025-2.199.025l-.922-.013-.491-.011c-.287 0-.425.075-.418.227.009.176.172.28.49.311.654.049 1.088.165 1.305.344.216.18.325.518.325 1.017v2.759c.001.79-.131 1.35-.392 1.677zm10.711-13.217c.147-.128.473-.191.979-.191h1.921c1.264 0 2.132.062 2.605.183.473.123.787.368.941.735.098.237.147.487.147.748v.319c0 .254.078.376.239.368.14-.009.231-.072.274-.189.042-.118.082-.413.124-.885l.049-.721c.042-.537.074-.862.098-.977.025-.114.038-.207.038-.281 0-.236-.136-.354-.406-.354-.105 0-.268.017-.489.049-.108.016-.401.032-.882.049l-1.742.085c-.767.034-1.65.05-2.646.05-1.644 0-3.049-.067-4.217-.197a7.48 7.48 0 0 0-.821-.061c-.368 0-.551.113-.551.336 0 .152.119.229.357.229.743 0 1.243.202 1.5.607.257.405.387 1.192.387 2.363v10.371l-.012.798c0 .982-.295 1.556-.882 1.718l-.466.136c-.213.055-.319.152-.319.288 0 .175.13.262.391.262.114 0 .327-.028.637-.085.589-.098 1.598-.146 3.027-.146 1.022 0 2.311.071 3.873.218.401.033.719.052.957.052 1.093 0 2.001-.441 2.721-1.32.596-.733.895-1.364.895-1.893 0-.22-.076-.325-.228-.317-.091.009-.183.082-.276.221-.913 1.446-2.973 2.168-6.179 2.168-1.011 0-1.642-.085-1.891-.257-.249-.172-.373-.605-.373-1.301V63.99l-.013-.406c0-.245.069-.409.202-.491.135-.081.402-.122.802-.122h2.702c.701 0 1.199.097 1.493.293.292.197.488.569.587 1.116l.072.344c.033.179.139.268.314.268.158 0 .238-.102.238-.305 0-.074-.007-.192-.023-.355a14.81 14.81 0 0 1-.075-1.479c0-.653.037-1.374.109-2.164.008-.122.013-.211.013-.269 0-.212-.078-.321-.238-.33-.167-.008-.271.09-.314.295-.105.538-.224.883-.355 1.029-.13.147-.417.265-.857.355-.5.098-1.178.146-2.034.146h-1.887c-.352 0-.563-.039-.631-.116-.071-.078-.104-.305-.104-.683v-4.945c-.001-.433.072-.714.219-.841zm4.073-4.741l.194-.219c.114-.13.17-.249.17-.355 0-.317-.167-.475-.5-.475-.634 0-1.012.014-1.14.043-.125.029-.224.128-.297.298l-.283.648c-.065.154-.221.493-.466 1.014l-.257.561c-.089.196-.134.354-.134.477 0 .171.077.256.234.256.141 0 .435-.163.88-.488l1.599-1.76zM108.463 38.967l.039 1.61c0 .594-.066 1.009-.197 1.245-.131.237-.392.409-.779.514-.165.045-.247.118-.247.221 0 .115.095.173.286.173.105 0 .499-.017 1.182-.054.44-.029.761-.044.965-.044.294 0 .57.014.826.039l.769.08c.091.007.174.01.247.01.242 0 .364-.065.364-.192 0-.123-.175-.21-.525-.26-.486-.074-.82-.219-1.006-.435-.184-.219-.276-.578-.276-1.078l-.05-1.245-.186-5.366-.06-2.382c0-.757.068-1.302.202-1.635a.966.966 0 0 1 .705-.618l.426-.108c.131-.032.197-.11.197-.232 0-.134-.067-.199-.197-.192l-.287.02a9.72 9.72 0 0 1-1.322.03 5.681 5.681 0 0 0-.433-.04c-.124 0-.211.026-.262.074-.048.051-.122.18-.221.39l-4.634 9.935-.088.198-.118.267c-.06.126-.109.187-.148.187-.032 0-.086-.085-.157-.256l-.504-1.015-4.111-8.87-.108-.228c-.191-.414-.428-.621-.711-.621-.092 0-.215.01-.364.029-.145.012-.486.019-1.026.019-.354 0-.579-.007-.669-.019a4.894 4.894 0 0 0-.327-.02c-.164 0-.246.07-.246.212 0 .129.099.21.295.242.723.131 1.24.479 1.549 1.042.31.562.464 1.43.464 2.602 0 .546-.05 1.856-.148 3.93l-.137 2.863c-.039.81-.156 1.382-.346 1.719-.191.336-.525.559-1.005.671-.159.032-.238.103-.238.213 0 .141.099.212.296.212.074 0 .174-.01.305-.031.44-.058.9-.086 1.377-.086.401 0 .969.032 1.704.099.118.012.24.019.364.019.191 0 .285-.074.285-.223 0-.129-.2-.226-.603-.291-.814-.125-1.222-.766-1.222-1.923 0-1.203.01-2.007.029-2.408l.227-4.884 3.71 8.004.197.414c.158.302.25.482.276.542.142.322.292.484.449.484.148 0 .29-.155.418-.464.035-.071.093-.197.178-.375.152-.296.33-.672.536-1.134l.83-1.852 1.007-2.071.881-1.882c.185-.382.557-1.063 1.118-2.041l.255 6.266zm13.586-1.4c.079.056.188.265.325.627l.493 1.306c.401 1.041.603 1.737.603 2.085 0 .383-.165.606-.494.672l-.306.07c-.164.032-.246.099-.246.202 0 .134.086.202.255.202.067 0 .168-.012.308-.038.229-.04.801-.06 1.718-.06.873 0 1.482.017 1.825.051.19.012.315.019.375.019.177 0 .268-.055.276-.165.006-.121-.093-.202-.298-.24-.624-.111-1.038-.265-1.243-.459-.203-.194-.458-.691-.77-1.488l-.216-.533-4.242-10.868c-.073-.191-.162-.288-.267-.288-.105 0-.2.1-.286.297l-5.071 11.267-.286.651c-.146.302-.33.594-.553.873-.225.281-.401.439-.533.48l-.366.109c-.111.034-.167.105-.167.212 0 .121.088.182.265.182.032 0 .217-.017.552-.054.105-.01.252-.015.443-.015.414 0 .778.008 1.093.023l.944.055c.151.009.262.012.335.012.19 0 .283-.055.276-.163-.008-.115-.11-.193-.308-.232-.452-.099-.758-.216-.911-.355-.155-.14-.233-.363-.233-.673 0-.324.148-.819.438-1.482l.648-1.454c.197-.449.354-.712.474-.792.118-.08.42-.118.907-.118h3.573c.368-.003.591.025.67.082zm-.504-1.496c.034.105.05.181.05.228 0 .164-.166.246-.493.246h-2.98l-.267-.01c-.303 0-.454-.085-.454-.256 0-.059.042-.182.127-.366l1.926-4.271c.058-.132.112-.194.157-.188.092.007.178.115.257.325l.079.207 1.549 3.907.049.178zm10.834-6.393l.513-.197c.172-.058.257-.143.257-.26 0-.123-.088-.184-.267-.184-.038 0-.121.005-.247.011l-.662.055c-.347.023-.765.032-1.252.032-.795 0-1.433-.029-1.914-.087a2.016 2.016 0 0 0-.178-.011c-.197 0-.293.071-.286.213.006.114.111.192.317.231.61.099 1.01.289 1.197.574.187.282.282.831.282 1.649v8.46c0 .837-.073 1.385-.218 1.645-.145.26-.467.434-.966.519-.203.032-.305.105-.305.222 0 .134.087.202.265.202.126 0 .283-.01.474-.029l1.163-.07 1.433.022c.493 0 .841.015 1.045.045.151.02.276.032.374.032.204 0 .308-.077.308-.231 0-.117-.166-.197-.495-.242-.414-.059-.717-.159-.912-.296-.194-.139-.357-.377-.488-.713-.112-.296-.168-.905-.168-1.83v-7.397c0-1.393.242-2.18.73-2.365zm4.722.226c-.794.67-1.191 1.539-1.191 2.603 0 .953.304 1.729.913 2.328.607.597 1.64 1.143 3.097 1.636 1.416.474 2.267.839 2.564 1.096.577.501.868 1.117.868 1.848 0 .763-.315 1.412-.94 1.944-.629.534-1.392.8-2.298.8-.892 0-1.718-.276-2.479-.83-.761-.555-1.26-1.24-1.496-2.059-.094-.317-.202-.478-.322-.485-.134-.006-.202.089-.202.285 0 .25.086.671.257 1.263.151.547.233.846.246.898.08.368.138.598.178.685.04.089.118.173.238.252.283.191.727.359 1.336.503a7.218 7.218 0 0 0 1.672.219c1.402 0 2.55-.391 3.444-1.173.895-.783 1.343-1.788 1.343-3.019 0-1.813-1.216-3.118-3.647-3.914-1.246-.414-2.03-.702-2.348-.858-.32-.159-.613-.409-.882-.752-.309-.401-.463-.879-.463-1.431 0-.626.237-1.148.713-1.566.476-.418 1.067-.627 1.775-.627.892 0 1.702.232 2.425.692.724.463 1.205 1.052 1.44 1.764.107.316.216.474.321.474.141 0 .212-.102.212-.306 0-.052-.016-.188-.049-.404l-.158-1.017c-.085-.552-.129-.885-.129-.996 0-.33-.082-.49-.245-.483-.054 0-.09.012-.109.039l-.138.118a.374.374 0 0 1-.235.1.443.443 0 0 1-.179-.04l-.68-.286c-.489-.203-1.083-.306-1.787-.306-1.253-.001-2.274.334-3.065 1.005zm13.915-.448c-.947.37-1.729.871-2.347 1.504-.587.597-1.052 1.342-1.397 2.232a7.388 7.388 0 0 0-.518 2.696c0 2.09.656 3.78 1.968 5.068 1.314 1.289 3.031 1.934 5.156 1.934 2.072 0 3.774-.674 5.102-2.022 1.329-1.347 1.993-3.073 1.993-5.177 0-1.985-.661-3.613-1.978-4.885-1.32-1.273-3.009-1.908-5.066-1.908-.995 0-1.967.186-2.913.558zm6.728 2.048c1.191 1.312 1.788 2.948 1.788 4.912 0 1.708-.499 3.118-1.492 4.232-.995 1.112-2.256 1.67-3.785 1.67-1.67 0-3.081-.683-4.229-2.05-1.15-1.367-1.723-3.044-1.723-5.035 0-1.74.45-3.124 1.348-4.153.896-1.026 2.11-1.54 3.639-1.54 1.776 0 3.263.655 4.454 1.964zm17.662.789v-1.067c0-.631.064-1.062.194-1.292.128-.232.392-.394.794-.493.137-.04.203-.101.196-.188-.012-.139-.103-.208-.276-.208-.112 0-.273.021-.483.06-.245.039-.57.06-.977.06-.764 0-1.373-.024-1.826-.073a5.351 5.351 0 0 0-.414-.026c-.191 0-.287.06-.287.183 0 .127.096.208.287.241.677.111 1.146.284 1.406.518.261.233.422.629.488 1.189l.119 2.269-.01 1.333v4.883c-.006.118-.042.181-.109.188-.037.006-.13-.073-.276-.236l-9.078-10.282c-.164-.191-.328-.286-.493-.286-.085 0-.207.004-.364.01l-.159.009-.662-.02-.404-.01c-.072-.006-.125-.011-.156-.011-.146 0-.218.062-.218.184 0 .121.088.196.266.222.684.092 1.208.466 1.57 1.12.36.655.542 1.552.542 2.69v6.715c0 .711-.097 1.227-.291 1.546-.195.32-.569.574-1.121.765-.191.065-.282.145-.275.243.012.121.105.183.275.183.072 0 .195-.013.366-.035.23-.031.473-.045.729-.045l.474-.018 1.005.048c.503.028.788.047.859.06.107.012.205.019.298.019.137 0 .207-.064.207-.192 0-.142-.109-.227-.327-.252-.518-.078-.868-.201-1.047-.366-.176-.164-.288-.463-.335-.898l-.028-.7.01-.415v-6.696c0-.298.061-.445.188-.445.053 0 .098.019.137.058l.098.109 8.318 9.512.218.257a.351.351 0 0 0 .226.089c.153.006.245-.071.277-.233.033-.16.049-.613.049-1.356v-8.269l.02-.651z"/><path fill="#C6AB4C" d="M91.19 80.526c.131-.066.463-.1.998-.1.413 0 .751.008 1.02.034l.847.088c.32.028.528.075.621.146.094.071.172.227.234.474.039.151.065.305.08.452.009.121.051.18.125.18.129 0 .192-.113.192-.331 0-.528.041-.947.122-1.261.023-.102.035-.181.035-.235 0-.113-.053-.168-.157-.168-.068 0-.148.009-.238.029-.124.026-.403.047-.837.063l-1 .05c-.26.017-.843.022-1.752.022-1.017 0-1.74-.022-2.167-.064a6.685 6.685 0 0 0-.447-.038c-.201 0-.298.064-.289.185.004.075.064.118.18.126.283.024.482.066.599.121.116.059.221.168.316.335.15.244.225.596.225 1.053v6.5c0 .469-.055.805-.167.998-.109.189-.32.319-.627.386-.148.033-.223.088-.223.163 0 .088.071.13.211.126l.366-.021c.208-.021.372-.029.491-.029l.556-.005.498.005c.314 0 .55.012.708.033.187.021.335.034.439.034.155 0 .225-.055.217-.164-.004-.092-.088-.142-.253-.142-.339 0-.612-.113-.814-.339-.201-.227-.302-.532-.302-.909v-2.688c0-.196.012-.343.036-.435.02-.088.114-.138.284-.168.17-.021.54-.033 1.116-.033.621 0 1.092.042 1.412.121.159.042.27.104.337.197.068.092.131.263.187.515.053.239.127.353.221.353.088 0 .133-.055.133-.173 0-.042-.006-.109-.015-.201-.02-.151-.028-.507-.028-1.069 0-.201.002-.348.006-.44l.043-.708c.01-.151-.033-.222-.127-.222-.077 0-.127.054-.145.171-.054.319-.181.549-.382.679-.2.134-.522.201-.962.201l-.846.012-.236.009-.618-.016c-.254 0-.391-.064-.408-.194v-.189l-.008-.134V81.06c.001-.281.065-.462.193-.534zm5.988 4.15a3.006 3.006 0 0 0-.936 2.226c0 .906.295 1.644.882 2.222.588.578 1.34.868 2.251.868.932 0 1.702-.298 2.314-.892.609-.596.914-1.346.914-2.26 0-.838-.309-1.564-.93-2.172a3.078 3.078 0 0 0-2.224-.909 3.138 3.138 0 0 0-2.271.917zm3.756.265c.432.594.646 1.367.646 2.314 0 .75-.171 1.341-.513 1.777-.343.44-.811.658-1.405.658-.683 0-1.251-.31-1.709-.927-.459-.616-.686-1.384-.686-2.302 0-.721.183-1.303.549-1.748.367-.444.85-.667 1.449-.667.68.001 1.237.299 1.669.895zm5.013-.847c0-.109.002-.197.006-.277.009-.139-.03-.21-.115-.21a.367.367 0 0 0-.171.059c-.039.017-.133.067-.282.138l-.382.189a4.024 4.024 0 0 1-.93.293c-.124.026-.188.071-.188.143 0 .045.023.083.066.101a.207.207 0 0 0 .115.029l.311-.009c.225 0 .377.062.461.184.082.121.123.357.123.696v3.253c0 .277-.043.478-.127.603-.083.123-.248.232-.493.315-.086.038-.133.083-.137.142-.004.08.038.118.131.118.043 0 .137-.009.287-.026.149-.021.606-.029 1.37-.029.36 0 .586.005.676.014.164.029.286.042.367.042.112 0 .167-.042.167-.135 0-.087-.08-.137-.238-.155-.645-.038-.979-.26-1.003-.662l-.007-.362-.006-.217v-2.75c0-.302.155-.57.465-.805a1.72 1.72 0 0 1 1.065-.352c.567 0 1.005.18 1.314.54.308.365.462.876.462 1.543v2.486c0 .293-.094.469-.287.516l-.217.059c-.086.016-.129.066-.129.137 0 .055.017.093.049.114l.1.021.209-.012h.275l.71-.022c.426 0 .719.009.878.029.132.017.227.026.279.026.162 0 .242-.05.238-.156-.006-.075-.074-.121-.202-.137l-.302-.043c-.352-.054-.554-.239-.605-.558l-.021-.343.006-.218V86.68c0-.885-.155-1.542-.461-1.974-.447-.629-1.055-.947-1.822-.947-.694 0-1.361.382-2.003 1.148v-.813h-.002zm11.23 5.54c0 .244.056.36.165.357a.46.46 0 0 0 .217-.08c.108-.054.32-.1.637-.151l.403-.062c.054-.013.18-.026.379-.047.17-.017.259-.08.259-.18 0-.059-.024-.097-.078-.113l-.065-.009-.424.016c-.333 0-.498-.272-.498-.817v-9.154l-.007-.13c0-.105-.037-.159-.109-.159a.271.271 0 0 0-.137.05c-.631.381-1.196.599-1.691.662-.15.022-.219.08-.211.176.006.059.032.092.08.113.03.009.059.014.094.014l.251-.014c.491-.029.735.412.735 1.325v2.838c-.581-.339-1.161-.512-1.74-.512-.854 0-1.575.319-2.162.952-.586.632-.881 1.412-.881 2.33 0 .835.245 1.534.737 2.101.491.57 1.101.85 1.825.85.383 0 .727-.071 1.032-.218.304-.147.701-.428 1.19-.847v.709h-.001zm-.442-.632c-.293.239-.676.364-1.143.364-.637 0-1.19-.289-1.655-.868-.468-.579-.7-1.261-.7-2.049 0-.717.178-1.299.534-1.739.356-.44.825-.663 1.403-.663.651 0 1.213.23 1.687.684.211.201.315.52.315.951v2.373c.001.39-.146.703-.441.947zm7.364-2.779l.489.017.534.004c.314 0 .469-.08.469-.239 0-.108-.06-.302-.18-.577a3.61 3.61 0 0 0-.353-.667c-.482-.667-1.121-1.003-1.924-1.003-.735 0-1.375.315-1.923.944a3.205 3.205 0 0 0-.821 2.187c0 .88.266 1.614.797 2.21.529.594 1.186.892 1.969.892.696 0 1.355-.243 1.98-.729.337-.265.504-.469.504-.611 0-.08-.033-.118-.101-.114a.248.248 0 0 0-.107.05c-.616.469-1.187.705-1.71.705-.665 0-1.224-.277-1.679-.838-.455-.563-.683-1.249-.683-2.071l.006-.159h2.733v-.001zm-2.2-1.681c.262-.315.59-.474.983-.474.379 0 .732.159 1.055.483.325.322.488.674.488 1.048 0 .151-.191.23-.569.23h-2.442c.062-.545.222-.973.485-1.287zm2.389-2.88l.108-.125c.066-.076.099-.143.099-.197 0-.18-.094-.269-.281-.269-.359 0-.574.009-.647.026-.072.016-.129.075-.168.167l-.153.369c-.033.076-.119.26-.254.563-.142.301-.214.499-.219.578-.004.096.039.142.131.142.077 0 .24-.088.489-.272l.895-.982zm6.294 4.561l.489.017.534.004c.314 0 .469-.08.469-.239 0-.108-.06-.302-.18-.577a3.547 3.547 0 0 0-.354-.667c-.478-.667-1.12-1.003-1.923-1.003-.733 0-1.375.315-1.923.944a3.214 3.214 0 0 0-.821 2.187c0 .88.266 1.614.797 2.21.529.594 1.186.892 1.969.892.697 0 1.355-.243 1.98-.729.337-.265.505-.469.505-.611 0-.08-.034-.118-.102-.114a.248.248 0 0 0-.107.05c-.617.469-1.188.705-1.71.705-.665 0-1.224-.277-1.679-.838-.455-.563-.683-1.249-.683-2.071l.009-.159h2.73v-.001zm-2.2-1.681a1.23 1.23 0 0 1 .985-.474c.377 0 .729.159 1.053.483.325.322.488.674.488 1.048 0 .151-.191.23-.569.23h-2.443c.063-.545.224-.973.486-1.287zm12.665 1.681l.493.017.534.004c.31 0 .467-.08.467-.239 0-.108-.061-.302-.178-.577a3.802 3.802 0 0 0-.353-.667c-.482-.667-1.123-1.003-1.925-1.003-.735 0-1.378.315-1.922.944a3.208 3.208 0 0 0-.824 2.187c0 .88.266 1.614.797 2.21.532.594 1.188.892 1.969.892.697 0 1.358-.243 1.983-.729.335-.265.505-.469.505-.611 0-.08-.034-.118-.105-.114a.245.245 0 0 0-.104.05c-.616.469-1.189.705-1.711.705-.664 0-1.223-.277-1.68-.838-.452-.563-.679-1.249-.679-2.071l.006-.159h2.727v-.001zm-2.196-1.681c.261-.315.587-.474.983-.474.379 0 .732.159 1.057.483.325.322.484.674.484 1.048 0 .151-.189.23-.569.23h-2.441c.061-.545.224-.973.486-1.287zm6.934-.448c0-.109.003-.197.006-.277.009-.139-.029-.21-.116-.21a.38.38 0 0 0-.173.059c-.037.017-.131.067-.281.138l-.381.189a4.047 4.047 0 0 1-.929.293c-.125.026-.186.071-.186.143 0 .045.021.083.064.101a.205.205 0 0 0 .113.029l.312-.009c.224 0 .379.062.461.184.082.121.121.357.121.696v3.253c0 .277-.042.478-.126.603-.083.123-.249.232-.491.315-.086.038-.135.083-.139.142-.005.08.038.118.13.118.044 0 .14-.009.289-.026.146-.021.603-.029 1.368-.029.362 0 .587.005.678.014.161.029.284.042.366.042.111 0 .168-.042.168-.135 0-.087-.08-.137-.239-.155-.643-.038-.979-.26-1.003-.662l-.006-.362-.006-.217v-2.75c0-.302.153-.57.466-.805a1.715 1.715 0 0 1 1.065-.352c.565 0 1.005.18 1.311.54.31.365.463.876.463 1.543v2.486c0 .293-.097.469-.289.516l-.216.059c-.086.016-.13.066-.13.137 0 .055.018.093.05.114l.101.021.207-.012h.277l.708-.022c.428 0 .718.009.878.029.135.017.229.026.279.026.163 0 .243-.05.239-.156-.006-.075-.073-.121-.201-.137l-.304-.043c-.353-.054-.554-.239-.604-.558l-.023-.343.006-.218V86.68c0-.885-.152-1.542-.461-1.974-.446-.629-1.052-.947-1.821-.947-.691 0-1.36.382-2.001 1.148v-.813zm14.427-3.944a1.51 1.51 0 0 0 .05-.31c0-.105-.044-.156-.136-.156-.033 0-.101.038-.201.121a4.507 4.507 0 0 1-1.609.88c-.527.156-.795.324-.805.512-.005.071.033.104.115.104a.52.52 0 0 0 .195-.067c.183-.092.398-.142.647-.142.245 0 .412.055.498.163.088.109.13.315.13.616v6.727c0 .571-.254.868-.764.902l-.405.029c-.146.016-.222.071-.222.175 0 .08.067.122.201.122.145 0 .336-.013.576-.029.233-.021.581-.029 1.042-.029l1.588.016.368.013c.192 0 .287-.05.287-.143 0-.066-.029-.109-.092-.134a.573.573 0 0 0-.189-.029h-.121c-.476 0-.797-.088-.965-.268-.17-.18-.254-.523-.254-1.036v-7.049c.001-.465.022-.796.066-.988zm6.741 7.607a6.002 6.002 0 0 1-1.241 1.266c-.479.369-.934.603-1.364.708l-.34.097c-.162.033-.243.101-.243.188 0 .109.08.164.237.164.455 0 .974-.151 1.556-.453a7.11 7.11 0 0 0 1.663-1.228 7.037 7.037 0 0 0 1.582-2.247 6.207 6.207 0 0 0 .565-2.553c0-1.114-.304-2.049-.912-2.799-.608-.75-1.362-1.124-2.265-1.124-.841 0-1.543.331-2.108.994-.564.662-.846 1.488-.846 2.477 0 .842.26 1.555.778 2.142.52.591 1.152.884 1.898.884.599 0 1.204-.225 1.804-.688a23.1 23.1 0 0 1 .317-.234c-.228.93-.59 1.731-1.081 2.406zm.58-6.58c.451.636.675 1.412.675 2.321 0 .67-.153 1.199-.467 1.585-.311.386-.74.578-1.281.578-.64 0-1.186-.31-1.635-.935-.449-.62-.673-1.379-.673-2.276 0-.653.163-1.186.49-1.601.327-.419.746-.625 1.254-.625.639.001 1.184.316 1.637.953zm6.927 3.026c-.706 1.496-1.174 2.574-1.4 3.244a5.799 5.799 0 0 0-.339 1.882c0 .456.036.779.11.968.074.189.208.284.403.284.216 0 .431-.042.651-.121.217-.083.324-.163.324-.248a.67.67 0 0 0-.076-.225 2.417 2.417 0 0 1-.233-1.061c0-1.169.418-2.813 1.248-4.933.696-1.79 1.045-3.001 1.045-3.642 0-.151-.029-.256-.083-.31-.056-.055-.162-.085-.321-.085l-.287.009-.366.005h-2.517c-.322 0-.56-.009-.706-.034a2.537 2.537 0 0 0-.332-.021c-.134 0-.219.083-.26.251l-.127.654-.145.704c-.033.156-.053.31-.053.462 0 .205.067.305.197.305.077 0 .135-.08.174-.239.086-.39.245-.658.487-.809.239-.154.626-.23 1.163-.23h2.504c-.001.62-.353 1.685-1.061 3.19zm8.078 2.539c.279 0 .446-.012.499-.037.057-.021.101-.101.135-.227l.115-.469.136-.499c.006-.142-.044-.214-.151-.21-.04 0-.085.024-.136.067l-.189.159c-.191.154-.439.234-.74.234l-.304-.009v-5.378l.009-.255-.009-.281c0-.118-.038-.177-.115-.173-.183.009-1.039 1.091-2.574 3.237-1.53 2.146-2.294 3.345-2.294 3.596 0 .13.087.21.266.227.092.012.219.016.39.016l2.294-.016.663.009h.319v3.675l-.007.21c0 .126.053.192.156.192a.528.528 0 0 0 .224-.059c.098-.042.195-.071.286-.087.205-.038.322-.085.352-.135.042-.063.065-.163.065-.302l-.032-1.053.009-.712.009-.868-.009-.855h.633v.003zm-4.539-.989c.179-.26.289-.432.339-.503l.964-1.479c.431-.663.95-1.367 1.549-2.104v4.086h-2.852z"/></svg>