<svg version="1.1" id="Livello_1" xmlns="http://www.w3.org/2000/svg" x="0" y="0" viewBox="0 0 110.2 125.5" xml:space="preserve"><style type="text/css">.st0{fill:#1d1d1c}.st1{fill:none;stroke:#1d1d1c;stroke-width:.44}</style><g id="XMLID_2_"><g id="XMLID_15_"><path id="XMLID_16_" class="st0" d="M56.8 67c-1.9-5.8-2.9-14.3-2.9-25.5 0-11.1 1.1-19.4 3.2-25 2.1-5.6 5.5-8.3 10.1-8.3 5.4 0 9.2 4.1 11.3 12.2 1.3 5.1 2 12.6 2 22.6 0 10.9-.9 18.7-2.6 23.4-2.2 6.1-6.2 9.2-11.9 9.2-4.2 0-7.2-2.9-9.2-8.6m-8 41.5c.5.1 1.1.2 1.7.2 2.1 0 3.7-.8 5-2.3 1.3-1.5 1.9-3.6 1.9-6.1 0-2.5-.8-4.5-2.3-6-1.5-1.6-3.4-2.3-5.7-2.3-1 0-2.1.2-3.2.5-3.4 1-5.1 4-5.1 9 0 4.5 1.6 8.4 4.8 11.7 3.7 3.8 8.9 5.8 15.6 5.8 11.9 0 21.3-6.4 28.2-19.2 6-11.1 9-24.6 9-40.5 0-16.2-2.8-29-8.3-38.4-5.4-9.5-13-14.2-22.7-14.2-9.5 0-17.1 3.4-22.9 10.2-5.8 6.8-8.7 16-8.7 27.8 0 10.3 2.5 18.5 7.4 24.7 4.9 6.2 11 9.3 18 9.3 5.5 0 9.7-1.3 12.8-4 2.6-2.1 4.7-5.6 6.3-10.4 0 12.7-.3 22.6-.9 29.7-.6 7.1-2.5 12.8-5.7 17-3.1 4.2-7.1 6.4-11.8 6.4-4.6 0-8.3-1.1-11-3.3-1.4-1.3-2.8-3.3-4-6 .6.1 1.1.3 1.6.4"/></g><g id="XMLID_12_"><path id="XMLID_13_" class="st0" d="M39.2 90.7l-6-7.2v7.2h-1.4v-11l6 7.1v-7.1h1.4v11z"/></g><g id="XMLID_8_"><path id="XMLID_9_" class="st0" d="M41.6 83.8c-.4-.5-.6-1-.6-1.7s.2-1.2.6-1.7c.4-.5.9-.7 1.5-.7s1.1.2 1.5.7c.4.5.6 1 .6 1.7s-.2 1.2-.6 1.7c-.4.5-.9.7-1.5.7s-1.1-.3-1.5-.7zm.7-2.6c-.2.2-.3.5-.3.9 0 .3.1.6.3.9.2.2.5.4.8.4.3 0 .6-.1.8-.4.2-.2.3-.5.3-.9 0-.3-.1-.6-.3-.9-.2-.2-.5-.4-.8-.4-.3.1-.6.2-.8.4z"/></g><path id="XMLID_7_" class="st1" d="M20.3 26.5c4.9 0 8.9-4.4 8.9-9.8s-4-9.8-8.9-9.8-8.9 4.4-8.9 9.8 4 9.8 8.9 9.8z"/><path id="XMLID_4_" class="st0" d="M25.4 20.3c0-.2-.1-.4-.2-.5-.1-.1-.3-.2-.5-.2s-.4.1-.5.2c-.1.1-.2.3-.2.5s.1.4.2.5c.1.1.3.2.5.2s.3-.1.5-.2c.1-.1.2-.3.2-.5m.1-6.8v-1.2h-4.6V21H22v-2.3h1.7v-1.2H22v-4h3.5z"/><path id="XMLID_3_" class="st0" d="M15.1 13.5v-1.2h4.6v8.8h-1.1v-7.6z"/></g></svg>