<svg version="1.1" id="Livello_1" xmlns="http://www.w3.org/2000/svg" x="0" y="0" width="108.505" height="89.028" viewBox="0 0 108.505 89.028" xml:space="preserve"><path fill="#D1AD43" d="M6.689 62.108c.111.083.192.26.242.534.024.123.07.182.139.178.084-.007.124-.068.121-.184a3.75 3.75 0 0 0-.035-.281 3.018 3.018 0 0 1-.029-.494c0-.225-.022-.361-.066-.408-.044-.045-.172-.068-.384-.068H.473c-.131 0-.217.028-.257.083-.041.056-.061.171-.061.348a3.5 3.5 0 0 1-.086.683 2.564 2.564 0 0 0-.069.442c0 .1.035.152.104.155.069.004.121-.069.155-.219.077-.346.185-.581.326-.706.14-.125.366-.188.677-.188h1.527c.146 0 .239.02.28.058.04.038.06.127.06.265l.006.15v5.719c0 .323-.052.548-.156.672-.104.125-.303.207-.599.245-.127.016-.191.052-.191.112 0 .083.058.123.174.123.038 0 .167-.011.387-.034.111-.012.248-.017.409-.017l.451-.006.421.006c.273 0 .447.005.52.017.142.023.236.034.283.034.108 0 .162-.042.162-.123 0-.064-.068-.107-.202-.13-.484-.085-.735-.352-.754-.802l-.007-.222v-5.655c0-.181.023-.294.067-.34.043-.046.15-.07.32-.07h1.619c.322-.001.539.041.65.123zm5.571 4.183c.046.033.109.155.19.367l.288.762c.234.608.351 1.014.351 1.219 0 .223-.096.354-.288.393l-.179.04c-.096.019-.144.058-.144.118 0 .079.05.118.15.118.038 0 .098-.007.179-.023.134-.023.468-.034 1.002-.034.511 0 .866.01 1.066.029.111.007.185.011.219.011.103 0 .157-.032.161-.096.003-.072-.054-.118-.173-.141-.365-.065-.607-.155-.726-.268-.119-.114-.269-.403-.449-.869l-.127-.311-2.477-6.347c-.043-.111-.094-.167-.156-.167-.061 0-.117.057-.167.173l-2.96 6.578-.167.381a2.582 2.582 0 0 1-.323.51c-.13.164-.234.256-.311.279l-.213.064c-.065.02-.098.06-.098.124 0 .071.051.106.155.106.019 0 .126-.01.321-.032.061-.005.148-.008.258-.008.242 0 .454.004.638.013l.552.032c.088.004.153.006.195.006.111 0 .164-.032.161-.096-.004-.067-.064-.112-.179-.135-.265-.056-.443-.127-.533-.207-.09-.081-.136-.212-.136-.392 0-.189.086-.477.256-.866l.378-.849c.116-.261.208-.415.276-.462.069-.046.246-.069.53-.069h2.086c.217 0 .348.017.394.049zm-.293-.872a.52.52 0 0 1 .029.132c0 .096-.096.144-.288.144h-1.74l-.156-.005c-.176 0-.265-.05-.265-.15 0-.035.025-.105.075-.214l1.124-2.494c.034-.077.065-.113.092-.11.054.004.104.067.15.191l.046.121.905 2.281.028.104zm9.713-3.311c.111.083.192.26.242.534.023.123.069.182.138.178.085-.007.125-.068.122-.184a4.384 4.384 0 0 0-.035-.281 2.907 2.907 0 0 1-.029-.494c0-.225-.022-.361-.066-.408-.044-.045-.172-.068-.383-.068h-6.205c-.13 0-.216.028-.256.083-.04.056-.06.171-.06.348 0 .18-.029.408-.087.683a2.55 2.55 0 0 0-.069.442c0 .1.035.152.104.155.069.004.121-.069.155-.219.077-.346.185-.581.326-.706.14-.125.366-.188.677-.188h1.527c.146 0 .239.02.279.058.041.038.06.127.06.265l.006.15v5.719c0 .323-.052.548-.156.672-.104.125-.304.207-.599.245-.127.016-.19.052-.19.112 0 .083.058.123.174.123.038 0 .167-.011.386-.034.111-.012.248-.017.41-.017l.45-.006.422.006c.273 0 .446.005.519.017.143.023.236.034.283.034.107 0 .162-.042.162-.123 0-.064-.067-.107-.202-.13-.484-.085-.736-.352-.755-.802l-.006-.225v-5.655c0-.181.022-.294.066-.34.044-.046.151-.07.32-.07h1.619c.322.002.539.044.651.126zm3.761-.423l.3-.116c.1-.033.15-.084.15-.152 0-.071-.052-.107-.156-.107-.023 0-.071.002-.144.007l-.386.032c-.204.013-.448.019-.732.019-.464 0-.837-.016-1.117-.051a.8.8 0 0 0-.104-.007c-.115 0-.171.042-.167.124.004.068.066.113.184.135.358.058.59.169.7.335.109.165.164.486.164.963v4.939c0 .488-.042.809-.127.961-.084.152-.273.252-.565.302-.119.019-.178.062-.178.13 0 .078.052.118.155.118.073 0 .165-.006.277-.017l.68-.041.835.013c.289 0 .492.009.611.025.088.013.161.02.219.02.119 0 .178-.046.178-.135 0-.068-.095-.115-.288-.142-.242-.034-.42-.092-.533-.173-.113-.081-.208-.219-.285-.415-.065-.174-.098-.529-.098-1.068v-4.32c.001-.811.143-1.271.427-1.379zm6.66 4.606c.046.033.11.155.191.367l.288.762c.234.608.352 1.014.352 1.219 0 .223-.096.354-.289.393l-.178.04c-.096.019-.145.058-.145.118 0 .079.05.118.15.118.038 0 .098-.007.179-.023.135-.023.468-.034 1.002-.034.511 0 .866.01 1.066.029a4.7 4.7 0 0 0 .219.011c.104 0 .158-.032.161-.096.004-.072-.054-.118-.173-.141-.365-.065-.607-.155-.726-.268-.119-.114-.269-.403-.45-.869l-.127-.311-2.477-6.347c-.042-.111-.094-.167-.155-.167-.062 0-.117.057-.168.173l-2.961 6.578-.167.381a2.629 2.629 0 0 1-.323.51c-.131.164-.234.256-.311.279l-.213.064c-.065.02-.098.06-.098.124 0 .071.052.106.155.106.02 0 .126-.01.322-.032.061-.005.147-.008.258-.008.241 0 .454.004.638.013l.552.032c.089.004.153.006.196.006.111 0 .165-.032.16-.096-.003-.067-.063-.112-.178-.135-.266-.056-.443-.127-.534-.207-.09-.081-.135-.212-.135-.392 0-.189.085-.477.255-.866l.378-.849c.115-.261.208-.415.276-.462.069-.046.246-.069.53-.069h2.086c.218 0 .348.017.394.049zm-.294-.872c.02.061.029.105.029.132 0 .096-.096.144-.288.144h-1.74l-.156-.005c-.177 0-.265-.05-.265-.15 0-.035.025-.105.075-.214l1.123-2.494c.035-.077.065-.113.092-.11.054.004.104.067.15.191l.046.121.905 2.281.029.104zm11.004-2.207v-.622c0-.369.037-.621.112-.755.075-.134.229-.23.464-.288.081-.023.119-.06.116-.109-.008-.081-.061-.121-.162-.121-.065 0-.159.011-.282.034a3.722 3.722 0 0 1-.571.035c-.445 0-.801-.014-1.066-.042a2.72 2.72 0 0 0-.242-.016c-.111 0-.167.035-.167.107 0 .076.056.122.167.141.396.065.67.167.821.303.152.136.247.368.285.694l.069 1.326-.005.778v2.852c-.004.069-.025.106-.064.109-.023.004-.077-.042-.161-.138l-5.301-6.004c-.095-.111-.191-.167-.288-.167-.05 0-.121.002-.213.006l-.092.006-.386-.012-.236-.006a1.562 1.562 0 0 0-.092-.005c-.085 0-.127.035-.127.107 0 .071.052.114.155.129.4.054.705.272.916.654.211.382.317.906.317 1.571V67.7c0 .415-.057.716-.17.903-.113.187-.331.335-.654.447-.112.037-.165.085-.162.141.008.07.061.106.162.106.042 0 .113-.007.213-.021.134-.017.277-.026.427-.026l.277-.011.588.029c.292.016.458.027.501.035.061.007.119.01.173.01.081 0 .121-.037.121-.112 0-.082-.063-.131-.19-.146-.303-.046-.507-.117-.611-.214-.104-.096-.169-.271-.196-.524l-.017-.41.005-.242v-3.91c0-.173.037-.26.11-.26a.11.11 0 0 1 .081.035l.057.063 4.857 5.554.126.15a.2.2 0 0 0 .133.052c.089.004.142-.041.162-.135.019-.094.028-.358.028-.792v-4.829l.012-.381zm6.799 3.079c.046.033.109.155.19.367l.288.762c.234.608.352 1.014.352 1.219 0 .223-.096.354-.288.393l-.178.04c-.096.019-.144.058-.144.118 0 .079.049.118.15.118a.992.992 0 0 0 .178-.023c.135-.023.469-.034 1.003-.034.511 0 .867.01 1.066.029.111.007.185.011.219.011.104 0 .157-.032.162-.096.004-.072-.054-.118-.173-.141-.365-.065-.607-.155-.726-.268-.119-.114-.269-.403-.449-.869l-.126-.311-2.478-6.347c-.042-.111-.094-.167-.155-.167s-.117.057-.167.173l-2.961 6.578-.167.381a2.582 2.582 0 0 1-.323.51c-.131.164-.234.256-.311.279l-.214.064c-.065.02-.098.06-.098.124 0 .071.052.106.155.106.019 0 .127-.01.322-.032.061-.005.147-.008.258-.008.241 0 .454.004.638.013l.552.032c.089.004.153.006.196.006.111 0 .164-.032.16-.096-.004-.067-.063-.112-.178-.135-.265-.056-.443-.127-.533-.207-.09-.081-.135-.212-.135-.392 0-.189.085-.477.256-.866l.377-.849c.115-.261.208-.415.277-.462.069-.046.246-.069.53-.069h2.086c.212 0 .342.017.389.049zm-.295-.872a.52.52 0 0 1 .029.132c0 .096-.096.144-.288.144h-1.74l-.156-.005c-.176 0-.265-.05-.265-.15 0-.035.025-.105.075-.214l1.123-2.494c.035-.077.066-.113.092-.11.054.004.104.067.15.191l.046.121.905 2.281.029.104zm9.488-3.587c.103-.056.369-.083.799-.083.328 0 .6.009.815.029l.677.069c.257.023.423.063.497.118.075.056.137.181.186.377.031.123.052.244.063.363.008.096.041.144.1.144.102 0 .153-.088.153-.266 0-.42.032-.755.098-1.006a.841.841 0 0 0 .029-.191c0-.089-.042-.133-.127-.133a.956.956 0 0 0-.19.023c-.1.019-.323.037-.668.052l-.8.04c-.208.012-.675.018-1.4.018-.815 0-1.393-.018-1.735-.052a5.042 5.042 0 0 0-.357-.029c-.162 0-.238.049-.231.146.003.06.052.094.144.101.226.02.386.052.478.098a.653.653 0 0 1 .253.266c.119.196.179.477.179.842v5.199c0 .377-.044.642-.132.797-.088.154-.256.258-.501.311-.119.026-.179.07-.179.13 0 .071.056.105.168.101l.294-.017c.166-.016.296-.023.392-.023l.445-.006.398.006c.25 0 .439.008.566.025.15.017.268.025.352.025.123 0 .182-.043.173-.129-.004-.075-.071-.113-.202-.113-.272 0-.49-.09-.651-.272-.161-.181-.242-.424-.242-.729v-2.147c0-.159.009-.274.029-.348.015-.07.091-.114.226-.133.136-.019.433-.029.892-.029.497 0 .874.032 1.13.098a.455.455 0 0 1 .27.156c.054.073.103.211.149.415.042.188.1.282.176.282.071 0 .106-.046.106-.137 0-.035-.004-.088-.011-.161a8.972 8.972 0 0 1-.024-.856c0-.161.002-.278.006-.351l.035-.569c.008-.118-.026-.178-.101-.178-.063 0-.103.046-.118.138-.042.258-.143.439-.304.544-.16.106-.417.159-.769.159l-.677.011-.189.006-.494-.011c-.203 0-.312-.052-.327-.156v-.149l-.006-.109v-2.277c.002-.231.054-.373.157-.429zm8.579 4.459c.046.033.11.155.19.367l.289.762c.234.608.351 1.014.351 1.219 0 .223-.096.354-.288.393l-.179.04c-.096.019-.144.058-.144.118 0 .079.05.118.15.118a1 1 0 0 0 .179-.023c.134-.023.468-.034 1.002-.034.511 0 .867.01 1.066.029a4.7 4.7 0 0 0 .219.011c.104 0 .157-.032.161-.096.004-.072-.054-.118-.173-.141-.365-.065-.607-.155-.725-.268-.119-.114-.269-.403-.45-.869l-.127-.311-2.477-6.347c-.042-.111-.094-.167-.156-.167s-.117.057-.167.173l-2.961 6.578-.168.381a2.672 2.672 0 0 1-.322.51c-.131.164-.235.256-.312.279l-.213.064c-.065.02-.097.06-.097.124 0 .071.052.106.155.106.019 0 .126-.01.322-.032.061-.005.147-.008.259-.008.241 0 .454.004.638.013l.552.032c.088.004.153.006.195.006.111 0 .164-.032.161-.096-.004-.067-.063-.112-.179-.135-.265-.056-.443-.127-.533-.207-.09-.081-.135-.212-.135-.392 0-.189.085-.477.256-.866l.378-.849c.115-.261.207-.415.276-.462.07-.046.246-.069.53-.069h2.086c.214 0 .345.017.391.049zm-.294-.872c.02.061.029.105.029.132 0 .096-.096.144-.287.144h-1.741l-.155-.005c-.177 0-.265-.05-.265-.15 0-.035.025-.105.074-.214l1.124-2.494c.034-.077.065-.113.092-.11.054.004.104.067.15.191l.046.121.905 2.281.028.104zm4.926 3.122c-.062.315-.256.495-.582.543-.116.014-.173.054-.173.118 0 .083.054.124.161.124.077 0 .207-.012.391-.035a3.79 3.79 0 0 1 .461-.023c.181 0 .425.01.732.029l.467.029.536.023.444.017c.802 0 1.464-.229 1.985-.688.52-.459.78-1.041.78-1.747 0-.472-.136-.89-.408-1.255a1.76 1.76 0 0 0-1.043-.691c-.196-.042-.296-.082-.299-.121-.004-.023.023-.051.08-.086l.248-.174c.507-.338.76-.813.76-1.424 0-.592-.243-1.058-.728-1.396-.486-.339-1.153-.508-2.003-.508-.18 0-.372.006-.576.017l-.645.041a13.836 13.836 0 0 1-1.136 0c-.165-.007-.263-.012-.294-.012-.153 0-.23.044-.23.13 0 .083.078.124.236.124.315 0 .547.12.697.36.149.241.224.615.224 1.123v4.454c.001.408-.027.75-.085 1.028zm1.034-3.78c-.044-.034-.066-.119-.066-.253v-2.31c0-.239.042-.395.127-.47.085-.075.26-.113.525-.113.604 0 1.113.183 1.524.548.411.365.618.814.618 1.348 0 .868-.483 1.302-1.449 1.302h-.953c-.173 0-.282-.017-.326-.052zm1.388.456c.558 0 1.02.192 1.388.575.368.383.551.867.551 1.45 0 .567-.167 1.01-.502 1.327-.335.316-.804.474-1.408.474-.469 0-.817-.035-1.042-.106-.225-.07-.365-.189-.418-.354l-.035-.224.011-.265v-2.658c0-.096.019-.156.054-.181.037-.025.124-.037.263-.037h1.138v-.001zm6.242-3.327c.069-.06.222-.09.46-.09h.903c.594 0 1.002.029 1.224.086.222.058.37.173.443.346.046.111.07.229.07.352v.15c0 .119.037.177.112.173.067-.004.109-.034.129-.089.02-.055.039-.194.058-.416l.023-.339a4.78 4.78 0 0 1 .047-.459.617.617 0 0 0 .017-.132c0-.111-.064-.166-.19-.166-.05 0-.127.008-.23.023-.05.007-.188.015-.415.023l-.818.04c-.361.016-.776.024-1.244.024-.772 0-1.433-.031-1.982-.093a3.477 3.477 0 0 0-.385-.029c-.173 0-.259.053-.259.158 0 .071.055.107.167.107.349 0 .585.095.706.285.121.19.181.56.181 1.111v4.876l-.006.375c0 .462-.138.731-.415.807l-.219.064c-.1.026-.15.071-.15.135 0 .082.061.123.184.123.054 0 .154-.013.3-.04.277-.046.751-.068 1.423-.068.48 0 1.087.033 1.821.103.188.016.338.024.45.024.514 0 .941-.208 1.279-.621.28-.344.421-.641.421-.89 0-.103-.035-.153-.106-.149-.044.004-.087.038-.131.104-.429.68-1.397 1.019-2.905 1.019-.475 0-.772-.04-.889-.121-.117-.081-.175-.285-.175-.612V65.96l-.006-.191c0-.115.032-.192.095-.231.063-.038.188-.058.376-.058h1.271c.33 0 .563.046.701.138.138.093.229.267.276.524l.035.162c.016.084.065.126.147.126.074 0 .111-.048.111-.143 0-.035-.003-.09-.011-.167a6.955 6.955 0 0 1-.035-.695c0-.307.017-.646.051-1.017.005-.057.007-.099.007-.127 0-.1-.037-.151-.112-.155-.078-.004-.127.042-.147.139-.05.253-.106.415-.168.484-.061.069-.196.124-.403.167a5.199 5.199 0 0 1-.956.069h-.887c-.165 0-.264-.018-.297-.055-.033-.037-.049-.143-.049-.321v-2.324c-.001-.203.033-.335.102-.395zm10.791 1.404c0-.657-.225-1.152-.674-1.485-.45-.332-1.116-.499-1.999-.499-.234 0-.505.009-.812.029-.426.027-.728.04-.904.04-.204 0-.375-.006-.513-.017a11.064 11.064 0 0 0-.403-.023c-.131 0-.196.039-.196.118 0 .068.062.113.184.135l.271.041c.419.069.628.403.628 1.004l.011.6v4.143c0 .65-.048 1.087-.144 1.308-.096.221-.298.36-.605.418-.096.018-.143.055-.143.112 0 .079.047.118.143.118.058 0 .161-.007.311-.023.184-.019.342-.029.472-.029l.3-.005.553.006c.33 0 .574.009.732.025.173.017.286.025.339.025.135 0 .199-.037.191-.112-.004-.071-.075-.114-.213-.13-.346-.035-.601-.118-.766-.248a.617.617 0 0 1-.233-.327c-.032-.121-.049-.347-.049-.679l-.006-.231v-1.804c0-.096.023-.158.069-.185l.127-.024h.766c.207 0 .357.079.449.236l.081.127 1.435 2.189c.284.43.564.74.838.93.275.19.585.285.931.285.211 0 .4-.024.567-.07.167-.047.252-.1.256-.159.003-.051-.029-.078-.098-.082l-.184-.012c-.415-.027-.868-.4-1.36-1.12l-.184-.276-1.59-2.345c.948-.469 1.422-1.138 1.422-2.004zm-3.453 1.81c-.048-.048-.073-.163-.073-.344v-2.347l-.006-.19c0-.196.043-.333.13-.408.086-.075.243-.113.47-.113.608 0 1.109.18 1.501.541.392.361.589.82.589 1.379 0 .481-.145.861-.433 1.138-.288.277-.685.416-1.189.416h-.653c-.176 0-.288-.023-.336-.072zm12.054 2.999c-.503.63-1.2.945-2.091.945-.933 0-1.716-.377-2.348-1.13-.632-.753-.948-1.69-.948-2.81 0-1.043.275-1.894.824-2.554.55-.659 1.259-.99 2.128-.99.695 0 1.355.192 1.977.575.623.383 1.085.881 1.384 1.494.035.069.077.102.127.097.077-.003.116-.052.116-.144a.67.67 0 0 0-.029-.167 4.486 4.486 0 0 1-.081-.438l-.058-.542a3.397 3.397 0 0 1-.035-.392c0-.18-.035-.271-.104-.271a.125.125 0 0 0-.081.034l-.138.104c-.046.03-.082.046-.109.046-.019 0-.052-.015-.098-.046-.304-.196-.71-.36-1.218-.49a5.796 5.796 0 0 0-1.443-.196c-1.176 0-2.154.403-2.936 1.21-.782.807-1.173 1.815-1.173 3.025 0 1.152.369 2.098 1.106 2.837.737.74 1.682 1.109 2.835 1.109.861 0 1.665-.217 2.414-.65l.38-.225c.215-.123.375-.192.478-.208.088-.011.144-.026.168-.046l.034-.087-.011-.185v-1.847l-.006-.185c0-.354.146-.566.438-.635.115-.03.173-.077.173-.141 0-.071-.044-.107-.132-.107-.043 0-.196.009-.462.028-.096.007-.441.012-1.034.012l-.433-.006-.231-.005c-.135 0-.2.035-.196.107.004.083.081.132.23.146.308.023.512.077.614.162.101.084.153.244.153.478v1.297c.001.375-.061.638-.184.791zm5.035-6.213c.069-.06.222-.09.46-.09h.903c.594 0 1.002.029 1.225.086.222.058.37.173.443.346a.913.913 0 0 1 .069.352v.15c0 .119.037.177.112.173.066-.004.109-.034.129-.089.02-.055.039-.194.058-.416l.023-.339a5.835 5.835 0 0 1 .064-.591c0-.111-.064-.166-.191-.166-.05 0-.126.008-.23.023a5.927 5.927 0 0 1-.415.023l-.819.04c-.361.016-.775.024-1.244.024-.773 0-1.433-.031-1.982-.093a3.492 3.492 0 0 0-.386-.029c-.173 0-.259.053-.259.158 0 .071.056.107.168.107.349 0 .584.095.705.285.121.19.182.56.182 1.111v4.876l-.006.375c0 .462-.139.731-.415.807l-.219.064c-.1.026-.15.071-.15.135 0 .082.061.123.184.123.054 0 .154-.013.3-.04.277-.046.751-.068 1.423-.068.48 0 1.087.033 1.821.103.188.016.338.024.45.024.514 0 .941-.208 1.279-.621.28-.344.421-.641.421-.89 0-.103-.036-.153-.107-.149-.043.004-.086.038-.13.104-.429.68-1.398 1.019-2.905 1.019-.475 0-.772-.04-.889-.121-.117-.081-.175-.285-.175-.612V65.96l-.006-.191c0-.115.032-.192.095-.231.063-.038.189-.058.377-.058h1.27c.329 0 .563.046.702.138.137.093.229.267.276.524l.034.162c.015.084.065.126.147.126.074 0 .112-.048.112-.143 0-.035-.004-.09-.011-.167a6.955 6.955 0 0 1-.035-.695c0-.307.017-.646.051-1.017.004-.057.006-.099.006-.127 0-.1-.037-.151-.112-.155-.078-.004-.127.042-.147.139-.049.253-.105.415-.167.484-.061.069-.196.124-.403.167a5.214 5.214 0 0 1-.956.069h-.887c-.165 0-.265-.018-.297-.055-.033-.037-.049-.143-.049-.321v-2.324c0-.203.034-.335.103-.395zm1.915-2.229l.091-.103c.054-.061.08-.117.08-.167 0-.149-.078-.223-.235-.223-.298 0-.476.007-.536.02-.059.014-.105.06-.139.14l-.133.305c-.031.073-.104.232-.219.477l-.121.264a.577.577 0 0 0-.063.224c0 .08.036.121.11.121.066 0 .205-.077.414-.23l.751-.828zM41.659 54.198l.018.757c0 .279-.031.474-.093.585-.061.111-.184.192-.366.242-.078.021-.116.055-.116.104 0 .054.045.081.134.081.049 0 .235-.008.555-.026.207-.014.358-.021.454-.021.138 0 .268.006.388.018l.361.037c.043.003.082.005.116.005.114 0 .171-.031.171-.09 0-.058-.082-.099-.247-.122-.228-.035-.386-.103-.473-.204-.087-.103-.13-.272-.13-.507l-.023-.585-.088-2.523-.028-1.12c0-.356.032-.612.095-.769a.453.453 0 0 1 .331-.29l.2-.051c.061-.015.093-.051.093-.109 0-.063-.031-.093-.093-.09a4.108 4.108 0 0 1-.135.009 4.474 4.474 0 0 1-.622.014 2.533 2.533 0 0 0-.204-.019c-.058 0-.099.012-.123.035a.912.912 0 0 0-.104.184l-2.178 4.67-.041.093-.056.125c-.028.059-.051.088-.07.088-.015 0-.041-.04-.074-.12l-.237-.477-1.932-4.17-.051-.107c-.09-.194-.201-.292-.334-.292a1.43 1.43 0 0 0-.171.014 7.537 7.537 0 0 1-.483.009c-.166 0-.272-.003-.315-.009a2.332 2.332 0 0 0-.153-.009c-.077 0-.116.033-.116.1 0 .06.046.099.139.114.34.062.583.225.728.49.146.264.218.672.218 1.223 0 .257-.023.872-.07 1.847l-.065 1.346c-.018.381-.073.65-.163.808-.09.158-.247.263-.472.315-.075.015-.112.049-.112.1 0 .066.047.1.139.1a.958.958 0 0 0 .144-.015c.207-.027.423-.041.648-.041.189 0 .455.015.801.046.058.006.116.009.174.009.09 0 .134-.035.134-.105 0-.061-.094-.106-.284-.137-.383-.059-.574-.36-.574-.904 0-.565.005-.943.014-1.132l.107-2.296 1.744 3.763.093.194c.074.142.118.227.13.255.067.151.137.227.211.227.07 0 .136-.073.196-.218.016-.033.043-.093.084-.176.071-.139.155-.316.252-.533l.39-.871.474-.973.414-.885c.087-.179.262-.5.525-.959l.121 2.948zm6.387-.659c.037.026.088.125.153.295l.232.614c.188.489.283.816.283.98 0 .18-.077.285-.232.316l-.144.033c-.077.015-.116.046-.116.095 0 .063.04.095.12.095a.906.906 0 0 0 .145-.018c.108-.019.377-.028.807-.028.41 0 .697.008.858.024.089.006.148.009.176.009.083 0 .126-.026.13-.078.003-.057-.043-.095-.14-.113-.293-.052-.488-.125-.584-.216-.096-.091-.215-.325-.362-.699l-.102-.251-1.994-5.109c-.034-.09-.076-.135-.126-.135-.049 0-.094.047-.134.14l-2.384 5.297-.134.306a2.21 2.21 0 0 1-.26.411c-.106.132-.188.206-.251.226l-.172.051c-.052.016-.078.05-.078.1 0 .057.041.085.125.085.015 0 .102-.008.259-.026.05-.005.119-.007.208-.007.194 0 .366.004.514.011l.444.026c.071.004.123.005.157.005.09 0 .133-.026.13-.077-.004-.054-.052-.091-.145-.109-.213-.046-.356-.102-.428-.167-.073-.066-.109-.171-.109-.316 0-.152.069-.385.206-.697l.305-.684c.093-.211.167-.335.223-.372.055-.037.198-.056.427-.056h1.679c.172 0 .276.013.314.039zm-.237-.703a.398.398 0 0 1 .024.107c0 .077-.078.116-.232.116H46.2l-.125-.005c-.142 0-.214-.04-.214-.12 0-.028.02-.085.06-.172l.905-2.008c.027-.062.052-.091.074-.088.043.003.084.054.121.153l.037.097.728 1.837.023.083zm5.093-3.005l.241-.093c.081-.027.121-.067.121-.123 0-.058-.042-.086-.125-.086l-.116.005-.311.026c-.163.011-.36.015-.589.015-.374 0-.674-.014-.9-.041a.873.873 0 0 0-.083-.005c-.093 0-.138.034-.134.1.003.054.052.09.149.109.287.046.475.136.563.27.088.133.132.391.132.775v3.977c0 .394-.034.651-.102.773-.068.122-.22.204-.454.244-.096.015-.143.049-.143.104 0 .063.041.095.124.095.059 0 .133-.005.223-.014l.547-.033.674.01c.232 0 .395.007.491.021.071.01.13.015.176.015.096 0 .145-.036.145-.109 0-.055-.078-.093-.233-.114-.194-.028-.337-.075-.429-.139-.091-.065-.168-.177-.229-.335-.053-.139-.079-.425-.079-.861V50.94c-.002-.652.112-1.022.341-1.109zm2.219.106a1.53 1.53 0 0 0-.56 1.224c0 .448.143.813.429 1.094.285.281.771.537 1.456.769.666.223 1.066.394 1.205.515.271.236.408.525.408.868 0 .359-.148.664-.442.914-.296.251-.655.376-1.08.376-.42 0-.808-.13-1.166-.39-.358-.261-.592-.583-.703-.968-.044-.149-.095-.225-.151-.228-.063-.003-.095.042-.095.134 0 .117.04.315.121.594l.116.422c.037.173.065.281.084.322a.287.287 0 0 0 .112.118c.133.09.342.169.628.236.286.069.548.103.786.103.659 0 1.199-.184 1.619-.552.421-.368.632-.841.632-1.419 0-.852-.572-1.466-1.715-1.84-.586-.194-.954-.33-1.104-.403a1.234 1.234 0 0 1-.415-.354 1.071 1.071 0 0 1-.218-.673c0-.294.111-.54.335-.736.224-.196.502-.295.834-.295.419 0 .8.109 1.14.325.34.218.566.494.677.829.05.149.101.223.151.223.066 0 .1-.048.1-.144 0-.024-.007-.088-.023-.19l-.074-.478a5.157 5.157 0 0 1-.061-.468c0-.155-.039-.231-.115-.227-.025 0-.042.006-.051.018l-.065.055a.174.174 0 0 1-.111.047.213.213 0 0 1-.084-.019l-.32-.135a2.177 2.177 0 0 0-.84-.144c-.588.004-1.067.161-1.44.477zm6.542-.211c-.445.174-.813.41-1.103.707a3.06 3.06 0 0 0-.657 1.049 3.464 3.464 0 0 0-.244 1.267c0 .983.308 1.777.925 2.382.618.606 1.425.909 2.424.909.974 0 1.774-.317 2.398-.951.625-.633.937-1.445.937-2.434 0-.933-.311-1.699-.93-2.297-.62-.598-1.414-.897-2.382-.897-.466.003-.923.09-1.368.265zm3.163.963c.56.617.84 1.386.84 2.309 0 .803-.234 1.466-.701 1.989-.468.523-1.061.785-1.779.785-.785 0-1.448-.321-1.988-.964-.54-.642-.81-1.431-.81-2.367 0-.818.211-1.469.634-1.952.421-.482.992-.724 1.711-.724a2.721 2.721 0 0 1 2.093.924zm8.303.371v-.502c0-.296.03-.499.091-.607.06-.109.184-.185.373-.232.064-.019.096-.047.092-.088-.006-.065-.048-.098-.13-.098-.052 0-.129.01-.227.028a3.078 3.078 0 0 1-.459.028c-.359 0-.645-.011-.858-.034a2.466 2.466 0 0 0-.195-.012c-.09 0-.135.028-.135.086 0 .06.045.098.135.113.318.052.539.133.661.244.123.11.198.296.229.559l.056 1.067-.005.626v2.296c-.003.055-.02.085-.051.088-.017.003-.061-.034-.13-.111l-4.267-4.834c-.077-.09-.154-.134-.232-.134-.04 0-.097.002-.171.005l-.075.004-.311-.009-.19-.005a1.05 1.05 0 0 0-.073-.005c-.069 0-.103.029-.103.087 0 .057.041.092.125.104.321.043.568.219.738.526.169.308.255.73.255 1.265v3.157c0 .334-.046.577-.137.727-.092.151-.267.27-.527.36-.09.03-.133.068-.129.114.006.057.05.086.129.086.034 0 .092-.006.172-.017.108-.014.222-.021.343-.021l.223-.008.472.023c.236.013.37.022.404.028.05.006.096.009.14.009.064 0 .097-.03.097-.09 0-.067-.051-.107-.154-.119-.244-.037-.408-.095-.492-.172-.083-.077-.135-.218-.157-.422l-.013-.329.005-.195v-3.148c0-.14.029-.209.088-.209a.09.09 0 0 1 .065.027l.046.051 3.91 4.471.103.121c.025.024.06.039.106.042.072.003.115-.033.13-.11.016-.075.023-.288.023-.638v-3.887l.01-.306zM34.553 84.579c.062-.031.218-.047.469-.047.194 0 .353.004.479.016l.398.042c.15.013.248.035.292.068.044.034.081.107.11.223.018.071.03.144.037.213.004.057.024.085.059.085.061 0 .09-.053.09-.156 0-.248.019-.445.057-.593a.53.53 0 0 0 .016-.111c0-.053-.025-.079-.074-.079a.495.495 0 0 0-.112.014c-.058.012-.19.022-.394.029l-.47.024c-.122.008-.396.01-.824.01-.478 0-.818-.01-1.019-.03-.111-.011-.181-.018-.21-.018-.094 0-.14.03-.136.087.002.035.03.055.085.059a.887.887 0 0 1 .282.057.371.371 0 0 1 .148.157c.07.115.106.28.106.495v3.056c0 .221-.026.379-.079.469-.051.089-.15.15-.295.182-.069.016-.105.042-.105.077 0 .041.033.061.099.059l.172-.01c.098-.01.175-.014.231-.014l.261-.002.234.002c.147 0 .258.006.333.015.088.01.157.016.207.016.073 0 .106-.026.102-.077-.002-.043-.042-.067-.119-.067a.487.487 0 0 1-.383-.16.624.624 0 0 1-.142-.427V86.98a.92.92 0 0 1 .017-.205c.009-.042.054-.065.133-.079.08-.01.254-.015.525-.015.292 0 .513.02.664.057.075.02.127.049.158.093a.685.685 0 0 1 .088.242c.025.112.06.166.104.166.041 0 .063-.026.063-.081 0-.02-.003-.051-.007-.094a5.513 5.513 0 0 1-.013-.502c0-.095.001-.164.003-.207l.02-.333c.005-.071-.015-.104-.06-.104-.036 0-.06.025-.068.081-.025.15-.085.258-.18.319-.094.063-.245.095-.452.095l-.397.006-.111.004-.29-.007c-.119 0-.184-.03-.192-.091v-.089l-.004-.063v-1.34c.003-.136.033-.22.094-.254zm2.815 1.951c-.293.288-.44.638-.44 1.046 0 .426.139.773.415 1.045.276.272.63.408 1.058.408.438 0 .8-.14 1.088-.419.286-.28.43-.633.43-1.063a1.38 1.38 0 0 0-.437-1.021 1.448 1.448 0 0 0-1.046-.427 1.47 1.47 0 0 0-1.068.431zm1.765.124c.203.279.304.642.304 1.088 0 .353-.08.63-.241.835a.79.79 0 0 1-.66.309c-.321 0-.588-.146-.803-.436-.216-.29-.323-.65-.323-1.082 0-.339.086-.613.258-.822a.84.84 0 0 1 .681-.313c.319.001.581.141.784.421zm2.357-.398c0-.051.001-.093.003-.13.004-.065-.014-.099-.054-.099-.022 0-.05.01-.081.028l-.132.065-.18.089a1.9 1.9 0 0 1-.437.138c-.058.012-.088.034-.088.068 0 .021.011.039.031.047.015.01.034.014.054.014l.146-.004c.106 0 .177.029.217.086.038.057.058.168.058.327v1.529c0 .13-.02.225-.06.284-.039.058-.117.109-.232.148-.04.018-.063.039-.064.067-.002.037.018.055.062.055.02 0 .064-.004.135-.012.07-.01.285-.014.644-.014.169 0 .275.002.318.006.077.014.135.02.173.02.053 0 .079-.02.079-.063 0-.041-.037-.064-.112-.073-.303-.018-.46-.122-.471-.311l-.003-.17-.003-.102v-1.293c0-.142.073-.268.219-.379a.81.81 0 0 1 .501-.165c.267 0 .472.085.618.254.145.172.217.412.217.725v1.168c0 .138-.044.221-.135.243l-.102.028c-.04.007-.06.031-.06.065 0 .026.008.044.023.054l.047.01.098-.006h.129l.334-.01a3.799 3.799 0 0 1 .544.026c.076 0 .114-.024.112-.073-.003-.035-.035-.057-.095-.065l-.142-.02c-.165-.025-.26-.112-.285-.262l-.01-.161.003-.103v-.812c0-.416-.073-.725-.217-.928a.998.998 0 0 0-.857-.445c-.326 0-.64.18-.941.54v-.384h-.004zm5.279 2.605c0 .115.027.169.078.168.025 0 .06-.012.102-.037.051-.025.15-.047.3-.071l.189-.029c.025-.006.085-.012.178-.022.08-.008.121-.037.121-.085 0-.028-.011-.045-.037-.053l-.03-.004-.199.007c-.157 0-.234-.128-.234-.384v-4.303l-.004-.061c0-.049-.017-.075-.051-.075a.122.122 0 0 0-.064.024c-.297.179-.562.282-.795.311-.07.01-.103.038-.099.083.003.028.015.043.037.053a.156.156 0 0 0 .044.006l.118-.006c.231-.014.346.194.346.623v1.334a1.609 1.609 0 0 0-.818-.241c-.402 0-.74.15-1.017.448a1.556 1.556 0 0 0-.414 1.095c0 .392.115.721.346.987.231.268.517.4.858.4.18 0 .342-.033.485-.103.143-.069.33-.201.559-.398v.333h.001zm-.208-.298a.828.828 0 0 1-.537.171c-.299 0-.559-.136-.778-.408a1.484 1.484 0 0 1-.329-.963c0-.337.084-.611.251-.818a.81.81 0 0 1 .66-.312c.306 0 .57.108.793.321.099.095.148.244.148.447v1.115a.549.549 0 0 1-.208.447zm3.462-1.306l.23.008.251.002c.147 0 .221-.037.221-.112a.822.822 0 0 0-.085-.271 1.695 1.695 0 0 0-.166-.313 1.063 1.063 0 0 0-.905-.471c-.346 0-.646.148-.904.444a1.506 1.506 0 0 0-.386 1.028c0 .414.125.759.375 1.039.249.279.558.419.926.419.327 0 .637-.114.931-.343.158-.125.237-.221.237-.287 0-.038-.016-.055-.047-.054a.108.108 0 0 0-.05.024c-.29.221-.558.331-.804.331-.313 0-.576-.13-.789-.394-.214-.264-.321-.587-.321-.974l.003-.075h1.283v-.001zm-1.034-.79a.577.577 0 0 1 .462-.223c.178 0 .344.075.496.227.153.151.229.317.229.493 0 .071-.09.108-.267.108h-1.148c.029-.257.105-.458.228-.605zm1.123-1.354l.051-.059c.031-.036.047-.067.047-.093 0-.085-.044-.126-.132-.126-.169 0-.27.004-.304.012-.034.007-.061.035-.079.078l-.072.173-.119.264a1.07 1.07 0 0 0-.103.272c-.002.045.018.067.062.067.036 0 .113-.042.23-.128l.419-.46zm2.959 2.144l.23.008.251.002c.148 0 .221-.037.221-.112a.822.822 0 0 0-.085-.271 1.633 1.633 0 0 0-.167-.313 1.061 1.061 0 0 0-.904-.471c-.345 0-.646.148-.904.444a1.511 1.511 0 0 0-.386 1.028c0 .414.125.759.375 1.039.249.279.558.419.926.419.328 0 .637-.114.931-.343.158-.125.237-.221.237-.287 0-.038-.016-.055-.048-.054a.104.104 0 0 0-.05.024c-.29.221-.558.331-.804.331-.313 0-.576-.13-.789-.394-.214-.264-.321-.587-.321-.974l.004-.075h1.283v-.001zm-1.034-.79a.578.578 0 0 1 .463-.223c.177 0 .343.075.495.227.153.151.229.317.229.493 0 .071-.09.108-.267.108h-1.148c.029-.257.104-.458.228-.605zm5.954.79l.232.008.251.002c.146 0 .22-.037.22-.112a.883.883 0 0 0-.083-.271 1.758 1.758 0 0 0-.166-.313 1.064 1.064 0 0 0-.905-.471c-.346 0-.648.148-.903.444a1.507 1.507 0 0 0-.387 1.028c0 .414.125.759.375 1.039.25.279.558.419.926.419.328 0 .638-.114.932-.343.157-.125.237-.221.237-.287 0-.038-.016-.055-.05-.054a.11.11 0 0 0-.049.024c-.29.221-.559.331-.804.331-.312 0-.575-.13-.79-.394-.212-.264-.319-.587-.319-.974l.003-.075h1.28v-.001zm-1.033-.79a.576.576 0 0 1 .462-.223c.178 0 .344.075.497.227.153.151.228.317.228.493 0 .071-.089.108-.267.108H56.73c.028-.257.105-.458.228-.605zm3.26-.211c0-.051.001-.093.003-.13.004-.065-.014-.099-.055-.099a.178.178 0 0 0-.081.028c-.017.008-.062.032-.132.065l-.179.089c-.14.063-.286.11-.437.138-.059.012-.088.034-.088.068 0 .021.01.039.03.047.016.01.034.014.053.014l.147-.004c.105 0 .178.029.217.086.039.057.057.168.057.327v1.529a.53.53 0 0 1-.059.284c-.039.058-.117.109-.231.148-.04.018-.063.039-.065.067-.002.037.018.055.061.055.021 0 .066-.004.136-.012.069-.01.283-.014.643-.014.17 0 .276.002.319.006.075.014.134.02.172.02.052 0 .079-.02.079-.063 0-.041-.037-.064-.112-.073-.302-.018-.46-.122-.471-.311l-.003-.17-.003-.102v-1.293c0-.142.072-.268.219-.379a.806.806 0 0 1 .501-.165c.266 0 .472.085.616.254.146.172.218.412.218.725v1.168c0 .138-.046.221-.136.243l-.101.028c-.04.007-.061.031-.061.065 0 .026.009.044.024.054l.047.01.097-.006h.13l.333-.01a3.752 3.752 0 0 1 .543.026c.077 0 .114-.024.112-.073-.003-.035-.035-.057-.095-.065l-.143-.02c-.166-.025-.261-.112-.284-.262l-.011-.161.003-.103v-.812c0-.416-.072-.725-.217-.928a.995.995 0 0 0-.856-.445c-.325 0-.639.18-.941.54v-.384h.001zM67 84.402a.689.689 0 0 0 .024-.146c0-.05-.021-.073-.064-.073-.016 0-.047.018-.094.057a2.143 2.143 0 0 1-.757.414c-.248.073-.374.152-.379.241-.002.033.016.049.054.049.018 0 .048-.01.092-.032a.671.671 0 0 1 .304-.067c.115 0 .194.026.234.077.042.051.061.148.061.29v3.162c0 .269-.119.408-.359.424l-.19.014c-.069.007-.104.034-.104.082 0 .037.032.058.095.058.068 0 .158-.006.271-.014a5.96 5.96 0 0 1 .49-.014l.747.007.173.006c.09 0 .135-.024.135-.067 0-.031-.014-.051-.043-.063a.267.267 0 0 0-.089-.014h-.057c-.224 0-.375-.042-.454-.126-.08-.085-.119-.246-.119-.487v-3.314a2.392 2.392 0 0 1 .029-.464zm3.169 3.576a2.79 2.79 0 0 1-.584.595 1.741 1.741 0 0 1-.641.333l-.16.046c-.076.016-.114.047-.114.088 0 .051.037.077.111.077.214 0 .458-.071.732-.213.273-.143.534-.335.782-.577a3.31 3.31 0 0 0 .744-1.056c.177-.396.266-.796.266-1.2 0-.524-.143-.963-.429-1.316-.286-.353-.64-.528-1.065-.528-.395 0-.725.156-.991.467-.265.311-.398.699-.398 1.164 0 .396.122.731.366 1.007.244.278.542.415.892.415.282 0 .566-.106.848-.323l.149-.11a3.192 3.192 0 0 1-.508 1.131zm.273-3.093c.212.299.318.664.318 1.091 0 .315-.072.563-.22.745a.733.733 0 0 1-.602.272c-.301 0-.558-.146-.769-.44-.211-.291-.316-.648-.316-1.07 0-.307.077-.558.23-.753a.716.716 0 0 1 .589-.294c.301.001.557.149.77.449zm3.256 1.422c-.332.703-.552 1.21-.658 1.525-.108.313-.16.609-.16.885 0 .214.017.366.052.455.035.089.098.134.19.134.101 0 .203-.02.306-.057.102-.039.152-.077.152-.116a.31.31 0 0 0-.036-.106 1.144 1.144 0 0 1-.109-.499c0-.55.197-1.322.587-2.319.327-.842.491-1.411.491-1.712 0-.071-.014-.12-.039-.146-.027-.026-.076-.04-.151-.04l-.135.004-.172.002h-1.184c-.152 0-.263-.004-.332-.016a1.294 1.294 0 0 0-.156-.01c-.063 0-.103.039-.122.118l-.06.308-.068.331a1.018 1.018 0 0 0-.025.217c0 .096.032.144.093.144.036 0 .063-.037.082-.112.04-.183.115-.309.229-.38.112-.073.294-.108.547-.108h1.177c-.001.29-.166.791-.499 1.498zm3.798 1.194c.131 0 .21-.006.234-.017.026-.01.047-.047.063-.107l.054-.221.064-.235c.003-.067-.021-.101-.071-.098-.019 0-.04.011-.064.032l-.089.075a.535.535 0 0 1-.348.11l-.143-.004v-2.528l.004-.12-.004-.132c0-.055-.018-.083-.054-.081-.086.004-.489.513-1.21 1.522-.719 1.009-1.079 1.572-1.079 1.69 0 .061.041.098.125.107.043.006.103.007.183.007l1.079-.007.312.004h.15v1.728l-.002.098c0 .059.025.09.073.09a.235.235 0 0 0 .105-.028.636.636 0 0 1 .134-.041c.096-.018.152-.04.165-.063.02-.029.03-.077.03-.142l-.015-.495.004-.335.004-.408-.004-.402h.3v.001zm-2.134-.465c.084-.122.136-.203.16-.236l.453-.695c.203-.312.447-.642.728-.989v1.921h-1.341v-.001zM40.549 80.133c-.403.505-.962.759-1.677.759-.75 0-1.378-.303-1.884-.907-.508-.605-.761-1.357-.761-2.256 0-.835.22-1.519.661-2.048.441-.53 1.01-.795 1.707-.795.558 0 1.087.153 1.587.461.499.308.87.707 1.11 1.198.028.056.062.081.102.078.062-.003.092-.041.092-.115a.546.546 0 0 0-.022-.134 3.658 3.658 0 0 1-.065-.351l-.046-.435a2.753 2.753 0 0 1-.027-.313c0-.145-.028-.217-.083-.217a.098.098 0 0 0-.065.028l-.111.083c-.037.025-.066.037-.088.037-.015 0-.041-.011-.079-.037-.243-.159-.569-.288-.978-.393a4.65 4.65 0 0 0-1.158-.157c-.943 0-1.728.324-2.355.97-.627.648-.94 1.457-.94 2.428 0 .924.295 1.683.887 2.276.592.593 1.351.89 2.274.89.691 0 1.336-.174 1.937-.524l.306-.179c.171-.099.3-.155.383-.168.071-.009.116-.02.134-.037l.028-.069-.009-.148v-1.482l-.006-.147c0-.285.118-.455.352-.51.092-.024.138-.062.138-.112 0-.058-.035-.086-.106-.086-.034 0-.157.007-.371.022-.077.007-.353.01-.829.01l-.348-.004-.184-.005c-.108 0-.16.028-.157.086.003.066.064.105.185.117.246.019.41.062.492.129.082.069.122.196.122.385v1.04c.001.298-.049.509-.148.632zm4.04-4.985c.056-.047.179-.072.369-.072h.724c.478 0 .805.023.983.069.178.046.296.139.355.278a.731.731 0 0 1 .056.282v.121c0 .094.029.142.089.138.054-.003.088-.026.104-.071.016-.044.032-.155.047-.332l.019-.272c.015-.202.027-.326.037-.369a.533.533 0 0 0 .014-.105c0-.088-.05-.133-.152-.133-.04 0-.102.006-.186.018-.04.006-.151.013-.333.02l-.656.032c-.289.012-.623.017-.998.017-.62 0-1.15-.025-1.591-.073a2.88 2.88 0 0 0-.31-.024c-.138 0-.207.042-.207.127 0 .058.045.086.134.086.28 0 .469.076.566.229.098.152.146.449.146.892v3.911l-.005.301c0 .37-.111.586-.333.648l-.176.05c-.08.021-.12.058-.12.109 0 .067.049.099.148.099.043 0 .122-.01.24-.032.222-.038.603-.057 1.142-.057.385 0 .872.028 1.46.085.152.011.271.017.36.017.413 0 .755-.166 1.026-.497.225-.277.338-.514.338-.714 0-.083-.029-.122-.086-.119-.034.003-.069.03-.103.084-.345.545-1.122.818-2.331.818-.382 0-.62-.032-.713-.098-.094-.065-.141-.229-.141-.492v-1.704l-.005-.152c0-.094.026-.156.077-.187.051-.031.152-.046.303-.046h1.02c.264 0 .452.037.563.111.111.074.184.214.221.422l.028.128c.012.069.052.102.118.102.06 0 .089-.038.089-.115 0-.028-.003-.073-.009-.134a5.728 5.728 0 0 1-.027-.558c0-.245.014-.518.041-.815.003-.047.005-.08.005-.103 0-.079-.03-.121-.09-.124-.063-.003-.103.034-.118.111-.04.202-.085.333-.134.387-.049.056-.157.101-.323.135a4.172 4.172 0 0 1-.767.055h-.712c-.132 0-.212-.013-.239-.043-.026-.029-.039-.115-.039-.257v-1.866c-.001-.164.027-.271.082-.318zm9.929 1.061v-.5c0-.296.03-.497.09-.605.061-.108.184-.186.373-.232.065-.018.095-.049.092-.088-.006-.063-.05-.097-.129-.097-.054 0-.129.009-.227.029a3.251 3.251 0 0 1-.458.026c-.358 0-.642-.01-.855-.032a2.152 2.152 0 0 0-.194-.013c-.089 0-.134.028-.134.086 0 .061.045.098.134.114.318.052.537.133.659.241.121.111.198.296.229.558l.055 1.063-.004.625v2.288c-.003.055-.02.085-.051.087-.019.003-.062-.034-.129-.111l-4.253-4.816c-.077-.09-.154-.135-.232-.135-.039 0-.097.002-.17.005l-.074.006-.31-.01-.189-.004a1.031 1.031 0 0 0-.074-.005c-.067 0-.101.029-.101.086 0 .058.042.092.125.103.32.043.565.219.735.525.169.307.254.728.254 1.26v3.146c0 .333-.045.574-.136.723-.091.15-.266.27-.525.36-.089.029-.133.068-.129.112.006.058.049.086.129.086.034 0 .091-.006.171-.018.107-.013.222-.02.341-.02l.222-.009.472.022c.234.013.368.022.402.028.049.006.095.009.138.009.066 0 .098-.029.098-.09 0-.066-.051-.105-.152-.116-.244-.037-.407-.095-.49-.172-.083-.077-.136-.217-.158-.421l-.014-.328.005-.194v-3.137c0-.139.03-.209.088-.209.025 0 .046.01.065.028l.046.051 3.897 4.456.102.12c.025.025.06.038.107.041.07.003.114-.032.129-.108.016-.077.023-.287.023-.636v-3.874l.007-.304zm3.369-1.061c.056-.047.179-.072.369-.072h.725c.477 0 .804.023.984.069.177.046.296.139.354.278a.75.75 0 0 1 .055.282v.121c0 .094.03.142.09.138.054-.003.087-.026.104-.071.015-.044.031-.155.046-.332l.02-.272a3.93 3.93 0 0 1 .051-.474c0-.088-.051-.133-.154-.133-.04 0-.101.006-.185.018-.04.006-.15.013-.332.02l-.656.032c-.29.012-.622.017-.999.017-.62 0-1.149-.025-1.59-.073a2.896 2.896 0 0 0-.311-.024c-.137 0-.208.042-.208.127 0 .058.046.086.134.086.281 0 .47.076.567.229.097.152.145.449.145.892v3.911l-.005.301c0 .37-.111.586-.333.648l-.176.05c-.081.021-.12.058-.12.109 0 .067.05.099.149.099.043 0 .123-.01.24-.032.222-.038.602-.057 1.142-.057.384 0 .871.028 1.461.085.15.011.271.017.36.017.413 0 .755-.166 1.026-.497.225-.277.338-.514.338-.714 0-.083-.029-.122-.085-.119-.036.003-.071.03-.105.084-.344.545-1.121.818-2.331.818-.381 0-.619-.032-.713-.098-.093-.065-.141-.229-.141-.492v-1.704l-.003-.153c0-.094.026-.156.076-.187.051-.031.152-.046.302-.046h1.02c.264 0 .452.037.563.111.111.074.184.214.221.422l.028.128c.013.069.052.102.118.102.061 0 .09-.038.09-.115 0-.028-.003-.073-.009-.134a5.727 5.727 0 0 1-.028-.558c0-.245.014-.518.042-.815.003-.047.005-.08.005-.103 0-.079-.031-.121-.09-.124-.062-.003-.102.034-.119.111-.04.202-.084.333-.133.387-.049.056-.158.101-.323.135a4.184 4.184 0 0 1-.768.055h-.712c-.132 0-.212-.013-.238-.043-.026-.029-.039-.115-.039-.257v-1.866c-.001-.163.026-.27.081-.317zm.956-.941c.059 0 .089-.032.089-.096 0-.05-.05-.18-.149-.392-.092-.197-.15-.324-.175-.383l-.107-.244c-.028-.063-.065-.101-.112-.112a3.205 3.205 0 0 0-.43-.016c-.126 0-.188.061-.188.18 0 .04.022.084.068.133l.074.083.603.663c.165.122.275.184.327.184zm4.434.977c0-.081.017-.137.048-.171a.766.766 0 0 1 .239-.116c.061-.025.092-.058.092-.101 0-.056-.042-.085-.125-.085-.025 0-.068.003-.129.01a4.043 4.043 0 0 1-.296.017l-.309.004-.439-.004a6.46 6.46 0 0 1-.601-.018c-.086 0-.131.029-.131.09 0 .035.016.061.045.074.029.014.124.035.285.066a.62.62 0 0 1 .364.189c.09.1.19.274.301.524l2.343 5.43c.067.154.133.23.196.23.061 0 .123-.075.188-.226l2.297-5.38.125-.302c.114-.274.282-.452.504-.535.066-.022.097-.056.097-.1 0-.055-.031-.081-.093-.081l-.393.006h-.116l-.21.004h-.19c-.046 0-.182-.006-.412-.018l-.135-.005c-.098 0-.15.029-.153.086-.003.05.082.093.254.127.142.028.236.062.282.104.047.042.07.114.07.216 0 .296-.217.962-.654 1.996l-1.013 2.408-.075.172c-.079.174-.134.263-.166.263-.037.003-.076-.046-.119-.147l-1.777-4.08c-.129-.299-.194-.516-.194-.647zm7.271-.036c.055-.047.179-.072.369-.072h.724c.477 0 .804.023.983.069.179.046.297.139.355.278a.75.75 0 0 1 .055.282v.121c0 .094.03.142.09.138.054-.003.088-.026.104-.071.015-.044.031-.155.048-.332l.017-.272c.016-.202.028-.326.037-.369a.521.521 0 0 0 .013-.105c0-.088-.051-.133-.152-.133-.04 0-.102.006-.186.018-.04.006-.152.013-.332.02l-.656.032c-.29.012-.623.017-1 .017-.619 0-1.149-.025-1.59-.073a2.903 2.903 0 0 0-.309-.024c-.138 0-.209.042-.209.127 0 .058.045.086.134.086.28 0 .47.076.566.229.098.152.145.449.145.892v3.911l-.005.301c0 .37-.111.586-.333.648l-.175.05c-.08.021-.12.058-.12.109 0 .067.05.099.149.099.042 0 .123-.01.239-.032.222-.038.603-.057 1.143-.057.385 0 .872.028 1.461.085.151.011.271.017.36.017.412 0 .755-.166 1.027-.497.225-.277.337-.514.337-.714 0-.083-.028-.122-.084-.119-.035.003-.07.03-.105.084-.343.545-1.121.818-2.331.818-.383 0-.619-.032-.713-.098-.094-.065-.14-.229-.14-.492v-1.704l-.005-.152c0-.094.025-.156.077-.187.05-.031.151-.046.301-.046h1.02c.264 0 .452.037.563.111.11.074.184.214.222.422l.026.128c.014.069.052.102.119.102.06 0 .09-.038.09-.115 0-.028-.003-.073-.009-.134a5.43 5.43 0 0 1-.028-.558c0-.245.013-.518.04-.815.003-.047.005-.08.005-.103 0-.079-.03-.121-.09-.124-.063-.003-.102.034-.118.111-.041.202-.085.333-.134.387-.049.056-.157.101-.324.135a4.172 4.172 0 0 1-.767.055h-.712c-.132 0-.211-.013-.237-.043-.027-.029-.04-.115-.04-.257v-1.866c.002-.164.029-.271.085-.318z"/><g fill="#D1AC41"><path d="M61.896 23.211v-.106c.01-.752-.058-1.411-.207-2.171-.406-2.06-3.097-9.69-6.705-9.912l.001-.005c.269-1.556.924-2.928 1.773-4.273a1.409 1.409 0 0 1-1.188-.463c1.076.111 2.17-.315 2.706-.982-.501-.167-.815-.464-1.074-.852a3.05 3.05 0 0 0 1.705.222c-.76-.166-1.928-.778-1.983-1.334.185.223 2.576.297 2.576.297l4.633-.001c.074.056.111.167.111.297.297-.111.519.055.501.371 1.111 0 2.149.686 1.89 2.02-.074.5-.26.704-.556.945-.501-.76-1.89-.815-2.78-.315a4.478 4.478 0 0 1 1.631.296c.519.223 1.167.52 1.852.445.445-.056.705-.352.779-.686.222.185.055 1.111-.742 1.501-.407.203-1.111.277-1.612-.075-.185-.111-.926-.927-1.815-.927 1.316.352 1.648 1.279.648 1.835.018-.315.074-.759-.574-1.167-.353-.222-.927-.352-1.501-.186-.203.074-.464.223-.63.26-.278.018-.408-.13-.5-.222-.575.426-1.446 1.76-1.595 2.594-.185.964-.055 1.594.426 2.15.167.167.928.797 1.688.148.11.945-.705 1.519-1.668 1.223.205.204.518.408.964.593.648.277 1.334.018 1.631-.538.741.835.388 2.261-.779 2.39.557 1.02 2.354 1.094 3.187-.111.501-.759-.074-1.315-.39-1.611-.759-.741-.759-1.446-.222-2.224.704-1.056 2.892-2.78 3.725-4.022.13.223.222.445.259.519.779-.592 1.651-1.834 1.947-2.779.166.018.278.185.409.315 1.222-1.539 3.427-5.226 4.058-6.672 1.334.63 1.315 2.502.889 3.595-.352.982-.945 2.039-2.224 3.502.407-.296 2.89-2.836 3.427-3.15.927 1.316.297 3.614-1.445 4.597.556-.241 1.835-.742 2.557-.557.148 1.465-1.055 2.465-1.779 3.022.705-.167 1.519-.278 2.317-.056-.056 1.001-1.075 2.112-2.596 2.65.965-.093 1.909.018 2.484.37-.13 1.038-1.279 1.927-2.725 2.15.982.111 1.834.518 2.261 1.093-.5.686-1.279 1.205-2.446 1.168.555.185 1.223.76 1.501 1.446-.685.537-1.519.871-3.427.185 2.204.926 1.778 1.353 2.093 2.316-.388.167-.759.574-1.796.315-.593-.148-1.576-1.075-2.41-1.649.26.315 1.52 1.204 2.076 1.723.592.593.185 1.186.185 1.705-.445 0-1.224.352-1.761-.111-.166-.167-2.446-2.983-2.743-3.261.074.26 1.557 2.075 2.169 3.113.501.779-.186 1.315-.278 1.761-.501-.167-1.222.149-1.594-.482-.351-.593-1.464-2.742-1.89-3.354.166.463 1.334 2.91 1.409 3.113.277.834-.427.982-.706 1.538-.426-.315-1.185-.074-1.501-.852-.186-.538-.649-2.391-.889-2.892.019.556.186 1.278.296 2.094.111.816-.648.779-1.075 1.26-.352-.315-1.073-.241-1.167-.982-.111-.648-.13-2.242-.13-2.242-.111.093-.168.111-.259.223-.278-.314-.835-.314-1.02-.686-.074.018-.112.074-.184.129a2.653 2.653 0 0 0-.197.415l-.001.004zm-3.372 6.961a6.296 6.296 0 0 0 1.503-1.333c.815-.991 1.381-2.264 1.663-3.662.077.512.266.964.589 1.23-.26 0-.557-.018-.742-.111.389.759 1.205 1.019 2.15.685a.83.83 0 0 1-.13.408c1.019.167 1.464.556 1.852 1.224.483.888-.055 2.02.112 2.483.111.296.445.574 1 .314-.259 1.168-1.742 1.038-2.112.389-.129.556 0 1.167.278 1.409-.463.018-.853-.167-1.094-.519-.055.111-.055.259-.073.389a1.802 1.802 0 0 1-.519-.407c-.093.259-.019.462.166.76.278.408.853.593 1.279.759.963.353 2.02.76 2.966.63.11 0 .648-.259.74-.704l-.018.018c-.074-.129-.129-.277-.185-.425a.266.266 0 0 1-.241-.277v-.056c-.13-.112-.223-.26-.223-.426-.129-.166-.055-.315.074-.463v-.056c0-.111.055-.186.13-.26a3.06 3.06 0 0 1 2.316-2.408l-.056-.019c.148-.129.445-.464.463-.648-.186.055-.501.352-.648.463V28.02c.166.111.462.407.648.462-.019-.184-.315-.518-.463-.648h1.557c-.149.13-.445.464-.463.648.186-.055.5-.351.647-.462v1.538c-.165-.111-.462-.407-.647-.463.018.167.222.408.37.574.037 0 .074.019.074.074h.019v.056c1.13.296 2.021 1.223 2.224 2.391.055.074.111.149.111.259v.055c.13.129.222.297.222.5a.522.522 0 0 1-.222.427v.055c0 .13-.111.26-.241.279a3.158 3.158 0 0 1-1.108 1.48c.012.148-.013.362-.151.465-.26.223-.63.223-.89.389-.221.13-.333.389-.574.445-.334.112-.705-.018-1.037.055-.482.13-.631.445-1.002.445-.408 0-.315-.26-.965-.37-.426-.223-.925-.575-1.352-.76-.686-.279-1.501-.279-2.26-.445-.686-.129-1.28-.408-1.983-.501-.409-.073-1.891-.018-2.113-.296-.167-.352.315-.444.389-1.315 0-.038.018-.131.038-.242a1.566 1.566 0 0 1-1.132 0c-.222-.074-.741-.463-.741-1.037.445.203 1.409.462 1.556-.557.109-.855-.623-1.59-1.751-1.349zm3.927-25.196l.228.167c.089.058.167.148.222.204.185-.167.408-.574.389-.778-.037-.037-.834 0-.834 0s-.44.022-.61.072c.3.115.605.335.605.335zm-1.18 10.359c.259.074.5.055.686 0 0 .166-.112.593-.463.871.5-.13.778-.834.592-1.13a1.427 1.427 0 0 1-.815.259zm2.798-11.101c-.353.778-.76 1.464-1.261 1.927-.369.371-1.148.835-1.649 1.075-.574.316-1.464.964-1.798 1.501-.314.538-.575 1.316-.518 2.095.315-1.076 1.204-2.557 2.168-3.169.908-.519 1.723-1.075 2.242-1.742.371-.482.833-.945 1.13-1.464.204-.26-.24-.427-.314-.223zm-1.316 3.039c1.964.093 2.019.964 2.835 1.168.575.167 1.353-.055 1.649-.704-.444.26-.926.26-1.463.129-.63-.166-1.168-.574-1.89-.648-.371-.037-.761-.093-1.131.055zm2.372-1.186c-.185-.056-.166.019-.166.111.222 0 .388.056.574.111-.056-.13-.111-.352-.352-.444-.222-.055-.019.186-.056.222zm8.69 1.057c.649-.482 1.705-1.575 2.392-1.983.166 1.501-1.075 2.836-1.501 3.317.779-.63 2.094-2.168 1.649-3.669-.909.426-1.834 1.649-2.54 2.335zm.316 2.483c.501-.278 1.89-.76 2.65-.834-.316 1.353-1.223 1.816-1.982 2.353.889-.462 2.26-1.501 2.243-2.613-.984.093-2.132.519-2.911 1.094zm.63 2.28c.853-.167 1.223-.371 2.317-.316-.26.501-1.335 1.501-2.187 1.835 1.427-.444 2.409-1.463 2.538-2.038-.833-.093-1.926.147-2.668.519zm2.151 2.575c-.223.445-1.168 1.075-2.224 1.39.871-.074 2.372-.741 2.65-1.501-.685-.334-2.205-.278-2.724-.075.723-.055 1.574-.11 2.298.186zm-.353 2.799c-.278.574-1.631.759-2.372.778 1.259.074 2.372-.222 2.725-.815-.501-.501-1.594-.76-2.224-.741.592.092 1.445.314 1.871.778zm-.759 2.39c-.632.464-1.465.352-1.965.26.593.241 1.594.316 2.262-.204-.371-.705-1.168-1.056-1.762-1.075.557.092 1.168.519 1.465 1.019zm-1.224 2.317c-.445.055-.686.315-1.204.185.647.26.815.074 1.389-.018-.074-.594-.167-.964-.89-1.39.521.296.539.704.705 1.223zm-1.778 1.964c-.482.037-.834.204-1.261-.296.445.704.889.444 1.409.463.074-.704.13-.89-.501-1.353.407.408.389.686.353 1.186zm-2.503 1.316c-.501-.111-.834.073-1.15-.63.315.982.742.648 1.261.834.241-.649.575-.593-.019-1.39.261.593.094.667-.092 1.186zm-2.557.797c-.463-.222-.927-.093-1.112-.853.166 1.02.685.76 1.13 1.038.389-.593.742-.408.315-1.316.168.685-.074.629-.333 1.131zm-3.039-.389c-.39-.334-.816-.112-.816-.89-.111 1.001.426.742.816 1.075.518-.444.87-.166.685-1.13 0 .741-.314.537-.685.945zm8.302-22.072c.556-.704 1.317-1.835 1.575-2.317.76 1.112-.407 3.299-.871 4.374.705-1.001 2.038-3.651.816-4.745a37.667 37.667 0 0 1-1.52 2.688zm-9.86 19.106c-.352-.204-.629-.222-.685-.685-.093.741.37.593.685.89.297-.297.834-.241.705-.926.037.499-.445.481-.705.721zm2.15-.333c-.388-.13-.74-.111-.888-.519.056.593.556.556.926.705.167-.351.632-.537.297-1.056.11.444-.131.555-.335.87zm1.706-.76c-.409-.019-.65 0-.89-.315.24.593.592.407 1.001.481.111-.407.463-.537.019-1.075.259.409 0 .557-.13.909zm1.612-1.113c-.409 0-.76.093-1.02-.258.352.574.76.352 1.205.463.128-.686.26-.909-.315-1.316.352.389.241.668.13 1.111zM70.11 18.8c-.316.222-.704.351-1.02.259.519.26.89-.018 1.223-.185-.13-.556-.277-.872-.87-.926.5.149.519.445.667.852zm.834-1.742c-.222.296-.76.427-1.149.445.593.056 1.093-.074 1.352-.425-.259-.501-.684-.742-1.278-.686.519.074.871.184 1.075.666zm.444-2.019c-.166.37-.648.685-1 .76.519-.019 1.019-.335 1.224-.779-.279-.445-1.075-.649-1.594-.463.481-.019 1.056.055 1.37.482zm.093-2.317c-.093.519-.649.964-1.019 1.112.556-.111 1.111-.574 1.259-1.167-.592-.408-1.259-.241-1.685-.018a2.045 2.045 0 0 1 1.445.073zm-2.224-1.649c.445-.241.908-.445 1.502-.519-.075.352-.5 1.093-.89 1.501.648-.426 1.15-1.26 1.113-1.705-.428-.019-1.446.334-1.725.723zm.075-2.595c.277-.185.63-.556.686-.649.166.705-.537 2.076-1.075 2.595 1.168-.982 1.52-2.279 1.149-3.132a5.431 5.431 0 0 1-.76 1.186zm-5.708 11.267c-.259-.24-.594-.111-.631-.444-.017.592.391.37.631.648.203-.278.685-.167.574-.741.037.426-.371.314-.574.537zm1.908-.537c-.388-.074-.686.241-.889-.056.297.501.593.075 1.001.223.056-.391.555-.501.167-.982.24.37-.167.518-.279.815zm1.836-1.298c-.39.167-.706.446-1.095.241.445.389.835-.055 1.262-.166-.167-.649.074-.816-.63-1.038.463.185.351.556.463.963zm.482-2.39c-.112.279-.26.649-.593.853.445-.093.685-.463.834-.853-.222-.26-.593-.63-1.205-.481.37.036.704.203.964.481zm-.168-2.187c.019.352-.222.778-.5 1.075.408-.223.759-.835.704-1.168-.296-.185-.833-.259-1.39 0 .371-.11.872-.128 1.186.093zm-1.205-2.538c.353-.222.686-.426.927-.705.13.779-.463 1.928-.648 2.094.686-.593 1.019-1.575.815-2.52-.333.389-.722.741-1.094 1.131zm-4.687 8.913c-.205-.297-.575-.297-.501-.649-.186.557.26.463.425.853.39-.222.779.018.891-.575-.13.408-.538.242-.815.371zm9.376 16.03a.72.72 0 0 1 0 .278c-.037-.056-.092-.222-.166-.167-.112.056-.074.149-.131.223-.426-.038-.5-.038-.89.314.445-.036.853.111 1.039-.111.074-.092.296-.296.37-.314 0-.13-.11-.241-.222-.223zm.927-.056c.296-.167.223-.667-.149-.667-.426.018-.371.481-.186.648-.018 0-.241 0-.352.056v.223c.206-.093.52-.147.687-.26zm1.334-2.26a26.675 26.675 0 0 0-5.449 0c-.074 0-.148 0-.204-.018-.018.037-.018.056-.018.111s.056.074.112.074a29.227 29.227 0 0 1 5.689 0c.056 0 .111-.018.111-.074a.154.154 0 0 0-.055-.111c-.037.036-.112.036-.186.018zm-5.523-.723c-.185 0-.259.111-.297.26.02.073.038.315.297.315.167 0 .278-.093.278-.26.001-.186-.111-.315-.278-.315zm0 .5c.167 0 .224-.111.204-.223a.577.577 0 0 1-.204.223zm5.911-.092c.057-.186-.018-.408-.259-.408-.167 0-.278.149-.278.315 0 .149.111.26.278.26.131-.001.205-.055.259-.167zm-.239.092c.129 0 .185-.111.167-.223a.51.51 0 0 1-.167.223zm-2.781-.908c.13 0 .186-.112.167-.222a.416.416 0 0 1-.167.222zm-.037-.482c-.166 0-.278.131-.278.298 0 .167.111.278.278.278.167 0 .296-.111.296-.278a.292.292 0 0 0-.296-.298zm.037-.222c.13.037.186-.074.167-.186a.398.398 0 0 1-.167.186zm-.037-.463c-.166 0-.278.093-.278.259 0 .167.111.316.278.316.167 0 .296-.148.296-.316.001-.148-.128-.259-.296-.259zm.037-.204c.13 0 .186-.112.167-.224-.036.094-.093.15-.167.224zm-.037-.5c-.166 0-.278.13-.278.296 0 .167.111.278.278.278.167 0 .296-.111.296-.278a.29.29 0 0 0-.296-.296zm.037-.223c.13.038.186-.111.167-.185a.4.4 0 0 1-.167.185zm-.037-.482c-.166 0-.278.13-.278.297 0 .167.111.315.278.315.167 0 .296-.147.296-.315a.29.29 0 0 0-.296-.297zm-.74 3.336c.147 0 .222-.111.203-.223-.056.093-.111.186-.203.223zm0-.482c-.167 0-.297.092-.297.26 0 .185.131.315.297.315.147 0 .278-.148.278-.315-.001-.148-.131-.26-.278-.26zm-.705.519c.168 0 .223-.112.204-.222a.59.59 0 0 1-.204.222zm0-.5a.293.293 0 0 0-.297.297c0 .166.13.278.297.278.168 0 .278-.111.278-.278 0-.168-.11-.297-.278-.297zm-.704.519c.166.018.222-.112.203-.204-.055.092-.111.166-.203.204zm0-.482a.292.292 0 0 0-.297.296c0 .185.128.315.297.315.166 0 .277-.148.277-.315.001-.167-.111-.296-.277-.296zm4.243.519c.129 0 .186-.111.167-.222a.327.327 0 0 1-.167.222zm-.296-.241c0 .185.093.315.259.315a.313.313 0 0 0 .316-.315c0-.149-.13-.259-.297-.259-.167 0-.278.092-.278.259zm-.407.185c.129 0 .185-.112.185-.222a.434.434 0 0 1-.185.222zm-.037-.482a.28.28 0 0 0-.26.26c0 .185.13.315.26.315a.313.313 0 0 0 .314-.315c0-.167-.167-.278-.314-.26zm-.686.426c.148 0 .222-.111.203-.222a.467.467 0 0 1-.203.222zm-.019-.5c-.13 0-.26.129-.26.296 0 .167.13.277.26.277.185 0 .314-.111.314-.277.001-.167-.166-.296-.314-.296zm-.685.482c.147 0 .222-.111.204-.222-.057.074-.112.148-.204.222zm0-.501c-.167 0-.297.093-.297.26s.13.315.297.315c.147 0 .278-.148.278-.315 0-.148-.131-.26-.278-.26zm-2.966-.018c0 .018.018.056.036.093a.34.34 0 0 1 .205-.056 49.293 49.293 0 0 1 2.335-.111v-2.354c0-.075.018-.129.018-.185 0-.038-.037-.056-.055-.056-.093 0-.111.055-.111.129-.019.779-.019 1.539-.019 2.28-.759.037-1.519.073-2.297.149-.056 0-.112.056-.112.111zm3.484-2.669c-.018 0-.056.018-.037.037 0 .056.018.111.018.185 0 .816.018 1.594.018 2.354.742.037 1.447.055 2.206.111.055 0 .111.038.167.056.037-.018.055-.056.055-.074 0-.055-.055-.111-.129-.111a21.28 21.28 0 0 0-2.169-.111c0-.761 0-1.502-.019-2.318.001-.054-.036-.111-.11-.129zm-.438-1.275c0-.093.038-.184.075-.278.056-.075.111-.167.185-.278h-.778c.092.092.463.593.13.648-.168.019-.409-.166-.518-.24v.759c.091-.055.592-.463.647-.129.038.167-.148.445-.259.556h.778c-.093-.093-.463-.593-.13-.649.167-.019.407.167.52.241v-.76c-.094.056-.593.464-.65.13zm-8.013 5.056c-.482.019-.889-.278-.982-.946-.223.371-.278.464-.408.872-.242-.167-.333-.315-.351-.631-.037.037-.074.093-.111.112-.075 1.056-.483 1.445-.409 1.501.149.186 1.279.241 1.927.241 0 0-.037-.297.167-.463-.111.259-.074.556.185.556 0-.037 0-.278.111-.352-.018.074-.018.444.334.426 0-.037 0-.222.074-.296 0 .129.037.463.352.444-.037-.055 0-.26.074-.279-.018.056 0 .39.315.39 0-.056 0-.204.112-.26-.056.074 0 .407.26.333-.018-.056-.018-.185.056-.259 0 .093 0 .39.332.334 0-.056 0-.167.074-.222-.036.074.02.314.316.296-.019-.075 0-.13.074-.185 0 .073.093.296.259.185.131.129.575.018 1.28.314l1.389.834c.463.037.557.37.872.259.556-.259.871-.666 1.334-1.018.13-.093.297-.131.408-.26a.467.467 0 0 0 .074-.444c-.055-.315-.5-.37-.685-.204-.223.166-.278.389-.111.815 0 0-.167-.074-.222-.074.018.074-.056.148.018.334-.037-.037-.111-.093-.167-.167-.13.111-.018.278-.018.408-.111-.056-.111-.222-.166-.222-.224.073-.168.258-.074.426-.148-.019-.185-.167-.205-.241-.166.018-.166.13-.111.278-.186-.074-.13-.26-.186-.26-.093-.018-.147 0-.222-.018-.074 0-.279-.167-.093-.185.575-.019.724-.074.891-.334-.334-.129-.909-.036-1.261-.018-.13 0-.074-.24-.018-.222.074-.037.165-.037.241-.056 0 0-.112-.111-.241-.167.203-.074.296.092.315.11.241-.295-.279-.351-.408-.462.074-.074.315.055.259-.074-.109-.094-.165-.186-.24-.26-.52.815-1.407.703-2.298.5-.168-.018-1.334-.37-1.501-.426-.222-.112-.167-.019-.222 0-.167-.297-.39-.092-.39-.019-.055-.056 0-.148.037-.222-.203-.242-.482-.056-.5.017-.055-.11.037-.221.056-.239-.185-.186-.389 0-.389.111-.056-.074 0-.278.056-.297-.133-.091-.188-.185-.263-.314 0 .019 0 .019 0 0z"/><path d="M53.446 26.104l.048-.007.132-.019c.171-.029.273-.057.337-.094a.607.607 0 0 0 .297-.341 1.26 1.26 0 0 0 .065-.424v-5.125h-.363c-.098 0-.208.007-.339.02a3.691 3.691 0 0 0-.337.039c-.215.044-.422.278-.631.715-.022.045-.042.09-.06.134h-.327v-1.517h5.194V21h-.326a2.104 2.104 0 0 0-.057-.132c-.216-.445-.418-.672-.639-.717a3.874 3.874 0 0 0-.33-.038 4.294 4.294 0 0 0-.337-.02h-.365v5.069c0 .156.02.292.063.427a.66.66 0 0 0 .297.344c.076.039.181.075.316.11.075.022.143.039.201.052v.58h-2.838v-.571h-.001zm.527-2.542v1.656a.849.849 0 0 1-.041.28c-.018.052-.057.094-.126.132a.85.85 0 0 1-.23.056l-.126.018a5.646 5.646 0 0 0-.208.032l-.016-.009c-.406-.557-.668-1.32-.705-2.167h1.452v.002zm2.516 2.175a3.775 3.775 0 0 1-.323-.076 1.415 1.415 0 0 1-.244-.081c-.086-.053-.114-.105-.124-.132 0 0-.039-.177-.039-.286v-1.6h1.449c-.036.845-.298 1.606-.703 2.163l-.016.012zm-3.431-6.649c.431-.728 1.079-1.192 1.803-1.192.726 0 1.376.464 1.808 1.192h-3.611zm2.7 1.904v-.504h.014c.085 0 .191.007.31.018s.22.021.3.034c.035.006.156.06.355.452h-.979zm-1.785 0h-.98c.203-.402.33-.447.351-.452.081-.014.184-.023.304-.035.122-.011.223-.018.313-.018l.012.505zm2.663 5.164v.916h-3.541v-.913.001c-.569-.68-.929-1.682-.929-2.796v-.199h1.808v-1.766h-.709l-.447-.003h-.901v-2.307h.73c.487-.961 1.298-1.591 2.214-1.591.919 0 1.724.626 2.22 1.592l.183-.001h.548v2.307h-.898l-1.157.003v1.766h1.804v.199c.002 1.112-.358 2.111-.925 2.792zm-1.772-9.867c-2.292 0-4.155 2.665-4.155 5.941 0 3.275 1.863 5.939 4.155 5.939 2.291 0 4.156-2.664 4.156-5.939 0-3.277-1.865-5.941-4.156-5.941zm0 12.278c-2.485 0-4.506-2.843-4.506-6.337 0-3.495 2.021-6.34 4.506-6.34 2.484 0 4.507 2.844 4.507 6.34 0 3.495-2.023 6.337-4.507 6.337zm.009-16.336c-1.47.005-2.825 1.965-3.702 3.606-1.007 1.887-1.779 4.125-1.995 5.275-.492 2.608.077 5.285 1.482 6.986 1.045 1.263 2.501 1.934 4.218 1.941h.025c1.711 0 3.161-.654 4.187-1.894 1.399-1.687 1.958-4.383 1.46-7.032-.214-1.15-.986-3.387-1.992-5.275-.87-1.642-2.22-3.602-3.683-3.607zm.029 18.155h-.026c-1.824-.007-3.374-.721-4.486-2.066-1.469-1.778-2.065-4.565-1.556-7.272.415-2.205 3.02-9.15 6.038-9.163 3.005.013 5.603 6.958 6.016 9.163.518 2.749-.071 5.553-1.533 7.317-1.095 1.322-2.635 2.021-4.453 2.021zm4.841-1.771c1.535-1.867 2.144-4.783 1.587-7.611-.518-2.632-3.29-9.576-6.471-9.631-3.175.055-5.949 6.999-6.465 9.631-.551 2.798.07 5.706 1.619 7.589 1.19 1.448 2.869 2.214 4.851 2.214h.029c1.995-.001 3.671-.758 4.85-2.192z"/><path d="M52.934 34.097h-.383c-.631-.055-1.113.167-1.464.594-.111-.982.741-1.333 1.278-1.705.856-.599.328-1.792-.341-2.411.856.387 1.815.586 2.85.586h.03c1.047 0 2.011-.199 2.87-.586-.678.618-1.206 1.811-.35 2.411.555.37 1.391.741 1.279 1.705-.352-.445-1.464-.594-1.464-.594h-.302c.24 1.3 2.14 2.335 1.946.796 1.128.129 1.583 1.406.487 1.737 1.589.34 2.662.879 3.031 1.689.194.425.198 1.03.051 1.472-.21.616-.758.937-1.516 1.064-.444.081-.877-.193-1.006-.336-.638-.705.198-1.12.709-1.205.154.545.611.115.301-.363-.214-.326-1.168-.646-1.304-.804.003.444-.136.769-.787.67.097-.303-.184-.531-.67-.724-.72-.281-1.331-.71-1.727-1.381-.073.44.082.968 1.045 1.8.399.301.591.39.913.432.661.087.702.494.212.77.785.655.7 2.796.7 2.796s-.782-1.355-1.219-1.412c.033-.26.012-.49-.202-.609-.018.436-.167.739-.676.674.339-1.057-1.049-1.326-1.432-2.336-.476.172-.131 1.074.299 1.688.127.183.194.24.228.459.103.674.24 1.348.516 2.022.055.139.084.141-.078.146-.416.018-1.01-.369-1.01-.369s.309.899.275 1.347c-.006.06.005.061-.043.029-.188-.131-1.033 1.456-1.033 1.456s-.853-1.582-1.04-1.452c-.049.034-.041.034-.043-.026-.034-.449.273-1.347.273-1.347s-.592.386-1.009.368c-.162-.007-.132-.008-.077-.146.275-.673.413-1.349.515-2.023.033-.22.101-.277.229-.459.429-.614.775-1.512.298-1.686-.385 1.01-1.771 1.277-1.431 2.335-.51.066-.658-.237-.677-.675-.214.119-.235.348-.202.612-.438.057-1.218 1.41-1.218 1.41s-.086-2.139.697-2.796c-.488-.273-.447-.683.214-.769.321-.042.513-.132.912-.431.963-.835 1.117-1.36 1.047-1.801-.4.67-1.009 1.098-1.728 1.382-.487.192-.77.419-.673.721-.647.101-.79-.223-.784-.668-.136.158-1.093.477-1.306.803-.309.479.146.909.301.363.513.086 1.346.501.712 1.206-.13.144-.477.354-1.007.334-.759-.129-1.307-.445-1.514-1.065-.147-.438-.145-1.047.048-1.471.37-.809 1.445-1.348 3.033-1.688-1.096-.332-.641-1.608.487-1.737-.195 1.541 1.712.502 1.945-.801"/><path d="M36.422 24.172l-.31-.637c.204-.222.093-.519-.129-.631v-.055c.017-.055.017-.092.017-.13.075-.018.186-.037.279-.056.63-.148 1.612-1.074 2.446-1.648-.296.315-1.519 1.205-2.075 1.723-.508.49-.307.997-.228 1.434zM47.305 4.976l-.228.167c-.089.057-.167.147-.223.203-.185-.167-.407-.574-.389-.778.037-.037.834 0 .834 0s.44.022.61.072c-.299.116-.604.336-.604.336zm-1.602-.742c.352.778.76 1.464 1.26 1.927.39.371 1.15.835 1.668 1.075.557.316 1.465.964 1.779 1.501.334.538.574 1.316.519 2.095-.315-1.076-1.205-2.557-2.169-3.169-.908-.519-1.723-1.075-2.224-1.742-.389-.482-.852-.945-1.149-1.464-.202-.26.223-.427.316-.223zM47 7.273c-1.964.093-2.02.964-2.835 1.168-.575.167-1.353-.055-1.649-.704.445.26.926.26 1.445.129.648-.166 1.204-.574 1.927-.648.371-.037.761-.093 1.112.055zm-2.353-1.186c.185-.056.167.019.167.111-.222 0-.371.056-.574.111.056-.13.111-.352.352-.444.222-.055.018.186.055.222zm3.855 9.248a1.236 1.236 0 0 1-.686 0c0 .166.111.593.463.871-.5-.13-.778-.834-.593-1.13.223.166.537.259.816.259zm-2.372 4.41c.259-.24.593-.111.63-.444.019.592-.389.37-.63.648-.185-.278-.686-.167-.575-.741-.019.426.389.314.575.537zm-1.909-.537c.389-.074.685.241.908-.056-.315.501-.593.075-1.019.223-.056-.391-.556-.501-.167-.982-.242.37.185.518.278.815zm-1.817-1.298c.37.167.704.446 1.075.241-.426.389-.833-.055-1.26-.166.167-.649-.074-.816.629-1.038-.444.185-.35.556-.444.963zm-.481-2.39c.112.279.26.649.593.853-.445-.093-.686-.463-.815-.853.222-.26.593-.63 1.186-.481a1.463 1.463 0 0 0-.964.481zm.148-2.187c-.018.352.222.778.501 1.075-.409-.223-.76-.835-.705-1.168.297-.185.835-.259 1.39 0-.371-.11-.853-.128-1.186.093zm1.205-2.538c-.353-.222-.686-.426-.927-.705-.149.779.444 1.928.648 2.094-.686-.593-1.019-1.575-.816-2.52.354.389.742.741 1.095 1.131zm4.6 8.913c.185-.297.555-.297.444-.649.223.557-.241.463-.408.853-.388-.222-.76.018-.89-.575.187.408.558.26.854.371zm-8.418 5.56c.5-.111.853.073 1.149-.63-.296.982-.741.648-1.26.834-.241-.649-.574-.593.018-1.39-.259.593-.092.667.093 1.186zm2.576.797c.463-.222.889-.093 1.112-.853-.167 1.02-.686.76-1.149 1.038-.389-.593-.741-.408-.296-1.316-.167.685.074.629.333 1.131zm3.039-.389c.389-.334.833-.112.833-.89.112 1.001-.444.742-.852 1.075-.482-.444-.833-.166-.648-1.13-.018.741.297.537.667.945zm-8.098-1.724c.481.037.834.204 1.278-.296-.5.704-.908.444-1.409.463-.092-.704-.167-.89.482-1.353-.407.408-.388.686-.351 1.186zM35.882 7.273c-.648-.481-1.63-1.686-2.317-2.112-.166 1.501 1.076 2.835 1.502 3.317-.779-.63-2.095-2.168-1.631-3.67.889.445 1.742 1.743 2.446 2.465zm-.242 2.354c-.5-.278-1.891-.76-2.65-.834.315 1.353 1.223 1.816 1.983 2.353-.87-.462-2.26-1.501-2.223-2.613.963.093 2.112.519 2.89 1.094zm-.63 2.28c-.834-.167-1.223-.371-2.316-.316.241.501 1.297 1.501 2.168 1.835-1.409-.444-2.41-1.463-2.539-2.038.852-.093 1.909.167 2.687.519zm-2.149 2.575c.222.445 1.167 1.075 2.223 1.39-.871-.074-2.353-.741-2.65-1.501.685-.334 2.205-.278 2.723-.075-.739-.055-1.592-.11-2.296.186zm.352 2.799c.278.574 1.649.759 2.372.778-1.26.074-2.372-.222-2.723-.815.518-.501 1.593-.76 2.223-.741-.594.092-1.446.314-1.872.778zm3.558-13.677a24.546 24.546 0 0 1-1.576-2.317c-.759 1.112.407 3.299.871 4.374-.704-1.001-2.02-3.651-.815-4.745.501.928.964 1.836 1.52 2.688zm3.725 7.469c-.445-.241-.89-.445-1.501-.519.056.352.482 1.093.871 1.501-.649-.426-1.149-1.26-1.113-1.705.427-.019 1.502.334 1.743.723zm-2.187 1.649c.074.519.649.964 1.001 1.112-.557-.111-1.112-.574-1.261-1.167.593-.408 1.261-.241 1.687-.018a1.991 1.991 0 0 0-1.427.073zm.074 2.317c.167.37.649.685 1.001.76-.519-.019-1.02-.335-1.223-.779.278-.445 1.075-.649 1.594-.463-.501-.019-1.057.055-1.372.482zm1.279 3.761c.296.222.705.351.983.259-.501.26-.871-.018-1.205-.185.148-.556.278-.872.89-.926-.501.149-.538.426-.668.852zm-.852-1.742c.222.296.778.427 1.148.445-.593.056-1.093-.074-1.353-.425.259-.501.649-.742 1.279-.686-.519.074-.852.203-1.074.666zm7.82 5.652c.352-.204.631-.222.686-.685.073.741-.389.593-.686.89-.314-.297-.852-.241-.703-.926-.038.499.443.499.703.721zm-2.149-.333c.371-.13.741-.111.871-.519-.056.593-.556.556-.927.705-.167-.351-.63-.537-.315-1.056-.093.444.166.573.371.87zm-1.724-.76c.408-.019.649 0 .89-.315-.241.593-.594.407-1.02.481-.075-.407-.445-.537 0-1.075-.223.409.019.557.13.909zm-1.594-1.113c.37 0 .76.093 1.019-.258-.352.574-.76.352-1.186.463-.148-.686-.278-.909.297-1.316-.371.389-.241.668-.13 1.111zm-.741-12.026c-.278-.185-.63-.556-.686-.649-.167.705.556 2.076 1.075 2.595-1.167-.982-1.52-2.279-1.13-3.132.204.426.444.815.741 1.186zm.37 28.687c-.018.019.018.13.018.13-.111 0-.408-.13-.371-.315a.717.717 0 0 1 .353.185zm1.26.482c-.222.277-.722-.019-.889-.186l-.278-.129c0-.055-.019-.092.018-.13l.167.056c-.018.019 0 .074.018.129.019-.074.075-.129.186-.074 0 .056 0 .13.111.186 0 0 0-.167.019-.241.111-.019.129-.074.185-.167.352-.092.815.204.463.556zm-2.094-1.575s-.055.185 0 .314c.056-.185.167-.24.241-.166-.055.073-.055.222.019.315 0-.149.111-.222.204-.111 0 0-.018.111.056.148.018-.074.129-.056.167-.056 0 0 .296.112.649-.111.166.092.24.204.185.388-.056.259-.352.297-.593.129-.408-.259-.834-.167-1.056-.351-.148-.13-.186-.37-.111-.556.073.002.184.002.239.057zm-.314-1.391c.351.316-.13.501-.205.779l.056.019c0-.074.092-.167.148-.223 0-.074.129.166.167.186-.056 0-.056-.02-.056.018-.056 0-.018.074-.018.111h.074c0-.055.055-.111.111-.129.111 0 .166.148.166.241h.056c0-.056.019-.074.055-.111v-.018c.111 0 .203.111.259.167.222 0 .241-.26.481-.186 0 0 .26.074.278.261.13.351-.019.425-.259.48-.372.075-.612-.259-.928-.426-.167-.111-.37-.055-.574-.148-.534-.224-.016-.779.189-1.021zm1.482-.889s-.056-.166-.129-.277c.129-.111.241-.111.352-.056a1.348 1.348 0 0 1-.223.333zm-1.204-.907c.296-.131.407-.353.407-.5.222.259 0 .555-.334.741-.259.13-.741.13-.778-.259.13.165.556.092.705.018zm.055-1.113c.222.298.167.741-.167.871-.334.167-.686 0-.779-.388-.074-.223.074-.483-.111-.816.167.204.371.278.444.278.074-.074.167-.388.111-.556.131.277.354.389.502.611zm-.649-.611c0 .074 0 .185-.055.296-.111-.018-.186-.111-.26-.167a.476.476 0 0 0 .315-.129zm-.241-.297c.223-.111.297-.297.297-.427.167.186 0 .5-.241.594-.222.111-.575.111-.63-.204.13.148.445.093.574.037zm-3.724-7.542a.591.591 0 0 0 .464-.223.264.264 0 0 1 .166.111c.056.111-.018.277-.185.352-.167.073-.352.055-.408-.075-.037-.053-.037-.109-.037-.165zm-.038-1.075c.259 0 .445.167.445.408 0 .222-.186.408-.445.408a.411.411 0 0 1-.407-.408.41.41 0 0 1 .407-.408zm4.633 9.877a1.01 1.01 0 0 1-.259.445c.111 0 .222-.093.241-.167.037-.055.074-.259.018-.278zm-6.096-12.416c-.408-.297-.112-.407-.075-.482.111.036.334-.148.353.352l-.278.13zm.574.056c-.26-.222-.056-.259-.056-.352.13.037.241-.074.241.259l-.185.093zm1.019-.482c.055.037.111.111.167.167l-.185.518.259-.445c.037.056.055.111.111.167l-.297.5.353-.353c.018.019.018.075.055.13 0 .019.018.037.018.056l-.352.314.352-.185c.018.074 0 .166 0 .241l-.371.111.352-.018c0 .055-.018.111-.018.167l-.371.018.315.074c-.018.037-.056.092-.056.13l-.444-.056.352.167c-.018.056-.056.075-.112.13-.204 0-.333.111-.352.333-.074-.018-.13-.056-.167-.074.056-.055.074-.167.111-.315 0-.129-.129-.279-.129-.352l-.018-.018h.259c.222-.222.129-.5-.074-.686l.242-.721zm-.445 2.149l.186.111s.26.408.593.222c.019.074-.13.223-.315.26-.278 0-.519-.204-.519-.204s-.018.316-.222.519c-.148.13-.352.167-.408.074.371-.129.241-.594.241-.594l.056-.222h.074c.018 0 .148.019.111.019l.055.055v-.074c.018-.055.056-.074.074-.111.019-.017.037-.017.074-.055zm-1.575-.611c0 .222.111.556.445.5.074-.055.148-.111.167-.203l.018.056a.42.42 0 0 0 .167.333c.13.074.223.111.296.111a.304.304 0 0 1-.055.166c-.185-.111-.353-.074-.5.056h-.167l.111-.351-.222.351a8.169 8.169 0 0 1-.167-.056l.167-.296-.26.26c-.056-.019-.092-.056-.148-.075l.26-.241-.333.185c-.056-.037-.111-.092-.185-.13l.388-.167-.463.056c-.019-.018-.019-.056-.056-.056-.018-.055-.018-.111-.055-.166h.537l-.574-.111c0-.055-.018-.129-.018-.185l.482.111-.501-.222c-.018-.129-.018-.222-.018-.222l.684.296zm1.353-.316c.111.149.351.334.314.576-.018.315-.185.315-.259.5-.223-.074-.334.056-.556-.111-.223-.167-.167-.426-.241-.649l.742-.316zm-.649.224l-.018-.223c-.111-.129-.277-.129-.408-.073-.018.111-.167.018-.241.147-.056-.092 0-.167.074-.222-.018-.056.018-.074.056-.111l.314-.167c-.055.056-.055.074-.055.111.259-.018.408.167.408.167s-.019-.26.185-.408c-.019-.018-.056-.056-.13-.018l.352-.167c.018 0 .092 0 .111.018.111 0 .185.019.241.093-.167 0-.185.167-.296.111a.349.349 0 0 0-.204.351l.13.167-.519.224zm-.574-.575c-.278-.24-.055-.259-.018-.351.056.037.241-.074.222.277l-.204.074zm9.377 19.106c-.074.055-.186.055-.259-.074a.459.459 0 0 0 .352-.167c.036.093-.019.204-.093.241zm-.129-.278c-.167.075-.408.111-.575-.129a.895.895 0 0 0 .741-.353c.074.167 0 .39-.166.482zm-.353-.685c.352-.13.445-.352.445-.557.259.316-.019.594-.353.761-.315.167-.834.167-.889-.26.167.203.612.148.797.056zm6.857-4.578c.075.167.315.445.408.556.167.223-.018.407-.352.446-.908 0-1.205-.075-1.835-.056h-.5c0-.129.018-.241-.13-.389.074.316-.074.5-.315.5 0 0 .111-.241-.111-.371.093.241-.055.445-.297.445.056-.167 0-.259-.111-.352.055.315-.018.445-.315.482a.348.348 0 0 0-.13-.352c.055.223-.056.519-.296.556 0-.111 0-.222-.13-.351.019.389-.074.463-.278.519.019-.184-.056-.24-.111-.352.055.278-.056.519-.297.593 0 0 .018-.259-.111-.408.019.259-.111.482-.407.741-.464.315-.779.556-1.279.76a8.414 8.414 0 0 0-.408-.982c.315.018.556.111.853.018.223-.018.537-.223.593-.352-.26.129-.593.186-.686.186-.593 0-.964-.13-1.223-.63 0 0 .056-.055.074-.055.167.258.575.388.89.258-.351 0-.815-.258-.834-.686.075-.092.13-.351-.11-.445.11.13.11.187-.019.408-.112-.166-.167-.314-.334-.351.019.074 0 .13-.018.167a.53.53 0 0 1-.241 0c0 .074.296.13.351.26.223.556-.426.778-.704.444-.167-.222-.167-.537-.019-.686.408-.315.5-.425.685-.704.26-.296.593-.055.649.148.315.742.741 1.02 1.278 1.13.63.074 1.353-.166 2.094-.5.278-.112.334-.167.445.018.074-.111-.019-.221-.019-.221.129-.112.296-.112.352.055.111-.073.019-.222.019-.222.222-.186.333-.074.389.055.073-.111 0-.241 0-.241.111-.055.223-.111.296-.204.445 0 .815-.297.964-.926.222.352.26.462.371.871.277-.167.352-.315.389-.63.111.111.26.203.408.278.001.221.075.387.112.572zm1.954-3.548a6.394 6.394 0 0 1-1.522-1.351c-.758-.922-1.303-2.077-1.609-3.343-.096.403-.272.75-.539.97.24 0 .556-.037.741-.111-.37.759-1.203 1.037-2.148.684a.814.814 0 0 0 .129.408c-1.019.167-1.464.574-1.834 1.224-.519.89.037 2.019-.111 2.483-.111.297-.445.575-1.001.315.26 1.168 1.724 1.039 2.112.389.148.538 0 1.167-.259 1.409a1.16 1.16 0 0 0 1.074-.519c.056.111.056.26.074.389.26-.13.408-.278.519-.407.037.129.093.426.019.686-.204.129-.426.259-.741.426-.538.277-1.538.668-2.113.741-.482.093-1.278-.185-1.501-.834-.185-.63-.704-.834-1.112-.444-.111-.075-.407-.131-.519.055 0 0-.13-.296-.297-.444.111-.316.037-.704-.26-.834-.037-.612-.426-.612-.556-.834-.074-.129-.074-.296.111-.315-.074-.129-.24-.148-.259-.148.056-.26-.037-.593-.389-.705l-2.718-5.594.001.001c.463.045 1.151.305 1.661-.114.149-.148 2.428-2.984 2.743-3.261-.13.259-1.575 2.076-2.224 3.113-.464.779.241 1.316.314 1.761.519-.166 1.224.148 1.594-.482.371-.611 1.483-2.762 1.89-3.354-.148.464-1.334 2.891-1.408 3.113-.278.834.426.983.704 1.539.427-.297 1.205-.075 1.501-.852.185-.538.648-2.391.89-2.891-.037.537-.186 1.278-.297 2.094-.111.816.649.797 1.057 1.26.389-.333 1.093-.24 1.204-.982.111-.649.13-2.243.13-2.243.111.092.166.112.278.223.26-.316.816-.316 1.001-.686.074.019.111.074.185.13.023.039.046.079.067.12.004-.669.071-1.346.203-2.018.406-2.068 3.116-9.747 6.738-9.914l-.001-.002c-.259-1.545-.913-2.929-1.76-4.273.426.056.908-.148 1.167-.463-1.093.092-2.131-.333-2.687-.982.5-.167.815-.463 1.075-.852-.482.222-1.075.296-1.705.222.76-.166 1.927-.778 1.983-1.334-.203.223-1.723.297-2.594.297h-4.486c-.074.055-.111.167-.111.296-.297-.111-.519.055-.482.371-1.149 0-2.168.686-1.909 2.02.074.5.26.704.575.945.482-.76 1.872-.815 2.78-.315a4.504 4.504 0 0 0-1.649.296c-.5.222-1.149.519-1.835.445-.464-.056-.704-.351-.797-.685-.222.185-.056 1.13.741 1.501.389.203 1.094.278 1.594-.074.186-.111.927-.928 1.817-.928-1.298.334-1.668 1.28-.649 1.836-.038-.334-.093-.76.556-1.168a1.934 1.934 0 0 1 1.501-.185c.204.074.463.203.631.26.278.018.426-.148.5-.222.575.426 1.409 1.76 1.594 2.594.203.964.056 1.593-.426 2.15-.148.167-.927.797-1.686.148-.111.964.703 1.539 1.667 1.223a3.343 3.343 0 0 1-.964.593c-.648.278-1.333.018-1.631-.537-.741.834-.388 2.261.778 2.39-.537 1.019-2.353 1.093-3.169-.111-.519-.759.074-1.297.371-1.612.778-.722.222-2.224.222-2.224-.704-1.038-2.891-2.761-3.725-4.021a2.79 2.79 0 0 0-.241.519c-.797-.612-1.667-1.853-1.964-2.78-.148.037-.278.203-.408.315C38.65 5.644 36.443 2.372 35.409 0c-1.315.63-1.297 2.52-.89 3.595.352.982.964 2.038 2.224 3.502-.409-.297-2.873-2.836-3.429-3.15-.908 1.316-.297 3.614 1.445 4.597-.537-.241-1.853-.723-2.557-.556-.148 1.464 1.038 2.464 1.779 3.021-.723-.167-1.538-.278-2.317-.055.056 1.001 1.093 2.132 2.557 2.65-.927-.093-1.872.018-2.446.37.092 1.038 1.279 1.927 2.687 2.15-.945.111-1.779.519-2.224 1.094.519.667 1.278 1.186 2.446 1.167-.26.093-.574.278-.834.538-.018-.037-.074-.056-.129-.056a.15.15 0 0 0-.056.167v.037a.495.495 0 0 0-.185.277c-.112.167-.222.334-.278.501.018.018.055.037.074.056a.36.36 0 0 0 .074.296.496.496 0 0 0-.111.222l-.686-.259c-.037.63.093 1.131.408 1.445.241.279.519.241.445.334l.741.445c.148.278.408.278.593.204v.055c0 .297.203.537.463.63-.055.241.056.389.389.5l2.78 6.728c-.111.315 0 .594.241.704-.055.074-.111.148-.111.314.111-.092.278-.111.352.111.055.148-.241.667.204 1.02a.689.689 0 0 0 .426.76c0 .166.148.685.167.871-.185.278-.649.705-.593 1.167.037.334.185.444.445.519-.093.593.241.87.741.89 0 .445.426.611.686.63.241.185.352.26.648.408-.278.314-.092.741.408.87.056.185.186.333.463.407a.508.508 0 0 0 .631.186c.111-.056.296-.371.129-.63.111-.149.056-.389-.018-.556.148-.296.018-.649-.204-.76.018-.167-.055-.408-.111-.575.389-.24.871-.537 1.038-.647.945-.668 2.001-1.279 3.224-1.353.315-.019.89-.038 1.204-.019.501.055 1.168.203 1.576-.111.111-.092.185-.222.167-.352-.056-.297-.389-.575-.5-.853-.037-.073-.074-.204-.13-.315.352.074.667.019.871-.074.203-.074.723-.463.704-1.037-.408.185-1.408.462-1.52-.557-.106-.854.623-1.588 1.761-1.353"/></g></svg>