<svg version="1.1" id="Livello_1" xmlns="http://www.w3.org/2000/svg" xmlns:xlink="http://www.w3.org/1999/xlink" x="0" y="0" width="210.605" height="126.29" viewBox="0 0 210.605 126.29" xml:space="preserve"><g id="XMLID_718_"><path id="XMLID_1009_" fill="none" stroke="#BCC7BC" stroke-miterlimit="10" d="M105.811 0C87.006 0 71.762 15.244 71.762 34.048s15.244 34.048 34.048 34.048 34.048-15.244 34.048-34.048S124.615 0 105.811 0zm26.421 27.591c-.948 2.719-1.97 5.393-4.07 7.537-1.543 1.575-2.882 3.351-4.282 5.062-1.166 1.426-.511 2.987-.026 4.371.55 1.569.483 3.101.25 4.635-.087.57-.705 1.138-1.212 1.543-.814.65-1.747 1.144-2.613 1.732-.629.427-.844.979-.674 1.771.401 1.872.206 2.143-1.39 3.188-.354.232-.639.683-.74 1.11-.667 2.844-4.01 5.522-6.927 5.704-.922.058-1.826.411-2.739.411h-.393c-.528 0-1.056-1.223-1.129-2.295-.064-.93-.873-1.599-1.285-2.523-.407-.913-.734-1.863-1.089-2.799-.471-1.243-.795-2.566-1.432-3.717-1.161-2.098-1.268-4.097.071-6.107.74-1.111.17-2.226-.118-3.214-.403-1.383-1.018-2.805-1.905-3.921-1.056-1.328-1.445-2.575-1.068-4.224.473-2.07.236-2.263-1.825-2.348-.384-.016-.934-.168-1.106-.444-.777-1.249-2.027-1.357-3.014-.829-2.19 1.17-4.581.44-6.804 1.035-.31.083-.766-.01-1.032-.197-1.52-1.066-3.084-2.102-3.817-3.945a2.491 2.491 0 0 0-.257-.457c-.12-.178-.252-.35-.378-.522-.704-.96-1.706-1.763-1.533-3.166.024-.193-.323-.392-.395-.636-.019-.063.104-.573.147-.622 1.262-1.409 1.128-2.604 1.13-4.295 0-.485-.116-1.092.123-1.432 1.333-1.892 2.316-4.094 4.676-5.098.583-.248 1.115-.932 1.374-1.545.414-.983.954-1.73 1.88-2.277.496-.293.851-.784 1.339-1.096.28-.179.7-.122 1.056-.119.817.006 1.748.481 2.426.194 1.373-.583 2.741-.47 4.196-.516.967-.031 1.926.053 2.889.053h.59c.755 0 .575.998.486 1.901-.039.389.308.452.658.638 1.275.679 2.635 1.195 3.942 1.816.633.3.993.256 1.27-.472.438-1.154 1.122-1.397 2.248-.996 1.725.614 3.442 1.275 5.345.772.419-.111.911-.03 1.354.049 1.71.307 2.107 1.018 1.718 2.763-.09.403.018.935.221 1.305.946 1.724 2.196 3.233 2.82 5.199.423 1.332 1.643 2.445 2.617 3.559.825.944 2.291 1.297 2.477 2.881.002.017.022.035.037.052.174.202 1.154.438 1.659.344 1.016-.19 1.982-.647 2.973-.981.975-.33 1.625.182 1.281 1.168z"/><path id="XMLID_1008_" fill="#BCC7BC" d="M91.302 25.658c.452-.148.899-.296 1.336-.443 1.091-.367 2.118-.724 3.002-1.051.177-.065.348-.13.513-.193a24.4 24.4 0 0 0 1.638-.68c.209-.099.384-.19.518-.271a2.01 2.01 0 0 0 .171-.115 2.77 2.77 0 0 1 1.272-.562 3.226 3.226 0 0 1 1.186.046c.737.156 1.344.483 1.671.516.655.066 2.104.066 2.887-.328.783-.393.979-1.18 1.7-1.278.721-.098 1.13-.36 1.606-.116l1.147.476c.098.016 1.18.787 2.294 1.524s4.309 1.589 8.34 2.671c2.65.711 4.662 1.054 5.733 1.206-.015-.018-.035-.035-.037-.052-.186-1.583-1.652-1.936-2.477-2.881-.974-1.114-2.194-2.227-2.617-3.559-.624-1.966-1.874-3.475-2.82-5.199-.203-.37-.311-.902-.221-1.305.389-1.745-.008-2.456-1.718-2.763-.443-.079-.935-.16-1.354-.049-1.903.503-3.62-.158-5.345-.772-1.125-.4-1.809-.158-2.248.996-.277.728-.637.772-1.27.472-1.307-.621-2.668-1.137-3.942-1.816-.35-.186-.696-.249-.658-.638.089-.903.269-1.901-.486-1.901h-.59c-.963 0-1.921-.084-2.889-.053-1.455.047-2.823-.067-4.196.516-.678.288-1.609-.187-2.426-.194-.356-.003-.776-.06-1.056.119-.488.312-.843.804-1.339 1.096-.926.547-1.465 1.293-1.88 2.277-.259.613-.791 1.297-1.374 1.545-2.36 1.005-3.343 3.206-4.676 5.098-.239.34-.123.947-.123 1.432-.001 1.691.132 2.886-1.13 4.295-.044.049-.166.559-.147.622.073.244.419.443.395.636-.173 1.403.829 2.206 1.533 3.166.126.172.257.344.378.522a388.447 388.447 0 0 0 9.699-3.012z"/><path id="XMLID_1007_" fill="#FFF" d="M126.316 27.06c-1.071-.152-3.083-.494-5.733-1.206-4.031-1.081-7.226-1.933-8.34-2.671-1.114-.737-2.196-1.507-2.294-1.524l-1.147-.476c-.475-.245-.885.018-1.606.116-.721.098-.918.885-1.7 1.278-.783.393-2.232.393-2.887.328-.328-.033-.934-.36-1.671-.516a3.226 3.226 0 0 0-1.186-.046 2.791 2.791 0 0 0-1.272.562 2.01 2.01 0 0 1-.171.115 6.002 6.002 0 0 1-.518.271 24.4 24.4 0 0 1-1.638.68 70.62 70.62 0 0 1-.513.193c-.884.327-1.911.685-3.002 1.051-.436.147-.883.295-1.336.443a397.136 397.136 0 0 1-9.697 3.013c.1.147.193.296.257.457.733 1.843 2.297 2.879 3.817 3.945.266.186.722.28 1.032.197 2.224-.596 4.615.134 6.804-1.035.987-.527 2.237-.419 3.014.829.172.277.722.428 1.106.444 2.061.085 2.298.278 1.825 2.348-.377 1.649.011 2.896 1.068 4.224.888 1.116 1.502 2.538 1.905 3.921.288.987.858 2.103.118 3.214-1.339 2.01-1.232 4.009-.071 6.107.637 1.151.961 2.474 1.432 3.717.355.936.681 1.886 1.089 2.799.412.924 1.221 1.593 1.285 2.523.073 1.072.6 2.295 1.129 2.295h.393c.912 0 1.817-.353 2.739-.411 2.918-.182 6.26-2.861 6.927-5.704.1-.427.386-.878.74-1.11 1.596-1.046 1.791-1.316 1.39-3.188-.169-.792.045-1.344.674-1.771.866-.588 1.799-1.082 2.613-1.732.508-.405 1.126-.973 1.212-1.543.233-1.533.3-3.065-.25-4.635-.485-1.384-1.14-2.945.026-4.371 1.4-1.711 2.739-3.487 4.282-5.062 2.1-2.144 3.122-4.817 4.07-7.537.344-.986-.306-1.498-1.284-1.168-.991.334-1.956.792-2.973.981-.504.093-1.484-.143-1.658-.345z"/><path id="XMLID_1006_" fill="#FFF" d="M92.638 25.215z"/><path id="XMLID_1005_" fill="#FFF" d="M95.64 24.164z"/><path id="XMLID_1004_" fill="#FFF" d="M99.752 22.343z"/><path id="XMLID_1003_" fill="#FFF" d="M81.605 28.671z"/><path id="XMLID_1002_" fill="#FFF" d="M98.309 23.02z"/><path id="XMLID_1001_" fill="#FFF" d="M97.79 23.291z"/></g><g id="XMLID_1045_"><g id="XMLID_682_"><defs><path id="XMLID_683_" d="M-46-50.679h300v767H-46z"/></defs><clipPath id="XMLID_15_"><use xlink:href="#XMLID_683_" overflow="visible"/></clipPath></g><path id="XMLID_1012_" fill="none" d="M97.2 91.521c-1.392-.998-3.592-1.2-6.601-1.2H87v12h2.464c3.312 0 5.777-.482 7.396-1.556 1.618-1.074 2.427-2.531 2.427-4.724 0-2.133-.696-3.522-2.087-4.52z"/><path id="XMLID_1000_" fill="#FFF" d="M59 118.321h5v-14h12v-4H64v-10h12v-5H59z"/><path id="XMLID_997_" fill="#BCC7BC" d="M103.96 95.965c0-3.463-1.044-6.089-3.131-7.92-2.087-1.83-5.112-2.724-9.075-2.724H82v33h5v-15.346l10.971 15.346h5.989l-9.369-12.687c2.752-.136 5.003-1.11 6.749-2.917 1.748-1.808 2.62-4.06 2.62-6.752zm-7.1 4.8c-1.619 1.074-4.084 1.556-7.396 1.556H87v-12h3.598c3.009 0 5.21.202 6.601 1.2 1.392.998 2.087 2.387 2.087 4.52.001 2.193-.808 3.651-2.426 4.724z"/><path id="XMLID_2_" fill="#BCC7BC" d="M109.219 126.29l19.584-40.969h-5.309l-7.237 15.881-7.26-15.881h-5.331l9.939 20.654-7.667 16.346h-6.333l3.979 4H109"/><path id="XMLID_995_" fill="#BCC7BC" d="M169 99.321h-14v-14h-5v33h5v-14h14v14h4v-33h-4z"/><path id="XMLID_994_" fill="#FFF" d="M49.281 109.036l3.63 9.285h5.241l-3.978-9H49.22z"/><path id="XMLID_993_" fill="#FFF" d="M42 108.523v-4.202h-3.835l4.741-12.546 4.651 12.546h5.018l-7.332-19h-4.651l-12.909 33h5.059l3.721-9H42v-.798z"/><path id="XMLID_66_" fill="#BCC7BC" d="M136 109.321h5v9h-5z"/><path id="XMLID_64_" fill="#BCC7BC" d="M130 90.321h6v14h5v-14h6v-5h-17z"/><path id="XMLID_9_" fill="#BCC7BC" d="M205.72 118.321H210v-9h-4.185z"/><path id="XMLID_8_" fill="#BCC7BC" d="M203.202 85.321l-9.574 25.546-9.574-25.546H176v33h5.559l-.34-28.676 10.685 28.676h3.403l10.731-29.073-.172 15.073H210v-19z"/><path id="XMLID_6_" fill="#FFF" d="M21.683 104.321H26v-19h-4.488z"/><path id="XMLID_5_" fill="#FFF" d="M21.739 110.616L5.518 85.321H0v33h5.382l-.318-25.749 16.585 25.749H26v-9h-4.275z"/></g></svg>