<svg version="1.1" id="Livello_1" xmlns="http://www.w3.org/2000/svg" x="0" y="0" width="118" height="200" viewBox="597.5 0 118 200" xml:space="preserve"><g id="XMLID_15_"><path id="XMLID_16_" fill="#1D1D1C" d="M642.71 106.773c-3.03-9.243-4.623-22.79-4.623-40.637 0-17.69 1.753-30.916 5.1-39.84s8.765-13.228 16.096-13.228c8.606 0 14.66 6.534 18.008 19.442 2.073 8.127 3.188 20.08 3.188 36.016 0 17.37-1.434 29.8-4.143 37.29-3.506 9.722-9.88 14.662-18.964 14.662-6.693 0-11.474-4.62-14.66-13.705m-12.75 66.135c.797.16 1.753.32 2.71.32 3.346 0 5.895-1.276 7.967-3.666s3.028-5.737 3.028-9.72-1.275-7.172-3.665-9.563c-2.39-2.55-5.418-3.666-9.084-3.666-1.594 0-3.347.32-5.1.797-5.418 1.595-8.128 6.375-8.128 14.344 0 7.17 2.55 13.386 7.65 18.645 5.895 6.055 14.182 9.242 24.86 9.242 18.964 0 33.944-10.2 44.94-30.598 9.562-17.69 14.343-39.203 14.343-64.542 0-25.817-4.46-46.215-13.226-61.195-8.606-15.14-20.717-22.63-36.175-22.63-15.14 0-27.252 5.42-36.495 16.256S609.72 52.43 609.72 71.236c0 16.414 3.984 29.482 11.793 39.363s17.53 14.82 28.685 14.82c8.765 0 15.458-2.072 20.398-6.375 4.143-3.347 7.49-8.924 10.04-16.574 0 20.24-.478 36.017-1.434 47.332s-3.984 20.398-9.084 27.092c-4.94 6.693-11.315 10.2-18.805 10.2-7.33 0-13.227-1.754-17.53-5.26-2.23-2.072-4.462-5.26-6.375-9.562.96.158 1.755.477 2.552.636"/></g><g id="XMLID_12_"><path id="XMLID_13_" fill="#1D1D1C" d="M614.66 144.542l-9.56-11.474v11.474h-2.232v-17.53l9.562 11.315v-11.315h2.23v17.53z"/></g><g id="XMLID_8_"><path id="XMLID_9_" fill="#1D1D1C" d="M618.486 133.546c-.637-.797-.956-1.594-.956-2.71 0-1.115.32-1.91.956-2.708s1.434-1.116 2.39-1.116 1.753.32 2.39 1.116.956 1.594.956 2.71c0 1.115-.32 1.91-.956 2.708s-1.434 1.116-2.39 1.116-1.753-.48-2.39-1.116zm1.116-4.144c-.32.32-.478.797-.478 1.434 0 .478.16.956.478 1.434.32.32.797.637 1.275.637s.956-.16 1.275-.637c.32-.32.478-.797.478-1.434 0-.478-.16-.956-.478-1.434-.32-.32-.797-.637-1.275-.637-.48.16-.957.32-1.275.637z"/></g></svg>