<svg version="1.1" id="Livello_1" xmlns="http://www.w3.org/2000/svg" x="0" y="0" width="271" height="111" viewBox="0 0 271 111" xml:space="preserve" fill="transparent"><path d="M0 111V0h271v111"/><path fill="#CFAB43" d="M34.076 55.794c.237.176.41.554.514 1.135.05.26.148.387.295.378.18-.015.265-.145.257-.39a9.14 9.14 0 0 0-.074-.597c-.04-.218-.06-.568-.06-1.05 0-.478-.048-.768-.14-.866-.095-.097-.367-.145-.817-.145H20.855c-.28 0-.46.058-.546.175-.086.118-.13.364-.13.74 0 .382-.06.867-.182 1.453-.1.456-.148.77-.148.94 0 .212.074.322.22.33.147.01.258-.147.332-.466.164-.735.394-1.236.693-1.5.297-.268.778-.4 1.44-.4h3.247c.31 0 .51.042.595.123.085.082.128.27.128.564l.012.318v12.166c0 .688-.11 1.165-.33 1.43-.222.266-.646.44-1.275.522-.27.033-.406.112-.406.24 0 .175.123.26.37.26.08 0 .356-.022.823-.07a8.27 8.27 0 0 1 .87-.037l.96-.014.896.013c.58 0 .95.01 1.106.035.3.05.502.072.6.072.23 0 .344-.088.344-.262 0-.136-.143-.228-.43-.276-1.03-.18-1.564-.75-1.605-1.707l-.014-.478v-12.03c0-.385.048-.626.142-.724.092-.097.32-.147.68-.147h3.444c.687-.002 1.147.086 1.384.26zm11.85 8.9c.1.07.233.33.405.78l.614 1.62c.498 1.293.748 2.157.748 2.592 0 .476-.204.752-.612.836l-.38.085c-.205.04-.307.124-.307.25 0 .17.107.25.32.25.08 0 .207-.015.38-.048.284-.05.995-.073 2.13-.073 1.088 0 1.843.02 2.268.062.238.014.394.022.467.022.22 0 .334-.067.343-.203.007-.153-.115-.252-.368-.3-.777-.14-1.292-.33-1.544-.57-.253-.243-.572-.858-.956-1.848l-.27-.662-5.27-13.502c-.09-.237-.2-.355-.332-.355s-.248.12-.354.367l-6.3 13.993-.355.81a5.51 5.51 0 0 1-.685 1.085c-.278.348-.498.545-.66.594l-.454.136c-.138.042-.207.13-.207.264 0 .15.11.225.33.225.04 0 .268-.022.684-.067a6.93 6.93 0 0 1 .55-.017c.515 0 .966.01 1.358.028l1.173.07c.187.01.326.013.415.013.236 0 .35-.067.343-.203-.01-.143-.135-.24-.38-.288-.564-.12-.942-.27-1.134-.44-.192-.172-.29-.452-.29-.836 0-.4.183-1.015.546-1.842l.803-1.806c.247-.556.443-.884.59-.982.146-.1.522-.148 1.127-.148h4.437c.456 0 .735.035.833.105zm-.624-1.857c.04.13.06.224.06.28 0 .206-.204.307-.612.307h-3.7l-.332-.01c-.375 0-.563-.108-.563-.32 0-.073.054-.224.16-.454l2.39-5.306c.072-.163.137-.24.195-.233.114.01.22.144.32.407l.097.257 1.924 4.853.062.22zm20.662-7.043c.237.176.408.554.515 1.135.048.26.146.387.292.378.18-.015.266-.145.26-.39a9.916 9.916 0 0 0-.075-.597c-.042-.218-.06-.568-.06-1.05 0-.478-.048-.768-.142-.866-.094-.097-.366-.145-.816-.145h-13.2c-.277 0-.46.058-.545.175-.086.118-.128.364-.128.74 0 .382-.062.867-.184 1.453-.098.456-.147.77-.147.94 0 .212.074.322.22.33.148.01.258-.147.33-.466.165-.735.395-1.236.694-1.5.298-.268.778-.4 1.44-.4h3.25c.31 0 .507.042.593.123.086.082.13.27.13.564l.012.318v12.166c0 .688-.11 1.165-.332 1.43-.22.266-.646.44-1.275.522-.27.033-.405.112-.405.24 0 .175.123.26.37.26.08 0 .354-.022.82-.07a8.29 8.29 0 0 1 .873-.037l.958-.014.897.013c.582 0 .95.01 1.105.035.304.05.503.072.602.072.23 0 .344-.088.344-.262 0-.136-.142-.228-.428-.276-1.03-.18-1.565-.75-1.605-1.707l-.012-.478v-12.03c0-.385.047-.626.14-.724.094-.097.322-.147.68-.147h3.444c.685-.002 1.147.086 1.384.26zm8.002-.9l.638-.245c.212-.072.32-.18.32-.325 0-.152-.11-.227-.333-.227-.048 0-.15.004-.305.014l-.82.067a24.8 24.8 0 0 1-1.56.04c-.986 0-1.78-.036-2.376-.11a1.82 1.82 0 0 0-.222-.013c-.245 0-.364.088-.356.264.008.145.14.24.392.288.76.123 1.256.36 1.49.713.23.352.348 1.035.348 2.05v10.507c0 1.04-.09 1.72-.27 2.045-.18.322-.58.537-1.2.643-.253.04-.38.13-.38.276 0 .168.11.252.33.252.156 0 .35-.013.588-.035l1.446-.088 1.777.027c.614 0 1.047.018 1.3.054.187.03.343.043.466.043.25 0 .378-.097.378-.288 0-.144-.203-.244-.612-.3-.515-.072-.892-.196-1.133-.37-.24-.17-.443-.465-.607-.883-.138-.37-.208-1.126-.208-2.273v-9.19c0-1.728.303-2.705.908-2.935zm14.166 9.8c.098.07.234.33.406.78l.612 1.62c.498 1.293.748 2.157.748 2.592 0 .476-.205.752-.614.836l-.38.085c-.204.04-.307.124-.307.25 0 .17.107.25.32.25.08 0 .207-.015.38-.048.286-.05.996-.073 2.132-.073 1.086 0 1.842.02 2.267.062.237.014.39.022.466.022.22 0 .335-.067.343-.203.01-.153-.115-.252-.368-.3-.776-.14-1.29-.33-1.544-.57-.254-.243-.572-.858-.957-1.848l-.27-.662-5.27-13.502c-.09-.237-.2-.355-.33-.355-.132 0-.25.12-.357.368l-6.3 13.994-.354.81a5.657 5.657 0 0 1-.687 1.085c-.28.347-.5.544-.663.593l-.453.136c-.14.04-.208.128-.208.263 0 .15.11.225.33.225.042 0 .27-.022.685-.067.13-.01.315-.016.55-.016.514 0 .966.01 1.358.028l1.173.07c.19.008.328.012.418.012.236 0 .35-.067.34-.203-.006-.142-.133-.238-.378-.287-.565-.12-.942-.27-1.135-.44-.192-.172-.287-.452-.287-.836 0-.4.18-1.015.544-1.842l.805-1.806c.244-.557.442-.885.588-.983.147-.1.522-.148 1.127-.148H87.3c.457 0 .734.033.832.103zm-.625-1.857c.042.13.06.224.06.28 0 .206-.203.307-.61.307h-3.702l-.332-.01c-.377 0-.564-.108-.564-.32 0-.073.052-.224.158-.454l2.39-5.306c.074-.163.14-.24.195-.233.115.01.22.144.32.407l.097.257 1.924 4.853.063.22zm23.407-4.696v-1.32c0-.786.08-1.32.238-1.608.16-.285.488-.49.987-.612.17-.05.253-.127.245-.232-.017-.172-.13-.257-.344-.257-.138 0-.338.025-.6.074a7.93 7.93 0 0 1-1.213.074c-.947 0-1.703-.03-2.268-.09a5.934 5.934 0 0 0-.515-.033c-.237 0-.355.075-.355.227 0 .16.118.26.355.3.842.14 1.424.354 1.747.644.322.29.524.782.606 1.476l.146 2.82-.01 1.654v6.067c-.01.147-.055.225-.136.232-.05.01-.163-.09-.343-.293L98.18 54.49c-.203-.238-.408-.356-.612-.356-.107 0-.257.004-.453.012l-.196.013-.823-.026-.502-.013a2.92 2.92 0 0 0-.196-.01c-.182 0-.27.075-.27.227 0 .15.11.243.33.275.85.115 1.5.578 1.948 1.392.45.813.674 1.928.674 3.342v8.34c0 .885-.12 1.524-.362 1.922-.24.397-.704.713-1.39.95-.238.08-.352.18-.344.3.017.15.13.227.344.227.09 0 .24-.016.453-.045.286-.037.59-.055.908-.055l.59-.023 1.25.062c.62.033.974.058 1.065.075.13.014.253.02.368.02.172 0 .257-.08.257-.238 0-.175-.134-.28-.404-.31-.645-.098-1.078-.25-1.3-.456-.22-.203-.36-.576-.415-1.115l-.036-.87.012-.516v-8.318c0-.368.078-.552.233-.552.064 0 .12.024.17.074l.123.134 10.332 11.814.268.32a.426.426 0 0 0 .283.11c.188.008.303-.088.344-.29.04-.2.06-.76.06-1.683V58.95l.024-.81zm14.462 6.553c.097.07.232.33.404.78l.612 1.62c.498 1.294.748 2.158.748 2.593 0 .476-.205.752-.613.836l-.38.085c-.204.04-.305.124-.305.25 0 .17.105.25.32.25.08 0 .207-.015.378-.048.286-.05.996-.073 2.133-.073 1.086 0 1.843.02 2.267.062.237.014.393.022.466.022.22 0 .335-.067.344-.203.008-.153-.115-.252-.368-.3-.777-.14-1.29-.33-1.545-.57-.254-.243-.572-.858-.956-1.848l-.268-.662-5.27-13.502c-.09-.237-.2-.355-.33-.355s-.25.12-.356.368l-6.3 13.994-.356.81a5.65 5.65 0 0 1-.686 1.084c-.278.348-.498.545-.662.594l-.454.136c-.138.042-.21.13-.21.264 0 .15.11.225.33.225.042 0 .27-.022.686-.067.13-.01.314-.017.55-.017.514 0 .966.01 1.357.028l1.174.07c.188.01.326.013.417.013.237 0 .35-.067.342-.203-.008-.143-.134-.24-.38-.288-.563-.12-.942-.27-1.133-.44-.193-.172-.288-.452-.288-.836 0-.4.18-1.015.545-1.842l.803-1.806c.245-.556.442-.884.59-.982.145-.1.52-.148 1.126-.148h4.436c.457 0 .735.035.834.105zm-.626-1.856c.04.13.06.224.06.28 0 .206-.204.307-.61.307h-3.702l-.332-.01c-.375 0-.563-.108-.563-.32 0-.073.053-.224.16-.454l2.388-5.306c.075-.163.14-.24.197-.233.115.01.22.144.32.407l.097.257 1.925 4.853.06.22zm20.182-7.63c.22-.12.786-.178 1.7-.178.698 0 1.276.02 1.732.06l1.44.147c.547.05.9.133 1.058.25.16.12.29.387.396.804.065.262.11.52.135.773.017.205.087.306.213.306.217 0 .326-.19.326-.567 0-.893.07-1.606.208-2.14.042-.172.06-.308.06-.406 0-.19-.09-.282-.27-.282-.113 0-.25.016-.403.05-.213.04-.686.077-1.422.11l-1.702.084c-.442.024-1.435.037-2.978.037-1.734 0-2.963-.038-3.69-.11a10.286 10.286 0 0 0-.758-.062c-.345 0-.507.104-.49.31.006.13.11.2.305.217.482.042.82.11 1.017.208.195.1.375.286.538.565.254.418.38 1.015.38 1.792v11.06c0 .8-.094 1.365-.282 1.693-.188.33-.544.55-1.066.662-.254.057-.38.15-.38.276 0 .152.12.223.357.216.13-.01.34-.02.626-.036.353-.034.63-.05.835-.05l.946-.012.847.013c.533 0 .935.016 1.204.053.32.037.57.054.75.054.26 0 .385-.09.368-.275-.01-.16-.15-.24-.43-.24-.58 0-1.04-.19-1.384-.578-.343-.385-.515-.9-.515-1.55v-4.568c0-.338.02-.583.06-.74.034-.147.195-.24.483-.283.29-.04.922-.06 1.898-.06 1.058 0 1.86.068 2.405.207.268.065.457.175.573.33.114.157.22.45.317.883.088.4.213.6.374.6.15 0 .226-.097.226-.292 0-.073-.01-.187-.023-.342-.034-.26-.05-.87-.05-1.82 0-.344.005-.592.012-.747l.073-1.21c.017-.25-.055-.378-.214-.378-.135 0-.22.097-.252.293-.09.548-.305.934-.647 1.158-.34.225-.886.338-1.634.338l-1.44.025-.402.013-1.05-.024c-.43 0-.663-.11-.696-.33v-.32l-.012-.23v-4.845c-.004-.49.107-.795.326-.914zm18.25 9.486c.097.07.233.33.404.78l.614 1.62c.498 1.294.746 2.158.746 2.593 0 .476-.203.752-.613.836l-.38.085c-.203.04-.306.124-.306.25 0 .17.107.25.32.25.08 0 .207-.015.38-.048.286-.05.996-.073 2.13-.073 1.088 0 1.844.02 2.27.062.235.014.39.022.466.022.22 0 .335-.067.342-.203.01-.153-.114-.252-.368-.3-.776-.14-1.29-.33-1.543-.57-.254-.243-.572-.858-.957-1.848l-.27-.662-5.27-13.502c-.09-.237-.2-.355-.33-.355-.132 0-.25.12-.356.368l-6.297 13.994-.357.81c-.18.376-.408.738-.685 1.085-.277.347-.5.544-.662.593l-.453.136c-.14.04-.207.128-.207.263 0 .15.11.225.33.225.04 0 .27-.022.684-.067a6.93 6.93 0 0 1 .55-.016c.514 0 .966.01 1.357.028l1.173.07c.186.008.326.012.416.012.236 0 .348-.067.34-.203-.007-.142-.133-.238-.38-.287-.563-.12-.94-.27-1.133-.44-.19-.172-.288-.452-.288-.836 0-.4.18-1.015.543-1.842l.805-1.806c.244-.557.44-.885.587-.983.148-.1.523-.148 1.128-.148h4.437c.456 0 .733.033.83.103zm-.626-1.856c.042.13.06.224.06.28 0 .206-.202.307-.61.307h-3.703l-.33-.01c-.377 0-.564-.108-.564-.32 0-.073.052-.224.157-.454l2.39-5.306c.073-.163.138-.24.196-.233.115.01.222.144.32.407l.097.257 1.924 4.853.062.22zm10.478 6.64c-.13.67-.544 1.054-1.238 1.154-.246.032-.368.116-.368.25 0 .177.114.265.343.265.164 0 .442-.026.833-.074a8.28 8.28 0 0 1 .98-.048c.386 0 .905.02 1.56.06l.992.062 1.14.05.944.036c1.705 0 3.113-.487 4.22-1.463 1.108-.976 1.66-2.214 1.66-3.716 0-1.003-.29-1.893-.87-2.67-.58-.774-1.32-1.264-2.22-1.468-.416-.09-.628-.174-.635-.257-.01-.048.05-.11.17-.183l.527-.37c1.08-.718 1.618-1.728 1.618-3.03 0-1.26-.517-2.25-1.55-2.968-1.033-.72-2.452-1.08-4.26-1.08-.383 0-.79.012-1.223.036l-1.373.086c-.327.017-.794.024-1.397.024-.433 0-.773-.007-1.018-.024a25.052 25.052 0 0 0-.626-.025c-.326 0-.49.094-.49.277 0 .176.168.264.504.264.67 0 1.164.257 1.483.767.318.512.478 1.308.478 2.39v9.474c0 .87-.06 1.598-.184 2.187zm2.2-8.04c-.094-.072-.14-.25-.14-.537v-4.914c0-.507.09-.84.27-1 .18-.16.552-.24 1.117-.24 1.287 0 2.367.39 3.244 1.165.875.777 1.314 1.733 1.314 2.868 0 1.847-1.028 2.77-3.082 2.77h-2.027c-.37 0-.602-.036-.696-.11zm2.952.97c1.186 0 2.17.408 2.952 1.224.782.817 1.172 1.844 1.172 3.084 0 1.207-.355 2.148-1.067 2.822-.712.672-1.71 1.007-2.995 1.007-1 0-1.738-.074-2.216-.225-.48-.15-.776-.402-.89-.752l-.074-.477.024-.565v-5.653c0-.203.04-.332.115-.385.078-.053.265-.08.56-.08h2.42zm13.278-7.077c.147-.128.473-.19.98-.19h1.92c1.265 0 2.132.06 2.605.182.472.123.786.368.94.735.098.237.148.487.148.748v.32c0 .253.08.375.238.367.142-.01.232-.072.275-.19.043-.117.084-.412.125-.884l.05-.72c.04-.538.074-.863.098-.978.024-.114.037-.207.037-.28 0-.237-.136-.355-.404-.355-.107 0-.27.017-.49.05-.107.015-.4.03-.882.048l-1.74.085c-.768.034-1.65.05-2.647.05-1.642 0-3.048-.067-4.217-.197a7.464 7.464 0 0 0-.82-.06c-.368 0-.55.113-.55.336 0 .152.117.23.354.23.743 0 1.244.2 1.5.606.258.405.387 1.192.387 2.363v10.37l-.01.8c0 .98-.295 1.555-.883 1.717l-.466.136c-.212.055-.318.152-.318.288 0 .175.13.262.39.262.116 0 .33-.028.64-.085.588-.098 1.597-.146 3.027-.146 1.02 0 2.312.07 3.872.218.4.033.718.052.956.052 1.094 0 2-.44 2.72-1.32.597-.733.896-1.364.896-1.893 0-.22-.075-.325-.225-.317-.094.01-.186.082-.28.22-.912 1.447-2.97 2.17-6.178 2.17-1.01 0-1.642-.086-1.89-.258-.25-.173-.374-.606-.374-1.302V63.99l-.012-.406c0-.245.067-.41.202-.49.134-.082.4-.123.8-.123h2.704c.7 0 1.2.098 1.492.294.294.197.488.57.587 1.116l.075.344c.033.18.137.268.314.268.157 0 .236-.102.236-.305 0-.074-.007-.192-.023-.355a14.81 14.81 0 0 1-.075-1.48c0-.652.037-1.373.11-2.163.01-.123.014-.212.014-.27 0-.212-.08-.32-.24-.33-.166-.008-.27.09-.31.295-.108.538-.227.883-.358 1.03-.13.146-.417.264-.857.354-.5.097-1.177.145-2.034.145h-1.887c-.352 0-.563-.04-.63-.116-.07-.08-.105-.306-.105-.684V56.17c-.005-.432.067-.713.214-.84zm22.955 2.987c0-1.398-.48-2.45-1.435-3.16-.956-.705-2.374-1.06-4.253-1.06-.5 0-1.075.02-1.728.062a36.4 36.4 0 0 1-1.924.084c-.434 0-.796-.012-1.09-.036a26.684 26.684 0 0 0-.86-.05c-.277 0-.416.084-.416.252 0 .145.13.24.392.287l.576.087c.89.146 1.336.858 1.336 2.136l.024 1.277v8.812c0 1.382-.102 2.31-.306 2.78-.205.472-.634.767-1.287.89-.206.04-.306.12-.306.24 0 .167.1.25.305.25.122 0 .342-.016.66-.05.392-.04.728-.06 1.006-.06l.637-.01 1.177.01c.702 0 1.22.02 1.557.055.368.037.608.054.722.054.286 0 .422-.08.405-.24-.01-.15-.16-.242-.453-.275-.737-.075-1.28-.25-1.63-.528-.262-.205-.428-.436-.496-.696-.07-.256-.104-.737-.104-1.443l-.012-.492v-3.837c0-.205.05-.336.147-.393l.27-.05h1.63c.44 0 .76.17.956.503l.172.27 3.052 4.657c.604.915 1.2 1.574 1.783 1.98a3.393 3.393 0 0 0 1.98.606 4.5 4.5 0 0 0 1.206-.148c.355-.1.537-.212.545-.337.008-.108-.06-.167-.207-.175l-.392-.026c-.88-.056-1.846-.85-2.89-2.383l-.393-.586-3.383-4.988c2.016-1.004 3.025-2.428 3.025-4.27zm-7.347 3.85c-.103-.103-.154-.346-.154-.732v-4.992l-.013-.405c0-.418.092-.708.277-.868.184-.16.517-.24 1-.24 1.294 0 2.358.383 3.194 1.15.835.767 1.253 1.745 1.253 2.933 0 1.024-.307 1.832-.92 2.422-.614.59-1.458.885-2.53.885h-1.39c-.376 0-.615-.05-.717-.153zm25.642 6.38c-1.07 1.34-2.553 2.01-4.45 2.01-1.984 0-3.65-.803-4.993-2.405-1.343-1.602-2.016-3.596-2.016-5.978 0-2.22.585-4.03 1.754-5.433 1.17-1.402 2.68-2.104 4.527-2.104 1.48 0 2.882.408 4.206 1.222 1.326.816 2.308 1.874 2.945 3.18.074.146.164.215.27.206.163-.007.246-.11.246-.306 0-.09-.022-.208-.062-.355a9.5 9.5 0 0 1-.172-.93l-.122-1.153a7.196 7.196 0 0 1-.074-.833c0-.384-.074-.576-.22-.576a.26.26 0 0 0-.172.074l-.294.22c-.098.066-.175.098-.233.098-.04 0-.11-.032-.208-.097-.646-.417-1.51-.765-2.592-1.042-1.082-.278-2.105-.417-3.07-.417-2.5 0-4.582.858-6.245 2.574-1.663 1.716-2.494 3.86-2.494 6.434 0 2.45.784 4.463 2.353 6.035 1.568 1.573 3.578 2.358 6.03 2.358 1.83 0 3.54-.46 5.134-1.382l.81-.48c.456-.26.797-.408 1.016-.44.188-.025.306-.057.357-.098l.072-.184-.024-.393v-3.93l-.013-.393c0-.753.31-1.204.93-1.35.246-.064.37-.165.37-.3 0-.152-.095-.227-.283-.227-.09 0-.418.02-.983.06-.205.017-.938.026-2.2.026l-.92-.013-.492-.01c-.287 0-.425.074-.418.226.01.175.172.28.49.31.654.05 1.088.165 1.305.344.216.18.325.518.325 1.017v2.76c0 .79-.13 1.35-.392 1.677zm10.71-13.217c.148-.128.474-.19.98-.19h1.92c1.265 0 2.133.06 2.606.182.474.123.788.368.942.735.098.237.147.487.147.748v.32c0 .253.077.375.238.367.14-.01.23-.072.274-.19.042-.117.082-.412.124-.884l.05-.72c.04-.538.073-.863.097-.978.025-.114.038-.207.038-.28 0-.237-.135-.355-.405-.355-.105 0-.268.017-.49.05-.107.015-.4.03-.88.048l-1.743.085c-.767.034-1.65.05-2.646.05-1.644 0-3.05-.067-4.217-.197a7.48 7.48 0 0 0-.822-.06c-.368 0-.55.113-.55.336 0 .152.118.23.356.23.743 0 1.243.2 1.5.606.257.405.387 1.192.387 2.363v10.37l-.01.8c0 .98-.296 1.555-.883 1.717l-.466.136c-.212.055-.318.152-.318.288 0 .175.13.262.39.262.115 0 .328-.028.638-.085.59-.098 1.598-.146 3.027-.146 1.022 0 2.31.07 3.873.218.4.033.72.052.957.052 1.093 0 2-.44 2.72-1.32.597-.733.896-1.364.896-1.893 0-.22-.076-.325-.228-.317-.09.01-.183.082-.276.22-.914 1.447-2.974 2.17-6.18 2.17-1.01 0-1.642-.086-1.89-.258-.25-.173-.374-.606-.374-1.302V63.99l-.013-.406c0-.245.07-.41.202-.49.135-.082.402-.123.802-.123h2.702c.7 0 1.198.098 1.492.294.292.197.488.57.587 1.116l.07.344c.034.18.14.268.315.268.158 0 .238-.102.238-.305 0-.074-.007-.192-.023-.355a14.81 14.81 0 0 1-.075-1.48c0-.652.037-1.373.11-2.163.007-.123.012-.212.012-.27 0-.212-.078-.32-.238-.33-.168-.008-.272.09-.315.295-.105.538-.224.883-.355 1.03-.13.146-.417.264-.857.354-.5.097-1.178.145-2.034.145h-1.888c-.352 0-.563-.04-.63-.116-.072-.08-.105-.306-.105-.684V56.17c0-.432.072-.713.22-.84zm4.074-4.74l.193-.22c.114-.13.17-.25.17-.355 0-.317-.167-.475-.5-.475-.634 0-1.012.014-1.14.043-.125.03-.224.128-.297.298l-.283.65c-.065.153-.22.492-.466 1.013l-.257.56c-.09.197-.134.355-.134.478 0 .172.077.257.234.257.14 0 .435-.163.88-.488l1.6-1.76zM108.462 38.966l.04 1.61c0 .594-.067 1.01-.198 1.245-.13.237-.392.41-.78.514-.164.045-.246.118-.246.22 0 .116.094.174.285.174.105 0 .5-.017 1.182-.054.44-.03.76-.044.965-.044.294 0 .57.014.826.04l.77.08c.09.006.173.01.246.01.242 0 .364-.066.364-.193 0-.124-.175-.21-.525-.26-.486-.075-.82-.22-1.006-.436-.184-.22-.276-.578-.276-1.078l-.05-1.245-.185-5.365-.06-2.382c0-.757.068-1.302.202-1.635a.966.966 0 0 1 .705-.618l.426-.108c.13-.032.197-.11.197-.232 0-.134-.067-.2-.197-.192l-.287.02a9.72 9.72 0 0 1-1.32.03 5.68 5.68 0 0 0-.434-.04c-.124 0-.21.026-.262.074-.048.05-.122.18-.22.39l-4.635 9.935-.09.198-.117.267c-.06.126-.11.187-.148.187-.032 0-.086-.086-.157-.257l-.504-1.015-4.11-8.87-.11-.228c-.19-.414-.427-.62-.71-.62-.092 0-.215.01-.364.028-.145.012-.486.02-1.026.02-.354 0-.58-.008-.67-.02a4.894 4.894 0 0 0-.326-.02c-.164 0-.246.07-.246.212 0 .13.1.21.295.242.723.13 1.24.48 1.55 1.042.31.562.463 1.43.463 2.602 0 .546-.05 1.856-.148 3.93l-.137 2.863c-.04.81-.156 1.38-.346 1.718-.192.336-.526.56-1.006.67-.16.033-.238.104-.238.214 0 .14.1.212.296.212.074 0 .174-.01.305-.03.44-.06.9-.087 1.377-.087a20 20 0 0 1 1.704.1c.118.01.24.018.364.018.19 0 .285-.074.285-.223 0-.13-.2-.226-.603-.29-.814-.126-1.222-.767-1.222-1.924 0-1.203.01-2.007.03-2.408l.226-4.884 3.71 8.004.197.414c.158.302.25.482.276.542.143.322.293.484.45.484.148 0 .29-.155.418-.464.035-.07.093-.197.178-.375.152-.295.33-.67.536-1.133l.83-1.852 1.007-2.07.88-1.883c.185-.382.557-1.063 1.118-2.04l.255 6.265zm13.586-1.4c.078.056.187.265.324.627l.493 1.306c.4 1.04.603 1.737.603 2.085 0 .383-.165.606-.494.672l-.306.07c-.164.032-.246.1-.246.202 0 .133.086.2.255.2.066 0 .167-.01.307-.037.23-.04.8-.06 1.718-.06.873 0 1.482.017 1.825.05.19.013.315.02.375.02.177 0 .268-.055.276-.165.007-.12-.092-.202-.297-.24-.624-.11-1.038-.265-1.243-.46-.203-.193-.458-.69-.77-1.487l-.216-.532-4.242-10.868c-.073-.19-.162-.288-.267-.288-.105 0-.2.1-.286.297l-5.072 11.266-.286.65c-.146.303-.33.595-.553.874-.226.28-.402.44-.534.48l-.366.11c-.11.033-.167.104-.167.21 0 .122.088.183.265.183.032 0 .217-.017.552-.054a4.97 4.97 0 0 1 .443-.016c.414 0 .778.008 1.093.023l.944.055c.15.01.262.012.335.012.19 0 .283-.055.276-.163-.007-.114-.11-.192-.307-.23-.452-.1-.758-.217-.91-.356-.156-.14-.234-.363-.234-.673 0-.323.147-.818.437-1.48l.648-1.455c.197-.45.354-.712.474-.792.117-.08.42-.118.906-.118h3.573c.367-.003.59.025.67.082zm-.505-1.496a.84.84 0 0 1 .05.23c0 .163-.166.245-.493.245h-2.98l-.267-.01c-.303 0-.454-.085-.454-.256 0-.06.043-.183.128-.367l1.926-4.27c.058-.133.112-.195.157-.19.093.008.18.116.258.326l.08.206 1.548 3.907.05.178zm10.834-6.392l.512-.197c.172-.057.257-.142.257-.26 0-.122-.09-.183-.268-.183-.038 0-.12.005-.247.01l-.662.056c-.347.023-.765.032-1.252.032-.794 0-1.432-.03-1.913-.087a2.016 2.016 0 0 0-.178-.01c-.198 0-.294.07-.287.212.006.114.11.192.317.23.61.1 1.01.29 1.197.575.187.282.282.83.282 1.65v8.46c0 .836-.074 1.384-.22 1.644-.144.26-.466.433-.965.518-.203.032-.305.105-.305.222 0 .134.087.202.265.202.126 0 .283-.01.474-.03l1.162-.07 1.433.023c.493 0 .84.015 1.045.045.15.02.276.032.374.032.204 0 .308-.077.308-.23 0-.118-.166-.198-.495-.243-.414-.06-.717-.16-.912-.297-.194-.14-.357-.377-.488-.713-.112-.296-.168-.905-.168-1.83v-7.397c0-1.393.24-2.18.73-2.365zm4.72.226c-.793.67-1.19 1.54-1.19 2.603 0 .953.304 1.73.913 2.328.607.597 1.64 1.143 3.097 1.636 1.416.475 2.267.84 2.564 1.097.577.5.868 1.117.868 1.848 0 .763-.315 1.412-.94 1.944-.63.533-1.392.8-2.298.8-.892 0-1.718-.277-2.48-.83-.76-.556-1.26-1.24-1.495-2.06-.095-.317-.203-.478-.323-.485-.134-.006-.202.09-.202.285 0 .25.086.67.257 1.263.15.547.233.846.246.898.08.37.138.6.178.686.04.09.118.173.238.252.283.19.727.36 1.336.503a7.218 7.218 0 0 0 1.672.22c1.402 0 2.55-.39 3.444-1.173.895-.783 1.343-1.788 1.343-3.02 0-1.812-1.217-3.117-3.648-3.913-1.246-.414-2.03-.702-2.348-.858-.32-.16-.613-.41-.882-.752-.31-.4-.463-.88-.463-1.43 0-.627.236-1.15.712-1.567.476-.418 1.067-.627 1.775-.627a4.43 4.43 0 0 1 2.425.692c.724.463 1.205 1.052 1.44 1.764.107.316.216.474.32.474.142 0 .213-.102.213-.306 0-.052-.016-.188-.05-.404l-.157-1.017c-.085-.552-.13-.885-.13-.996 0-.33-.08-.49-.244-.483-.054 0-.09.012-.11.04l-.137.117a.374.374 0 0 1-.235.1.443.443 0 0 1-.18-.04l-.68-.285c-.488-.203-1.082-.306-1.786-.306-1.253-.002-2.274.333-3.065 1.004zm13.916-.448c-.947.37-1.73.87-2.347 1.504-.588.597-1.053 1.342-1.398 2.232a7.388 7.388 0 0 0-.518 2.696c0 2.09.656 3.78 1.968 5.068 1.314 1.29 3.03 1.934 5.156 1.934 2.072 0 3.774-.674 5.102-2.022 1.33-1.347 1.993-3.073 1.993-5.177 0-1.984-.66-3.612-1.978-4.884-1.32-1.273-3.01-1.908-5.066-1.908-.996 0-1.968.186-2.914.558zm6.728 2.048c1.19 1.312 1.788 2.948 1.788 4.912 0 1.708-.5 3.118-1.492 4.232-.995 1.112-2.256 1.67-3.785 1.67-1.67 0-3.08-.683-4.23-2.05-1.15-1.367-1.722-3.044-1.722-5.035 0-1.74.45-3.124 1.348-4.153.897-1.026 2.11-1.54 3.64-1.54 1.776 0 3.263.655 4.454 1.964zm17.662.79v-1.068c0-.63.064-1.062.194-1.292.128-.232.392-.394.794-.493.137-.04.203-.1.196-.187-.012-.14-.103-.208-.276-.208-.112 0-.273.02-.483.06-.244.04-.57.06-.976.06-.764 0-1.373-.024-1.826-.073a5.35 5.35 0 0 0-.414-.026c-.19 0-.287.06-.287.183 0 .126.096.207.287.24.677.11 1.146.284 1.406.518.26.233.422.63.488 1.19l.12 2.268-.01 1.333v4.882c-.007.118-.043.18-.11.188-.037.006-.13-.073-.276-.236l-9.078-10.282c-.164-.19-.328-.286-.493-.286-.084 0-.206.004-.363.01l-.16.01-.66-.02-.405-.01c-.072-.007-.125-.012-.156-.012-.146 0-.218.062-.218.184 0 .12.088.196.266.222.684.092 1.208.466 1.57 1.12.36.655.542 1.552.542 2.69v6.715c0 .71-.097 1.227-.29 1.546-.196.32-.57.575-1.122.766-.19.065-.282.145-.275.243.01.12.104.182.274.182.072 0 .195-.013.366-.035.23-.03.473-.045.73-.045l.473-.018 1.005.048c.503.028.788.047.86.06.106.012.204.02.297.02.137 0 .207-.065.207-.193 0-.143-.11-.228-.327-.253-.518-.078-.868-.2-1.047-.366-.176-.163-.288-.462-.335-.897l-.028-.7.01-.415v-6.696c0-.298.06-.445.188-.445.053 0 .098.02.137.058l.098.11 8.318 9.51.218.258a.35.35 0 0 0 .226.09c.153.005.245-.072.277-.234.033-.16.05-.614.05-1.357v-8.27l.02-.65z"/><path fill="#C6AB4C" d="M91.19 80.526c.13-.066.463-.1.998-.1.413 0 .75.008 1.02.034l.847.088c.32.028.528.075.62.146.095.07.173.227.235.474.04.15.065.305.08.452.01.12.05.18.125.18.13 0 .192-.113.192-.33 0-.53.04-.948.122-1.262.022-.102.034-.18.034-.235 0-.113-.053-.168-.157-.168-.068 0-.148.01-.238.03-.125.025-.404.046-.838.062l-1 .05c-.26.017-.843.022-1.752.022-1.017 0-1.74-.023-2.167-.065a6.685 6.685 0 0 0-.447-.038c-.2 0-.298.064-.29.185.005.075.065.118.18.126.284.024.483.066.6.12.116.06.22.17.316.336.15.244.225.596.225 1.053v6.5c0 .47-.055.805-.167.998-.11.19-.32.32-.627.386-.148.034-.223.09-.223.164 0 .088.07.13.21.126l.367-.02c.208-.022.372-.03.49-.03l.557-.005.498.005c.314 0 .55.012.708.033.187.02.335.034.44.034.154 0 .224-.055.216-.164-.004-.092-.088-.142-.253-.142-.34 0-.612-.112-.814-.338-.202-.227-.303-.532-.303-.91v-2.687a1.9 1.9 0 0 1 .036-.435c.02-.088.114-.138.284-.168.17-.02.54-.033 1.116-.033.62 0 1.092.04 1.412.12.16.042.27.104.337.197.068.092.13.263.187.515.052.24.126.353.22.353.088 0 .133-.055.133-.173 0-.042-.006-.11-.015-.2-.02-.152-.028-.508-.028-1.07 0-.2.002-.348.006-.44l.043-.708c.01-.15-.034-.222-.128-.222-.077 0-.127.054-.145.17-.054.32-.18.55-.382.68-.2.134-.522.2-.962.2l-.846.013-.236.01-.617-.017c-.254 0-.39-.064-.408-.194v-.19l-.008-.133v-2.85c0-.28.065-.462.193-.534zm5.988 4.15a3.006 3.006 0 0 0-.936 2.226c0 .906.295 1.644.882 2.222.588.578 1.34.868 2.25.868.933 0 1.703-.298 2.315-.892.608-.596.913-1.346.913-2.26 0-.838-.31-1.564-.93-2.172a3.078 3.078 0 0 0-2.224-.91 3.138 3.138 0 0 0-2.272.918zm3.756.265c.432.595.646 1.368.646 2.315 0 .75-.17 1.34-.513 1.777-.343.44-.81.658-1.405.658-.683 0-1.25-.31-1.71-.927-.458-.616-.685-1.384-.685-2.302 0-.72.183-1.302.55-1.747.366-.444.85-.667 1.448-.667.68 0 1.237.3 1.67.895zm5.013-.846c0-.11.002-.197.006-.277.01-.14-.03-.21-.115-.21a.367.367 0 0 0-.17.06c-.04.016-.134.066-.283.137l-.382.19a4.024 4.024 0 0 1-.93.292c-.124.026-.188.07-.188.143 0 .044.023.082.066.1a.207.207 0 0 0 .116.03l.31-.01c.226 0 .378.062.462.184.082.12.123.357.123.696v3.253c0 .277-.042.478-.126.603-.083.123-.248.232-.493.315-.085.04-.132.084-.136.143-.004.08.038.118.13.118.044 0 .138-.008.288-.025.15-.02.606-.03 1.37-.03.36 0 .586.006.676.015.164.03.286.042.367.042.112 0 .167-.042.167-.135 0-.087-.08-.137-.238-.155-.645-.038-.98-.26-1.003-.662l-.006-.362-.006-.217v-2.75c0-.3.155-.57.465-.804a1.72 1.72 0 0 1 1.065-.352c.567 0 1.005.18 1.314.54.308.365.462.876.462 1.543v2.486c0 .293-.094.47-.287.516l-.217.058c-.086.016-.13.066-.13.137 0 .055.018.093.05.114l.1.02.21-.012h.274l.71-.022c.426 0 .72.01.878.03.132.016.227.025.28.025.16 0 .24-.05.237-.155-.007-.075-.075-.12-.203-.137l-.302-.043c-.352-.054-.554-.24-.605-.558l-.02-.343.005-.218V86.68c0-.885-.155-1.542-.46-1.974-.448-.63-1.056-.947-1.823-.947-.694 0-1.36.38-2.003 1.147v-.813h-.003zm11.23 5.54c0 .244.056.36.165.357a.46.46 0 0 0 .217-.08c.107-.053.32-.1.636-.15l.403-.062c.053-.013.18-.026.378-.047.17-.016.26-.08.26-.18 0-.058-.025-.096-.08-.112l-.064-.01-.424.017c-.333 0-.498-.272-.498-.817v-9.154l-.007-.13c0-.105-.037-.16-.11-.16a.27.27 0 0 0-.136.05c-.632.382-1.197.6-1.692.663-.15.022-.22.08-.21.176.005.06.03.092.08.113.03.01.058.014.093.014l.252-.014c.49-.03.735.412.735 1.325v2.84c-.58-.34-1.16-.513-1.74-.513-.854 0-1.575.32-2.162.952-.586.63-.88 1.41-.88 2.33 0 .834.244 1.533.736 2.1.492.57 1.102.85 1.826.85.383 0 .727-.07 1.032-.218.304-.147.7-.428 1.19-.847v.71zm-.442-.632c-.293.24-.676.364-1.143.364-.637 0-1.19-.29-1.655-.868-.468-.58-.7-1.26-.7-2.05 0-.716.178-1.298.534-1.738.357-.44.826-.663 1.404-.663.65 0 1.213.23 1.687.684.212.202.316.52.316.952v2.373c0 .39-.146.703-.44.947zm7.364-2.78l.488.018.534.004c.314 0 .47-.08.47-.24 0-.107-.06-.3-.18-.576a3.61 3.61 0 0 0-.354-.667c-.482-.666-1.12-1.002-1.924-1.002-.735 0-1.375.315-1.923.944a3.205 3.205 0 0 0-.82 2.187c0 .88.266 1.613.797 2.21.53.593 1.186.89 1.97.89.695 0 1.354-.242 1.98-.728.336-.265.503-.47.503-.61 0-.08-.033-.12-.1-.115a.248.248 0 0 0-.108.05c-.616.47-1.187.705-1.71.705-.665 0-1.224-.277-1.68-.838-.454-.563-.682-1.25-.682-2.07l.006-.16h2.733zm-2.2-1.68c.26-.315.59-.474.982-.474.38 0 .732.16 1.055.483.325.323.488.675.488 1.05 0 .15-.19.23-.57.23h-2.44c.06-.546.22-.974.484-1.288zm2.388-2.88l.108-.125c.066-.076.1-.143.1-.197 0-.18-.095-.27-.282-.27-.36 0-.574.01-.647.027-.072.016-.13.075-.168.167l-.154.37c-.033.075-.12.26-.254.562-.142.3-.214.5-.22.578-.003.096.04.142.132.142.077 0 .24-.088.49-.272l.894-.982zm6.294 4.56l.49.018.533.004c.314 0 .47-.08.47-.24 0-.107-.06-.3-.18-.576a3.547 3.547 0 0 0-.355-.667c-.478-.666-1.12-1.002-1.923-1.002-.733 0-1.375.315-1.923.944a3.214 3.214 0 0 0-.82 2.187c0 .88.265 1.613.796 2.21.53.593 1.186.89 1.97.89.696 0 1.354-.242 1.98-.728.336-.265.504-.47.504-.61 0-.08-.034-.12-.102-.115a.248.248 0 0 0-.107.05c-.617.47-1.188.705-1.71.705-.665 0-1.224-.277-1.68-.838-.454-.563-.682-1.25-.682-2.07l.01-.16h2.73zm-2.2-1.68a1.23 1.23 0 0 1 .985-.474c.377 0 .73.16 1.053.483.325.323.488.675.488 1.05 0 .15-.19.23-.57.23h-2.442c.063-.546.224-.974.486-1.288zm12.665 1.68l.493.018.534.004c.31 0 .467-.08.467-.24 0-.107-.06-.3-.177-.576a3.802 3.802 0 0 0-.353-.667c-.482-.666-1.123-1.002-1.925-1.002-.735 0-1.378.315-1.922.944a3.208 3.208 0 0 0-.824 2.187c0 .88.265 1.613.796 2.21.532.593 1.188.89 1.97.89.696 0 1.357-.242 1.982-.728.335-.265.505-.47.505-.61 0-.08-.034-.12-.105-.115a.245.245 0 0 0-.104.05c-.616.47-1.19.705-1.71.705-.665 0-1.224-.277-1.68-.838-.453-.563-.68-1.25-.68-2.07l.006-.16h2.727zm-2.196-1.68c.262-.315.588-.474.984-.474.38 0 .732.16 1.057.483.326.323.485.675.485 1.05 0 .15-.19.23-.57.23h-2.44c.06-.546.224-.974.486-1.288zm6.935-.448c0-.11.003-.197.006-.277.01-.14-.028-.21-.115-.21a.38.38 0 0 0-.173.06c-.037.016-.13.066-.28.137l-.382.19a4.047 4.047 0 0 1-.93.292c-.124.026-.185.07-.185.143 0 .044.02.082.064.1a.205.205 0 0 0 .112.03l.312-.01c.224 0 .38.062.46.184.083.12.122.357.122.696v3.253c0 .277-.042.478-.126.603-.083.123-.25.232-.49.315-.087.04-.136.084-.14.143-.005.08.038.118.13.118.044 0 .14-.008.29-.025.145-.02.602-.03 1.367-.03.362 0 .587.006.678.015.16.03.284.042.366.042.112 0 .17-.042.17-.135 0-.087-.08-.137-.24-.155-.643-.038-.98-.26-1.003-.662l-.006-.362-.005-.217v-2.75c0-.3.153-.57.466-.804a1.715 1.715 0 0 1 1.066-.352c.565 0 1.005.18 1.31.54.31.365.464.876.464 1.543v2.486c0 .293-.097.47-.29.516l-.215.058c-.086.016-.13.066-.13.137 0 .055.018.093.05.114l.1.02.208-.012h.277l.708-.022c.428 0 .718.01.878.03.135.016.23.025.28.025.162 0 .242-.05.238-.155-.006-.075-.073-.12-.2-.137l-.305-.043c-.354-.054-.555-.24-.605-.558l-.023-.343.006-.218V86.68c0-.885-.152-1.542-.46-1.974-.447-.63-1.053-.947-1.822-.947-.69 0-1.36.38-2 1.147v-.813zm14.427-3.944a1.51 1.51 0 0 0 .05-.31c0-.105-.044-.156-.136-.156-.033 0-.1.038-.2.12a4.507 4.507 0 0 1-1.61.88c-.527.157-.795.325-.805.513-.004.07.034.104.116.104a.52.52 0 0 0 .195-.066c.184-.092.4-.142.648-.142.245 0 .412.055.498.163.088.11.13.315.13.616V88.6c0 .57-.254.868-.764.902l-.405.03c-.146.015-.222.07-.222.174 0 .08.067.122.2.122.146 0 .337-.013.577-.03.233-.02.58-.028 1.042-.028l1.588.016.368.013c.192 0 .287-.05.287-.143 0-.066-.03-.11-.092-.134a.573.573 0 0 0-.19-.03h-.12c-.476 0-.797-.087-.965-.267-.17-.18-.254-.523-.254-1.036v-7.05c0-.464.022-.795.066-.987zm6.74 7.607a6.002 6.002 0 0 1-1.24 1.266c-.48.37-.934.603-1.364.708l-.34.098c-.162.033-.243.1-.243.188 0 .11.08.164.237.164.455 0 .974-.15 1.556-.453a7.11 7.11 0 0 0 1.663-1.228 7.037 7.037 0 0 0 1.583-2.248 6.207 6.207 0 0 0 .565-2.553c0-1.115-.304-2.05-.912-2.8-.608-.75-1.362-1.124-2.265-1.124-.84 0-1.542.33-2.107.994-.564.662-.846 1.488-.846 2.477 0 .842.26 1.555.778 2.142.52.59 1.152.883 1.898.883.6 0 1.204-.225 1.804-.688a23.1 23.1 0 0 1 .317-.234c-.228.93-.59 1.732-1.08 2.407zm.58-6.58c.452.636.676 1.412.676 2.32 0 .67-.153 1.2-.467 1.586-.31.386-.74.578-1.28.578-.64 0-1.186-.31-1.635-.934-.45-.62-.673-1.38-.673-2.276 0-.653.163-1.186.49-1.6.327-.42.746-.626 1.254-.626.64 0 1.184.316 1.637.953zm6.928 3.026c-.706 1.496-1.174 2.574-1.4 3.244a5.8 5.8 0 0 0-.34 1.882c0 .455.037.778.11.967.075.19.21.284.404.284.216 0 .43-.04.65-.12.218-.083.325-.163.325-.248a.67.67 0 0 0-.077-.225 2.417 2.417 0 0 1-.233-1.06c0-1.17.418-2.814 1.248-4.934.696-1.79 1.045-3 1.045-3.642 0-.15-.03-.255-.083-.31-.056-.054-.162-.084-.32-.084l-.288.01-.366.004h-2.517c-.323 0-.56-.01-.707-.034a2.537 2.537 0 0 0-.332-.02c-.133 0-.218.082-.26.25l-.126.654-.145.704c-.034.156-.054.31-.054.462 0 .205.067.305.197.305.077 0 .135-.08.174-.238.086-.39.245-.658.487-.81.24-.153.626-.23 1.163-.23h2.504c0 .62-.352 1.686-1.06 3.19zm8.078 2.54c.28 0 .446-.013.5-.038.056-.02.1-.1.134-.227l.115-.47.136-.498c.006-.142-.044-.214-.15-.21-.04 0-.086.024-.137.067l-.19.16c-.19.153-.438.233-.74.233l-.303-.01v-5.377l.01-.255-.01-.28c0-.12-.038-.178-.115-.174-.183.01-1.04 1.09-2.574 3.237-1.53 2.147-2.294 3.346-2.294 3.597 0 .13.087.21.266.227.092.012.22.016.39.016l2.294-.016.663.01h.32v3.674l-.008.21c0 .126.053.192.156.192a.528.528 0 0 0 .225-.06c.098-.04.195-.07.286-.086.206-.038.323-.085.353-.135.042-.064.065-.164.065-.303l-.032-1.053.01-.712.008-.868-.01-.855h.634v.002zm-4.54-.99c.18-.26.29-.432.34-.503l.964-1.48c.43-.662.95-1.366 1.55-2.103v4.086h-2.853z"/></svg>