<svg version="1.1" id="Livello_1" xmlns="http://www.w3.org/2000/svg" x="0" y="0" width="53" height="53.667" viewBox="0 0 53 53.667" xml:space="preserve"><path fill="#997D4F" d="M49.1 33.86l2.133-16.83-15.31-5.81-4.85 2.314c-.15.74-.376 1.46-.672 2.154l3.67-1.753-1.514 16.31.085.875-11.182 1.687-.918 1.81 12.263-1.85 1.414 14.468 1.646-.162-1.423-14.55.143-.022 12.82 1.625.032-.25 1.937 16.27-13.352-3.082-17.375 3.31-.145-.027 1.562-14.84-.01-.09-.064-.557-2.14-4.227.3 2.674-.38.057-12.387-1.92.075-.61-1.898-14.96 8.666 3.658-.723-1.426a11.19 11.19 0 0 1-.647-.945l-9.298-3.926L3.79 30.84l-.043.35-.03-.004-.256 1.634.092.013-1.908 16.033 17.003 3.188 17.342-3.302 15.304 3.532L49.1 33.86zM34.562 30.83l-.285.042-.062-.622 1.593-17.146.187-.09 13.432 5.097-1.825 14.37-13.042-1.65zM16.87 50.042L3.468 47.527l1.72-14.44 12.576 1.95.57-.086.065.56-1.53 14.53zm3.333-14.76l-.214-.423-.018-.157.57-.086-.34.665zm-7.418-18.59l7.303 14.413 7.223-14.258a9.406 9.406 0 0 0 2.283-6.145c0-5.218-4.245-9.462-9.463-9.462-5.217 0-9.46 4.245-9.46 9.462a9.42 9.42 0 0 0 2.143 5.99h-.028zM20.13 4.888a5.823 5.823 0 0 1 5.817 5.816 5.824 5.824 0 0 1-5.816 5.816 5.824 5.824 0 0 1-5.815-5.817 5.823 5.823 0 0 1 5.816-5.816z"/></svg>