<svg version="1.1" id="Livello_1" xmlns="http://www.w3.org/2000/svg" x="0" y="0" width="53" height="53.667" viewBox="0 0 53 53.667" xml:space="preserve"><path fill="#997D4F" d="M49.099 33.859l2.134-16.83-15.311-5.81-4.848 2.315c-.15.741-.377 1.461-.673 2.154l3.67-1.753-1.515 16.311.085.874-11.183 1.687-.918 1.81 12.263-1.849 1.414 14.467 1.646-.162-1.423-14.55.143-.022 12.821 1.624.031-.251 1.937 16.271-13.352-3.082-17.375 3.31-.145-.027 1.562-14.841-.01-.09-.064-.556-2.141-4.226.302 2.674-.382.057-12.386-1.919.074-.61-1.898-14.962 8.666 3.659-.723-1.426a11.191 11.191 0 0 1-.647-.945l-9.298-3.927 2.234 17.607-.042.35-.031-.005-.255 1.634.091.013-1.908 16.033 17.003 3.188 17.342-3.302 15.305 3.532-2.195-18.425zm-14.536-3.027l-.285.042-.062-.622 1.593-17.146.188-.09 13.432 5.097-1.824 14.37-13.042-1.651zM16.87 50.041L3.468 47.528l1.72-14.439 12.576 1.949.571-.086.064.561-1.529 14.528zm3.333-14.759l-.214-.423-.017-.156.569-.086-.338.665zm-7.418-18.589l7.303 14.412 7.223-14.258a9.406 9.406 0 0 0 2.282-6.145c0-5.218-4.245-9.462-9.463-9.462-5.217 0-9.461 4.245-9.461 9.462a9.42 9.42 0 0 0 2.144 5.991h-.028zm7.346-11.806a5.823 5.823 0 0 1 5.816 5.816 5.824 5.824 0 0 1-5.816 5.816 5.824 5.824 0 0 1-5.816-5.816 5.823 5.823 0 0 1 5.816-5.816z"/></svg>