<svg version="1.1" id="Livello_1" xmlns="http://www.w3.org/2000/svg" x="0" y="0" width="34.662" height="29.291" viewBox="0 0 34.662 29.291" xml:space="preserve"><g fill="#000"><path d="M34.218 26.54c0-.686-.222-1.265-.658-1.738-.436-.484-.959-.729-1.57-.729-.634 0-1.165.246-1.601.729-.444.474-.674 1.052-.674 1.738 0 .674.23 1.253.674 1.738.436.484.967.723 1.601.723.611 0 1.134-.239 1.57-.723a2.514 2.514 0 0 0 .658-1.738m.444-22.586V0H19.218v29.001h3.623v-7.603h5.669v-3.972h-5.669V3.954h11.821zM0 3.994V0h15.476v29.291h-3.671V3.994z"/></g></svg>