<svg version="1.1" id="Livello_1" xmlns="http://www.w3.org/2000/svg" x="0" y="0" width="34.662" height="29.291" viewBox="0 0 34.662 29.291" xml:space="preserve"><g fill="#000"><path d="M34.218 26.54c0-.686-.222-1.265-.658-1.738-.436-.484-.96-.73-1.57-.73-.634 0-1.165.247-1.6.73-.445.474-.675 1.052-.675 1.738 0 .674.23 1.253.674 1.738.435.484.966.723 1.6.723.61 0 1.134-.238 1.57-.722a2.514 2.514 0 0 0 .658-1.738m.444-22.586V0H19.218v29h3.623V21.4h5.67v-3.972h-5.67V3.954h11.822zM0 3.994V0h15.476v29.29h-3.67V3.995z"/></g></svg>