<svg version="1.1" id="Livello_1" xmlns="http://www.w3.org/2000/svg" x="0" y="0" width="76.848" height="98.332" viewBox="0 0 76.848 98.332" xml:space="preserve"><path fill="#1D1D1C" d="M39.956 52.744c-1.705-5.076-2.555-12.539-2.555-22.395 0-9.754.938-17.069 2.823-21.946 1.883-4.878 4.842-7.316 8.875-7.316 4.75 0 8.067 3.583 9.95 10.75 1.164 4.478 1.746 11.096 1.746 19.854 0 9.557-.76 16.423-2.285 20.602-1.973 5.376-5.468 8.063-10.488 8.063-3.676 0-6.365-2.535-8.066-7.612m-7.043 36.505a7.07 7.07 0 0 0 1.495.147c1.811 0 3.286-.663 4.421-1.989 1.133-1.327 1.701-3.12 1.701-5.382 0-2.162-.674-3.931-2.023-5.307-1.346-1.377-3.007-2.065-4.984-2.065-.899 0-1.841.148-2.83.446-2.965.893-4.446 3.525-4.446 7.894 0 3.971 1.405 7.397 4.218 10.275 3.263 3.376 7.841 5.063 13.738 5.063 10.425 0 18.679-5.608 24.754-16.828 5.261-9.729 7.891-21.593 7.891-35.592 0-14.197-2.427-25.441-7.277-33.731C64.716 3.893 58.03-.254 49.506-.254c-8.344 0-15.051 2.979-20.13 8.936-5.081 5.957-7.617 14.098-7.617 24.422 0 9.036 2.168 16.283 6.505 21.742 4.337 5.462 9.623 8.191 15.86 8.191 4.792 0 8.54-1.18 11.25-3.539 2.26-1.869 4.113-4.916 5.558-9.144 0 11.126-.272 19.818-.815 26.075-.544 6.259-2.199 11.25-4.965 14.976-2.767 3.725-6.237 5.586-10.406 5.586-4.082 0-7.3-.977-9.659-2.934-1.269-1.131-2.446-2.881-3.535-5.249.452.194.905.343 1.361.441"/><path fill="#1D1D1C" d="M24.42 73.634l-5.243-6.337v6.337H17.98v-9.69l5.248 6.237v-6.237h1.192v9.69zM26.55 67.509a2.111 2.111 0 0 1-.564-1.472c0-.577.192-1.064.564-1.467.374-.413.82-.617 1.343-.617.528 0 .974.204 1.347.617.374.403.56.891.56 1.467 0 .572-.186 1.064-.56 1.472-.373.408-.819.612-1.347.612-.523 0-.969-.204-1.343-.612zm.638-2.243c-.192.213-.289.47-.289.772 0 .297.097.554.289.771a.933.933 0 0 0 .706.319.924.924 0 0 0 .706-.319c.195-.217.292-.474.292-.771 0-.302-.097-.559-.292-.772a.922.922 0 0 0-.706-.319.928.928 0 0 0-.706.319z"/><ellipse fill="none" stroke="#1D1D1C" stroke-width=".44" cx="7.843" cy="8.586" rx="7.841" ry="8.586"/><path fill="#1D1D1C" d="M12.304 11.728a.654.654 0 0 0-.174-.459.54.54 0 0 0-.415-.193.546.546 0 0 0-.423.193.649.649 0 0 0-.178.459.66.66 0 0 0 .178.459.544.544 0 0 0 .423.191.54.54 0 0 0 .415-.191.665.665 0 0 0 .174-.459m.117-5.966V4.717h-4.08v7.661h.957V10.37h1.498V9.32H9.298V5.762h3.123zM3.265 5.772V4.717h4.088v7.737h-.97V5.772z"/></svg>