<svg version="1.1" id="Livello_1" xmlns="http://www.w3.org/2000/svg" x="0" y="0" width="76.848" height="98.332" viewBox="0 0 76.848 98.332" xml:space="preserve"><path fill="#1D1D1C" d="M39.956 52.744C38.25 47.668 37.4 40.204 37.4 30.35c0-9.755.94-17.07 2.824-21.947 1.883-4.878 4.842-7.316 8.875-7.316 4.75 0 8.066 3.583 9.95 10.75 1.163 4.478 1.745 11.096 1.745 19.854 0 9.558-.76 16.424-2.285 20.603-1.973 5.376-5.468 8.063-10.488 8.063-3.676 0-6.365-2.535-8.066-7.612M32.913 89.25c.452.097.95.146 1.495.146 1.81 0 3.286-.663 4.42-1.99 1.134-1.326 1.702-3.12 1.702-5.38 0-2.163-.674-3.932-2.023-5.308-1.346-1.377-3.007-2.065-4.984-2.065-.9 0-1.84.148-2.83.446-2.965.892-4.446 3.524-4.446 7.893 0 3.97 1.405 7.397 4.218 10.275 3.263 3.376 7.84 5.063 13.738 5.063 10.425 0 18.68-5.607 24.754-16.827 5.26-9.73 7.89-21.593 7.89-35.592 0-14.196-2.426-25.44-7.276-33.73C64.717 3.893 58.03-.254 49.507-.254c-8.344 0-15.05 2.98-20.13 8.936-5.08 5.957-7.617 14.098-7.617 24.422 0 9.036 2.167 16.283 6.504 21.742 4.337 5.462 9.623 8.19 15.86 8.19 4.792 0 8.54-1.18 11.25-3.538 2.26-1.87 4.113-4.916 5.558-9.144 0 11.126-.272 19.818-.815 26.075-.544 6.258-2.2 11.25-4.965 14.975-2.767 3.725-6.237 5.586-10.406 5.586-4.082 0-7.3-.976-9.66-2.933-1.268-1.13-2.445-2.88-3.534-5.25.452.195.905.344 1.36.442"/><path fill="#1D1D1C" d="M24.42 73.634l-5.243-6.337v6.337H17.98v-9.69l5.248 6.237v-6.236h1.192v9.69zM26.55 67.51a2.11 2.11 0 0 1-.564-1.473c0-.577.192-1.064.564-1.467.374-.413.82-.617 1.343-.617.528 0 .974.204 1.347.617.374.403.56.89.56 1.467 0 .572-.186 1.064-.56 1.472-.373.407-.82.61-1.347.61-.523 0-.97-.203-1.343-.61zm.638-2.244c-.192.213-.29.47-.29.772 0 .297.098.554.29.77.198.214.434.32.706.32.275 0 .51-.106.706-.32.195-.216.292-.473.292-.77 0-.302-.097-.56-.292-.772a.922.922 0 0 0-.706-.32.928.928 0 0 0-.706.32z"/><ellipse fill="none" stroke="#1D1D1C" stroke-width=".44" cx="7.843" cy="8.586" rx="7.841" ry="8.586"/><path fill="#1D1D1C" d="M12.304 11.728c0-.18-.06-.334-.174-.46a.54.54 0 0 0-.415-.192.546.546 0 0 0-.423.193.65.65 0 0 0-.178.458c0 .178.06.33.178.46.115.127.255.19.423.19.16 0 .3-.063.415-.19a.665.665 0 0 0 .174-.46m.117-5.966V4.717H8.34v7.66H9.3V10.37h1.498V9.32H9.298V5.762h3.123zM3.265 5.772V4.717h4.088v7.737h-.97V5.772z"/></svg>