<?xml version="1.0" standalone="no"?>
<!DOCTYPE svg PUBLIC "-//W3C//DTD SVG 20010904//EN"
 "http://www.w3.org/TR/2001/REC-SVG-20010904/DTD/svg10.dtd">
<svg version="1.0" xmlns="http://www.w3.org/2000/svg"
 width="260.000000pt" height="260.000000pt" viewBox="0 0 260.000000 260.000000"
 preserveAspectRatio="xMidYMid meet">
<metadata>
Created by potrace 1.11, written by Peter Selinger 2001-2013
</metadata>
<g transform="translate(0.000000,260.000000) scale(0.100000,-0.100000)"
fill="#000000" stroke="none">
<path d="M224 2485 c-22 -34 -29 -101 -15 -151 6 -22 29 -70 52 -105 l41 -64
-70 68 c-74 70 -86 77 -96 51 -20 -53 1 -141 47 -191 l20 -22 -34 9 c-59 17
-79 13 -79 -16 0 -32 15 -61 52 -100 l30 -32 -44 5 c-23 2 -49 0 -56 -5 -25
-17 12 -74 83 -126 19 -15 19 -15 -13 -16 -40 0 -72 -16 -72 -34 0 -24 40 -64
80 -82 l40 -18 -32 -13 c-50 -21 -70 -43 -56 -60 17 -21 64 -43 90 -43 21 0
21 -2 -10 -29 -31 -29 -36 -41 -33 -69 2 -10 -4 -12 -18 -7 -17 5 -21 2 -21
-17 0 -34 23 -62 75 -92 25 -15 45 -30 45 -35 0 -4 10 -18 22 -30 22 -25 168
-364 168 -393 0 -9 5 -20 10 -23 6 -3 10 -16 10 -27 0 -12 10 -42 22 -66 22
-46 22 -47 -6 -113 -4 -10 -1 -23 8 -32 9 -9 16 -22 16 -31 0 -8 9 -18 20 -21
11 -3 20 -11 20 -16 0 -5 11 -14 25 -19 14 -5 29 -20 34 -34 12 -29 57 -66 83
-66 18 0 19 5 15 47 -2 27 -7 57 -11 68 -5 17 5 27 59 59 92 54 128 65 223 66
91 0 107 11 79 54 -17 26 -13 36 14 36 20 0 49 26 49 43 0 7 -14 12 -31 12
-19 0 -36 7 -43 18 -16 25 11 70 50 81 l30 9 -43 40 c-37 34 -86 116 -108 182
-6 19 -7 19 -17 1 -8 -14 -7 -21 3 -27 19 -13 -15 -39 -51 -39 -41 0 -109 -38
-131 -73 -15 -24 -19 -46 -17 -92 3 -59 3 -59 -27 -65 l-30 -5 23 -23 c25 -25
38 -27 77 -12 27 10 27 10 21 -26 -4 -20 -3 -34 2 -30 5 3 23 8 40 11 55 9 38
-20 -29 -50 -95 -42 -148 -36 -170 22 -7 19 -16 23 -49 23 -30 0 -42 5 -46 18
-15 43 -29 72 -36 72 -5 0 -8 8 -8 19 0 10 -9 30 -20 44 -17 22 -150 290 -150
303 0 2 16 3 37 2 31 -1 42 5 75 43 l39 44 -25 -40 c-29 -44 -31 -62 -14 -100
22 -49 87 -26 123 45 32 63 41 65 15 4 -25 -58 -25 -66 3 -91 15 -15 30 -20
49 -16 36 7 46 20 69 90 l19 58 -6 -46 c-5 -43 -3 -49 25 -68 23 -17 35 -19
55 -12 33 13 46 40 46 99 0 43 3 51 23 56 43 12 58 32 68 95 13 84 62 219 117
326 55 104 147 206 202 221 31 9 35 14 34 42 -1 18 -18 67 -39 110 -20 42 -32
78 -27 80 5 1 18 9 28 17 18 14 17 14 -9 15 -32 0 -92 23 -102 39 -3 6 4 21
17 32 l23 20 -35 -5 c-30 -4 -32 -3 -16 7 10 7 31 22 45 35 l26 24 -34 -6
c-18 -3 -105 -6 -192 -6 -146 0 -161 -2 -179 -20 -11 -11 -28 -20 -39 -20 -10
0 -30 -9 -45 -21 -21 -16 -26 -29 -26 -64 0 -55 17 -71 56 -50 33 17 72 19 94
5 13 -8 12 -10 -4 -10 -11 0 -48 -10 -83 -21 -59 -20 -64 -21 -88 -5 -24 16
-25 16 -25 -3 0 -26 46 -61 79 -61 15 0 42 11 61 25 38 28 48 32 30 11 -6 -8
-10 -25 -8 -37 4 -28 28 -38 28 -11 0 41 36 51 147 40 61 -6 122 -129 102
-203 -12 -43 -49 -70 -84 -61 -27 7 -32 -3 -15 -35 6 -11 21 -19 36 -19 30 0
23 -17 -13 -31 -18 -7 -34 -5 -55 6 -38 19 -48 13 -48 -31 0 -34 28 -74 51
-74 25 0 -14 -30 -47 -36 -46 -8 -91 12 -110 48 -15 28 -14 32 10 67 19 27 26
50 26 85 0 48 -1 50 -101 151 -72 73 -106 101 -119 98 -13 -4 -29 12 -61 61
-24 37 -49 64 -55 62 -13 -5 -138 180 -186 276 -18 37 -39 68 -45 68 -7 0 -20
-11 -29 -25z m45 -55 c11 -22 10 -23 -2 -7 -22 26 -27 21 -29 -30 l-1 -48 -4
43 c-3 25 1 50 8 58 14 17 12 17 28 -16z m558 -183 l23 -42 -30 35 c-30 35
-36 50 -22 50 4 0 17 -19 29 -43z m71 7 c-9 -9 -24 -14 -32 -11 -27 11 -17 27
16 27 30 0 31 -1 16 -16z m-701 -30 l28 -26 -32 22 -33 21 0 -21 c0 -11 7 -36
14 -55 8 -19 13 -35 10 -35 -9 0 -34 69 -34 95 0 32 12 32 47 -1z m835 -151
c22 -22 40 -51 46 -77 8 -32 8 -37 -1 -22 -7 10 -24 37 -39 61 -15 25 -52 61
-87 84 -34 23 -61 44 -61 46 0 11 108 -60 142 -92z m-200 47 c-18 -4 -50 -20
-72 -35 -30 -21 -45 -25 -69 -20 -43 9 -49 25 -9 26 18 0 53 9 78 19 25 10 59
19 75 18 l30 0 -33 -8z m-328 -26 c3 -8 2 -12 -3 -9 -5 3 -12 -3 -14 -12 -3
-11 -5 -8 -6 10 -1 29 13 37 23 11z m-324 -52 c3 -3 -7 -2 -23 0 -24 5 -27 3
-22 -16 5 -17 4 -18 -4 -6 -20 28 -13 41 17 34 15 -4 29 -9 32 -12z m461 -69
c8 -9 9 -14 2 -10 -7 5 -13 -1 -16 -15 -3 -17 -5 -14 -6 10 -1 37 1 39 20 15z
m-178 -20 c-10 -3 -10 -10 -2 -26 10 -21 10 -21 -5 -3 -21 26 -20 36 2 35 10
0 12 -3 5 -6z m-325 -50 c-24 -6 -23 -12 9 -47 24 -27 23 -26 -10 3 -44 42
-46 51 -9 50 16 -1 20 -3 10 -6z m300 -60 c-10 -2 -18 -12 -18 -21 0 -14 -2
-15 -9 -2 -13 19 -4 30 22 29 17 -1 18 -2 5 -6z m179 -55 c-3 -8 -6 -5 -6 6
-1 11 2 17 5 13 3 -3 4 -12 1 -19z m-449 -35 c-45 -5 -47 -14 -12 -42 15 -12
23 -21 18 -21 -5 0 -22 11 -39 25 -25 21 -28 26 -15 35 8 5 31 9 50 8 l35 -1
-37 -4z m258 -43 c0 -12 -4 -16 -9 -11 -5 5 -6 14 -3 20 10 15 12 14 12 -9z
m188 -36 c3 -8 2 -12 -4 -9 -6 3 -10 10 -10 16 0 14 7 11 14 -7z m-467 -71
c-4 -3 -1 -13 6 -22 11 -14 10 -14 -5 -2 -16 12 -16 31 -1 31 4 0 3 -3 0 -7z
m347 -89 c3 -8 2 -12 -4 -9 -6 3 -10 10 -10 16 0 14 7 11 14 -7z m-304 -34 c0
-5 -4 -10 -10 -10 -5 0 -10 5 -10 10 0 6 5 10 10 10 6 0 10 -4 10 -10z m567 4
c-3 -3 -12 -4 -19 -1 -8 3 -5 6 6 6 11 1 17 -2 13 -5z m-482 -24 c-3 -5 -1
-11 4 -14 12 -8 3 -42 -14 -56 -11 -9 -13 -3 -10 32 2 24 4 47 4 51 1 5 6 5
11 2 6 -4 8 -10 5 -15z m-70 -16 c7 9 16 16 20 16 4 0 2 -6 -4 -14 -9 -10 -8
-16 4 -26 8 -7 15 -19 15 -28 0 -8 8 -24 18 -35 16 -20 16 -20 -2 -14 -12 5
-23 1 -32 -10 -13 -16 -13 -15 -5 8 8 23 7 28 -10 32 -21 6 -27 37 -6 37 6 0
4 5 -6 11 -9 5 -21 8 -25 5 -4 -2 -9 4 -9 15 -2 18 -1 18 14 3 15 -15 18 -15
28 0z m373 -21 c14 -12 14 -13 0 -13 -16 0 -29 21 -27 43 0 7 3 5 6 -3 3 -8
12 -21 21 -27z m-418 -32 c0 -5 9 -11 21 -14 12 -3 18 -10 15 -16 -9 -14 -64
19 -69 41 -4 15 -2 16 14 7 10 -5 19 -14 19 -18z m488 -26 c-3 -3 -9 2 -12 12
-6 14 -5 15 5 6 7 -7 10 -15 7 -18z m-373 -56 c0 -7 -8 -15 -17 -17 -18 -3
-25 18 -11 32 10 10 28 1 28 -15z m586 -7 c-7 -2 -18 1 -23 6 -8 8 -4 9 13 5
13 -4 18 -8 10 -11z m-541 -7 c-7 -8 -16 -12 -21 -9 -13 8 -1 24 18 24 13 0
13 -3 3 -15z m-30 -25 c0 -5 -7 -10 -16 -10 -8 0 -12 5 -9 10 3 6 10 10 16 10
5 0 9 -4 9 -10z m83 -37 c-7 -2 -19 -2 -25 0 -7 3 -2 5 12 5 14 0 19 -2 13 -5z
m122 -66 c18 -4 18 -5 -2 -6 -14 -1 -26 7 -33 22 -10 19 -9 20 2 6 8 -9 22
-19 33 -22z m129 -46 c-2 -3 -12 3 -22 13 -16 17 -16 18 5 5 12 -7 20 -15 17
-18z m-167 -257 c-3 -3 -12 -4 -19 -1 -8 3 -5 6 6 6 11 1 17 -2 13 -5z m40
-74 c-13 -19 -16 -20 -31 -5 -9 9 -16 23 -16 30 0 18 32 24 49 9 11 -10 11
-15 -2 -34z m23 -25 c-7 -8 -22 -14 -34 -14 -20 1 -20 2 -1 6 11 3 24 9 30 14
15 14 19 10 5 -6z m445 -23 c4 10 11 16 15 13 10 -6 40 -64 40 -77 0 -14 -140
-10 -141 5 0 9 -2 9 -6 -1 -2 -6 -9 -10 -14 -6 -5 3 -9 1 -9 -5 0 -5 -11 -8
-25 -6 -14 1 -25 -2 -25 -7 0 -5 -4 -6 -10 -3 -5 3 -10 1 -10 -6 0 -7 -3 -10
-6 -6 -3 3 -18 -5 -33 -19 -14 -14 -39 -32 -55 -41 -27 -14 -31 -14 -43 3 -13
17 -12 19 14 22 15 2 32 8 38 13 6 6 -2 7 -20 4 -19 -4 -37 -1 -50 9 -20 15
-20 15 3 9 21 -5 20 -3 -7 26 -35 38 -43 39 -35 6 5 -19 2 -25 -10 -25 -31 0
-30 31 1 62 l30 30 22 -36 c38 -60 91 -61 216 -1 42 19 79 43 82 52 5 12 8 11
19 -8 11 -21 13 -22 19 -7z m-479 -97 c-6 -18 35 -38 58 -29 17 6 32 -14 19
-27 -5 -5 -26 0 -51 12 -39 20 -51 37 -35 52 11 12 15 8 9 -8z m59 -75 c32 0
43 -8 30 -22 -12 -11 -80 21 -83 39 -3 17 -2 17 8 1 7 -12 23 -18 45 -18z m73
-48 c2 -7 -6 -12 -17 -12 -21 0 -27 11 -14 24 9 9 26 2 31 -12z m32 -47 c-7
-8 -22 -14 -34 -14 -20 1 -20 2 -1 6 11 3 24 9 30 14 15 14 19 10 5 -6z m7
-31 c-3 -3 -12 -4 -19 -1 -8 3 -5 6 6 6 11 1 17 -2 13 -5z"/>
<path d="M2297 2436 c-59 -115 -168 -275 -183 -269 -7 3 -20 -9 -30 -29 -30
-57 -76 -109 -89 -98 -8 6 -41 -21 -107 -88 -53 -53 -101 -107 -107 -119 -19
-38 -13 -78 19 -118 17 -21 30 -42 30 -47 0 -34 -56 -78 -100 -78 -12 0 -35 7
-52 16 -29 15 -30 17 -12 26 30 16 44 39 44 74 0 41 -10 47 -48 29 -21 -11
-37 -13 -55 -6 -33 13 -44 31 -18 31 23 0 51 25 51 46 0 10 -6 13 -19 9 -26
-8 -68 10 -82 37 -37 69 23 220 89 225 15 2 44 5 65 9 44 7 87 -15 87 -46 0
-11 4 -20 10 -20 15 0 28 31 22 53 -5 21 -5 21 23 -1 39 -31 80 -28 116 7 16
16 29 37 29 46 0 13 -5 12 -29 -6 l-29 -21 -63 21 c-35 11 -72 21 -83 21 -17
0 -18 2 -6 10 23 15 73 12 98 -6 33 -23 52 -3 52 51 0 35 -5 48 -26 64 -15 12
-33 21 -41 21 -7 0 -26 9 -41 19 -24 17 -48 20 -215 23 -114 2 -186 -1 -184
-6 2 -5 20 -18 41 -29 44 -23 41 -34 -6 -18 l-32 11 28 -29 28 -29 -25 -17
c-14 -9 -47 -20 -74 -23 l-48 -7 32 -14 31 -13 -38 -81 c-22 -45 -41 -95 -42
-110 -3 -25 2 -30 36 -42 82 -29 185 -164 252 -331 20 -49 43 -98 52 -108 10
-12 12 -16 3 -11 -10 6 -11 2 -6 -16 4 -12 13 -54 19 -91 6 -38 14 -66 18 -63
3 4 19 0 36 -9 16 -8 32 -12 36 -9 3 4 6 -21 6 -53 0 -61 10 -83 45 -102 15
-8 26 -6 47 6 35 20 38 29 28 83 -12 66 -5 58 19 -21 20 -64 26 -73 58 -86 32
-14 37 -14 54 2 30 27 31 49 4 110 -31 70 -21 63 20 -14 27 -51 34 -57 68 -63
34 -5 39 -3 53 22 20 41 18 50 -27 112 -22 32 -38 57 -36 57 2 0 26 -27 52
-60 45 -56 51 -60 90 -60 30 0 45 5 49 16 10 26 7 59 -6 73 -11 11 -8 12 16 7
15 -4 43 -2 60 4 29 9 32 14 28 40 -2 16 -16 41 -29 55 l-26 25 46 0 c28 0 53
7 67 18 l23 18 -37 37 c-32 32 -34 37 -16 37 25 0 72 23 89 43 10 12 7 19 -15
36 -15 12 -38 24 -52 28 -22 5 -21 7 24 32 27 14 55 39 64 54 14 26 14 29 -4
43 -11 8 -38 14 -59 14 l-40 0 39 26 c44 30 60 48 75 83 13 32 -4 43 -59 38
l-44 -5 30 32 c37 39 52 68 52 100 0 29 -20 33 -77 17 l-33 -10 32 39 c22 29
32 53 36 89 5 57 -3 101 -19 101 -6 0 -43 -30 -82 -67 -45 -44 -61 -55 -45
-33 73 100 98 216 59 278 -11 17 -26 32 -33 32 -7 0 -30 -33 -51 -74z m63 3
c0 -5 -4 -8 -9 -6 -5 1 -17 -7 -26 -18 -15 -18 -15 -17 0 13 14 29 35 36 35
11z m7 -56 c-3 -10 -5 -4 -5 12 0 17 2 24 5 18 2 -7 2 -21 0 -30z m-10 -45
c-3 -8 -6 -5 -6 6 -1 11 2 17 5 13 3 -3 4 -12 1 -19z m-557 -57 c0 -6 -11 -23
-25 -38 l-26 -28 22 38 c21 37 29 45 29 28z m-60 -18 c-1 -26 -17 -31 -40 -13
l-25 20 33 0 c17 0 32 -3 32 -7z m698 -50 c-1 -37 -1 -38 -5 -5 l-4 32 -37
-26 -37 -26 35 30 c19 18 38 32 43 32 4 0 6 -17 5 -37z m-704 -24 c-10 -12
-46 -40 -79 -62 -69 -45 -86 -64 -120 -127 -26 -49 -34 -34 -11 21 18 43 45
68 121 112 33 19 69 45 79 56 11 12 21 21 24 21 3 0 -3 -10 -14 -21z m121 1
c3 -5 1 -10 -4 -10 -6 0 -11 5 -11 10 0 6 2 10 4 10 3 0 8 -4 11 -10z m566
-43 c-10 -9 -11 -8 -5 6 3 10 9 15 12 12 3 -3 0 -11 -7 -18z m-603 -33 c20 -9
57 -19 82 -23 l45 -8 -28 -13 c-27 -13 -34 -12 -90 18 -34 17 -69 33 -77 36
-9 2 -5 5 8 5 12 1 39 -6 60 -15z m291 -31 c-1 -33 -2 -35 -8 -13 -4 14 -6 31
-3 38 8 22 12 13 11 -25z m361 -41 c0 -10 -7 -27 -16 -38 -15 -18 -15 -18 -5
3 18 36 14 42 -21 32 -17 -5 -34 -7 -36 -4 -4 3 49 21 71 24 4 1 7 -7 7 -17z
m-501 -89 c-2 -31 -3 -33 -6 -10 -3 18 -9 25 -16 20 -7 -4 -6 0 2 10 19 24 21
22 20 -20z m181 -7 c0 -8 -5 -18 -12 -22 -7 -5 -8 -3 -3 6 4 7 2 16 -6 21 -11
7 -10 9 4 9 9 0 17 -6 17 -14z m340 -44 c0 -14 -31 -52 -53 -64 -15 -7 -11 0
12 23 l34 34 -24 6 c-23 7 -23 7 4 8 15 1 27 -2 27 -7z m-304 -63 c3 -6 1 -16
-5 -22 -9 -9 -11 -8 -6 5 4 11 0 18 -12 21 -15 4 -16 5 -1 6 9 0 20 -4 24 -10z
m292 -87 c9 -6 7 -13 -10 -29 -13 -11 -30 -23 -38 -27 -8 -4 -3 2 13 14 37 30
34 38 -15 43 l-43 4 40 1 c22 1 46 -2 53 -6z m-307 -55 c-10 -9 -11 -8 -5 6 3
10 9 15 12 12 3 -3 0 -11 -7 -18z m-494 -19 c-3 -7 -5 -2 -5 12 0 14 2 19 5
13 2 -7 2 -19 0 -25z m316 -4 c-3 -8 -7 -14 -10 -14 -3 0 -3 6 0 14 3 7 0 20
-6 27 -10 11 -9 11 5 0 9 -7 14 -19 11 -27z m457 -69 c13 -15 6 -35 -13 -35
-7 0 -6 4 3 10 13 9 12 12 -4 25 -11 8 -15 15 -9 15 6 0 16 -7 23 -15z m-34
-144 c-4 -6 -13 -11 -19 -11 -8 0 -7 4 2 9 13 8 13 12 1 28 -13 17 -13 17 4 1
10 -9 15 -21 12 -27z m-380 -36 c-3 -8 -11 -15 -18 -14 -10 0 -10 2 0 6 6 2
12 14 13 26 0 12 3 16 6 9 3 -7 2 -19 -1 -27z m314 -75 c0 -13 -6 -20 -17 -19
-11 0 -13 3 -5 6 6 2 12 11 12 19 0 8 2 14 5 14 3 0 5 -9 5 -20z m-90 -95 c0
-20 -5 -25 -22 -24 -17 1 -19 2 -5 6 9 2 17 13 17 24 0 10 2 19 5 19 3 0 5
-11 5 -25z m-130 -74 c-6 -12 -18 -20 -28 -20 -16 1 -16 2 0 6 9 2 20 13 23
24 4 11 9 18 12 16 2 -3 0 -15 -7 -26z m-290 -31 c-8 -5 -19 -10 -25 -10 -5 0
-3 5 5 10 8 5 20 10 25 10 6 0 3 -5 -5 -10z"/>
<path d="M1229 1887 c-86 -45 -193 -215 -254 -402 -114 -351 80 -658 383 -605
79 14 111 29 169 83 78 71 123 191 123 323 0 207 -159 537 -291 604 -50 26
-76 25 -130 -3z m120 -22 c103 -53 244 -317 271 -506 28 -195 -62 -384 -210
-440 -43 -17 -71 -20 -130 -17 -131 8 -212 66 -273 197 -27 56 -31 79 -35 171
-4 100 -3 110 32 214 97 290 233 440 345 381z"/>
<path d="M1234 1841 c-46 -28 -89 -86 -143 -191 -90 -177 -119 -299 -101 -428
19 -135 77 -229 172 -276 72 -36 189 -37 263 -2 160 74 224 293 154 523 -38
125 -117 272 -180 336 -50 50 -62 57 -96 57 -21 0 -52 -9 -69 -19z m146 -196
c15 -8 46 -35 68 -60 152 -173 88 -525 -107 -584 -90 -27 -186 31 -243 147
-32 64 -33 72 -33 182 0 110 1 118 33 182 35 72 95 132 147 148 37 11 97 4
135 -15z"/>
<path d="M1247 1640 c-154 -48 -222 -324 -124 -504 80 -145 235 -161 327 -34
45 61 64 131 64 228 0 97 -19 167 -64 228 -50 69 -135 104 -203 82z m102 -74
c15 -8 36 -26 45 -40 9 -15 25 -26 36 -26 18 0 20 -7 20 -65 l0 -65 -55 0 -55
0 0 -45 0 -45 51 0 52 0 -7 -42 c-4 -24 -16 -61 -26 -84 -11 -22 -20 -50 -20
-63 0 -21 -3 -22 -92 -19 l-92 3 -6 30 c-4 17 -14 44 -22 60 -9 17 -19 49 -23
73 l-7 42 51 0 51 0 0 45 0 45 -55 0 -55 0 0 65 c0 58 2 65 19 65 11 0 27 10
35 21 38 54 101 72 155 45z"/>
<path d="M1228 1530 l-33 -29 100 0 100 0 -33 29 c-23 21 -43 30 -67 30 -24 0
-44 -9 -67 -30z"/>
<path d="M1160 1440 c0 -43 13 -52 30 -20 8 14 21 20 45 20 l35 0 0 -136 c0
-135 -8 -174 -35 -174 -8 0 -15 -9 -15 -20 0 -18 7 -20 75 -20 68 0 75 2 75
20 0 11 -7 20 -15 20 -26 0 -35 46 -35 181 l0 129 35 0 c24 0 39 -6 47 -20 19
-30 28 -24 28 20 l0 40 -135 0 -135 0 0 -40z"/>
<path d="M1205 1410 c-4 -6 5 -10 19 -10 14 0 26 5 26 10 0 6 -9 10 -19 10
-11 0 -23 -4 -26 -10z"/>
<path d="M1340 1410 c0 -5 11 -10 25 -10 14 0 25 5 25 10 0 6 -11 10 -25 10
-14 0 -25 -4 -25 -10z"/>
<path d="M1170 1246 c0 -18 21 -78 32 -92 5 -7 18 -10 28 -7 17 4 20 14 20 59
l0 54 -40 0 c-27 0 -40 -4 -40 -14z"/>
<path d="M1340 1210 c0 -39 4 -52 20 -60 16 -8 22 -6 35 14 9 13 19 40 22 60
l6 36 -42 0 -41 0 0 -50z"/>
<path d="M1650 1145 c0 -39 -60 -145 -105 -190 -36 -34 -42 -45 -28 -45 10 0
29 -7 41 -16 18 -12 22 -24 20 -52 -3 -35 -5 -37 -41 -37 -20 0 -37 -5 -37
-11 0 -21 37 -44 69 -44 30 0 33 -2 26 -22 -20 -66 -23 -62 67 -76 145 -21
253 -50 313 -82 57 -31 60 -31 92 -16 19 9 45 16 58 16 24 0 97 37 103 52 2 5
9 14 16 21 7 6 27 34 45 60 l32 48 -17 47 c-26 70 -41 88 -95 122 -27 16 -49
33 -49 36 0 4 7 1 16 -7 14 -11 15 -7 12 32 l-3 44 -45 0 -45 0 -3 -44 c-3
-37 -1 -43 11 -33 8 7 17 9 20 5 4 -3 7 1 7 10 0 10 -5 14 -15 11 -8 -4 -15
-1 -15 5 0 6 7 11 16 11 10 0 14 6 10 15 -3 9 0 15 9 15 9 0 12 -6 9 -15 -4
-10 0 -15 15 -15 12 0 21 -4 21 -10 0 -5 -9 -10 -20 -10 -14 0 -18 -5 -13 -16
4 -11 1 -15 -13 -13 -23 3 -92 -31 -116 -57 -9 -11 -26 -41 -37 -68 l-21 -48
22 -40 c22 -39 22 -40 3 -54 -27 -20 -61 -17 -145 11 -74 25 -110 48 -110 70
0 12 35 14 46 2 18 -18 33 -6 28 22 -6 29 -6 29 37 24 36 -4 48 -1 63 16 19
21 19 21 -7 21 -30 0 -29 -1 -31 86 -1 70 -18 97 -74 121 -18 7 -30 18 -27 23
4 6 -6 7 -24 4 -37 -8 -98 25 -69 35 15 5 15 8 -2 31 -18 23 -20 23 -20 5z
m500 -224 c0 -6 -4 -13 -10 -16 -5 -3 -10 1 -10 9 0 9 5 16 10 16 6 0 10 -4
10 -9z m-30 -66 l0 -65 -37 2 c-37 1 -37 1 -5 5 l32 4 0 60 c0 32 2 59 5 59 3
0 5 -29 5 -65z m30 25 c0 -5 -4 -10 -10 -10 -5 0 -10 5 -10 10 0 6 5 10 10 10
6 0 10 -4 10 -10z m-4 -47 c-10 -10 -19 5 -10 18 6 11 8 11 12 0 2 -7 1 -15
-2 -18z m4 -22 c0 -6 -4 -13 -10 -16 -5 -3 -10 1 -10 9 0 9 5 16 10 16 6 0 10
-4 10 -9z m63 -18 c-7 -2 -21 -2 -30 0 -10 3 -4 5 12 5 17 0 24 -2 18 -5z
m-180 -17 c6 -15 -1 -26 -16 -26 -5 0 -7 6 -4 14 4 9 -1 17 -11 19 -13 4 -12
5 4 6 12 0 24 -5 27 -13z m254 8 c-3 -3 -12 -4 -19 -1 -8 3 -5 6 6 6 11 1 17
-2 13 -5z m-221 -31 c-10 -10 -19 5 -10 18 6 11 8 11 12 0 2 -7 1 -15 -2 -18z
m44 18 c0 -6 -4 -13 -10 -16 -5 -3 -10 1 -10 9 0 9 5 16 10 16 6 0 10 -4 10
-9z m40 -1 c0 -5 -4 -10 -10 -10 -5 0 -10 5 -10 10 0 6 5 10 10 10 6 0 10 -4
10 -10z m40 2 c0 -13 -12 -22 -22 -16 -10 6 -1 24 13 24 5 0 9 -4 9 -8z m31
-15 c-13 -13 -26 -3 -16 12 3 6 11 8 17 5 6 -4 6 -10 -1 -17z m-221 3 c0 -5
-4 -10 -10 -10 -5 0 -10 5 -10 10 0 6 5 10 10 10 6 0 10 -4 10 -10z m260 0 c0
-5 -4 -10 -10 -10 -5 0 -10 5 -10 10 0 6 5 10 10 10 6 0 10 -4 10 -10z m40 0
c0 -5 -4 -10 -10 -10 -5 0 -10 5 -10 10 0 6 5 10 10 10 6 0 10 -4 10 -10z
m-630 -10 c0 -6 8 -14 18 -17 9 -4 32 -17 50 -29 33 -23 103 -46 174 -59 24
-5 47 -2 65 7 24 12 31 12 41 1 8 -8 9 -13 2 -13 -25 0 -7 -19 23 -22 31 -4
32 -4 8 -14 -22 -10 -22 -11 -6 -18 10 -4 21 -2 25 5 4 6 11 10 16 9 5 -1 12
13 17 30 5 22 13 30 25 28 32 -6 21 -33 -30 -70 l-52 -38 -62 35 c-35 18 -84
38 -111 44 -26 5 -59 12 -73 16 -14 4 -31 7 -37 7 -7 1 -13 5 -13 9 0 4 -9 6
-20 4 -14 -3 -20 2 -20 13 -1 16 -1 16 -10 0 -8 -12 -19 -15 -52 -11 -24 3
-44 7 -46 8 -1 1 4 19 12 41 8 21 15 33 15 27 1 -18 21 -16 21 2 0 8 5 15 10
15 6 0 10 -5 10 -10z m543 -17 c-40 -2 -107 -2 -150 0 -43 1 -10 3 72 3 83 0
118 -2 78 -3z m2 -103 c0 -7 -6 -15 -12 -17 -8 -3 -13 4 -13 17 0 13 5 20 13
18 6 -3 12 -11 12 -18z m-60 -40 c-3 -5 -16 -10 -28 -9 -20 1 -20 2 3 9 14 4
26 8 28 9 2 1 0 -3 -3 -9z"/>
<path d="M1405 873 c-41 -15 -185 -14 -232 2 l-21 7 19 -40 c24 -47 16 -71
-30 -98 -24 -14 -51 -51 -51 -70 0 -2 13 2 30 11 32 17 70 20 70 6 0 -5 -12
-23 -26 -40 -29 -35 -63 -41 -71 -12 -4 17 -8 18 -29 9 -28 -13 -42 -52 -26
-71 8 -10 0 -17 -37 -30 -75 -26 -101 -56 -101 -116 0 -42 4 -53 26 -70 15
-12 41 -21 59 -21 31 0 65 25 65 48 0 15 -38 35 -56 28 -28 -11 -14 25 18 44
30 18 32 18 44 2 11 -14 16 -15 31 -5 10 7 32 20 48 29 17 9 42 28 58 42 45
43 31 3 -17 -44 -25 -25 -53 -44 -65 -44 -17 0 -22 -5 -20 -22 1 -13 -3 -36
-9 -51 -7 -16 -12 -46 -12 -68 l0 -40 30 34 c17 19 30 40 30 47 0 9 5 8 18 -3
24 -22 32 -21 32 3 0 22 75 106 84 92 3 -5 -5 -31 -18 -58 -13 -27 -26 -66
-30 -87 -4 -21 -10 -46 -13 -54 -5 -13 -1 -15 21 -11 25 5 26 4 20 -28 -3 -19
-2 -34 3 -34 6 0 18 -16 29 -35 10 -19 21 -35 24 -35 3 0 14 16 24 35 11 19
23 35 29 35 5 0 6 15 3 34 -6 31 -5 33 19 28 14 -2 25 -2 25 1 0 18 -31 118
-48 157 -12 24 -19 48 -16 52 9 14 84 -66 84 -89 0 -27 7 -29 32 -6 13 11 18
12 18 3 0 -7 14 -28 30 -47 l30 -34 0 40 c0 22 -5 52 -12 68 -6 15 -10 38 -9
51 2 17 -3 22 -20 22 -12 0 -40 19 -65 44 -48 47 -62 87 -16 44 15 -14 41 -33
57 -42 17 -9 38 -22 48 -29 15 -10 20 -9 31 5 12 16 14 16 44 -2 32 -19 46
-55 18 -44 -19 7 -56 -13 -56 -30 0 -22 35 -46 67 -46 99 0 121 131 30 184
-23 14 -54 28 -70 31 -22 6 -25 10 -16 21 16 20 2 63 -24 73 -17 7 -24 4 -29
-10 -11 -28 -43 -23 -72 12 -42 50 -33 61 29 35 33 -14 35 -14 35 4 0 10 -20
35 -45 56 -50 41 -55 62 -25 112 11 17 19 31 17 31 -1 -1 -20 -8 -42 -16z"/>
</g>
</svg>
