<?xml version="1.0" encoding="utf-8"?>
<!-- Generator: Adobe Illustrator 17.0.0, SVG Export Plug-In . SVG Version: 6.00 Build 0)  -->
<!DOCTYPE svg PUBLIC "-//W3C//DTD SVG 1.1//EN" "http://www.w3.org/Graphics/SVG/1.1/DTD/svg11.dtd">
<svg version="1.1" id="Livello_1" xmlns="http://www.w3.org/2000/svg" xmlns:xlink="http://www.w3.org/1999/xlink" x="0px" y="0px"
	 width="271px" height="111px" viewBox="0 0 271 111" enable-background="new 0 0 271 111" xml:space="preserve">
<polyline fill="#35180F" points="0,111 0,0 271,0 271,111 "/>
<g>
	<path fill="#CFAB43" d="M34.076,55.794c0.237,0.176,0.409,0.554,0.514,1.135c0.05,0.261,0.148,0.388,0.295,0.379
		c0.179-0.015,0.265-0.145,0.257-0.39c-0.009-0.121-0.033-0.321-0.074-0.597c-0.04-0.219-0.061-0.569-0.061-1.05
		c0-0.479-0.047-0.769-0.14-0.867c-0.094-0.097-0.366-0.145-0.816-0.145H20.854c-0.279,0-0.461,0.059-0.546,0.176
		c-0.086,0.118-0.129,0.364-0.129,0.74c0,0.382-0.061,0.867-0.183,1.453c-0.099,0.456-0.148,0.77-0.148,0.94
		c0,0.212,0.074,0.322,0.221,0.33c0.146,0.009,0.257-0.147,0.331-0.466c0.164-0.735,0.394-1.236,0.693-1.501
		c0.297-0.267,0.778-0.399,1.439-0.399h3.248c0.31,0,0.509,0.042,0.595,0.123c0.085,0.082,0.128,0.27,0.128,0.564l0.012,0.319
		v12.166c0,0.688-0.11,1.165-0.331,1.43c-0.221,0.266-0.645,0.44-1.274,0.522c-0.27,0.033-0.406,0.112-0.406,0.239
		c0,0.176,0.123,0.262,0.37,0.262c0.081,0,0.356-0.023,0.823-0.072c0.237-0.026,0.527-0.036,0.871-0.036l0.959-0.013l0.896,0.013
		c0.581,0,0.95,0.01,1.106,0.036c0.302,0.049,0.503,0.072,0.601,0.072c0.229,0,0.344-0.088,0.344-0.262
		c0-0.136-0.143-0.228-0.43-0.276c-1.029-0.18-1.564-0.749-1.605-1.706l-0.013-0.478v-12.03c0-0.385,0.048-0.626,0.142-0.724
		c0.092-0.098,0.32-0.148,0.68-0.148h3.444C33.379,55.531,33.839,55.619,34.076,55.794L34.076,55.794z M45.927,64.693
		c0.098,0.07,0.232,0.33,0.404,0.78l0.613,1.62c0.498,1.294,0.748,2.158,0.748,2.593c0,0.476-0.204,0.752-0.612,0.836l-0.381,0.085
		c-0.204,0.04-0.306,0.124-0.306,0.251c0,0.168,0.107,0.25,0.319,0.25c0.081,0,0.208-0.016,0.38-0.049
		c0.285-0.049,0.996-0.072,2.132-0.072c1.087,0,1.842,0.021,2.267,0.062c0.237,0.015,0.393,0.023,0.466,0.023
		c0.22,0,0.334-0.067,0.343-0.203c0.007-0.152-0.115-0.251-0.368-0.299c-0.777-0.139-1.292-0.33-1.544-0.57
		c-0.253-0.243-0.572-0.858-0.956-1.848l-0.27-0.662l-5.27-13.502c-0.091-0.237-0.201-0.355-0.332-0.355S43.312,53.754,43.206,54
		l-6.3,13.993l-0.355,0.81c-0.179,0.376-0.407,0.738-0.686,1.085c-0.278,0.348-0.498,0.545-0.661,0.594l-0.453,0.136
		c-0.139,0.042-0.208,0.129-0.208,0.264c0,0.151,0.109,0.225,0.33,0.225c0.04,0,0.268-0.022,0.684-0.067
		c0.13-0.011,0.314-0.017,0.55-0.017c0.515,0,0.966,0.009,1.358,0.028l1.173,0.069c0.187,0.009,0.326,0.013,0.415,0.013
		c0.236,0,0.35-0.067,0.343-0.203c-0.009-0.143-0.135-0.239-0.381-0.288c-0.563-0.12-0.941-0.27-1.133-0.441
		c-0.192-0.171-0.289-0.451-0.289-0.835c0-0.401,0.182-1.015,0.545-1.842l0.803-1.806c0.246-0.556,0.442-0.884,0.588-0.982
		c0.147-0.099,0.523-0.148,1.128-0.148h4.437C45.55,64.589,45.829,64.623,45.927,64.693L45.927,64.693z M45.302,62.837
		c0.04,0.13,0.061,0.224,0.061,0.281c0,0.205-0.205,0.306-0.613,0.306h-3.701l-0.331-0.011c-0.375,0-0.563-0.107-0.563-0.319
		c0-0.073,0.054-0.224,0.159-0.454l2.39-5.306c0.073-0.163,0.138-0.241,0.196-0.233c0.114,0.009,0.221,0.143,0.319,0.406
		l0.098,0.257l1.924,4.853L45.302,62.837L45.302,62.837z M65.964,55.794c0.237,0.176,0.408,0.554,0.515,1.135
		c0.049,0.261,0.147,0.388,0.293,0.379c0.181-0.015,0.266-0.145,0.259-0.39c-0.009-0.121-0.034-0.321-0.074-0.597
		c-0.042-0.219-0.061-0.569-0.061-1.05c0-0.479-0.047-0.769-0.141-0.867c-0.094-0.097-0.366-0.145-0.816-0.145H52.74
		c-0.277,0-0.459,0.059-0.545,0.176c-0.086,0.118-0.128,0.364-0.128,0.74c0,0.382-0.062,0.867-0.184,1.453
		c-0.098,0.456-0.147,0.77-0.147,0.94c0,0.212,0.074,0.322,0.221,0.33c0.147,0.009,0.257-0.147,0.33-0.466
		c0.164-0.735,0.394-1.236,0.693-1.501c0.298-0.267,0.778-0.399,1.441-0.399h3.248c0.31,0,0.508,0.042,0.594,0.123
		c0.086,0.082,0.129,0.27,0.129,0.564l0.013,0.319v12.166c0,0.688-0.11,1.165-0.332,1.43c-0.221,0.266-0.646,0.44-1.275,0.522
		c-0.27,0.033-0.405,0.112-0.405,0.239c0,0.176,0.123,0.262,0.369,0.262c0.081,0,0.355-0.023,0.822-0.072
		c0.237-0.026,0.528-0.036,0.872-0.036l0.958-0.013l0.897,0.013c0.581,0,0.949,0.01,1.104,0.036
		c0.304,0.049,0.503,0.072,0.602,0.072c0.229,0,0.344-0.088,0.344-0.262c0-0.136-0.143-0.228-0.429-0.276
		c-1.029-0.18-1.565-0.749-1.605-1.706l-0.012-0.478v-12.03c0-0.385,0.047-0.626,0.14-0.724c0.094-0.098,0.322-0.148,0.681-0.148
		h3.443C65.265,55.531,65.727,55.619,65.964,55.794L65.964,55.794z M73.966,54.895l0.638-0.246c0.212-0.071,0.319-0.179,0.319-0.324
		c0-0.152-0.11-0.227-0.332-0.227c-0.049,0-0.151,0.004-0.306,0.014l-0.821,0.067c-0.433,0.028-0.952,0.04-1.558,0.04
		c-0.987,0-1.781-0.035-2.377-0.108c-0.082-0.01-0.155-0.014-0.221-0.014c-0.245,0-0.364,0.088-0.356,0.264
		c0.008,0.144,0.14,0.24,0.392,0.287c0.76,0.123,1.256,0.36,1.489,0.713c0.232,0.351,0.349,1.034,0.349,2.049v10.507
		c0,1.039-0.089,1.721-0.27,2.045c-0.18,0.322-0.58,0.537-1.201,0.643c-0.252,0.04-0.379,0.131-0.379,0.276
		c0,0.167,0.11,0.251,0.33,0.251c0.156,0,0.351-0.013,0.588-0.035l1.446-0.088l1.777,0.028c0.614,0,1.047,0.018,1.3,0.054
		c0.187,0.028,0.343,0.042,0.466,0.042c0.252,0,0.379-0.097,0.379-0.288c0-0.144-0.203-0.244-0.612-0.301
		c-0.515-0.071-0.892-0.195-1.133-0.368c-0.241-0.171-0.443-0.466-0.607-0.884c-0.138-0.37-0.208-1.126-0.208-2.273V57.83
		C73.059,56.102,73.361,55.125,73.966,54.895L73.966,54.895L73.966,54.895z M88.132,64.693c0.098,0.07,0.234,0.33,0.406,0.78
		l0.612,1.62c0.498,1.294,0.748,2.158,0.748,2.593c0,0.476-0.205,0.752-0.614,0.836l-0.379,0.085
		c-0.205,0.04-0.308,0.124-0.308,0.251c0,0.168,0.107,0.25,0.319,0.25c0.082,0,0.208-0.016,0.381-0.049
		c0.286-0.049,0.996-0.072,2.132-0.072c1.087,0,1.843,0.021,2.268,0.062c0.237,0.015,0.391,0.023,0.466,0.023
		c0.221,0,0.335-0.067,0.343-0.203c0.009-0.152-0.115-0.251-0.368-0.299c-0.776-0.139-1.291-0.33-1.544-0.57
		c-0.254-0.243-0.572-0.858-0.957-1.848l-0.27-0.662l-5.27-13.502c-0.089-0.237-0.199-0.355-0.33-0.355
		c-0.132,0-0.25,0.121-0.357,0.368l-6.299,13.993l-0.355,0.81c-0.181,0.376-0.409,0.738-0.687,1.085
		c-0.278,0.348-0.498,0.545-0.662,0.594l-0.453,0.136c-0.139,0.042-0.208,0.129-0.208,0.264c0,0.151,0.11,0.225,0.33,0.225
		c0.042,0,0.269-0.022,0.685-0.067c0.129-0.011,0.314-0.017,0.55-0.017c0.513,0,0.965,0.009,1.357,0.028l1.173,0.069
		c0.188,0.009,0.327,0.013,0.417,0.013c0.236,0,0.351-0.067,0.341-0.203c-0.007-0.143-0.134-0.239-0.379-0.288
		c-0.565-0.12-0.942-0.27-1.135-0.441c-0.192-0.171-0.287-0.451-0.287-0.835c0-0.401,0.181-1.015,0.544-1.842l0.805-1.806
		c0.244-0.556,0.442-0.884,0.588-0.982c0.147-0.099,0.522-0.148,1.127-0.148h4.437C87.757,64.589,88.034,64.623,88.132,64.693
		L88.132,64.693z M87.507,62.837c0.042,0.13,0.061,0.224,0.061,0.281c0,0.205-0.204,0.306-0.612,0.306h-3.701l-0.332-0.011
		c-0.377,0-0.564-0.107-0.564-0.319c0-0.073,0.053-0.224,0.159-0.454l2.39-5.306c0.074-0.163,0.139-0.241,0.195-0.233
		c0.115,0.009,0.221,0.143,0.319,0.406l0.098,0.257l1.924,4.853L87.507,62.837L87.507,62.837z M110.914,58.141v-1.322
		c0-0.785,0.079-1.32,0.238-1.607c0.16-0.285,0.488-0.49,0.987-0.612c0.172-0.049,0.254-0.127,0.246-0.232
		c-0.017-0.172-0.13-0.257-0.344-0.257c-0.139,0-0.339,0.024-0.6,0.073c-0.303,0.049-0.707,0.074-1.214,0.074
		c-0.947,0-1.703-0.031-2.268-0.089c-0.237-0.023-0.407-0.034-0.514-0.034c-0.237,0-0.355,0.075-0.355,0.227
		c0,0.161,0.118,0.259,0.355,0.3c0.842,0.139,1.424,0.354,1.747,0.644c0.322,0.29,0.524,0.782,0.606,1.476l0.146,2.82l-0.011,1.654
		v6.067c-0.009,0.147-0.054,0.225-0.135,0.232c-0.049,0.009-0.163-0.089-0.343-0.293L98.18,54.489
		c-0.203-0.237-0.408-0.355-0.612-0.355c-0.107,0-0.257,0.004-0.453,0.012l-0.196,0.013l-0.822-0.025l-0.502-0.013
		c-0.09-0.007-0.155-0.011-0.196-0.011c-0.181,0-0.27,0.075-0.27,0.227c0,0.15,0.11,0.243,0.33,0.275
		c0.85,0.115,1.5,0.578,1.949,1.392c0.449,0.813,0.674,1.928,0.674,3.342v8.341c0,0.884-0.121,1.523-0.362,1.921
		c-0.241,0.397-0.704,0.713-1.39,0.95c-0.238,0.08-0.352,0.18-0.344,0.3c0.017,0.149,0.131,0.227,0.344,0.227
		c0.089,0,0.241-0.016,0.453-0.045c0.286-0.037,0.589-0.055,0.908-0.055l0.588-0.023l1.25,0.062c0.62,0.033,0.975,0.058,1.066,0.075
		c0.131,0.015,0.253,0.022,0.368,0.022c0.172,0,0.257-0.08,0.257-0.239c0-0.175-0.134-0.279-0.404-0.311
		c-0.645-0.097-1.078-0.249-1.299-0.455c-0.221-0.203-0.36-0.576-0.416-1.115l-0.037-0.872l0.012-0.515v-8.318
		c0-0.368,0.078-0.552,0.233-0.552c0.065,0,0.121,0.024,0.172,0.074l0.122,0.134l10.332,11.814l0.268,0.319
		c0.066,0.065,0.159,0.102,0.283,0.11c0.188,0.009,0.303-0.087,0.344-0.288c0.04-0.2,0.06-0.762,0.06-1.684V58.951L110.914,58.141
		L110.914,58.141z M125.376,64.693c0.097,0.07,0.232,0.33,0.404,0.78l0.612,1.62c0.498,1.294,0.748,2.158,0.748,2.593
		c0,0.476-0.205,0.752-0.613,0.836l-0.379,0.085c-0.205,0.04-0.306,0.124-0.306,0.251c0,0.168,0.105,0.25,0.319,0.25
		c0.081,0,0.208-0.016,0.379-0.049c0.286-0.049,0.996-0.072,2.133-0.072c1.086,0,1.843,0.021,2.267,0.062
		c0.237,0.015,0.393,0.023,0.466,0.023c0.221,0,0.335-0.067,0.344-0.203c0.008-0.152-0.115-0.251-0.368-0.299
		c-0.777-0.139-1.291-0.33-1.545-0.57c-0.254-0.243-0.572-0.858-0.956-1.848l-0.269-0.662l-5.271-13.502
		c-0.089-0.237-0.2-0.355-0.33-0.355c-0.13,0-0.25,0.121-0.355,0.368l-6.299,13.993L116,68.803c-0.18,0.376-0.409,0.738-0.686,1.085
		c-0.278,0.348-0.498,0.545-0.662,0.594l-0.454,0.136c-0.138,0.042-0.209,0.129-0.209,0.264c0,0.151,0.11,0.225,0.33,0.225
		c0.041,0,0.27-0.022,0.685-0.067c0.131-0.011,0.314-0.017,0.55-0.017c0.514,0,0.966,0.009,1.357,0.028l1.173,0.069
		c0.188,0.009,0.326,0.013,0.417,0.013c0.236,0,0.35-0.067,0.341-0.203c-0.008-0.143-0.134-0.239-0.379-0.288
		c-0.564-0.12-0.943-0.27-1.134-0.441c-0.192-0.171-0.287-0.451-0.287-0.835c0-0.401,0.181-1.015,0.545-1.842l0.803-1.806
		c0.245-0.556,0.442-0.884,0.589-0.982c0.146-0.099,0.522-0.148,1.127-0.148h4.436C124.999,64.589,125.277,64.623,125.376,64.693
		L125.376,64.693z M124.75,62.837c0.041,0.13,0.061,0.224,0.061,0.281c0,0.205-0.205,0.306-0.612,0.306h-3.701l-0.332-0.011
		c-0.375,0-0.563-0.107-0.563-0.319c0-0.073,0.053-0.224,0.159-0.454l2.389-5.306c0.074-0.163,0.14-0.241,0.196-0.233
		c0.115,0.009,0.221,0.143,0.319,0.406l0.098,0.257l1.925,4.853L124.75,62.837L124.75,62.837z M144.932,55.206
		c0.219-0.118,0.786-0.177,1.699-0.177c0.699,0,1.277,0.02,1.733,0.061l1.44,0.147c0.547,0.049,0.9,0.133,1.058,0.251
		c0.159,0.119,0.291,0.386,0.396,0.803c0.065,0.261,0.11,0.518,0.135,0.772c0.017,0.205,0.087,0.306,0.213,0.306
		c0.217,0,0.326-0.188,0.326-0.566c0-0.893,0.069-1.606,0.208-2.14c0.042-0.172,0.061-0.308,0.061-0.406
		c0-0.189-0.09-0.282-0.27-0.282c-0.114,0-0.25,0.016-0.404,0.049c-0.213,0.041-0.686,0.078-1.422,0.11l-1.702,0.085
		c-0.442,0.025-1.435,0.038-2.978,0.038c-1.734,0-2.963-0.038-3.69-0.111c-0.401-0.041-0.653-0.061-0.758-0.061
		c-0.345,0-0.507,0.104-0.491,0.311c0.007,0.128,0.11,0.199,0.306,0.216c0.482,0.042,0.821,0.11,1.017,0.208
		c0.196,0.099,0.376,0.286,0.539,0.565c0.254,0.418,0.38,1.015,0.38,1.792v11.059c0,0.802-0.094,1.366-0.282,1.694
		c-0.188,0.329-0.544,0.549-1.066,0.662c-0.254,0.057-0.38,0.15-0.38,0.276c0,0.152,0.119,0.223,0.357,0.216
		c0.13-0.009,0.339-0.021,0.626-0.036c0.353-0.034,0.63-0.049,0.835-0.049l0.946-0.013l0.847,0.013c0.532,0,0.934,0.017,1.203,0.054
		c0.32,0.037,0.57,0.054,0.749,0.054c0.262,0,0.386-0.091,0.369-0.275c-0.009-0.159-0.151-0.24-0.429-0.24
		c-0.58,0-1.042-0.191-1.385-0.578c-0.343-0.385-0.515-0.901-0.515-1.55v-4.568c0-0.338,0.02-0.583,0.061-0.739
		c0.033-0.148,0.194-0.242,0.482-0.284c0.289-0.04,0.922-0.061,1.898-0.061c1.058,0,1.859,0.069,2.405,0.208
		c0.269,0.065,0.458,0.175,0.574,0.331c0.114,0.156,0.219,0.449,0.317,0.882c0.088,0.4,0.213,0.6,0.374,0.6
		c0.151,0,0.226-0.097,0.226-0.292c0-0.074-0.009-0.188-0.023-0.343c-0.034-0.261-0.05-0.869-0.05-1.821
		c0-0.343,0.005-0.591,0.012-0.746l0.074-1.21c0.017-0.252-0.055-0.379-0.214-0.379c-0.134,0-0.218,0.097-0.251,0.293
		c-0.089,0.548-0.305,0.934-0.647,1.158c-0.341,0.225-0.887,0.338-1.635,0.338l-1.44,0.024l-0.402,0.013l-1.05-0.024
		c-0.431,0-0.663-0.111-0.696-0.331v-0.318l-0.012-0.232v-4.844C144.602,55.629,144.713,55.325,144.932,55.206L144.932,55.206z
		 M163.181,64.693c0.098,0.07,0.234,0.33,0.405,0.78l0.614,1.62c0.498,1.294,0.746,2.158,0.746,2.593
		c0,0.476-0.203,0.752-0.613,0.836l-0.38,0.085c-0.203,0.04-0.306,0.124-0.306,0.251c0,0.168,0.107,0.25,0.319,0.25
		c0.082,0,0.208-0.016,0.381-0.049c0.286-0.049,0.996-0.072,2.131-0.072c1.087,0,1.843,0.021,2.269,0.062
		c0.235,0.015,0.391,0.023,0.466,0.023c0.221,0,0.335-0.067,0.342-0.203c0.009-0.152-0.114-0.251-0.368-0.299
		c-0.776-0.139-1.291-0.33-1.543-0.57c-0.254-0.243-0.572-0.858-0.957-1.848l-0.27-0.662l-5.27-13.502
		c-0.09-0.237-0.201-0.355-0.331-0.355c-0.131,0-0.249,0.121-0.355,0.368l-6.298,13.993l-0.357,0.81
		c-0.18,0.376-0.408,0.738-0.685,1.085c-0.278,0.348-0.5,0.545-0.663,0.594l-0.453,0.136c-0.139,0.042-0.207,0.129-0.207,0.264
		c0,0.151,0.11,0.225,0.33,0.225c0.04,0,0.269-0.022,0.684-0.067c0.13-0.011,0.314-0.017,0.55-0.017
		c0.514,0,0.966,0.009,1.357,0.028l1.174,0.069c0.186,0.009,0.326,0.013,0.416,0.013c0.237,0,0.349-0.067,0.342-0.203
		c-0.008-0.143-0.134-0.239-0.38-0.288c-0.564-0.12-0.941-0.27-1.134-0.441c-0.191-0.171-0.288-0.451-0.288-0.835
		c0-0.401,0.181-1.015,0.544-1.842l0.805-1.806c0.244-0.556,0.44-0.884,0.587-0.982c0.148-0.099,0.523-0.148,1.128-0.148h4.437
		C162.806,64.589,163.083,64.623,163.181,64.693L163.181,64.693z M162.556,62.837c0.042,0.13,0.061,0.224,0.061,0.281
		c0,0.205-0.203,0.306-0.612,0.306h-3.702l-0.33-0.011c-0.377,0-0.564-0.107-0.564-0.319c0-0.073,0.053-0.224,0.158-0.454
		l2.391-5.306c0.072-0.163,0.137-0.241,0.195-0.233c0.115,0.009,0.222,0.143,0.319,0.406l0.098,0.257l1.924,4.853L162.556,62.837
		L162.556,62.837z M173.034,69.477c-0.131,0.67-0.544,1.054-1.238,1.154c-0.246,0.031-0.368,0.115-0.368,0.25
		c0,0.176,0.114,0.264,0.343,0.264c0.163,0,0.441-0.026,0.832-0.074c0.271-0.033,0.597-0.049,0.981-0.049
		c0.385,0,0.904,0.021,1.558,0.061l0.993,0.061l1.14,0.049l0.944,0.037c1.706,0,3.114-0.487,4.222-1.463
		c1.107-0.976,1.659-2.214,1.659-3.716c0-1.004-0.289-1.894-0.869-2.67c-0.58-0.775-1.321-1.265-2.22-1.469
		c-0.417-0.089-0.629-0.174-0.636-0.257c-0.009-0.048,0.049-0.109,0.17-0.183l0.527-0.369c1.08-0.719,1.618-1.729,1.618-3.03
		c0-1.26-0.517-2.25-1.549-2.969c-1.034-0.721-2.453-1.08-4.26-1.08c-0.384,0-0.792,0.012-1.224,0.036l-1.373,0.086
		c-0.327,0.017-0.794,0.024-1.397,0.024c-0.433,0-0.773-0.007-1.018-0.024c-0.351-0.016-0.559-0.025-0.625-0.025
		c-0.326,0-0.489,0.093-0.489,0.276c0,0.176,0.167,0.264,0.503,0.264c0.67,0,1.164,0.256,1.483,0.766
		c0.317,0.512,0.477,1.308,0.477,2.389v9.475C173.217,68.159,173.157,68.888,173.034,69.477L173.034,69.477L173.034,69.477z
		 M175.234,61.438c-0.094-0.073-0.141-0.252-0.141-0.538v-4.914c0-0.507,0.09-0.84,0.27-1c0.18-0.159,0.553-0.24,1.118-0.24
		c1.286,0,2.366,0.389,3.243,1.165c0.875,0.776,1.314,1.732,1.314,2.867c0,1.847-1.028,2.77-3.082,2.77h-2.027
		C175.559,61.549,175.328,61.512,175.234,61.438L175.234,61.438z M178.186,62.407c1.186,0,2.171,0.408,2.952,1.224
		c0.782,0.816,1.172,1.843,1.172,3.083c0,1.207-0.355,2.148-1.067,2.822c-0.712,0.672-1.711,1.007-2.995,1.007
		c-0.999,0-1.738-0.074-2.216-0.225c-0.479-0.15-0.776-0.402-0.89-0.752l-0.074-0.477l0.024-0.564v-5.653
		c0-0.203,0.039-0.332,0.115-0.385c0.078-0.053,0.265-0.079,0.56-0.079H178.186L178.186,62.407z M191.464,55.33
		c0.147-0.128,0.473-0.191,0.979-0.191h1.922c1.264,0,2.131,0.062,2.604,0.183c0.473,0.123,0.787,0.368,0.941,0.735
		c0.098,0.237,0.148,0.487,0.148,0.748v0.319c0,0.254,0.08,0.376,0.238,0.368c0.142-0.009,0.232-0.072,0.275-0.189
		c0.042-0.118,0.083-0.413,0.124-0.885l0.049-0.721c0.042-0.537,0.075-0.862,0.099-0.977c0.024-0.114,0.037-0.207,0.037-0.281
		c0-0.236-0.136-0.354-0.404-0.354c-0.107,0-0.27,0.017-0.49,0.049c-0.107,0.016-0.401,0.032-0.882,0.049l-1.74,0.085
		c-0.768,0.034-1.651,0.05-2.647,0.05c-1.642,0-3.048-0.067-4.217-0.197c-0.342-0.04-0.615-0.061-0.82-0.061
		c-0.368,0-0.551,0.113-0.551,0.336c0,0.152,0.118,0.229,0.355,0.229c0.743,0,1.244,0.202,1.501,0.607
		c0.257,0.405,0.386,1.192,0.386,2.363v10.371l-0.012,0.798c0,0.982-0.294,1.556-0.882,1.718l-0.466,0.136
		c-0.213,0.055-0.319,0.152-0.319,0.288c0,0.175,0.13,0.262,0.391,0.262c0.115,0,0.328-0.028,0.639-0.085
		c0.588-0.098,1.597-0.146,3.027-0.146c1.021,0,2.313,0.071,3.873,0.218c0.4,0.033,0.718,0.052,0.956,0.052
		c1.094,0,2.001-0.441,2.721-1.32c0.596-0.733,0.895-1.364,0.895-1.893c0-0.22-0.075-0.325-0.225-0.317
		c-0.093,0.009-0.185,0.082-0.278,0.221c-0.913,1.446-2.972,2.168-6.179,2.168c-1.011,0-1.642-0.085-1.891-0.257
		c-0.249-0.172-0.373-0.605-0.373-1.301V63.99l-0.012-0.406c0-0.245,0.067-0.409,0.202-0.491c0.134-0.081,0.401-0.122,0.8-0.122
		h2.704c0.701,0,1.199,0.097,1.492,0.293c0.294,0.197,0.488,0.569,0.587,1.116l0.074,0.344c0.033,0.179,0.137,0.268,0.314,0.268
		c0.158,0,0.237-0.102,0.237-0.305c0-0.074-0.007-0.192-0.023-0.355c-0.049-0.488-0.075-0.982-0.075-1.479
		c0-0.653,0.037-1.374,0.109-2.164c0.01-0.122,0.015-0.211,0.015-0.269c0-0.212-0.08-0.321-0.239-0.33
		c-0.167-0.008-0.271,0.09-0.312,0.295c-0.107,0.538-0.226,0.883-0.357,1.029c-0.13,0.147-0.417,0.265-0.857,0.355
		c-0.499,0.098-1.177,0.146-2.034,0.146h-1.887c-0.352,0-0.563-0.039-0.631-0.116c-0.07-0.078-0.104-0.305-0.104-0.683v-4.945
		C191.245,55.738,191.317,55.457,191.464,55.33L191.464,55.33z M214.419,58.317c0-1.398-0.478-2.451-1.434-3.159
		c-0.956-0.706-2.374-1.061-4.253-1.061c-0.499,0-1.075,0.02-1.728,0.062c-0.907,0.056-1.548,0.085-1.924,0.085
		c-0.434,0-0.796-0.012-1.091-0.036c-0.506-0.033-0.792-0.049-0.858-0.049c-0.278,0-0.417,0.083-0.417,0.251
		c0,0.145,0.131,0.24,0.392,0.287l0.576,0.087c0.891,0.146,1.336,0.858,1.336,2.136l0.024,1.277v8.812
		c0,1.383-0.102,2.311-0.306,2.782c-0.205,0.471-0.634,0.766-1.287,0.89c-0.205,0.038-0.305,0.118-0.305,0.238
		c0,0.168,0.101,0.25,0.305,0.25c0.123,0,0.343-0.015,0.662-0.049c0.391-0.039,0.727-0.061,1.005-0.061l0.637-0.01l1.177,0.012
		c0.702,0,1.221,0.018,1.557,0.054c0.368,0.037,0.608,0.054,0.722,0.054c0.287,0,0.423-0.078,0.406-0.238
		c-0.009-0.152-0.159-0.243-0.453-0.276c-0.737-0.075-1.279-0.25-1.63-0.528c-0.262-0.205-0.428-0.436-0.496-0.696
		c-0.069-0.257-0.104-0.738-0.104-1.444l-0.012-0.492v-3.837c0-0.205,0.049-0.336,0.147-0.393l0.27-0.05h1.63
		c0.441,0,0.76,0.169,0.956,0.503l0.172,0.27l3.052,4.657c0.604,0.915,1.2,1.574,1.783,1.979c0.585,0.405,1.244,0.607,1.979,0.607
		c0.449,0,0.852-0.05,1.207-0.149c0.355-0.101,0.537-0.212,0.545-0.337c0.007-0.108-0.061-0.167-0.208-0.175l-0.392-0.026
		c-0.882-0.056-1.847-0.851-2.892-2.383l-0.392-0.587l-3.383-4.988C213.41,61.582,214.419,60.158,214.419,58.317L214.419,58.317
		L214.419,58.317z M207.073,62.167c-0.103-0.103-0.154-0.346-0.154-0.732v-4.992l-0.012-0.405c0-0.418,0.092-0.708,0.277-0.868
		c0.184-0.159,0.517-0.24,1-0.24c1.294,0,2.358,0.383,3.194,1.15c0.835,0.767,1.253,1.745,1.253,2.933
		c0,1.024-0.308,1.832-0.922,2.422c-0.613,0.59-1.457,0.885-2.529,0.885h-1.389C207.414,62.321,207.175,62.27,207.073,62.167
		L207.073,62.167z M232.715,68.547c-1.07,1.34-2.553,2.01-4.449,2.01c-1.985,0-3.65-0.803-4.994-2.405
		c-1.343-1.602-2.016-3.596-2.016-5.978c0-2.219,0.585-4.03,1.754-5.433c1.171-1.403,2.679-2.105,4.527-2.105
		c1.479,0,2.882,0.408,4.206,1.222c1.326,0.816,2.308,1.874,2.945,3.179c0.074,0.147,0.164,0.216,0.27,0.207
		c0.163-0.007,0.246-0.11,0.246-0.306c0-0.09-0.022-0.208-0.062-0.355c-0.074-0.31-0.13-0.621-0.172-0.931l-0.122-1.152
		c-0.049-0.376-0.074-0.654-0.074-0.833c0-0.384-0.074-0.576-0.221-0.576c-0.058,0-0.114,0.024-0.171,0.073l-0.294,0.221
		c-0.098,0.065-0.175,0.097-0.233,0.097c-0.041,0-0.11-0.032-0.208-0.097c-0.646-0.417-1.51-0.765-2.592-1.042
		c-1.082-0.278-2.105-0.417-3.069-0.417c-2.501,0-4.583,0.858-6.246,2.574c-1.663,1.716-2.494,3.861-2.494,6.434
		c0,2.451,0.784,4.463,2.353,6.035c1.569,1.574,3.579,2.359,6.03,2.359c1.831,0,3.542-0.461,5.135-1.382l0.809-0.479
		c0.457-0.261,0.798-0.409,1.017-0.442c0.188-0.024,0.306-0.056,0.357-0.097l0.072-0.184l-0.023-0.393V64.42l-0.013-0.393
		c0-0.753,0.31-1.204,0.931-1.35c0.245-0.064,0.368-0.165,0.368-0.3c0-0.152-0.094-0.227-0.282-0.227
		c-0.091,0-0.418,0.02-0.983,0.061c-0.205,0.016-0.938,0.025-2.199,0.025l-0.922-0.013l-0.491-0.011
		c-0.287,0-0.425,0.075-0.418,0.227c0.009,0.176,0.172,0.28,0.49,0.311c0.654,0.049,1.088,0.165,1.305,0.344
		c0.216,0.18,0.325,0.518,0.325,1.017v2.759C233.108,67.66,232.976,68.22,232.715,68.547L232.715,68.547L232.715,68.547z
		 M243.426,55.33c0.147-0.128,0.473-0.191,0.979-0.191h1.921c1.264,0,2.132,0.062,2.605,0.183c0.473,0.123,0.787,0.368,0.941,0.735
		c0.098,0.237,0.147,0.487,0.147,0.748v0.319c0,0.254,0.078,0.376,0.239,0.368c0.14-0.009,0.231-0.072,0.274-0.189
		c0.042-0.118,0.082-0.413,0.124-0.885l0.049-0.721c0.042-0.537,0.074-0.862,0.098-0.977c0.025-0.114,0.038-0.207,0.038-0.281
		c0-0.236-0.136-0.354-0.406-0.354c-0.105,0-0.268,0.017-0.489,0.049c-0.108,0.016-0.401,0.032-0.882,0.049l-1.742,0.085
		c-0.767,0.034-1.65,0.05-2.646,0.05c-1.644,0-3.049-0.067-4.217-0.197c-0.342-0.04-0.616-0.061-0.821-0.061
		c-0.368,0-0.551,0.113-0.551,0.336c0,0.152,0.119,0.229,0.357,0.229c0.743,0,1.243,0.202,1.5,0.607
		c0.257,0.405,0.387,1.192,0.387,2.363v10.371l-0.012,0.798c0,0.982-0.295,1.556-0.882,1.718l-0.466,0.136
		c-0.213,0.055-0.319,0.152-0.319,0.288c0,0.175,0.13,0.262,0.391,0.262c0.114,0,0.327-0.028,0.637-0.085
		c0.589-0.098,1.598-0.146,3.027-0.146c1.022,0,2.311,0.071,3.873,0.218c0.401,0.033,0.719,0.052,0.957,0.052
		c1.093,0,2.001-0.441,2.721-1.32c0.596-0.733,0.895-1.364,0.895-1.893c0-0.22-0.076-0.325-0.228-0.317
		c-0.091,0.009-0.183,0.082-0.276,0.221c-0.913,1.446-2.973,2.168-6.179,2.168c-1.011,0-1.642-0.085-1.891-0.257
		c-0.249-0.172-0.373-0.605-0.373-1.301V63.99l-0.013-0.406c0-0.245,0.069-0.409,0.202-0.491c0.135-0.081,0.402-0.122,0.802-0.122
		h2.702c0.701,0,1.199,0.097,1.493,0.293c0.292,0.197,0.488,0.569,0.587,1.116l0.072,0.344c0.033,0.179,0.139,0.268,0.314,0.268
		c0.158,0,0.238-0.102,0.238-0.305c0-0.074-0.007-0.192-0.023-0.355c-0.049-0.488-0.075-0.982-0.075-1.479
		c0-0.653,0.037-1.374,0.109-2.164c0.008-0.122,0.013-0.211,0.013-0.269c0-0.212-0.078-0.321-0.238-0.33
		c-0.167-0.008-0.271,0.09-0.314,0.295c-0.105,0.538-0.224,0.883-0.355,1.029c-0.13,0.147-0.417,0.265-0.857,0.355
		c-0.5,0.098-1.178,0.146-2.034,0.146h-1.887c-0.352,0-0.563-0.039-0.631-0.116c-0.071-0.078-0.104-0.305-0.104-0.683v-4.945
		C243.206,55.738,243.279,55.457,243.426,55.33L243.426,55.33z M247.499,50.589l0.194-0.219c0.114-0.13,0.17-0.249,0.17-0.355
		c0-0.317-0.167-0.475-0.5-0.475c-0.634,0-1.012,0.014-1.14,0.043c-0.125,0.029-0.224,0.128-0.297,0.298l-0.283,0.648
		c-0.065,0.154-0.221,0.493-0.466,1.014l-0.257,0.561c-0.089,0.196-0.134,0.354-0.134,0.477c0,0.171,0.077,0.256,0.234,0.256
		c0.141,0,0.435-0.163,0.88-0.488L247.499,50.589L247.499,50.589z"/>
	<path fill="#CFAB43" d="M108.463,38.967l0.039,1.61c0,0.594-0.066,1.009-0.197,1.245c-0.131,0.237-0.392,0.409-0.779,0.514
		c-0.165,0.045-0.247,0.118-0.247,0.221c0,0.115,0.095,0.173,0.286,0.173c0.105,0,0.499-0.017,1.182-0.054
		c0.44-0.029,0.761-0.044,0.965-0.044c0.294,0,0.57,0.014,0.826,0.039l0.769,0.08c0.091,0.007,0.174,0.01,0.247,0.01
		c0.242,0,0.364-0.065,0.364-0.192c0-0.123-0.175-0.21-0.525-0.26c-0.486-0.074-0.82-0.219-1.006-0.435
		c-0.184-0.219-0.276-0.578-0.276-1.078l-0.05-1.245l-0.186-5.366l-0.06-2.382c0-0.757,0.068-1.302,0.202-1.635
		c0.134-0.333,0.37-0.539,0.705-0.618l0.426-0.108c0.131-0.032,0.197-0.11,0.197-0.232c0-0.134-0.067-0.199-0.197-0.192
		c-0.073,0.006-0.169,0.012-0.287,0.02c-0.25,0.027-0.582,0.04-0.995,0.04c-0.133,0-0.241-0.004-0.327-0.01
		c-0.236-0.027-0.381-0.04-0.433-0.04c-0.124,0-0.211,0.026-0.262,0.074c-0.048,0.051-0.122,0.18-0.221,0.39l-4.634,9.935
		l-0.088,0.198l-0.118,0.267c-0.06,0.126-0.109,0.187-0.148,0.187c-0.032,0-0.086-0.085-0.157-0.256l-0.504-1.015l-4.111-8.87
		l-0.108-0.228c-0.191-0.414-0.428-0.621-0.711-0.621c-0.092,0-0.215,0.01-0.364,0.029c-0.145,0.012-0.486,0.019-1.026,0.019
		c-0.354,0-0.579-0.007-0.669-0.019c-0.159-0.013-0.267-0.02-0.327-0.02c-0.164,0-0.246,0.07-0.246,0.212
		c0,0.129,0.099,0.21,0.295,0.242c0.723,0.131,1.24,0.479,1.549,1.042c0.31,0.562,0.464,1.43,0.464,2.602
		c0,0.546-0.05,1.856-0.148,3.93l-0.137,2.863c-0.039,0.81-0.156,1.382-0.346,1.719c-0.191,0.336-0.525,0.559-1.005,0.671
		c-0.159,0.032-0.238,0.103-0.238,0.213c0,0.141,0.099,0.212,0.296,0.212c0.074,0,0.174-0.01,0.305-0.031
		c0.44-0.058,0.9-0.086,1.377-0.086c0.401,0,0.969,0.032,1.704,0.099c0.118,0.012,0.24,0.019,0.364,0.019
		c0.191,0,0.285-0.074,0.285-0.223c0-0.129-0.2-0.226-0.603-0.291c-0.814-0.125-1.222-0.766-1.222-1.923
		c0-1.203,0.01-2.007,0.029-2.408l0.227-4.884l3.71,8.004l0.197,0.414c0.158,0.302,0.25,0.482,0.276,0.542
		c0.142,0.322,0.292,0.484,0.449,0.484c0.148,0,0.29-0.155,0.418-0.464c0.035-0.071,0.093-0.197,0.178-0.375
		c0.152-0.296,0.33-0.672,0.536-1.134c0.501-1.117,0.778-1.734,0.83-1.852l1.007-2.071l0.881-1.882
		c0.185-0.382,0.557-1.063,1.118-2.041L108.463,38.967L108.463,38.967z M122.049,37.567c0.079,0.056,0.188,0.265,0.325,0.627
		l0.493,1.306c0.401,1.041,0.603,1.737,0.603,2.085c0,0.383-0.165,0.606-0.494,0.672l-0.306,0.07
		c-0.164,0.032-0.246,0.099-0.246,0.202c0,0.134,0.086,0.202,0.255,0.202c0.067,0,0.168-0.012,0.308-0.038
		c0.229-0.04,0.801-0.06,1.718-0.06c0.873,0,1.482,0.017,1.825,0.051c0.19,0.012,0.315,0.019,0.375,0.019
		c0.177,0,0.268-0.055,0.276-0.165c0.006-0.121-0.093-0.202-0.298-0.24c-0.624-0.111-1.038-0.265-1.243-0.459
		c-0.203-0.194-0.458-0.691-0.77-1.488l-0.216-0.533l-4.242-10.868c-0.073-0.191-0.162-0.288-0.267-0.288
		c-0.105,0-0.2,0.1-0.286,0.297l-5.071,11.267l-0.286,0.651c-0.146,0.302-0.33,0.594-0.553,0.873
		c-0.225,0.281-0.401,0.439-0.533,0.48l-0.366,0.109c-0.111,0.034-0.167,0.105-0.167,0.212c0,0.121,0.088,0.182,0.265,0.182
		c0.032,0,0.217-0.017,0.552-0.054c0.105-0.01,0.252-0.015,0.443-0.015c0.414,0,0.778,0.008,1.093,0.023l0.944,0.055
		c0.151,0.009,0.262,0.012,0.335,0.012c0.19,0,0.283-0.055,0.276-0.163c-0.008-0.115-0.11-0.193-0.308-0.232
		c-0.452-0.099-0.758-0.216-0.911-0.355c-0.155-0.14-0.233-0.363-0.233-0.673c0-0.324,0.148-0.819,0.438-1.482l0.648-1.454
		c0.197-0.449,0.354-0.712,0.474-0.792c0.118-0.08,0.42-0.118,0.907-0.118h3.573C121.747,37.482,121.97,37.51,122.049,37.567
		L122.049,37.567z M121.545,36.071c0.034,0.105,0.05,0.181,0.05,0.228c0,0.164-0.166,0.246-0.493,0.246h-2.98l-0.267-0.01
		c-0.303,0-0.454-0.085-0.454-0.256c0-0.059,0.042-0.182,0.127-0.366l1.926-4.271c0.058-0.132,0.112-0.194,0.157-0.188
		c0.092,0.007,0.178,0.115,0.257,0.325l0.079,0.207l1.549,3.907L121.545,36.071L121.545,36.071z M132.379,29.678l0.513-0.197
		c0.172-0.058,0.257-0.143,0.257-0.26c0-0.123-0.088-0.184-0.267-0.184c-0.038,0-0.121,0.005-0.247,0.011l-0.662,0.055
		c-0.347,0.023-0.765,0.032-1.252,0.032c-0.795,0-1.433-0.029-1.914-0.087c-0.066-0.006-0.124-0.011-0.178-0.011
		c-0.197,0-0.293,0.071-0.286,0.213c0.006,0.114,0.111,0.192,0.317,0.231c0.61,0.099,1.01,0.289,1.197,0.574
		c0.187,0.282,0.282,0.831,0.282,1.649v8.46c0,0.837-0.073,1.385-0.218,1.645c-0.145,0.26-0.467,0.434-0.966,0.519
		c-0.203,0.032-0.305,0.105-0.305,0.222c0,0.134,0.087,0.202,0.265,0.202c0.126,0,0.283-0.01,0.474-0.029l1.163-0.07l1.433,0.022
		c0.493,0,0.841,0.015,1.045,0.045c0.151,0.02,0.276,0.032,0.374,0.032c0.204,0,0.308-0.077,0.308-0.231
		c0-0.117-0.166-0.197-0.495-0.242c-0.414-0.059-0.717-0.159-0.912-0.296c-0.194-0.139-0.357-0.377-0.488-0.713
		c-0.112-0.296-0.168-0.905-0.168-1.83v-7.397C131.649,30.65,131.891,29.863,132.379,29.678L132.379,29.678L132.379,29.678z
		 M137.101,29.904c-0.794,0.67-1.191,1.539-1.191,2.603c0,0.953,0.304,1.729,0.913,2.328c0.607,0.597,1.64,1.143,3.097,1.636
		c1.416,0.474,2.267,0.839,2.564,1.096c0.577,0.501,0.868,1.117,0.868,1.848c0,0.763-0.315,1.412-0.94,1.944
		c-0.629,0.534-1.392,0.8-2.298,0.8c-0.892,0-1.718-0.276-2.479-0.83c-0.761-0.555-1.26-1.24-1.496-2.059
		c-0.094-0.317-0.202-0.478-0.322-0.485c-0.134-0.006-0.202,0.089-0.202,0.285c0,0.25,0.086,0.671,0.257,1.263
		c0.151,0.547,0.233,0.846,0.246,0.898c0.08,0.368,0.138,0.598,0.178,0.685c0.04,0.089,0.118,0.173,0.238,0.252
		c0.283,0.191,0.727,0.359,1.336,0.503c0.608,0.146,1.167,0.219,1.672,0.219c1.402,0,2.55-0.391,3.444-1.173
		c0.895-0.783,1.343-1.788,1.343-3.019c0-1.813-1.216-3.118-3.647-3.914c-1.246-0.414-2.03-0.702-2.348-0.858
		c-0.32-0.159-0.613-0.409-0.882-0.752c-0.309-0.401-0.463-0.879-0.463-1.431c0-0.626,0.237-1.148,0.713-1.566
		c0.476-0.418,1.067-0.627,1.775-0.627c0.892,0,1.702,0.232,2.425,0.692c0.724,0.463,1.205,1.052,1.44,1.764
		c0.107,0.316,0.216,0.474,0.321,0.474c0.141,0,0.212-0.102,0.212-0.306c0-0.052-0.016-0.188-0.049-0.404l-0.158-1.017
		c-0.085-0.552-0.129-0.885-0.129-0.996c0-0.33-0.082-0.49-0.245-0.483c-0.054,0-0.09,0.012-0.109,0.039l-0.138,0.118
		c-0.08,0.066-0.158,0.1-0.235,0.1c-0.06,0-0.12-0.014-0.179-0.04l-0.68-0.286c-0.489-0.203-1.083-0.306-1.787-0.306
		C138.913,28.898,137.892,29.233,137.101,29.904L137.101,29.904z M151.016,29.456c-0.947,0.37-1.729,0.871-2.347,1.504
		c-0.587,0.597-1.052,1.342-1.397,2.232c-0.346,0.89-0.518,1.789-0.518,2.696c0,2.09,0.656,3.78,1.968,5.068
		c1.314,1.289,3.031,1.934,5.156,1.934c2.072,0,3.774-0.674,5.102-2.022c1.329-1.347,1.993-3.073,1.993-5.177
		c0-1.985-0.661-3.613-1.978-4.885c-1.32-1.273-3.009-1.908-5.066-1.908C152.934,28.898,151.962,29.084,151.016,29.456
		L151.016,29.456z M157.744,31.504c1.191,1.312,1.788,2.948,1.788,4.912c0,1.708-0.499,3.118-1.492,4.232
		c-0.995,1.112-2.256,1.67-3.785,1.67c-1.67,0-3.081-0.683-4.229-2.05c-1.15-1.367-1.723-3.044-1.723-5.035
		c0-1.74,0.45-3.124,1.348-4.153c0.896-1.026,2.11-1.54,3.639-1.54C155.066,29.54,156.553,30.195,157.744,31.504L157.744,31.504z
		 M175.406,32.293v-1.067c0-0.631,0.064-1.062,0.194-1.292c0.128-0.232,0.392-0.394,0.794-0.493c0.137-0.04,0.203-0.101,0.196-0.188
		c-0.012-0.139-0.103-0.208-0.276-0.208c-0.112,0-0.273,0.021-0.483,0.06c-0.245,0.039-0.57,0.06-0.977,0.06
		c-0.764,0-1.373-0.024-1.826-0.073c-0.19-0.017-0.33-0.026-0.414-0.026c-0.191,0-0.287,0.06-0.287,0.183
		c0,0.127,0.096,0.208,0.287,0.241c0.677,0.111,1.146,0.284,1.406,0.518c0.261,0.233,0.422,0.629,0.488,1.189l0.119,2.269
		l-0.01,1.333v4.883c-0.006,0.118-0.042,0.181-0.109,0.188c-0.037,0.006-0.13-0.073-0.276-0.236l-9.078-10.282
		c-0.164-0.191-0.328-0.286-0.493-0.286c-0.085,0-0.207,0.004-0.364,0.01l-0.159,0.009l-0.662-0.02l-0.404-0.01
		c-0.072-0.006-0.125-0.011-0.156-0.011c-0.146,0-0.218,0.062-0.218,0.184c0,0.121,0.088,0.196,0.266,0.222
		c0.684,0.092,1.208,0.466,1.57,1.12c0.36,0.655,0.542,1.552,0.542,2.69v6.715c0,0.711-0.097,1.227-0.291,1.546
		c-0.195,0.32-0.569,0.574-1.121,0.765c-0.191,0.065-0.282,0.145-0.275,0.243c0.012,0.121,0.105,0.183,0.275,0.183
		c0.072,0,0.195-0.013,0.366-0.035c0.23-0.031,0.473-0.045,0.729-0.045l0.474-0.018l1.005,0.048c0.503,0.028,0.788,0.047,0.859,0.06
		c0.107,0.012,0.205,0.019,0.298,0.019c0.137,0,0.207-0.064,0.207-0.192c0-0.142-0.109-0.227-0.327-0.252
		c-0.518-0.078-0.868-0.201-1.047-0.366c-0.176-0.164-0.288-0.463-0.335-0.898l-0.028-0.7l0.01-0.415v-6.696
		c0-0.298,0.061-0.445,0.188-0.445c0.053,0,0.098,0.019,0.137,0.058l0.098,0.109l8.318,9.512l0.218,0.257
		c0.053,0.051,0.128,0.082,0.226,0.089c0.153,0.006,0.245-0.071,0.277-0.233c0.033-0.16,0.049-0.613,0.049-1.356v-8.269
		L175.406,32.293L175.406,32.293z"/>
	<path fill="#C6AB4C" d="M91.19,80.526c0.131-0.066,0.463-0.1,0.998-0.1c0.413,0,0.751,0.008,1.02,0.034l0.847,0.088
		c0.32,0.028,0.528,0.075,0.621,0.146c0.094,0.071,0.172,0.227,0.234,0.474c0.039,0.151,0.065,0.305,0.08,0.452
		c0.009,0.121,0.051,0.18,0.125,0.18c0.129,0,0.192-0.113,0.192-0.331c0-0.528,0.041-0.947,0.122-1.261
		c0.023-0.102,0.035-0.181,0.035-0.235c0-0.113-0.053-0.168-0.157-0.168c-0.068,0-0.148,0.009-0.238,0.029
		c-0.124,0.026-0.403,0.047-0.837,0.063l-1,0.05c-0.26,0.017-0.843,0.022-1.752,0.022c-1.017,0-1.74-0.022-2.167-0.064
		c-0.236-0.024-0.385-0.038-0.447-0.038c-0.201,0-0.298,0.064-0.289,0.185c0.004,0.075,0.064,0.118,0.18,0.126
		c0.283,0.024,0.482,0.066,0.599,0.121c0.116,0.059,0.221,0.168,0.316,0.335c0.15,0.244,0.225,0.596,0.225,1.053v6.5
		c0,0.469-0.055,0.805-0.167,0.998c-0.109,0.189-0.32,0.319-0.627,0.386c-0.148,0.033-0.223,0.088-0.223,0.163
		c0,0.088,0.071,0.13,0.211,0.126c0.077-0.004,0.199-0.012,0.366-0.021c0.208-0.021,0.372-0.029,0.491-0.029l0.556-0.005
		l0.498,0.005c0.314,0,0.55,0.012,0.708,0.033c0.187,0.021,0.335,0.034,0.439,0.034c0.155,0,0.225-0.055,0.217-0.164
		c-0.004-0.092-0.088-0.142-0.253-0.142c-0.339,0-0.612-0.113-0.814-0.339c-0.201-0.227-0.302-0.532-0.302-0.909v-2.688
		c0-0.196,0.012-0.343,0.036-0.435c0.02-0.088,0.114-0.138,0.284-0.168c0.17-0.021,0.54-0.033,1.116-0.033
		c0.621,0,1.092,0.042,1.412,0.121c0.159,0.042,0.27,0.104,0.337,0.197c0.068,0.092,0.131,0.263,0.187,0.515
		c0.053,0.239,0.127,0.353,0.221,0.353c0.088,0,0.133-0.055,0.133-0.173c0-0.042-0.006-0.109-0.015-0.201
		c-0.02-0.151-0.028-0.507-0.028-1.069c0-0.201,0.002-0.348,0.006-0.44l0.043-0.708c0.01-0.151-0.033-0.222-0.127-0.222
		c-0.077,0-0.127,0.054-0.145,0.171c-0.054,0.319-0.181,0.549-0.382,0.679c-0.2,0.134-0.522,0.201-0.962,0.201l-0.846,0.012
		l-0.236,0.009l-0.618-0.016c-0.254,0-0.391-0.064-0.408-0.194v-0.189l-0.008-0.134v-2.851
		C90.998,80.779,91.062,80.598,91.19,80.526L91.19,80.526z M97.178,84.676c-0.625,0.613-0.936,1.358-0.936,2.226
		c0,0.906,0.295,1.644,0.882,2.222c0.588,0.578,1.34,0.868,2.251,0.868c0.932,0,1.702-0.298,2.314-0.892
		c0.609-0.596,0.914-1.346,0.914-2.26c0-0.838-0.309-1.564-0.93-2.172c-0.619-0.603-1.36-0.909-2.224-0.909
		C98.56,83.758,97.803,84.068,97.178,84.676L97.178,84.676z M100.934,84.941c0.432,0.594,0.646,1.367,0.646,2.314
		c0,0.75-0.171,1.341-0.513,1.777c-0.343,0.44-0.811,0.658-1.405,0.658c-0.683,0-1.251-0.31-1.709-0.927
		c-0.459-0.616-0.686-1.384-0.686-2.302c0-0.721,0.183-1.303,0.549-1.748c0.367-0.444,0.85-0.667,1.449-0.667
		C99.945,84.047,100.502,84.345,100.934,84.941L100.934,84.941z M105.947,84.094c0-0.109,0.002-0.197,0.006-0.277
		c0.009-0.139-0.03-0.21-0.115-0.21c-0.047,0-0.105,0.021-0.171,0.059c-0.039,0.017-0.133,0.067-0.282,0.138l-0.382,0.189
		c-0.298,0.134-0.607,0.234-0.93,0.293c-0.124,0.026-0.188,0.071-0.188,0.143c0,0.045,0.023,0.083,0.066,0.101
		c0.032,0.021,0.072,0.029,0.115,0.029l0.311-0.009c0.225,0,0.377,0.062,0.461,0.184c0.082,0.121,0.123,0.357,0.123,0.696v3.253
		c0,0.277-0.043,0.478-0.127,0.603c-0.083,0.123-0.248,0.232-0.493,0.315c-0.086,0.038-0.133,0.083-0.137,0.142
		c-0.004,0.08,0.038,0.118,0.131,0.118c0.043,0,0.137-0.009,0.287-0.026c0.149-0.021,0.606-0.029,1.37-0.029
		c0.36,0,0.586,0.005,0.676,0.014c0.164,0.029,0.286,0.042,0.367,0.042c0.112,0,0.167-0.042,0.167-0.135
		c0-0.087-0.08-0.137-0.238-0.155c-0.645-0.038-0.979-0.26-1.003-0.662l-0.007-0.362l-0.006-0.217v-2.75
		c0-0.302,0.155-0.57,0.465-0.805c0.309-0.234,0.665-0.352,1.065-0.352c0.567,0,1.005,0.18,1.314,0.54
		c0.308,0.365,0.462,0.876,0.462,1.543v2.486c0,0.293-0.094,0.469-0.287,0.516l-0.217,0.059c-0.086,0.016-0.129,0.066-0.129,0.137
		c0,0.055,0.017,0.093,0.049,0.114l0.1,0.021l0.209-0.012h0.275l0.71-0.022c0.426,0,0.719,0.009,0.878,0.029
		c0.132,0.017,0.227,0.026,0.279,0.026c0.162,0,0.242-0.05,0.238-0.156c-0.006-0.075-0.074-0.121-0.202-0.137l-0.302-0.043
		c-0.352-0.054-0.554-0.239-0.605-0.558l-0.021-0.343l0.006-0.218V86.68c0-0.885-0.155-1.542-0.461-1.974
		c-0.447-0.629-1.055-0.947-1.822-0.947c-0.694,0-1.361,0.382-2.003,1.148V84.094L105.947,84.094z M117.177,89.634
		c0,0.244,0.056,0.36,0.165,0.357c0.054,0,0.127-0.026,0.217-0.08c0.108-0.054,0.32-0.1,0.637-0.151l0.403-0.062
		c0.054-0.013,0.18-0.026,0.379-0.047c0.17-0.017,0.259-0.08,0.259-0.18c0-0.059-0.024-0.097-0.078-0.113l-0.065-0.009l-0.424,0.016
		c-0.333,0-0.498-0.272-0.498-0.817v-9.154l-0.007-0.13c0-0.105-0.037-0.159-0.109-0.159c-0.039,0-0.084,0.017-0.137,0.05
		c-0.631,0.381-1.196,0.599-1.691,0.662c-0.15,0.022-0.219,0.08-0.211,0.176c0.006,0.059,0.032,0.092,0.08,0.113
		c0.03,0.009,0.059,0.014,0.094,0.014l0.251-0.014c0.491-0.029,0.735,0.412,0.735,1.325v2.838c-0.581-0.339-1.161-0.512-1.74-0.512
		c-0.854,0-1.575,0.319-2.162,0.952c-0.586,0.632-0.881,1.412-0.881,2.33c0,0.835,0.245,1.534,0.737,2.101
		c0.491,0.57,1.101,0.85,1.825,0.85c0.383,0,0.727-0.071,1.032-0.218c0.304-0.147,0.701-0.428,1.19-0.847V89.634L117.177,89.634z
		 M116.735,89.002c-0.293,0.239-0.676,0.364-1.143,0.364c-0.637,0-1.19-0.289-1.655-0.868c-0.468-0.579-0.7-1.261-0.7-2.049
		c0-0.717,0.178-1.299,0.534-1.739c0.356-0.44,0.825-0.663,1.403-0.663c0.651,0,1.213,0.23,1.687,0.684
		c0.211,0.201,0.315,0.52,0.315,0.951v2.373C117.177,88.445,117.03,88.758,116.735,89.002L116.735,89.002z M124.099,86.223
		l0.489,0.017l0.534,0.004c0.314,0,0.469-0.08,0.469-0.239c0-0.108-0.06-0.302-0.18-0.577c-0.119-0.282-0.238-0.504-0.353-0.667
		c-0.482-0.667-1.121-1.003-1.924-1.003c-0.735,0-1.375,0.315-1.923,0.944c-0.549,0.624-0.821,1.353-0.821,2.187
		c0,0.88,0.266,1.614,0.797,2.21c0.529,0.594,1.186,0.892,1.969,0.892c0.696,0,1.355-0.243,1.98-0.729
		c0.337-0.265,0.504-0.469,0.504-0.611c0-0.08-0.033-0.118-0.101-0.114c-0.033,0.005-0.067,0.021-0.107,0.05
		c-0.616,0.469-1.187,0.705-1.71,0.705c-0.665,0-1.224-0.277-1.679-0.838c-0.455-0.563-0.683-1.249-0.683-2.071l0.006-0.159H124.099
		L124.099,86.223z M121.899,84.542c0.262-0.315,0.59-0.474,0.983-0.474c0.379,0,0.732,0.159,1.055,0.483
		c0.325,0.322,0.488,0.674,0.488,1.048c0,0.151-0.191,0.23-0.569,0.23h-2.442C121.476,85.284,121.636,84.856,121.899,84.542
		L121.899,84.542z M124.288,81.662l0.108-0.125c0.066-0.076,0.099-0.143,0.099-0.197c0-0.18-0.094-0.269-0.281-0.269
		c-0.359,0-0.574,0.009-0.647,0.026c-0.072,0.016-0.129,0.075-0.168,0.167l-0.153,0.369c-0.033,0.076-0.119,0.26-0.254,0.563
		c-0.142,0.301-0.214,0.499-0.219,0.578c-0.004,0.096,0.039,0.142,0.131,0.142c0.077,0,0.24-0.088,0.489-0.272L124.288,81.662
		L124.288,81.662z M130.582,86.223l0.489,0.017l0.534,0.004c0.314,0,0.469-0.08,0.469-0.239c0-0.108-0.06-0.302-0.18-0.577
		c-0.119-0.282-0.238-0.504-0.354-0.667c-0.478-0.667-1.12-1.003-1.923-1.003c-0.733,0-1.375,0.315-1.923,0.944
		c-0.547,0.624-0.821,1.353-0.821,2.187c0,0.88,0.266,1.614,0.797,2.21c0.529,0.594,1.186,0.892,1.969,0.892
		c0.697,0,1.355-0.243,1.98-0.729c0.337-0.265,0.505-0.469,0.505-0.611c0-0.08-0.034-0.118-0.102-0.114
		c-0.033,0.005-0.067,0.021-0.107,0.05c-0.617,0.469-1.188,0.705-1.71,0.705c-0.665,0-1.224-0.277-1.679-0.838
		c-0.455-0.563-0.683-1.249-0.683-2.071l0.009-0.159H130.582L130.582,86.223z M128.382,84.542c0.262-0.315,0.59-0.474,0.985-0.474
		c0.377,0,0.729,0.159,1.053,0.483c0.325,0.322,0.488,0.674,0.488,1.048c0,0.151-0.191,0.23-0.569,0.23h-2.443
		C127.959,85.284,128.12,84.856,128.382,84.542L128.382,84.542z M141.047,86.223l0.493,0.017l0.534,0.004
		c0.31,0,0.467-0.08,0.467-0.239c0-0.108-0.061-0.302-0.178-0.577c-0.121-0.282-0.239-0.504-0.353-0.667
		c-0.482-0.667-1.123-1.003-1.925-1.003c-0.735,0-1.378,0.315-1.922,0.944c-0.549,0.624-0.824,1.353-0.824,2.187
		c0,0.88,0.266,1.614,0.797,2.21c0.532,0.594,1.188,0.892,1.969,0.892c0.697,0,1.358-0.243,1.983-0.729
		c0.335-0.265,0.505-0.469,0.505-0.611c0-0.08-0.034-0.118-0.105-0.114c-0.03,0.005-0.066,0.021-0.104,0.05
		c-0.616,0.469-1.189,0.705-1.711,0.705c-0.664,0-1.223-0.277-1.68-0.838c-0.452-0.563-0.679-1.249-0.679-2.071l0.006-0.159H141.047
		L141.047,86.223z M138.851,84.542c0.261-0.315,0.587-0.474,0.983-0.474c0.379,0,0.732,0.159,1.057,0.483
		c0.325,0.322,0.484,0.674,0.484,1.048c0,0.151-0.189,0.23-0.569,0.23h-2.441C138.426,85.284,138.589,84.856,138.851,84.542
		L138.851,84.542z M145.785,84.094c0-0.109,0.003-0.197,0.006-0.277c0.009-0.139-0.029-0.21-0.116-0.21
		c-0.047,0-0.105,0.021-0.173,0.059c-0.037,0.017-0.131,0.067-0.281,0.138l-0.381,0.189c-0.298,0.134-0.608,0.234-0.929,0.293
		c-0.125,0.026-0.186,0.071-0.186,0.143c0,0.045,0.021,0.083,0.064,0.101c0.033,0.021,0.071,0.029,0.113,0.029l0.312-0.009
		c0.224,0,0.379,0.062,0.461,0.184c0.082,0.121,0.121,0.357,0.121,0.696v3.253c0,0.277-0.042,0.478-0.126,0.603
		c-0.083,0.123-0.249,0.232-0.491,0.315c-0.086,0.038-0.135,0.083-0.139,0.142c-0.005,0.08,0.038,0.118,0.13,0.118
		c0.044,0,0.14-0.009,0.289-0.026c0.146-0.021,0.603-0.029,1.368-0.029c0.362,0,0.587,0.005,0.678,0.014
		c0.161,0.029,0.284,0.042,0.366,0.042c0.111,0,0.168-0.042,0.168-0.135c0-0.087-0.08-0.137-0.239-0.155
		c-0.643-0.038-0.979-0.26-1.003-0.662l-0.006-0.362l-0.006-0.217v-2.75c0-0.302,0.153-0.57,0.466-0.805
		c0.308-0.234,0.664-0.352,1.065-0.352c0.565,0,1.005,0.18,1.311,0.54c0.31,0.365,0.463,0.876,0.463,1.543v2.486
		c0,0.293-0.097,0.469-0.289,0.516l-0.216,0.059c-0.086,0.016-0.13,0.066-0.13,0.137c0,0.055,0.018,0.093,0.05,0.114l0.101,0.021
		l0.207-0.012h0.277l0.708-0.022c0.428,0,0.718,0.009,0.878,0.029c0.135,0.017,0.229,0.026,0.279,0.026
		c0.163,0,0.243-0.05,0.239-0.156c-0.006-0.075-0.073-0.121-0.201-0.137l-0.304-0.043c-0.353-0.054-0.554-0.239-0.604-0.558
		l-0.023-0.343l0.006-0.218V86.68c0-0.885-0.152-1.542-0.461-1.974c-0.446-0.629-1.052-0.947-1.821-0.947
		c-0.691,0-1.36,0.382-2.001,1.148V84.094L145.785,84.094z M160.212,80.15c0.033-0.138,0.05-0.244,0.05-0.31
		c0-0.105-0.044-0.156-0.136-0.156c-0.033,0-0.101,0.038-0.201,0.121c-0.495,0.416-1.031,0.705-1.609,0.88
		c-0.527,0.156-0.795,0.324-0.805,0.512c-0.005,0.071,0.033,0.104,0.115,0.104c0.038,0,0.103-0.021,0.195-0.067
		c0.183-0.092,0.398-0.142,0.647-0.142c0.245,0,0.412,0.055,0.498,0.163c0.088,0.109,0.13,0.315,0.13,0.616v6.727
		c0,0.571-0.254,0.868-0.764,0.902l-0.405,0.029c-0.146,0.016-0.222,0.071-0.222,0.175c0,0.08,0.067,0.122,0.201,0.122
		c0.145,0,0.336-0.013,0.576-0.029c0.233-0.021,0.581-0.029,1.042-0.029l1.588,0.016l0.368,0.013c0.192,0,0.287-0.05,0.287-0.143
		c0-0.066-0.029-0.109-0.092-0.134c-0.049-0.017-0.111-0.029-0.189-0.029h-0.121c-0.476,0-0.797-0.088-0.965-0.268
		c-0.17-0.18-0.254-0.523-0.254-1.036v-7.049C160.147,80.673,160.168,80.342,160.212,80.15L160.212,80.15L160.212,80.15z
		 M166.953,87.757c-0.347,0.478-0.759,0.901-1.241,1.266c-0.479,0.369-0.934,0.603-1.364,0.708l-0.34,0.097
		c-0.162,0.033-0.243,0.101-0.243,0.188c0,0.109,0.08,0.164,0.237,0.164c0.455,0,0.974-0.151,1.556-0.453
		c0.581-0.305,1.135-0.712,1.663-1.228c0.679-0.65,1.206-1.4,1.582-2.247c0.376-0.842,0.565-1.692,0.565-2.553
		c0-1.114-0.304-2.049-0.912-2.799c-0.608-0.75-1.362-1.124-2.265-1.124c-0.841,0-1.543,0.331-2.108,0.994
		c-0.564,0.662-0.846,1.488-0.846,2.477c0,0.842,0.26,1.555,0.778,2.142c0.52,0.591,1.152,0.884,1.898,0.884
		c0.599,0,1.204-0.225,1.804-0.688c0.072-0.054,0.179-0.134,0.317-0.234C167.806,86.281,167.444,87.082,166.953,87.757
		L166.953,87.757L166.953,87.757z M167.533,81.177c0.451,0.636,0.675,1.412,0.675,2.321c0,0.67-0.153,1.199-0.467,1.585
		c-0.311,0.386-0.74,0.578-1.281,0.578c-0.64,0-1.186-0.31-1.635-0.935c-0.449-0.62-0.673-1.379-0.673-2.276
		c0-0.653,0.163-1.186,0.49-1.601c0.327-0.419,0.746-0.625,1.254-0.625C166.535,80.225,167.08,80.54,167.533,81.177L167.533,81.177z
		 M174.46,84.203c-0.706,1.496-1.174,2.574-1.4,3.244c-0.229,0.667-0.339,1.295-0.339,1.882c0,0.456,0.036,0.779,0.11,0.968
		c0.074,0.189,0.208,0.284,0.403,0.284c0.216,0,0.431-0.042,0.651-0.121c0.217-0.083,0.324-0.163,0.324-0.248
		c0-0.042-0.026-0.118-0.076-0.225c-0.154-0.319-0.233-0.675-0.233-1.061c0-1.169,0.418-2.813,1.248-4.933
		c0.696-1.79,1.045-3.001,1.045-3.642c0-0.151-0.029-0.256-0.083-0.31c-0.056-0.055-0.162-0.085-0.321-0.085l-0.287,0.009
		l-0.366,0.005h-2.517c-0.322,0-0.56-0.009-0.706-0.034c-0.123-0.016-0.232-0.021-0.332-0.021c-0.134,0-0.219,0.083-0.26,0.251
		l-0.127,0.654l-0.145,0.704c-0.033,0.156-0.053,0.31-0.053,0.462c0,0.205,0.067,0.305,0.197,0.305c0.077,0,0.135-0.08,0.174-0.239
		c0.086-0.39,0.245-0.658,0.487-0.809c0.239-0.154,0.626-0.23,1.163-0.23h2.504C175.52,81.633,175.168,82.698,174.46,84.203
		L174.46,84.203L174.46,84.203z M182.538,86.742c0.279,0,0.446-0.012,0.499-0.037c0.057-0.021,0.101-0.101,0.135-0.227l0.115-0.469
		l0.136-0.499c0.006-0.142-0.044-0.214-0.151-0.21c-0.04,0-0.085,0.024-0.136,0.067l-0.189,0.159
		c-0.191,0.154-0.439,0.234-0.74,0.234l-0.304-0.009v-5.378l0.009-0.255l-0.009-0.281c0-0.118-0.038-0.177-0.115-0.173
		c-0.183,0.009-1.039,1.091-2.574,3.237c-1.53,2.146-2.294,3.345-2.294,3.596c0,0.13,0.087,0.21,0.266,0.227
		c0.092,0.012,0.219,0.016,0.39,0.016l2.294-0.016l0.663,0.009h0.319v3.675l-0.007,0.21c0,0.126,0.053,0.192,0.156,0.192
		c0.059,0,0.134-0.016,0.224-0.059c0.098-0.042,0.195-0.071,0.286-0.087c0.205-0.038,0.322-0.085,0.352-0.135
		c0.042-0.063,0.065-0.163,0.065-0.302l-0.032-1.053l0.009-0.712l0.009-0.868l-0.009-0.855H182.538L182.538,86.742z M177.999,85.753
		c0.179-0.26,0.289-0.432,0.339-0.503l0.964-1.479c0.431-0.663,0.95-1.367,1.549-2.104v4.086H177.999L177.999,85.753z"/>
</g>
<text transform="matrix(1 0 0 1 73.0586 65)" fill="#010202" font-family="'MyriadPro-Regular'" font-size="12">ttt</text>
</svg>
