<?xml version="1.0" encoding="utf-8"?>
<!-- Generator: Adobe Illustrator 17.0.0, SVG Export Plug-In . SVG Version: 6.00 Build 0)  -->
<!DOCTYPE svg PUBLIC "-//W3C//DTD SVG 1.1//EN" "http://www.w3.org/Graphics/SVG/1.1/DTD/svg11.dtd">
<svg version="1.1" id="Livello_1" xmlns="http://www.w3.org/2000/svg" xmlns:xlink="http://www.w3.org/1999/xlink" x="0px" y="0px"
	 width="118px" height="200px" viewBox="597.5 0 118 200" enable-background="new 597.5 0 118 200" xml:space="preserve">
<g>
	<g id="XMLID_15_">
		<path id="XMLID_16_" fill="#1D1D1C" d="M642.709,106.773c-3.028-9.243-4.622-22.789-4.622-40.637
			c0-17.689,1.753-30.916,5.1-39.841s8.765-13.227,16.096-13.227c8.606,0,14.661,6.534,18.008,19.442
			c2.072,8.127,3.187,20.08,3.187,36.016c0,17.371-1.434,29.801-4.143,37.291c-3.506,9.721-9.88,14.661-18.964,14.661
			C650.677,120.478,645.896,115.857,642.709,106.773 M629.96,172.908c0.797,0.159,1.753,0.319,2.709,0.319
			c3.347,0,5.896-1.275,7.968-3.665s3.028-5.737,3.028-9.721s-1.275-7.171-3.665-9.562c-2.39-2.55-5.418-3.665-9.084-3.665
			c-1.594,0-3.347,0.319-5.1,0.797c-5.418,1.594-8.128,6.374-8.128,14.343c0,7.171,2.55,13.386,7.649,18.645
			c5.896,6.056,14.183,9.243,24.861,9.243c18.964,0,33.944-10.199,44.94-30.598c9.562-17.689,14.343-39.203,14.343-64.542
			c0-25.817-4.462-46.215-13.227-61.195c-8.606-15.139-20.717-22.629-36.175-22.629c-15.139,0-27.251,5.418-36.494,16.255
			S609.72,52.431,609.72,71.236c0,16.414,3.984,29.482,11.793,39.363s17.53,14.821,28.685,14.821c8.765,0,15.458-2.072,20.398-6.375
			c4.143-3.347,7.49-8.924,10.04-16.574c0,20.239-0.478,36.016-1.434,47.331s-3.984,20.398-9.084,27.092
			c-4.94,6.693-11.315,10.199-18.805,10.199c-7.331,0-13.227-1.753-17.53-5.259c-2.231-2.072-4.462-5.259-6.375-9.562
			C628.367,172.43,629.163,172.749,629.96,172.908"/>
	</g>
	<g id="XMLID_12_">
		<path id="XMLID_13_" fill="#1D1D1C" d="M614.661,144.542l-9.562-11.474v11.474h-2.231v-17.53l9.562,11.315v-11.315h2.231
			C614.661,127.012,614.661,144.542,614.661,144.542z"/>
	</g>
	<g id="XMLID_8_">
		<path id="XMLID_9_" fill="#1D1D1C" d="M618.486,133.546c-0.637-0.797-0.956-1.594-0.956-2.709c0-1.116,0.319-1.912,0.956-2.709
			s1.434-1.116,2.39-1.116s1.753,0.319,2.39,1.116s0.956,1.594,0.956,2.709c0,1.116-0.319,1.912-0.956,2.709
			s-1.434,1.116-2.39,1.116S619.123,134.183,618.486,133.546z M619.602,129.402c-0.319,0.319-0.478,0.797-0.478,1.434
			c0,0.478,0.159,0.956,0.478,1.434c0.319,0.319,0.797,0.637,1.275,0.637s0.956-0.159,1.275-0.637
			c0.319-0.319,0.478-0.797,0.478-1.434c0-0.478-0.159-0.956-0.478-1.434c-0.319-0.319-0.797-0.637-1.275-0.637
			C620.398,128.924,619.92,129.084,619.602,129.402z"/>
	</g>
</g>
</svg>
