<?xml version="1.0" encoding="utf-8"?>
<!-- Generator: Adobe Illustrator 19.0.0, SVG Export Plug-In . SVG Version: 6.00 Build 0)  -->
<svg version="1.1" id="Livello_1" xmlns="http://www.w3.org/2000/svg" xmlns:xlink="http://www.w3.org/1999/xlink" x="0px" y="0px"
	 viewBox="0 0 110.2 125.5" style="enable-background:new 0 0 110.2 125.5;" xml:space="preserve">
<style type="text/css">
	.st0{fill:#1D1D1C;}
	.st1{fill:none;stroke:#1D1D1C;stroke-width:0.44;}
</style>
<g id="XMLID_2_">
	<g id="XMLID_15_">
		<path id="XMLID_16_" class="st0" d="M56.8,67c-1.9-5.8-2.9-14.3-2.9-25.5c0-11.1,1.1-19.4,3.2-25c2.1-5.6,5.5-8.3,10.1-8.3
			c5.4,0,9.2,4.1,11.3,12.2c1.3,5.1,2,12.6,2,22.6c0,10.9-0.9,18.7-2.6,23.4c-2.2,6.1-6.2,9.2-11.9,9.2C61.8,75.6,58.8,72.7,56.8,67
			 M48.8,108.5c0.5,0.1,1.1,0.2,1.7,0.2c2.1,0,3.7-0.8,5-2.3c1.3-1.5,1.9-3.6,1.9-6.1c0-2.5-0.8-4.5-2.3-6c-1.5-1.6-3.4-2.3-5.7-2.3
			c-1,0-2.1,0.2-3.2,0.5c-3.4,1-5.1,4-5.1,9c0,4.5,1.6,8.4,4.8,11.7c3.7,3.8,8.9,5.8,15.6,5.8c11.9,0,21.3-6.4,28.2-19.2
			c6-11.1,9-24.6,9-40.5c0-16.2-2.8-29-8.3-38.4C85,11.4,77.4,6.7,67.7,6.7c-9.5,0-17.1,3.4-22.9,10.2c-5.8,6.8-8.7,16-8.7,27.8
			c0,10.3,2.5,18.5,7.4,24.7c4.9,6.2,11,9.3,18,9.3c5.5,0,9.7-1.3,12.8-4c2.6-2.1,4.7-5.6,6.3-10.4c0,12.7-0.3,22.6-0.9,29.7
			c-0.6,7.1-2.5,12.8-5.7,17c-3.1,4.2-7.1,6.4-11.8,6.4c-4.6,0-8.3-1.1-11-3.3c-1.4-1.3-2.8-3.3-4-6
			C47.8,108.2,48.3,108.4,48.8,108.5"/>
	</g>
	<g id="XMLID_12_">
		<path id="XMLID_13_" class="st0" d="M39.2,90.7l-6-7.2v7.2h-1.4v-11l6,7.1v-7.1h1.4V90.7z"/>
	</g>
	<g id="XMLID_8_">
		<path id="XMLID_9_" class="st0" d="M41.6,83.8c-0.4-0.5-0.6-1-0.6-1.7c0-0.7,0.2-1.2,0.6-1.7c0.4-0.5,0.9-0.7,1.5-0.7
			c0.6,0,1.1,0.2,1.5,0.7c0.4,0.5,0.6,1,0.6,1.7c0,0.7-0.2,1.2-0.6,1.7c-0.4,0.5-0.9,0.7-1.5,0.7C42.5,84.5,42,84.2,41.6,83.8z
			 M42.3,81.2c-0.2,0.2-0.3,0.5-0.3,0.9c0,0.3,0.1,0.6,0.3,0.9c0.2,0.2,0.5,0.4,0.8,0.4c0.3,0,0.6-0.1,0.8-0.4
			c0.2-0.2,0.3-0.5,0.3-0.9c0-0.3-0.1-0.6-0.3-0.9c-0.2-0.2-0.5-0.4-0.8-0.4C42.8,80.9,42.5,81,42.3,81.2z"/>
	</g>
	<path id="XMLID_7_" class="st1" d="M20.3,26.5c4.9,0,8.9-4.4,8.9-9.8c0-5.4-4-9.8-8.9-9.8c-4.9,0-8.9,4.4-8.9,9.8
		C11.4,22.1,15.4,26.5,20.3,26.5z"/>
	<path id="XMLID_4_" class="st0" d="M25.4,20.3c0-0.2-0.1-0.4-0.2-0.5c-0.1-0.1-0.3-0.2-0.5-0.2c-0.2,0-0.4,0.1-0.5,0.2
		c-0.1,0.1-0.2,0.3-0.2,0.5c0,0.2,0.1,0.4,0.2,0.5c0.1,0.1,0.3,0.2,0.5,0.2c0.2,0,0.3-0.1,0.5-0.2C25.3,20.7,25.4,20.5,25.4,20.3
		 M25.5,13.5v-1.2h-4.6V21H22v-2.3h1.7v-1.2H22v-4H25.5z"/>
	<polygon id="XMLID_3_" class="st0" points="15.1,13.5 15.1,12.3 19.7,12.3 19.7,21.1 18.6,21.1 18.6,13.5 	"/>
</g>
</svg>
