<?xml version="1.0" encoding="utf-8"?>
<!-- Generator: Adobe Illustrator 17.0.0, SVG Export Plug-In . SVG Version: 6.00 Build 0)  -->
<!DOCTYPE svg PUBLIC "-//W3C//DTD SVG 1.1//EN" "http://www.w3.org/Graphics/SVG/1.1/DTD/svg11.dtd">
<svg version="1.1" id="Livello_1" xmlns="http://www.w3.org/2000/svg" xmlns:xlink="http://www.w3.org/1999/xlink" x="0px" y="0px"
	 width="53px" height="53.667px" viewBox="0 0 53 53.667" enable-background="new 0 0 53 53.667" xml:space="preserve">
<g>
	<path fill="#997D4F" d="M49.099,33.859l2.134-16.83l-15.311-5.81l-4.848,2.315c-0.15,0.741-0.377,1.461-0.673,2.154l3.67-1.753
		l-1.515,16.311l0.085,0.874l-11.183,1.687l-0.918,1.81l12.263-1.849l1.414,14.467l1.646-0.162l-1.423-14.55l0.143-0.022
		l12.821,1.624l0.031-0.251l1.937,16.271l-13.352-3.082l-17.375,3.31L18.5,50.346l1.562-14.841l-0.01-0.09l-0.064-0.556
		l-2.141-4.226l0.302,2.674l-0.382,0.057L5.381,31.445l0.074-0.61L3.557,15.873l8.666,3.659l-0.723-1.426
		c-0.234-0.303-0.446-0.621-0.647-0.945l-9.298-3.927l2.234,17.607l-0.042,0.35l-0.031-0.005L3.461,32.82l0.091,0.013L1.644,48.866
		l17.003,3.188l17.342-3.302l15.305,3.532L49.099,33.859z M34.563,30.832l-0.285,0.042l-0.062-0.622l1.593-17.146l0.188-0.09
		l13.432,5.097l-1.824,14.37L34.563,30.832z M16.87,50.041L3.468,47.528l1.72-14.439l12.576,1.949l0.571-0.086l0.064,0.561
		L16.87,50.041z M20.203,35.282l-0.214-0.423l-0.017-0.156l0.569-0.086L20.203,35.282z M12.785,16.693l7.303,14.412l7.223-14.258
		c1.419-1.654,2.282-3.798,2.282-6.145c0-5.218-4.245-9.462-9.463-9.462c-5.217,0-9.461,4.245-9.461,9.462
		c0,2.272,0.805,4.357,2.144,5.991H12.785z M20.131,4.887c3.206,0,5.816,2.609,5.816,5.816c0,3.206-2.61,5.816-5.816,5.816
		c-3.206,0-5.816-2.61-5.816-5.816C14.315,7.496,16.924,4.887,20.131,4.887z"/>
</g>
</svg>
