<?xml version="1.0" encoding="utf-8"?>
<!-- Generator: Adobe Illustrator 17.0.0, SVG Export Plug-In . SVG Version: 6.00 Build 0)  -->
<!DOCTYPE svg PUBLIC "-//W3C//DTD SVG 1.1//EN" "http://www.w3.org/Graphics/SVG/1.1/DTD/svg11.dtd">
<svg version="1.1" id="Livello_1" xmlns="http://www.w3.org/2000/svg" xmlns:xlink="http://www.w3.org/1999/xlink" x="0px" y="0px"
	 width="34.662px" height="29.291px" viewBox="0 0 34.662 29.291" enable-background="new 0 0 34.662 29.291" xml:space="preserve">
<rect x="-619.996" y="-114.634" display="none" fill="#802F2F" stroke="#000000" stroke-miterlimit="10" width="1255.814" height="188.372"/>
<g>
	<g display="none">
		<path display="inline" fill="#000" d="M82.291,0.054L70.692,29.291l-6.791-17.942L57.11,29.291L45.512,0.054h4.36l7.238,17.835
			l6.791-17.835l6.791,17.835L77.93,0.054H82.291z"/>
		<path display="inline" fill="#000" d="M91.941,25.663H80.11l-1.448,3.628h-4.361L86.008,0l11.724,29.291h-4.343L91.941,25.663z
			 M90.315,21.624l-4.307-10.741l-4.271,10.741H90.315z"/>
		<path display="inline" fill="#000" d="M111.635,4.057h-7.148v25.234h-4.039V4.057h-7.148V0.054h18.336V4.057z"/>
		<path display="inline" fill="#000" d="M131.829,6.702c-0.917-0.858-1.96-1.537-3.128-2.037c-1.346-0.56-2.752-0.84-4.217-0.84
			c-1.465,0-2.872,0.28-4.218,0.84c-1.299,0.56-2.448,1.34-3.449,2.341c-1,1-1.775,2.144-2.323,3.431
			c-0.56,1.358-0.84,2.764-0.84,4.218c0,1.477,0.28,2.889,0.84,4.235c0.548,1.299,1.323,2.442,2.323,3.431
			c1.001,1.013,2.151,1.793,3.449,2.341c1.346,0.561,2.753,0.84,4.218,0.84c1.465,0,2.871-0.279,4.217-0.84
			c1.155-0.5,2.198-1.173,3.128-2.019l2.681,2.68c-1.287,1.192-2.734,2.133-4.342,2.824c-1.811,0.762-3.706,1.144-5.683,1.144
			c-1.978,0-3.878-0.381-5.701-1.144c-1.74-0.739-3.288-1.781-4.647-3.128c-1.347-1.358-2.389-2.913-3.128-4.664
			c-0.763-1.811-1.144-3.711-1.144-5.701c0-1.978,0.381-3.872,1.144-5.683c0.739-1.752,1.781-3.3,3.128-4.647
			c1.358-1.346,2.906-2.388,4.647-3.128c1.823-0.762,3.723-1.144,5.701-1.144c1.977,0,3.872,0.381,5.683,1.144
			c1.62,0.679,3.067,1.62,4.342,2.824L131.829,6.702z"/>
		<path display="inline" fill="#000" d="M156.277,0.054v29.237h-3.968v-7.667h-11.67v7.667h-3.985V0.054h3.985v17.567h11.67
			V0.054H156.277z"/>
		<path display="inline" fill="#000" d="M162.425,4.039v13.582h9.954v4.003h-9.954v3.663h12.903v4.003h-16.906V0.054h16.906
			v3.985H162.425z"/>
		<path display="inline" fill="#000" d="M180.546,27.182c-1.847-1.56-2.77-3.646-2.77-6.255h3.95
			c0,1.489,0.572,2.639,1.715,3.449c0.929,0.644,1.972,0.965,3.128,0.965c1.441,0,2.66-0.363,3.655-1.09
			c0.995-0.727,1.492-1.775,1.492-3.145c0-0.905-0.304-1.615-0.911-2.127c-0.834-0.87-2.324-1.424-4.468-1.662
			c-3.002-0.357-5.296-1.406-6.88-3.145c-1.323-1.441-1.984-3.116-1.984-5.022c0-2.228,0.667-4.206,2.001-5.933
			c1.656-2.109,3.967-3.163,6.934-3.163c2.728,0,4.974,0.882,6.737,2.645c1.775,1.763,2.663,4.128,2.663,7.094h-3.932
			c0-1.691-0.405-3.032-1.215-4.021c-0.977-1.191-2.394-1.787-4.253-1.787c-2.061,0-3.509,0.852-4.343,2.556
			c-0.429,0.882-0.644,1.752-0.644,2.609c0,0.751,0.256,1.46,0.768,2.127c0.894,1.168,2.431,1.871,4.611,2.109
			c3.312,0.381,5.701,1.46,7.167,3.235c1.131,1.346,1.698,3.044,1.698,5.093c0,2.085-0.858,3.869-2.573,5.352
			c-1.716,1.483-3.89,2.225-6.523,2.225C184.257,29.291,182.25,28.588,180.546,27.182z"/>
	</g>
	<g>
		<path fill="#000" d="M34.218,26.54c0-0.686-0.222-1.265-0.658-1.738c-0.436-0.484-0.959-0.729-1.57-0.729
			c-0.634,0-1.165,0.246-1.601,0.729c-0.444,0.474-0.674,1.052-0.674,1.738c0,0.674,0.23,1.253,0.674,1.738
			c0.436,0.484,0.967,0.723,1.601,0.723c0.611,0,1.134-0.239,1.57-0.723C33.996,27.793,34.218,27.214,34.218,26.54 M34.662,3.954V0
			H19.218v29.001h3.623v-7.603h5.669v-3.972h-5.669V3.954H34.662z"/>
		<polygon fill="#000" points="0,3.994 0,0 15.476,0 15.476,29.291 11.805,29.291 11.805,3.994 		"/>
	</g>
</g>
</svg>
